<?xml version="1.0" encoding="UTF-8"?>
<!DOCTYPE svg PUBLIC "-//W3C//DTD SVG 1.1//EN" "http://www.w3.org/Graphics/SVG/1.1/DTD/svg11.dtd">
<svg xmlns="http://www.w3.org/2000/svg" version="1.1" width="591px" height="591px" style="shape-rendering:geometricPrecision; text-rendering:geometricPrecision; image-rendering:optimizeQuality; fill-rule:evenodd; clip-rule:evenodd" xmlns:xlink="http://www.w3.org/1999/xlink">
<g><path style="opacity:1" fill="#000000" d="M 287.5,49.5 C 290.5,49.5 293.5,49.5 296.5,49.5C 296.5,59.5 296.5,69.5 296.5,79.5C 293.5,79.5 290.5,79.5 287.5,79.5C 287.5,69.5 287.5,59.5 287.5,49.5 Z"/></g>
<g><path style="opacity:1" fill="#000000" d="M 283.5,81.5 C 285.285,86.0675 286.118,91.0675 286,96.5C 286.826,134.166 287.159,171.833 287,209.5C 280.991,199.567 272.158,193.734 260.5,192C 253.167,191.333 245.833,191.333 238.5,192C 233.518,193.168 228.518,193.835 223.5,194C 206.513,170.497 190.18,146.664 174.5,122.5C 213.115,114.522 249.449,100.856 283.5,81.5 Z"/></g>
<g><path style="opacity:1" fill="#000000" d="M 298.5,84.5 C 336.734,100.078 375.734,113.578 415.5,125C 378.91,127.808 346.577,140.808 318.5,164C 311.41,171.033 304.91,178.533 299,186.5C 298.5,152.502 298.333,118.502 298.5,84.5 Z"/></g>
<g><path style="opacity:1" fill="#000000" d="M 149.5,96.5 C 150.552,96.3505 151.552,96.5172 152.5,97C 159.167,104.333 165.833,111.667 172.5,119C 170.5,120.667 168.5,122.333 166.5,124C 165.833,124.667 165.167,124.667 164.5,124C 157.885,117.262 151.385,110.429 145,103.5C 144.333,102.833 144.333,102.167 145,101.5C 146.707,99.9625 148.207,98.2959 149.5,96.5 Z"/></g>
<g><path style="opacity:1" fill="#000000" d="M 431.5,96.5 C 432.552,96.3505 433.552,96.5172 434.5,97C 436.466,98.46 438.132,100.127 439.5,102C 434.043,110.294 428.376,118.461 422.5,126.5C 419.659,124.914 416.993,123.08 414.5,121C 420.546,113.066 426.213,104.899 431.5,96.5 Z"/></g>
<g><path style="opacity:1" fill="#000000" d="M 252.5,253.5 C 258.155,265.478 263.822,277.478 269.5,289.5C 269.167,289.833 268.833,290.167 268.5,290.5C 222.808,270.57 177.308,250.237 132,229.5C 130.005,218.54 128.671,207.54 128,196.5C 141.08,172.671 154.413,149.005 168,125.5C 185.667,148.5 203.333,171.5 221,194.5C 221.667,195.5 221.667,196.5 221,197.5C 205.9,209.817 202.566,224.817 211,242.5C 221.717,256.639 234.883,259.639 250.5,251.5C 251.182,252.243 251.849,252.909 252.5,253.5 Z"/></g>
<g><path style="opacity:1" fill="#000000" d="M 413.5,139.5 C 445.039,136.337 466.539,149.337 478,178.5C 479.213,181.768 479.546,185.101 479,188.5C 477.847,179.025 473.68,171.192 466.5,165C 459.663,160.582 452.33,157.248 444.5,155C 440.833,151.333 437.167,147.667 433.5,144C 426.5,143 419.5,142 412.5,141C 413.056,140.617 413.389,140.117 413.5,139.5 Z"/></g>
<g><path style="opacity:1" fill="#000000" d="M 389.5,147.5 C 395.367,146.737 396.533,148.403 393,152.5C 364.333,191.833 335.667,231.167 307,270.5C 298.58,239.357 303.246,210.357 321,183.5C 339.465,163.184 362.299,151.184 389.5,147.5 Z"/></g>
<g><path style="opacity:1" fill="#000000" d="M 403.5,147.5 C 414.862,147.907 426.195,148.74 437.5,150C 455,170.833 472.5,191.667 490,212.5C 491.289,214.055 491.956,215.721 492,217.5C 465.575,229.962 439.075,242.295 412.5,254.5C 400.67,232.389 383.67,226.889 361.5,238C 351.037,246.893 347.37,257.893 350.5,271C 336.863,274.495 323.197,277.495 309.5,280C 341.078,235.936 372.411,191.769 403.5,147.5 Z"/></g>
<g><path style="opacity:1" fill="#000000" d="M 119.5,203.5 C 120.931,203.881 121.764,204.881 122,206.5C 122.936,213.887 124.103,221.221 125.5,228.5C 124.833,228.833 124.167,229.167 123.5,229.5C 116.251,227.75 109.251,225.417 102.5,222.5C 108.56,216.445 114.226,210.111 119.5,203.5 Z"/></g>
<g><path style="opacity:1" fill="#000000" d="M 252.5,253.5 C 256.119,238.939 251.952,227.273 240,218.5C 238.588,214.272 237.754,209.939 237.5,205.5C 257.467,205.388 270.633,214.722 277,233.5C 280.203,252.029 278.369,270.029 271.5,287.5C 265.155,276.139 258.821,264.806 252.5,253.5 Z"/></g>
<g><path style="opacity:1" fill="#000000" d="M 230.5,209.5 C 231.586,209.62 232.253,210.287 232.5,211.5C 235.932,217.065 235.098,221.732 230,225.5C 227.396,230.322 225.396,235.322 224,240.5C 219.672,228.811 221.839,218.478 230.5,209.5 Z"/></g>
<g><path style="opacity:1" fill="#000000" d="M 519.5,213.5 C 520.822,213.33 521.989,213.663 523,214.5C 523.695,216.722 524.528,218.889 525.5,221C 517.161,225.5 508.495,229.5 499.5,233C 498.365,233.749 497.365,233.583 496.5,232.5C 495.695,230.085 494.695,227.751 493.5,225.5C 502.227,221.468 510.893,217.468 519.5,213.5 Z"/></g>
<g><path style="opacity:1" fill="#000000" d="M 64.5,215.5 C 74.698,218.51 84.698,222.01 94.5,226C 93.3377,228.816 92.1711,231.65 91,234.5C 81.6007,231.2 72.1007,228.2 62.5,225.5C 62.9595,222.123 63.6261,218.789 64.5,215.5 Z"/></g>
<g><path style="opacity:1" fill="#000000" d="M 97.5,235.5 C 105.044,237.102 112.044,240.102 118.5,244.5C 127.504,265.324 140.504,283.157 157.5,298C 168.094,306.462 180.094,311.962 193.5,314.5C 160.17,330.099 126.503,344.599 92.5,358C 89.9598,355.795 87.7932,353.295 86,350.5C 85.7911,314.82 86.4578,279.154 88,243.5C 91.5158,241.172 94.6824,238.505 97.5,235.5 Z"/></g>
<g><path style="opacity:1" fill="#000000" d="M 488.5,235.5 C 489.833,235.5 491.167,235.5 492.5,235.5C 492.667,277.501 492.5,319.501 492,361.5C 460.553,342.856 428.386,325.356 395.5,309C 400.909,304.712 404.742,299.212 407,292.5C 410.608,282.46 412.941,272.126 414,261.5C 414.5,261 415,260.5 415.5,260C 440.001,251.967 464.334,243.801 488.5,235.5 Z"/></g>
<g><path style="opacity:1" fill="#000000" d="M 137.5,240.5 C 178.897,258.301 220.23,276.301 261.5,294.5C 236.158,307.223 210.158,308.723 183.5,299C 159.816,286.141 144.483,266.641 137.5,240.5 Z"/></g>
<g><path style="opacity:1" fill="#000000" d="M 368.5,247.5 C 378.462,244.984 386.962,247.651 394,255.5C 395.559,257.217 396.392,259.217 396.5,261.5C 392.445,261.824 388.445,261.491 384.5,260.5C 380.961,253.961 375.628,249.628 368.5,247.5 Z"/></g>
<g><path style="opacity:1" fill="#000000" d="M 386.5,266.5 C 390.833,266.5 395.167,266.5 399.5,266.5C 393.581,291.974 377.581,302.807 351.5,299C 337.449,296.138 324.449,290.805 312.5,283C 324.94,278.889 337.606,275.389 350.5,272.5C 359.808,276.111 369.141,276.278 378.5,273C 381.42,271.054 384.087,268.887 386.5,266.5 Z"/></g>
<g><path style="opacity:1" fill="#000000" d="M 220.5,318.5 C 237.117,317.481 251.45,322.648 263.5,334C 255,343.167 246.5,352.333 238,361.5C 232.455,346.973 222.622,342.806 208.5,349C 202.451,354.395 200.951,360.895 204,368.5C 206.336,372.187 208.336,375.853 210,379.5C 190.523,369.396 185.189,354.396 194,334.5C 201.265,326.367 210.099,321.034 220.5,318.5 Z"/></g>
<g><path style="opacity:1" fill="#000000" d="M 354.5,322.5 C 378.664,321.388 399.997,328.554 418.5,344C 429.665,353.176 438.831,364.009 446,376.5C 451.593,391.029 451.926,405.695 447,420.5C 440.458,436.541 430.624,450.208 417.5,461.5C 402.454,442.615 387.954,423.281 374,403.5C 374.951,385.485 366.951,373.819 350,368.5C 341.341,357.183 333.174,345.516 325.5,333.5C 329.072,330.686 333.072,328.519 337.5,327C 343.253,325.314 348.919,323.814 354.5,322.5 Z"/></g>
<g><path style="opacity:1" fill="#000000" d="M 321.5,340.5 C 323.074,340.937 324.241,341.937 325,343.5C 330.167,353.167 335.333,362.833 340.5,372.5C 325.405,375.75 322.405,383.75 331.5,396.5C 334.588,399.861 338.422,401.195 343,400.5C 350.162,400.168 356.995,398.501 363.5,395.5C 363.833,395.833 364.167,396.167 364.5,396.5C 361.074,402.095 357.074,407.262 352.5,412C 347.256,415.574 341.422,417.407 335,417.5C 309.665,418.944 296.165,407.111 294.5,382C 296.499,363.521 305.499,349.687 321.5,340.5 Z"/></g>
<g><path style="opacity:1" fill="#000000" d="M 171.5,341.5 C 172.873,341.343 174.207,341.51 175.5,342C 169.199,359.43 173.865,373.096 189.5,383C 197.982,387.717 206.982,391.05 216.5,393C 198.696,416.771 180.53,440.271 162,463.5C 149.783,439.291 134.45,417.291 116,397.5C 107.959,389.291 99.7923,381.291 91.5,373.5C 118.225,362.798 144.892,352.131 171.5,341.5 Z"/></g>
<g><path style="opacity:1" fill="#000000" d="M 267.5,341.5 C 268.496,341.414 269.329,341.748 270,342.5C 276.837,368.782 277.171,395.116 271,421.5C 260.902,447.919 241.736,462.752 213.5,466C 207.667,466.167 201.833,466.333 196,466.5C 187.74,466.699 179.574,466.032 171.5,464.5C 203.759,423.621 235.759,382.621 267.5,341.5 Z"/></g>
<g><path style="opacity:1" fill="#000000" d="M 452.5,353.5 C 466.242,358.407 479.575,364.074 492.5,370.5C 485.208,377.291 478.041,384.291 471,391.5C 470.737,386.995 469.737,382.661 468,378.5C 463.312,369.775 458.146,361.442 452.5,353.5 Z"/></g>
<g><path style="opacity:1" fill="#000000" d="M 501.5,358.5 C 512.039,360.734 522.039,364.234 531.5,369C 530.521,371.433 529.855,373.933 529.5,376.5C 519.15,374.161 509.15,370.828 499.5,366.5C 500.482,363.904 501.149,361.238 501.5,358.5 Z"/></g>
<g><path style="opacity:1" fill="#000000" d="M 84.5,362.5 C 86.4109,362.574 87.5776,363.574 88,365.5C 89.2053,367.534 89.372,369.534 88.5,371.5C 79.8333,375.167 71.1667,378.833 62.5,382.5C 59.4514,380.092 58.4514,377.092 59.5,373.5C 68.0176,370.004 76.351,366.337 84.5,362.5 Z"/></g>
<g><path style="opacity:1" fill="#000000" d="M 464.5,397.5 C 465.117,397.611 465.617,397.944 466,398.5C 471.419,414.433 471.752,430.433 467,446.5C 460.983,458.198 451.483,464.698 438.5,466C 457.829,454.178 463.496,437.678 455.5,416.5C 461.374,411.55 464.374,405.217 464.5,397.5 Z"/></g>
<g><path style="opacity:1" fill="#000000" d="M 370.5,411.5 C 371.496,411.414 372.329,411.748 373,412.5C 385.419,431.672 398.085,450.672 411,469.5C 411.483,470.448 411.649,471.448 411.5,472.5C 379.923,479.081 349.257,488.581 319.5,501C 313.51,503.66 307.844,506.826 302.5,510.5C 301.749,509.624 301.249,508.624 301,507.5C 299.095,476.923 296.928,446.423 294.5,416C 295.5,415.333 296.5,415.333 297.5,416C 315.415,427.043 334.415,429.71 354.5,424C 360.809,421.02 366.142,416.854 370.5,411.5 Z"/></g>
<g><path style="opacity:1" fill="#000000" d="M 284.5,436.5 C 285.832,447.981 286.499,459.814 286.5,472C 286.167,483.833 285.833,495.667 285.5,507.5C 266.066,497.139 245.4,490.472 223.5,487.5C 244.049,470.73 264.383,453.73 284.5,436.5 Z"/></g>
<g><path style="opacity:1" fill="#000000" d="M 163.5,465.5 C 165.546,467.279 167.713,468.946 170,470.5C 170.667,471.5 170.667,472.5 170,473.5C 164.333,481.167 158.667,488.833 153,496.5C 150.5,494.667 148,492.833 145.5,491C 151.331,482.343 157.331,473.843 163.5,465.5 Z"/></g>
<g><path style="opacity:1" fill="#000000" d="M 419.5,466.5 C 426.753,472.921 433.586,479.921 440,487.5C 439.912,490.642 438.412,493.142 435.5,495C 434.833,495.667 434.167,495.667 433.5,495C 426.833,487.667 420.167,480.333 413.5,473C 415.706,470.963 417.706,468.797 419.5,466.5 Z"/></g>
<g><path style="opacity:1" fill="#000000" d="M 287.5,509.5 C 290.5,509.5 293.5,509.5 296.5,509.5C 296.5,519.833 296.5,530.167 296.5,540.5C 293.5,540.5 290.5,540.5 287.5,540.5C 287.5,530.167 287.5,519.833 287.5,509.5 Z"/></g>
</svg>
