<?xml version="1.0" encoding="UTF-8"?>
<!DOCTYPE svg PUBLIC "-//W3C//DTD SVG 1.1//EN" "http://www.w3.org/Graphics/SVG/1.1/DTD/svg11.dtd">
<svg xmlns="http://www.w3.org/2000/svg" version="1.1" width="591px" height="591px" style="shape-rendering:geometricPrecision; text-rendering:geometricPrecision; image-rendering:optimizeQuality; fill-rule:evenodd; clip-rule:evenodd" xmlns:xlink="http://www.w3.org/1999/xlink">
<g><path style="opacity:1" fill="#000000" d="M 479.5,29.5 C 485.509,29.3338 491.509,29.5005 497.5,30C 499.158,30.7253 499.658,31.892 499,33.5C 487.068,37.9261 475.235,42.7595 463.5,48C 454.146,53.6843 447.312,61.5176 443,71.5C 438.185,83.0558 436.185,95.0558 437,107.5C 442.195,123.358 453.028,132.858 469.5,136C 480.197,137.727 490.864,139.561 501.5,141.5C 501.5,142.833 501.5,144.167 501.5,145.5C 482.041,147.042 464.041,152.876 447.5,163C 437.533,172.568 434.699,184.068 439,197.5C 442.278,207.764 447.611,216.764 455,224.5C 455.49,225.793 455.657,227.127 455.5,228.5C 448.722,226.852 442.056,224.686 435.5,222C 427.085,218.86 418.752,218.86 410.5,222C 402.836,227.834 400.336,235.334 403,244.5C 416.883,263.814 423.717,285.314 423.5,309C 422.833,309.667 422.167,309.667 421.5,309C 411.959,295.39 399.292,285.89 383.5,280.5C 377.907,282.545 372.74,285.212 368,288.5C 367.333,291.167 367.333,293.833 368,296.5C 370.393,301.678 372.393,307.012 374,312.5C 374.781,313.944 374.614,315.277 373.5,316.5C 367.361,311.204 361.028,306.038 354.5,301C 350.989,298.495 347.156,296.661 343,295.5C 340.786,295.911 339.453,297.245 339,299.5C 337.523,303.43 336.356,307.43 335.5,311.5C 331.818,312.275 329.318,310.941 328,307.5C 324.771,292.522 328.104,279.189 338,267.5C 349.721,257.113 360.721,246.113 371,234.5C 381.059,217.884 383.726,200.217 379,181.5C 370.811,164.14 356.978,155.474 337.5,155.5C 317.942,156.447 305.275,166.28 299.5,185C 291.568,214.721 302.902,229.721 333.5,230C 352.516,223.791 360.016,210.958 356,191.5C 351.452,183.982 345.285,182.149 337.5,186C 334.38,188.408 333.047,191.574 333.5,195.5C 340.417,195.579 344.417,199.079 345.5,206C 341.44,217.584 333.773,220.584 322.5,215C 315.96,210.786 312.293,204.786 311.5,197C 313.455,172.857 326.455,162.191 350.5,165C 360.894,167.726 367.727,174.226 371,184.5C 375.435,201.55 372.435,217.216 362,231.5C 360,234.167 358,236.833 356,239.5C 342.333,252.5 328.667,265.5 315,278.5C 302.319,298.608 306.819,313.441 328.5,323C 337.585,323.815 346.585,325.148 355.5,327C 367.685,332.527 373.352,342.027 372.5,355.5C 371.27,373.357 366.104,390.024 357,405.5C 341.062,434.104 318.562,455.938 289.5,471C 277.808,476.893 265.974,482.393 254,487.5C 242.719,482.312 230.886,480.478 218.5,482C 210.438,484.865 202.771,488.531 195.5,493C 190.722,496.966 190.222,501.466 194,506.5C 196.657,509.147 198.823,512.147 200.5,515.5C 199.5,515.833 198.5,516.167 197.5,516.5C 182.631,511.117 176.131,500.451 178,484.5C 180.602,477.887 184.768,472.387 190.5,468C 203.316,457.767 217.982,452.267 234.5,451.5C 217.01,438.555 199.343,438.388 181.5,451C 167.374,466.042 161.208,483.876 163,504.5C 167.953,523.774 180.453,533.941 200.5,535C 208.845,537.334 213.845,534.334 215.5,526C 214.054,518.1 209.72,512.433 202.5,509C 201.065,506.733 201.398,504.733 203.5,503C 221.919,500.419 231.586,508.419 232.5,527C 232.6,533.774 230.766,539.941 227,545.5C 216.098,557.248 202.598,562.081 186.5,560C 147.58,551.081 122.08,527.581 110,489.5C 106.401,474.064 109.734,460.397 120,448.5C 123.867,444.298 128.033,440.465 132.5,437C 119.5,436.667 106.5,436.333 93.5,436C 91,434.833 89.1667,433 88,430.5C 87.3333,339.167 87.3333,247.833 88,156.5C 88.8066,153.027 90.9732,150.86 94.5,150C 124.167,149.667 153.833,149.333 183.5,149C 166.841,141.848 160.674,129.348 165,111.5C 168.994,99.0594 177.494,91.5594 190.5,89C 212.928,84.921 223.428,94.0877 222,116.5C 218.507,124.346 212.34,128.346 203.5,128.5C 201.929,127.691 200.262,127.357 198.5,127.5C 200.609,122.774 202.609,117.94 204.5,113C 203.056,108.519 199.889,106.685 195,107.5C 182.832,109.305 179.832,115.638 186,126.5C 189.639,130.734 194.139,133.568 199.5,135C 217.168,137.25 233.168,133.25 247.5,123C 249.452,120.926 251.285,118.759 253,116.5C 255.716,104.348 260.383,93.0151 267,82.5C 275.433,74.9641 285.266,72.4641 296.5,75C 313.487,79.4085 325.653,89.5752 333,105.5C 334.586,115.637 331.753,117.47 324.5,111C 321.387,109.221 318.054,108.055 314.5,107.5C 294.377,111.455 281.877,123.455 277,143.5C 275.691,145.686 275.524,147.853 276.5,150C 278.329,150.273 279.829,151.107 281,152.5C 302.865,123.588 330.365,116.755 363.5,132C 371.531,132.483 376.198,128.65 377.5,120.5C 375.676,107.492 368.342,101.326 355.5,102C 350.476,103.863 345.809,106.363 341.5,109.5C 340.914,109.291 340.414,108.957 340,108.5C 338.98,101.225 340.98,94.8914 346,89.5C 358.988,75.8364 373.155,63.6697 388.5,53C 392.888,50.1394 397.554,47.8061 402.5,46C 428.068,39.3883 453.735,33.8883 479.5,29.5 Z M 102.5,165.5 C 116.504,165.333 130.504,165.5 144.5,166C 130.667,187.167 116.833,208.333 103,229.5C 102.5,208.169 102.333,186.836 102.5,165.5 Z M 146.5,166.5 C 172.997,165.336 199.664,165.17 226.5,166C 212.706,187.757 198.539,209.257 184,230.5C 171.726,208.939 159.226,187.606 146.5,166.5 Z M 228.5,166.5 C 241.656,165.504 254.99,165.171 268.5,165.5C 268.5,250.833 268.5,336.167 268.5,421.5C 255.496,421.667 242.496,421.5 229.5,421C 242.167,400.667 254.833,380.333 267.5,360C 254.248,338.165 241.248,316.165 228.5,294C 241.75,273.502 254.75,252.835 267.5,232C 254.852,209.855 241.852,188.022 228.5,166.5 Z M 183.5,233.5 C 197.972,253.755 211.972,274.422 225.5,295.5C 212.164,316.843 198.33,337.843 184,358.5C 171.626,336.918 159.126,315.418 146.5,294C 159.232,274.028 171.565,253.861 183.5,233.5 Z M 102.5,234.5 C 116.391,254.595 130.058,274.929 143.5,295.5C 129.803,316.032 116.303,336.698 103,357.5C 102.5,316.501 102.333,275.501 102.5,234.5 Z M 261.5,440.5 C 281.411,445.73 297.911,440.397 311,424.5C 317.802,412.72 318.136,400.72 312,388.5C 305.718,380.684 297.884,378.018 288.5,380.5C 287.369,382.074 287.202,383.741 288,385.5C 291.604,388.285 294.938,391.285 298,394.5C 299.605,405.911 294.938,413.578 284,417.5C 283.333,398.5 283.333,379.5 284,360.5C 285.938,363.106 288.438,364.939 291.5,366C 298.708,367.36 305.708,369.36 312.5,372C 318.541,377.449 321.041,384.282 320,392.5C 321.984,395.483 324.317,398.15 327,400.5C 330.928,396.318 333.595,391.318 335,385.5C 338.435,373.931 335.601,364.431 326.5,357C 308.292,353.985 294.125,344.818 284,329.5C 283.333,323.833 283.333,318.167 284,312.5C 296.604,336.225 316.438,347.058 343.5,345C 346.383,346.589 347.883,349.089 348,352.5C 350.006,395.329 332.173,426.829 294.5,447C 285.469,450.091 276.469,450.091 267.5,447C 264.591,445.594 262.591,443.428 261.5,440.5 Z M 183.5,361.5 C 197.058,380.928 210.391,400.595 223.5,420.5C 198.167,421.833 172.833,421.833 147.5,420.5C 159.773,400.944 171.773,381.278 183.5,361.5 Z M 102.5,362.5 C 115.601,381.849 128.601,401.349 141.5,421C 128.504,421.5 115.504,421.667 102.5,421.5C 102.5,401.833 102.5,382.167 102.5,362.5 Z"/></g>
<g><path style="opacity:1" fill="#000000" d="M 438.5,352.5 C 440.144,352.286 441.644,352.62 443,353.5C 443.509,372.446 440.342,390.779 433.5,408.5C 413.511,409.5 393.511,409.833 373.5,409.5C 376.417,398.571 379.25,387.571 382,376.5C 382.5,376 383,375.5 383.5,375C 401.974,367.572 420.307,360.072 438.5,352.5 Z"/></g>
<g><path style="opacity:1" fill="#000000" d="M 366.5,423.5 C 385.526,423.829 404.526,424.662 423.5,426C 424.022,426.561 424.355,427.228 424.5,428C 415.155,445.344 402.322,459.51 386,470.5C 372.747,464.373 359.747,457.706 347,450.5C 346.333,449.5 346.333,448.5 347,447.5C 354.501,440.181 361.001,432.181 366.5,423.5 Z"/></g>
<g><path style="opacity:1" fill="#000000" d="M 331.5,462.5 C 333.655,462.372 335.655,462.872 337.5,464C 347.586,469.791 357.419,475.958 367,482.5C 367.667,483.5 367.667,484.5 367,485.5C 351.912,495.569 336.079,504.402 319.5,512C 317.553,512.991 315.553,513.325 313.5,513C 306.333,506.5 299.167,500 292,493.5C 291.333,492.167 291.333,490.833 292,489.5C 305.84,481.342 319.007,472.342 331.5,462.5 Z"/></g>
</svg>
