<?xml version="1.0" standalone="no"?>
<!DOCTYPE svg PUBLIC "-//W3C//DTD SVG 20010904//EN"
 "http://www.w3.org/TR/2001/REC-SVG-20010904/DTD/svg10.dtd">
<svg version="1.0" xmlns="http://www.w3.org/2000/svg"
 width="591.000000pt" height="591.000000pt" viewBox="0 0 591.000000 591.000000"
 preserveAspectRatio="xMidYMid meet">

<g transform="translate(0.000000,591.000000) scale(0.100000,-0.100000)"
fill="#000000" stroke="none">
<path d="M1483 5370 c8 -19 103 -218 210 -442 108 -224 205 -435 215 -470 35
-114 38 -240 6 -322 -6 -17 -3 -18 45 -11 77 10 134 -8 176 -58 19 -22 35 -48
35 -56 0 -10 -24 -27 -58 -43 -71 -33 -128 -87 -154 -146 -11 -24 -18 -46 -15
-48 10 -10 58 9 67 26 19 35 141 55 168 28 7 -7 12 -31 12 -53 0 -32 -8 -52
-32 -85 -68 -89 -78 -111 -78 -181 0 -52 5 -73 23 -100 61 -91 203 -91 264 0
13 19 23 44 23 57 0 22 -1 22 -45 8 -90 -27 -148 11 -125 81 28 85 113 134
193 111 85 -24 107 -104 63 -232 -23 -67 -42 -184 -30 -184 3 0 34 20 68 45
35 25 70 45 78 45 8 0 46 -30 86 -68 l72 -67 0 -71 c0 -39 3 -92 6 -116 l6
-46 60 -6 c33 -4 68 -10 78 -14 10 -4 57 -51 103 -104 l83 -97 -13 -78 c-22
-118 -12 -255 23 -333 51 -114 148 -167 289 -158 126 8 240 80 299 187 27 51
56 161 56 216 -1 26 -5 21 -32 -35 -46 -95 -144 -190 -222 -214 -102 -32 -195
-7 -244 65 -20 29 -23 44 -20 96 2 34 7 66 12 70 4 4 23 -10 41 -32 19 -22 34
-37 35 -34 0 3 -45 109 -101 235 -153 349 -141 308 -116 394 12 42 17 75 12
77 -6 2 -51 26 -102 53 l-91 50 -33 97 -32 97 24 19 c13 10 45 30 71 43 25 13
49 28 52 33 9 14 -80 41 -174 52 -95 11 -134 30 -167 79 -28 40 -28 62 -4 117
23 51 51 70 124 85 48 10 58 9 81 -5 42 -28 31 -102 -23 -151 -32 -29 -26 -36
29 -36 84 0 139 42 160 121 15 53 -1 107 -42 146 -65 60 -124 73 -232 47 -71
-16 -74 -16 -112 2 -25 12 -40 27 -42 41 -5 33 35 103 70 121 17 9 42 27 57
39 l26 21 -28 7 c-62 16 -170 -23 -237 -85 -18 -17 -39 -29 -46 -26 -22 8 -56
87 -56 128 1 23 13 61 31 95 17 31 30 57 28 58 -1 0 -24 6 -52 13 -73 19 -162
63 -222 110 -30 24 -180 199 -359 419 -351 433 -341 421 -321 373z"/>
<path d="M3080 4583 c-14 -2 -55 -8 -92 -14 l-67 -11 76 -91 c42 -51 94 -119
115 -151 l38 -60 119 -2 c125 -3 269 -23 376 -54 l65 -19 45 68 c49 73 121
153 174 193 l35 26 -100 31 c-218 67 -377 91 -599 89 -88 0 -171 -2 -185 -5z"/>
<path d="M4117 4268 c-51 -73 -158 -224 -236 -336 l-143 -203 26 -60 c29 -68
33 -123 11 -175 -20 -49 -140 -179 -202 -220 l-51 -35 -7 -72 c-13 -146 -15
-148 -145 -167 -129 -18 -126 -16 -92 -55 63 -71 122 -242 122 -352 0 -29 2
-53 5 -53 3 0 48 29 100 65 106 72 188 116 253 135 23 7 42 15 42 17 0 2 -21
39 -46 83 -56 97 -55 107 25 192 l58 63 -9 70 c-11 77 4 247 26 300 21 49 63
82 132 105 35 12 64 23 64 26 0 3 156 754 164 787 2 9 3 17 1 17 -2 0 -46 -60
-98 -132z"/>
<path d="M4440 3996 l0 -155 53 -48 c249 -226 438 -509 525 -783 31 -97 62
-233 62 -270 0 -13 7 -20 20 -20 19 0 20 7 20 169 0 183 -12 268 -55 397 -40
120 -177 387 -252 494 -75 105 -251 288 -325 339 l-48 32 0 -155z"/>
<path d="M1602 3926 c-168 -142 -278 -294 -331 -461 -33 -101 -55 -242 -46
-285 13 -61 125 -128 248 -151 56 -10 72 -10 118 5 58 19 135 64 164 96 18 20
17 20 -14 20 -90 0 -138 59 -128 157 3 29 8 57 12 63 3 5 32 10 63 10 63 1
123 19 153 46 19 17 19 18 -31 42 -34 16 -60 38 -78 65 -27 40 -27 42 -32 256
l-5 215 -93 -78z"/>
<path d="M4430 2880 c-24 -99 -49 -180 -55 -180 -5 0 -46 23 -90 50 -44 26
-81 47 -83 46 -1 -2 21 -42 49 -90 29 -48 50 -88 48 -90 -2 -2 -84 -23 -181
-47 -98 -24 -178 -47 -178 -51 0 -8 56 -25 230 -68 69 -17 126 -33 128 -35 2
-2 -19 -42 -47 -88 -28 -47 -51 -87 -51 -91 0 -3 41 19 90 49 60 37 92 51 95
42 2 -6 23 -86 45 -177 23 -91 45 -169 49 -173 5 -5 28 70 51 165 24 95 46
178 49 185 4 8 33 -5 89 -39 46 -28 85 -48 87 -46 2 2 -18 41 -46 87 -27 46
-48 85 -47 87 2 1 82 22 178 46 95 24 175 48 177 54 2 5 -77 29 -174 53 -98
24 -180 45 -182 47 -1 1 20 41 48 87 28 47 51 87 51 90 0 4 -38 -17 -85 -45
-49 -29 -89 -47 -94 -42 -5 5 -27 87 -51 182 -23 94 -45 172 -49 172 -4 0 -27
-81 -51 -180z"/>
<path d="M1159 2951 c-31 -74 -143 -120 -291 -122 -43 -1 -78 -4 -78 -7 1 -13
139 -91 182 -102 91 -25 135 -69 147 -148 6 -45 7 -46 56 -59 118 -31 280 -55
410 -60 l139 -6 -43 41 c-41 39 -43 44 -39 86 7 58 39 123 105 210 39 52 53
80 53 103 0 18 -2 33 -5 33 -3 0 -34 -15 -69 -34 -82 -43 -159 -59 -261 -54
-94 5 -115 15 -212 97 -39 34 -73 61 -75 61 -2 0 -10 -18 -19 -39z"/>
<path d="M1166 2332 c-10 -16 13 -186 33 -245 41 -118 120 -223 208 -277 l32
-19 56 34 c66 39 129 55 223 55 37 0 97 3 134 7 l68 6 -35 38 c-40 45 -79 118
-111 209 l-23 65 -93 11 c-113 15 -363 78 -474 121 -6 2 -14 0 -18 -5z"/>
<path d="M4955 1953 c-158 -447 -587 -849 -1135 -1066 -106 -42 -130 -48 -302
-68 l-187 -22 -167 22 c-92 12 -177 27 -188 33 -12 6 -59 37 -106 69 -47 32
-98 62 -113 68 -43 17 -119 13 -189 -9 -223 -69 -413 -40 -522 81 -76 84 -92
174 -55 294 29 95 42 105 138 105 44 0 83 -5 86 -10 3 -6 -4 -24 -16 -41 -23
-33 -35 -102 -25 -143 16 -64 104 -126 181 -126 77 0 165 62 181 127 19 76
-34 211 -112 282 -55 52 -145 96 -219 110 -82 15 -357 15 -373 -1 -15 -15 -15
-43 0 -68 24 -38 -1 -45 -180 -50 -164 -5 -167 -5 -170 -28 -4 -26 45 -118
128 -242 164 -244 394 -443 665 -575 149 -72 258 -107 465 -149 l176 -36 355
0 c267 0 367 3 404 14 383 104 525 160 682 272 329 232 557 635 627 1106 19
123 19 128 7 128 -4 0 -21 -35 -36 -77z"/>
<path d="M3299 1777 c-52 -20 -99 -51 -139 -92 l-35 -36 55 25 c72 34 146 35
215 2 134 -62 186 -212 119 -343 -64 -125 -212 -175 -334 -113 -53 27 -51 10
3 -34 75 -61 130 -81 227 -81 76 0 92 3 152 33 77 38 128 91 166 172 38 80 37
191 -2 277 -32 70 -97 137 -167 174 -55 28 -203 37 -260 16z"/>
</g>
</svg>
