<?xml version="1.0" standalone="no"?>
<!DOCTYPE svg PUBLIC "-//W3C//DTD SVG 20010904//EN"
 "http://www.w3.org/TR/2001/REC-SVG-20010904/DTD/svg10.dtd">
<svg version="1.0" xmlns="http://www.w3.org/2000/svg"
 width="580.000000pt" height="580.000000pt" viewBox="0 0 580.000000 580.000000"
 preserveAspectRatio="xMidYMid meet">

<g transform="translate(0.000000,580.000000) scale(0.100000,-0.100000)"
fill="#000000" stroke="none">
<path d="M2558 5320 c-58 -10 -148 -37 -168 -50 -11 -7 -7 -10 19 -10 18 0 80
-7 138 -16 367 -54 612 -215 631 -415 4 -47 33 -91 50 -75 4 4 7 63 7 131 l0
123 55 -28 c138 -70 306 -217 388 -337 98 -145 126 -238 143 -471 19 -271 2
-512 -51 -702 -22 -79 -94 -240 -130 -290 -12 -17 -37 -62 -57 -101 -40 -80
-133 -185 -196 -222 -107 -63 -207 -70 -422 -31 -187 33 -491 44 -610 21 -113
-22 -186 -51 -239 -98 -53 -47 -68 -73 -102 -172 -35 -102 -54 -218 -55 -324
0 -53 -5 -93 -10 -93 -5 0 -27 9 -49 20 -48 24 -56 53 -53 190 4 262 162 473
466 620 192 93 292 239 317 460 5 46 3 142 -4 245 l-11 170 -76 39 c-58 29
-91 39 -145 44 l-69 5 37 -40 c72 -80 73 -199 4 -348 -61 -129 -115 -188 -283
-309 -78 -55 -194 -185 -273 -303 -134 -200 -184 -327 -183 -468 0 -296 191
-528 517 -630 40 -13 74 -32 103 -60 l42 -41 6 27 c7 31 -2 75 -21 106 -18 28
-10 33 73 40 60 5 78 2 150 -26 98 -38 128 -69 138 -141 7 -48 8 -50 33 -44
67 15 134 40 217 82 117 60 253 191 307 297 40 78 72 174 82 250 l7 50 -31
-38 -31 -37 -85 0 c-78 0 -87 2 -126 30 -105 77 -260 89 -384 31 -64 -30 -154
-89 -154 -100 1 -27 19 -30 105 -15 107 19 265 15 310 -7 29 -14 30 -16 28
-83 -2 -38 -5 -71 -7 -73 -24 -25 -476 -27 -591 -4 -103 22 -95 14 -95 84 1
170 75 313 197 379 88 48 157 62 288 61 147 -2 257 -22 333 -62 80 -43 106
-51 192 -62 104 -13 219 8 318 57 137 67 294 247 367 419 25 59 31 65 71 79
53 18 51 31 24 -159 -38 -257 -112 -511 -193 -655 -35 -62 -124 -191 -242
-350 -262 -353 -628 -705 -951 -915 -66 -42 -146 -96 -179 -118 -245 -168
-388 -258 -504 -315 -130 -65 -133 -67 -95 -70 56 -5 209 16 326 44 387 94
859 346 1180 631 168 149 409 400 496 518 45 61 102 151 127 201 43 88 46 92
84 98 22 3 46 9 55 12 21 8 21 -52 0 -195 -61 -418 -241 -766 -524 -1015 -74
-65 -241 -179 -318 -216 -28 -14 -52 -28 -52 -31 0 -3 50 -13 110 -22 110 -17
111 -17 153 4 23 12 74 43 113 70 444 299 826 805 1075 1421 l43 108 53 0 52
0 7 -37 c11 -56 -2 -226 -26 -343 -46 -226 -149 -465 -297 -687 -46 -69 -82
-127 -81 -129 2 -2 33 1 68 6 36 5 70 10 76 10 14 0 155 189 231 310 218 345
363 735 424 1140 26 170 32 512 11 670 -102 774 -532 1469 -1172 1895 -121 81
-454 251 -555 284 -85 28 -328 77 -473 95 -129 17 -391 20 -474 6z m1747
-1085 c270 -269 422 -560 466 -890 14 -105 6 -321 -16 -447 -43 -246 -157
-503 -291 -654 l-44 -49 8 45 c4 25 7 122 6 215 -1 150 -4 182 -27 267 -39
148 -95 247 -197 349 -47 47 -95 92 -107 100 -27 18 -44 129 -20 129 20 0 175
-103 269 -178 65 -53 128 -126 140 -164 4 -12 89 -29 102 -21 13 9 -2 292 -24
442 -35 237 -88 418 -180 608 -63 131 -149 264 -230 357 -28 32 -50 60 -50 62
0 13 94 -69 195 -171z"/>
<path d="M2568 5056 c-10 -7 -23 -43 -32 -86 -24 -113 -73 -206 -154 -291 -71
-76 -179 -149 -219 -149 -21 0 -22 4 -25 138 -3 130 -5 140 -35 205 -27 55
-36 67 -56 67 l-24 0 1 -152 c1 -188 -5 -223 -44 -243 -25 -13 -29 -22 -36
-72 -11 -95 -11 -95 -112 -121 l-90 -24 -18 -71 c-14 -54 -26 -80 -51 -103
-29 -28 -33 -41 -43 -115 -5 -46 -10 -89 -10 -96 0 -8 -11 -18 -24 -23 -16 -6
-26 -18 -28 -36 -7 -61 -64 -57 -134 11 l-47 44 5 -77 c5 -67 11 -87 48 -155
32 -60 50 -81 75 -91 23 -10 37 -25 46 -50 11 -31 17 -36 46 -36 35 0 39 10
45 105 3 35 6 40 32 45 23 4 32 14 45 50 12 32 23 46 41 50 18 4 26 14 30 35
4 24 12 31 45 41 33 9 41 16 45 40 3 16 12 30 21 32 13 2 19 -11 27 -65 5 -37
8 -71 5 -75 -2 -5 -21 -8 -42 -8 l-39 0 -6 -54 c-6 -46 -11 -55 -30 -60 -25
-6 -28 -17 -42 -123 l-7 -53 121 0 120 0 7 28 c7 33 -8 78 -36 108 l-21 22 30
17 c20 12 31 29 38 57 8 34 14 42 46 53 85 29 113 70 88 129 -21 52 -18 68 15
79 41 13 63 34 70 67 6 26 11 29 61 36 79 9 135 0 157 -28 16 -20 33 -24 120
-33 l102 -10 3 -83 3 -83 29 6 c22 5 29 2 34 -12 15 -49 30 -212 30 -328 1
-153 -13 -216 -56 -248 -21 -15 -28 -29 -28 -53 0 -69 -38 -125 -105 -154
l-39 -17 115 -11 c63 -7 120 -12 127 -12 7 0 9 -10 6 -30 l-6 -30 65 0 c49 0
65 -3 63 -12 -3 -7 -7 -25 -10 -40 l-6 -28 75 0 74 0 22 38 c28 47 118 106
188 122 l54 13 -100 33 c-55 18 -119 42 -142 54 -58 29 -119 86 -143 134 -23
44 -29 131 -15 200 8 35 11 38 35 32 95 -21 243 -38 275 -32 l38 7 -3 50 -3
50 -80 27 c-144 48 -232 122 -261 219 -27 88 -35 83 146 83 174 0 180 2 161
53 -8 22 -25 31 -103 55 -51 17 -109 33 -128 37 -26 5 -52 26 -103 80 -52 57
-132 126 -174 150 -2 1 8 28 21 61 25 62 43 134 32 134 -3 0 -38 -21 -76 -47
l-70 -46 -146 6 c-80 3 -148 8 -151 10 -2 3 21 36 51 74 67 81 147 239 176
343 22 82 39 250 24 250 -5 0 -17 -6 -26 -14z m-668 -927 c0 -25 -18 -60 -39
-76 -16 -12 -91 -18 -91 -7 0 18 64 93 83 97 42 8 47 7 47 -14z m-308 -381
c-6 -6 -15 -7 -22 -3 -8 5 -6 11 7 20 20 15 32 0 15 -17z"/>
<path d="M877 3043 c-164 -171 -278 -419 -317 -688 -13 -94 -13 -302 1 -406 6
-46 13 -86 15 -88 1 -2 17 13 35 33 30 35 76 66 97 66 5 0 33 -48 61 -107 228
-468 589 -852 949 -1008 100 -44 236 -83 315 -91 l62 -6 188 123 c184 121 187
124 150 127 -484 32 -931 270 -1290 686 -96 112 -225 290 -288 399 l-28 48 24
25 c26 28 76 44 138 44 l44 0 -47 50 c-145 155 -174 421 -82 753 13 48 23 87
21 87 -1 0 -23 -21 -48 -47z"/>
<path d="M1316 2223 c29 -163 108 -315 226 -439 184 -192 441 -327 763 -399
167 -37 275 -42 396 -17 176 36 329 123 488 277 83 80 221 247 221 267 0 5
-24 8 -53 8 -45 0 -58 -4 -78 -26 -13 -14 -53 -45 -89 -69 -257 -170 -533
-225 -898 -179 -248 31 -448 123 -673 310 -78 65 -247 236 -275 279 -24 36
-36 31 -28 -12z"/>
<path d="M3252 936 c-38 -83 -182 -191 -411 -309 l-96 -48 100 4 c220 11 400
99 568 277 42 45 77 86 77 91 0 5 -51 9 -113 9 -110 0 -114 -1 -125 -24z"/>
</g>
</svg>
