<?xml version="1.0" encoding="UTF-8"?>
<svg version="1.1" xmlns="http://www.w3.org/2000/svg" width="591" height="591">
<path d="M0 0 C0.99 0 1.98 0 3 0 C3.06993164 0.58265625 3.13986328 1.1653125 3.21191406 1.765625 C6.17251106 25.98349882 9.91568781 50.29922759 30.1875 66.625 C33.38312109 68.82119378 36.0238696 70.09246815 40 70 C41.94032404 68.81104764 41.94032404 68.81104764 43 67 C43 66.34 43 65.68 43 65 C41.22109375 65.15662109 41.22109375 65.15662109 39.40625 65.31640625 C37.19140625 65.03955078 37.19140625 65.03955078 35 64 C32.14489725 59.96958827 30.36346307 55.48678564 28.5 50.9375 C27.96123191 49.68819911 27.41959362 48.44013184 26.875 47.19335938 C25.55457296 44.13987185 24.26482748 41.0768386 23 38 C26.12286023 35.49453208 29.23395061 33.00478504 32.5 30.6875 C33.2321875 30.15511719 33.964375 29.62273437 34.71875 29.07421875 C37 28 37 28 39.54296875 28.10546875 C42.43275189 29.15755196 43.74174257 30.36678453 45.8125 32.625 C50.82665844 37.90455813 56.13585232 42.67973191 62 47 C61.0787172 52.79092045 61.0787172 52.79092045 60.26171875 54.9609375 C59.75989541 57.08927364 59.75989541 57.08927364 61.265625 58.8671875 C61.92046875 59.52976563 62.5753125 60.19234375 63.25 60.875 C66.82363075 64.66577845 70.07664954 68.5653924 73.25 72.6875 C77.5823192 78.27812822 82.09399875 83.67690522 86.72290039 89.0234375 C90.27487214 93.13252445 93.70854921 97.31742173 97.078125 101.578125 C100.66376736 106.09661741 104.34123694 110.54068708 108 115 C109.50028317 116.83310162 111.00028408 118.66643427 112.5 120.5 C113.2425 121.4075 113.985 122.315 114.75 123.25 C121.5 131.5 121.5 131.5 123.7265625 134.22265625 C125.30300376 136.1485149 126.88125492 138.0728929 128.4609375 139.99609375 C129.25757813 140.96675781 130.05421875 141.93742188 130.875 142.9375 C131.95394531 144.25041016 131.95394531 144.25041016 133.0546875 145.58984375 C135 148 135 148 136.33203125 150.02124023 C138.29830065 152.35388272 139.78858941 153.01924764 142.6328125 154.0703125 C143.52097656 154.40933594 144.40914062 154.74835938 145.32421875 155.09765625 C146.71060547 155.60619141 146.71060547 155.60619141 148.125 156.125 C149.96324333 156.80893839 151.79931764 157.49874458 153.6328125 158.1953125 C154.44637207 158.49453613 155.25993164 158.79375977 156.09814453 159.10205078 C158 160 158 160 159 162 C153.80288252 176.48414046 143.38085269 184.53325466 130 191 C122.09351882 194.57652536 114.52997624 196.58326314 106 198 C106.06920654 197.41025391 106.13841309 196.82050781 106.2097168 196.21289062 C108.19135173 175.05929125 99.78195235 161.88360512 88.60986328 144.99365234 C84.90030743 139.36346492 81.46473703 133.57093623 78.00704956 127.78421021 C71.80651501 117.44055019 65.44267188 107.19430145 59 97 C55.38875109 99.37686051 55.38875109 99.37686051 53.37109375 103.015625 C53.77247359 116.52087613 58.33056074 128.90519624 64 141 C57.90728782 140.70298028 54.98888053 138.80709224 51 134.4375 C50.22136597 133.62212769 50.22136597 133.62212769 49.42700195 132.7902832 C44.94163483 128.05841347 40.66328898 123.13839832 36.4453125 118.16796875 C29.8907409 110.97048462 21.1768556 107.74816762 12.1875 104.5 C3.98720123 101.4040688 -1.04698762 97.40602477 -5 89.5 C-10.37535974 76.06160065 -8.80952035 58.75200724 -7.24291992 44.60351562 C-6.67782442 38.54705489 -6.63466299 32.44373957 -6.48242188 26.36523438 C-5.83592208 6.54330657 -5.83592208 6.54330657 0 0 Z " fill="#000000" transform="translate(96,110)"/>
<path d="M0 0 C2.359375 0.19140625 2.359375 0.19140625 5 1 C6.328125 3.15234375 6.328125 3.15234375 7.25 5.9375 C7.56453125 6.83339844 7.8790625 7.72929688 8.203125 8.65234375 C12.23211016 25.5780314 11.09699161 44.36182563 11.17623901 61.67333984 C11.18367601 63.16863945 11.19429529 64.66392701 11.20828247 66.15917969 C11.31004573 78.11728419 11.34136146 87.77750881 3 97 C2.55398438 97.53496094 2.10796875 98.06992188 1.6484375 98.62109375 C-2.83663756 103.23808278 -8.57958981 104.85283076 -14.60668945 106.64501953 C-26.75762237 110.43603295 -34.77403837 120.63610775 -43.30566406 129.57299805 C-44.93480052 131.27473629 -46.57929974 132.96035896 -48.2265625 134.64453125 C-48.71734283 135.16739212 -49.20812317 135.69025299 -49.71377563 136.22895813 C-52.98236132 139.54463849 -55.35311682 140.70897873 -60 141 C-58.69732627 136.9351755 -57.20221398 133.03801629 -55.5 129.125 C-51.47333916 119.4206286 -49.8323575 110.58411423 -51 100 C-52.2463781 98.00944666 -52.2463781 98.00944666 -54 97 C-54.66 97 -55.32 97 -56 97 C-57.63603899 99.32695964 -57.63603899 99.32695964 -59.31640625 102.359375 C-59.64469925 102.92700058 -59.97299225 103.49462616 -60.31123352 104.07945251 C-61.02546349 105.3156787 -61.73641633 106.55380257 -62.44451904 107.79354858 C-64.34696475 111.1228026 -66.27444283 114.43752914 -68.19921875 117.75390625 C-68.59566589 118.43834305 -68.99211304 119.12277985 -69.40057373 119.82795715 C-73.12135322 126.23954827 -76.94187547 132.58761793 -80.79977417 138.91741943 C-81.87570961 140.68866818 -82.94280719 142.46498353 -84.00805664 144.24267578 C-87.00800832 149.23068946 -90.0310551 154.14351518 -93.4765625 158.83984375 C-102.36101412 171.23601289 -102.59095384 182.99779119 -102 198 C-108.55644912 196.94165774 -114.7967548 195.70797803 -121 193.3125 C-121.67933594 193.05267334 -122.35867188 192.79284668 -123.05859375 192.52514648 C-129.21292483 190.07693846 -134.67147583 186.94641105 -140 183 C-140.73863281 182.45601562 -141.47726562 181.91203125 -142.23828125 181.3515625 C-148.75127172 176.1264515 -153.70434262 169.36964881 -155 161 C-150.04976562 158.43009109 -145.24341762 156.05337407 -139.9375 154.3125 C-133.64391871 151.86007161 -130.11038657 147.17908708 -126 142 C-124.99839844 140.76830078 -124.99839844 140.76830078 -123.9765625 139.51171875 C-122.65107489 137.86926671 -121.33473552 136.21939254 -120.02734375 134.5625 C-116.41193097 129.99272971 -112.69596799 125.50465842 -109 121 C-107.49971683 119.16689838 -105.99971592 117.33356573 -104.5 115.5 C-91 99 -91 99 -77.5 82.5 C-76.76007813 81.59507812 -76.02015625 80.69015625 -75.2578125 79.7578125 C-73.73403112 77.89658472 -72.20793284 76.0372517 -70.6796875 74.1796875 C-69.16306116 72.33403037 -67.65497969 70.48131282 -66.15625 68.62109375 C-64.76423137 66.92898414 -63.32859324 65.27142636 -61.84375 63.66015625 C-59.91994411 61.48824048 -58.30436092 59.59508741 -57 57 C-57.23478692 54.63712065 -57.23478692 54.63712065 -57.9375 52.25 C-58.43359375 49.75 -58.43359375 49.75 -58 47 C-54.71648676 42.52260514 -50.19066206 39.01310643 -45.88671875 35.55664062 C-44.60106455 34.49590937 -43.35387756 33.38720387 -42.14453125 32.24023438 C-37.67150746 28.03403955 -37.67150746 28.03403955 -34.45703125 27.87109375 C-31.29705865 29.32297305 -28.54713104 31.08275543 -25.6875 33.0625 C-24.08455078 34.16271484 -24.08455078 34.16271484 -22.44921875 35.28515625 C-21.64097656 35.85105469 -20.83273437 36.41695312 -20 37 C-20.96536325 42.6387276 -23.19694543 47.44968836 -25.5625 52.625 C-25.96791016 53.57890625 -26.37332031 54.5328125 -26.79101562 55.515625 C-28.93946101 60.18758893 -30.36595302 63.27815811 -35.33984375 65.1484375 C-36.54769531 65.42945313 -37.75554687 65.71046875 -39 66 C-39 66.99 -39 67.98 -39 69 C-36.10271144 70.27480697 -34.82648611 69.94661111 -31.75 69 C-21.07436013 63.92394948 -12.61764412 52.99037947 -8.15625 42.2890625 C-3.40739602 28.78049814 0 14.39729386 0 0 Z " fill="#000000" transform="translate(491,110)"/>
<path d="M0 0 C0.92205734 0.30408783 1.84411469 0.60817566 2.79411316 0.92147827 C5.76288258 1.90078394 8.7134935 2.92424658 11.6640625 3.95703125 C12.75966995 4.3370932 13.8552774 4.71715515 14.98408508 5.10873413 C18.53216704 6.34015256 22.07855574 7.576374 25.625 8.8125 C30.55545649 10.52497472 35.48676501 12.23499094 40.41796875 13.9453125 C41.64779984 14.37226913 42.87763092 14.79922577 44.14472961 15.23912048 C55.72964263 19.25917908 67.3304004 23.23202786 78.9375 27.1875 C79.82165588 27.48894928 80.70581177 27.79039856 81.61676025 28.10098267 C86.41069255 29.73540335 91.20507732 31.36848717 96 33 C96.24966236 37.5162 96.42972484 42.02828676 96.54931641 46.54980469 C96.59921257 48.08274357 96.66716622 49.61521612 96.75439453 51.14648438 C97.45930186 63.85140235 97.45930186 63.85140235 93.86791992 69.13916016 C91.36055292 71.62881294 88.75783042 73.79690407 86 76 C84.64982045 77.50877684 83.32943743 79.04567676 82.0625 80.625 C80.47265625 82.6015625 80.47265625 82.6015625 79 84 C78.01 84 77.02 84 76 84 C75.97494385 82.99098633 75.9498877 81.98197266 75.92407227 80.94238281 C75.82977591 77.19258304 75.72960979 73.44295892 75.62768555 69.69335938 C75.58442069 68.07165643 75.54273972 66.44991042 75.50268555 64.828125 C75.44477786 62.49465973 75.38114302 60.16140957 75.31640625 57.828125 C75.29969376 57.10506165 75.28298126 56.38199829 75.26576233 55.63702393 C75.21064393 53.75673654 75.10785295 51.87800065 75 50 C74.98959686 49.3226329 74.97919373 48.64526581 74.96847534 47.94737244 C74.0683126 45.61458684 74.0683126 45.61458684 70.74220276 44.57661438 C69.26642267 44.12255117 67.78473468 43.68744939 66.29907227 43.2668457 C65.49259247 43.02402863 64.68611267 42.78121155 63.85519409 42.53103638 C61.18008757 41.72989634 58.498565 40.95295147 55.81640625 40.17578125 C53.96129099 39.62491838 52.10663562 39.07250456 50.25242615 38.51860046 C45.3633427 37.06238309 40.46856936 35.62630375 35.57226562 34.19458008 C29.62212596 32.4507567 23.67886905 30.68365444 17.7345953 28.91996288 C13.10994656 27.54829227 8.4843408 26.18016771 3.85560608 24.82234192 C3.00549454 24.57236954 2.155383 24.32239716 1.2795105 24.06484985 C-0.31153482 23.59720088 -1.90300889 23.13100726 -3.49497986 22.66651917 C-8.77565624 21.11217188 -8.77565624 21.11217188 -11 20 C-11 63.56 -11 107.12 -11 152 C-17 153 -17 153 -19.75 151.4375 C-24.54033325 149.31869875 -28.08515025 150.68083021 -33 152 C-34.54155857 152.3754441 -36.08321464 152.75048831 -37.625 153.125 C-39.295625 153.558125 -39.295625 153.558125 -41 154 C-38.79154015 153.68839539 -36.58323749 153.37567654 -34.375 153.0625 C-33.14523437 152.88847656 -31.91546875 152.71445312 -30.6484375 152.53515625 C-27.42443816 152.06225699 -24.21187824 151.54848998 -21 151 C-21.98226944 166.22517632 -29.60008585 177.05984476 -40.3359375 187.5390625 C-42 189 -42 189 -44 190 C-43.39543758 192.96259995 -42.49756431 195.05710051 -40.8046875 197.5546875 C-40.34271973 198.24143555 -39.88075195 198.92818359 -39.40478516 199.63574219 C-38.89995605 200.37469727 -38.39512695 201.11365234 -37.875 201.875 C-37.35599121 202.65004883 -36.83698242 203.42509766 -36.30224609 204.22363281 C-33.20776049 208.82671424 -30.03430048 213.36352287 -26.796875 217.8671875 C-26.10352051 218.84574707 -25.41016602 219.82430664 -24.69580078 220.83251953 C-23.33136808 222.75482215 -21.94982816 224.66511288 -20.55029297 226.56201172 C-15.89963838 233.15094068 -15.89963838 233.15094068 -16.390625 237.3046875 C-16.92171875 238.19414062 -17.4528125 239.08359375 -18 240 C-18.49757813 240.91523438 -18.99515625 241.83046875 -19.5078125 242.7734375 C-20.04148437 243.63195312 -20.57515625 244.49046875 -21.125 245.375 C-21.93324219 246.68597656 -21.93324219 246.68597656 -22.7578125 248.0234375 C-23.16773438 248.67570313 -23.57765625 249.32796875 -24 250 C-27.07537761 248.67351872 -28.70888009 247.44310023 -30.59375 244.68359375 C-31.29419434 243.67353271 -31.29419434 243.67353271 -32.00878906 242.64306641 C-32.50088867 241.91522949 -32.99298828 241.18739258 -33.5 240.4375 C-34.56749534 238.89177997 -35.63521001 237.34621138 -36.703125 235.80078125 C-37.24775391 235.00623535 -37.79238281 234.21168945 -38.35351562 233.39306641 C-40.95343153 229.61424439 -43.60189437 225.87012955 -46.25 222.125 C-46.7459668 221.42036621 -47.24193359 220.71573242 -47.75292969 219.98974609 C-51.3155746 214.93534747 -54.9578062 209.94844907 -58.671875 205.00390625 C-60 203 -60 203 -60 201 C-60.96486328 201.56267578 -60.96486328 201.56267578 -61.94921875 202.13671875 C-71.23234454 207.39406673 -81.74421219 213.11738049 -92.66015625 213.1328125 C-93.9740332 213.13474609 -93.9740332 213.13474609 -95.31445312 213.13671875 C-96.22130859 213.13285156 -97.12816406 213.12898437 -98.0625 213.125 C-98.97322266 213.12886719 -99.88394531 213.13273438 -100.82226562 213.13671875 C-101.69689453 213.13542969 -102.57152344 213.13414062 -103.47265625 213.1328125 C-104.26937744 213.13168457 -105.06609863 213.13055664 -105.88696289 213.12939453 C-108 213 -108 213 -111 212 C-109.52795272 208.62115573 -107.59687179 206.3445788 -105.0625 203.6875 C-100.66688874 198.81323779 -98.28491099 195.19100306 -97.6875 188.5 C-98.01863946 184.79123802 -98.93642223 181.55938376 -100 178 C-99.15179688 177.81566406 -98.30359375 177.63132812 -97.4296875 177.44140625 C-80.05131394 173.14455564 -68.41710005 162.48350166 -56 150 C-55.34 150.33 -54.68 150.66 -54 151 C-54.01160156 150.41992188 -54.02320313 149.83984375 -54.03515625 149.2421875 C-54.08762174 144.7001754 -53.91751063 140.47286431 -53 136 C-53.69867188 135.87238281 -54.39734375 135.74476563 -55.1171875 135.61328125 C-67.44784493 132.99009261 -74.3679585 127.54602373 -82 118 C-83.13695312 116.62908203 -83.13695312 116.62908203 -84.296875 115.23046875 C-85.77121168 113.44505749 -87.23472409 111.65065492 -88.6875 109.84765625 C-91.24866739 106.69378627 -93.86723431 103.59405641 -96.5 100.5 C-99.85470341 96.55369832 -103.17222437 92.58357179 -106.4375 88.5625 C-110.56187888 83.48749296 -114.81213984 78.52810942 -119.10327148 73.59399414 C-123.42433102 68.59911827 -124.1244883 66.62412181 -124.09765625 60.0234375 C-124.09553383 58.99556625 -124.09553383 58.99556625 -124.09336853 57.94692993 C-124.08776675 55.75624239 -124.07521406 53.5656567 -124.0625 51.375 C-124.05748522 49.89062648 -124.05292228 48.40625135 -124.04882812 46.921875 C-124.03779677 43.28121685 -124.02053099 39.64061836 -124 36 C-117.38358041 33.2844734 -110.72683618 30.80456547 -103.94921875 28.5234375 C-102.52045914 28.03839249 -102.52045914 28.03839249 -101.06283569 27.54354858 C-95.74396729 25.73937686 -90.42062998 23.94851519 -85.09741211 22.15722656 C-82.81742998 21.38901487 -80.53756533 20.62045442 -78.2578125 19.8515625 C-77.10219315 19.46194336 -75.94657379 19.07232422 -74.75593567 18.67089844 C-67.47063926 16.20441842 -60.21270695 13.67015136 -52.96983337 11.08181763 C-48.16784422 9.36760832 -43.35814176 7.67566018 -38.54776001 5.98516846 C-36.23773177 5.16649955 -33.93146254 4.33713981 -31.62924194 3.49676514 C-28.39870468 2.3188845 -25.15681458 1.17942134 -21.91015625 0.046875 C-20.49432755 -0.48602646 -20.49432755 -0.48602646 -19.04989624 -1.0296936 C-11.8020606 -3.49485727 -7.08788887 -2.5924568 0 0 Z " fill="#000000" transform="translate(310,133)"/>
<path d="M0 0 C4.5711887 0.74644497 6.57186475 3.10099574 9.45751953 6.55761719 C12.14671697 10.81572595 12.50128787 15.19014213 12.9375 20.125 C13.04900391 21.08792969 13.16050781 22.05085938 13.27539062 23.04296875 C13.568888 25.69355994 13.79008235 28.34176538 14 31 C14.19722656 32.56234375 14.19722656 32.56234375 14.3984375 34.15625 C13.76962183 38.64426771 11.28859788 41.74723928 8.6875 45.375 C8.18798828 46.11105469 7.68847656 46.84710938 7.17382812 47.60546875 C4.37571404 51.60065681 4.37571404 51.60065681 3 53 C-2.07295944 53 -4.78195126 48.85437094 -8.25 45.4375 C-9.00796875 44.73302734 -9.7659375 44.02855469 -10.546875 43.30273438 C-11.2584375 42.60341797 -11.97 41.90410156 -12.703125 41.18359375 C-13.35958008 40.54993896 -14.01603516 39.91628418 -14.69238281 39.26342773 C-16.65071104 35.87364787 -15.90770694 33.73518779 -15 30 C-13.72485352 26.77441406 -13.72485352 26.77441406 -12.12890625 23.515625 C-11.55462891 22.33355469 -10.98035156 21.15148437 -10.38867188 19.93359375 C-9.77996908 18.70571867 -9.17124491 17.4778542 -8.5625 16.25 C-7.95684252 15.00691922 -7.35201735 13.76343256 -6.74804688 12.51953125 C-2.34736318 3.52104477 -2.34736318 3.52104477 0 0 Z " fill="#000000" transform="translate(124,227)"/>
<path d="M0 0 C2.77982175 0.9513575 3.19117328 1.91500853 4.51513672 4.49682617 C4.92344727 5.27985107 5.33175781 6.06287598 5.75244141 6.86962891 C6.17170898 7.71211182 6.59097656 8.55459473 7.02294922 9.42260742 C7.45768555 10.27733643 7.89242188 11.13206543 8.34033203 12.01269531 C9.63114178 14.57682611 10.89497573 17.15230331 12.14794922 19.73510742 C12.5034082 20.4627832 12.85886719 21.19045898 13.22509766 21.94018555 C17.13922563 30.06561805 17.13922563 30.06561805 18.14794922 33.73510742 C16.90933595 37.05135398 14.95210493 39.16593831 12.45263672 41.62573242 C11.73720703 42.3347168 11.02177734 43.04370117 10.28466797 43.77416992 C9.53830078 44.5037793 8.79193359 45.23338867 8.02294922 45.98510742 C6.89179688 47.10272461 6.89179688 47.10272461 5.73779297 48.24291992 C3.8789415 50.07824163 2.01557917 51.90872652 0.14794922 53.73510742 C-0.42439453 53.01709961 -0.99673828 52.2990918 -1.58642578 51.55932617 C-3.03486072 49.75377711 -4.50201106 47.96298307 -5.99267578 46.19213867 C-6.68876953 45.31944336 -7.38486328 44.44674805 -8.10205078 43.54760742 C-8.80845703 42.68780273 -9.51486328 41.82799805 -10.24267578 40.94213867 C-12.50687745 36.43022224 -12.2155413 32.69051262 -11.85205078 27.73510742 C-11.79162598 26.89407471 -11.73120117 26.05304199 -11.66894531 25.18652344 C-10.01955782 6.86768106 -10.01955782 6.86768106 -3.27783203 0.78198242 C-1.85205078 -0.26489258 -1.85205078 -0.26489258 0 0 Z " fill="#000000" transform="translate(464.85205078125,227.264892578125)"/>
<path d="M0 0 C3.91815039 1.56184336 6.10639392 4.06095886 8.875 7.1875 C9.69742188 8.10917969 10.51984375 9.03085937 11.3671875 9.98046875 C14.27311308 13.29591666 17.13821795 16.64644557 20 20 C20.35304199 19.52054932 20.70608398 19.04109863 21.06982422 18.54711914 C22.66737728 16.38246363 24.27109368 14.22245165 25.875 12.0625 C26.43058594 11.30775391 26.98617187 10.55300781 27.55859375 9.77539062 C28.09355469 9.05673828 28.62851563 8.33808594 29.1796875 7.59765625 C29.67194824 6.93258057 30.16420898 6.26750488 30.67138672 5.58227539 C32 4 32 4 34 3 C40.31887833 20.61006861 40.31887833 20.61006861 38.25390625 27.48339844 C35.95596278 31.95742474 32.8272324 35.70856469 29.44433594 39.40527344 C27.56143647 41.4842287 25.9415513 43.71932818 24.3125 46 C23.549375 46.99 22.78625 47.98 22 49 C16.32787391 46.60760657 12.17890019 41.89611863 7.81665039 37.68164062 C6.73472473 36.64786901 5.63959116 35.6277382 4.53149414 34.62207031 C-4.62270831 26.30378714 -4.62270831 26.30378714 -5.52685547 20.78295898 C-5.29925165 17.71363355 -4.7986513 14.96822452 -4 12 C-3.7628125 10.83082031 -3.525625 9.66164063 -3.28125 8.45703125 C-3.0234375 7.58433594 -2.765625 6.71164062 -2.5 5.8125 C-2.2421875 4.91144531 -1.984375 4.01039063 -1.71875 3.08203125 C-1 1 -1 1 0 0 Z " fill="#000000" transform="translate(106,267)"/>
<path d="M0 0 C0.68328669 2.28779027 1.34643722 4.57869834 2 6.875 C2.19078125 7.50664062 2.3815625 8.13828125 2.578125 8.7890625 C4.06737228 14.10780278 5.13896762 19.52368475 4 25 C2.10485369 28.07745264 -0.30326378 30.30668079 -3 32.6875 C-3.68682861 33.33033936 -4.37365723 33.97317871 -5.08129883 34.63549805 C-7.0320357 36.45004574 -9.01099379 38.2276392 -11 40 C-12.30517578 41.21042969 -12.30517578 41.21042969 -13.63671875 42.4453125 C-16.65213074 45.19077332 -19.33101536 47.21290875 -23 49 C-23.37809814 48.44538086 -23.75619629 47.89076172 -24.14575195 47.31933594 C-25.86705051 44.79557396 -27.5897607 42.2727787 -29.3125 39.75 C-29.90740234 38.87730469 -30.50230469 38.00460937 -31.11523438 37.10546875 C-31.69208984 36.26113281 -32.26894531 35.41679687 -32.86328125 34.546875 C-33.65665894 33.38430176 -33.65665894 33.38430176 -34.46606445 32.19824219 C-35.97228868 29.97836321 -35.97228868 29.97836321 -37.70385742 27.92675781 C-39.42918011 25.3620099 -39.02864066 23.53303359 -38.52734375 20.5703125 C-37.39216409 15.03736273 -36.23102755 9.51252587 -35 4 C-34.01 4 -33.02 4 -32 4 C-30.18123808 6.25797671 -28.54948503 8.47696695 -26.9375 10.875 C-23.74614354 15.65939083 -23.74614354 15.65939083 -20 20 C-19.63237549 19.57178955 -19.26475098 19.1435791 -18.88598633 18.70239258 C-17.19688991 16.73730869 -15.50472171 14.77489303 -13.8125 12.8125 C-13.23435547 12.13896484 -12.65621094 11.46542969 -12.06054688 10.77148438 C-2.76028963 0 -2.76028963 0 0 0 Z " fill="#000000" transform="translate(485,267)"/>
<path d="M0 0 C1.05058594 0.2165625 2.10117187 0.433125 3.18359375 0.65625 C17.72975792 3.62670843 17.72975792 3.62670843 32.0546875 0.65625 C34 0 34 0 37 0 C38.5078125 1.46875 38.5078125 1.46875 40.125 3.5 C50.49221188 15.74236247 63.05244471 24.19603423 79 27 C78.67 28.010625 78.34 29.02125 78 30.0625 C76.0560488 37.15721242 76.9373379 41.99933518 80.35546875 48.421875 C83.09165727 52.71138669 86.45983494 56.36320512 90 60 C83.88795508 64.07469661 74.75016159 63.4962232 67.625 62.5 C57.49827808 60.30637774 47.87096419 55.21686236 39 50 C38.76796875 50.68964844 38.5359375 51.37929688 38.296875 52.08984375 C36.72453161 55.61814442 34.5741057 58.50852691 32.25 61.5625 C27.74425342 67.59283824 23.36573396 73.69852378 19.0625 79.875 C18.47065918 80.72368652 17.87881836 81.57237305 17.26904297 82.44677734 C16.08332572 84.14717939 14.89777691 85.8476989 13.71240234 87.54833984 C11.11266779 91.27040064 8.49532073 94.97991463 5.875 98.6875 C5.39144043 99.37191162 4.90788086 100.05632324 4.40966797 100.76147461 C3.43648877 102.13859964 2.46318159 103.51563424 1.48974609 104.89257812 C-0.06328281 107.08952102 -1.61574865 109.28686059 -3.16796875 111.484375 C-3.69084473 112.22389404 -4.2137207 112.96341309 -4.75244141 113.7253418 C-5.78024095 115.18275834 -6.80474232 116.64250727 -7.82568359 118.10473633 C-9.92250395 121.10264927 -12.03005112 124.03778 -14.30859375 126.90234375 C-19.04986093 132.94102006 -19.91412469 137.36778434 -19 145 C-24.61124724 146.59395707 -30.60621693 147.2489303 -35.875 144.5 C-39.68332649 140.0196159 -42 135.9348302 -42 130 C-40.77240967 129.95335205 -39.54481934 129.9067041 -38.2800293 129.85864258 C-34.80257629 129.41289863 -34.15910896 129.159903 -31.55395508 126.54174805 C-30.54691528 124.91813354 -30.54691528 124.91813354 -29.51953125 123.26171875 C-29.14439896 122.67372498 -28.76926666 122.0857312 -28.38276672 121.47991943 C-27.1677944 119.56352642 -25.99074275 117.62664776 -24.8125 115.6875 C-23.97443096 114.35196916 -23.1337504 113.01807372 -22.29052734 111.68579102 C-20.61255577 109.02797274 -18.94777487 106.36265976 -17.29443359 103.68945312 C-14.31815732 98.88617863 -11.22527609 94.16133918 -8.125 89.4375 C-7.09664541 87.85612563 -6.06928971 86.27410121 -5.04296875 84.69140625 C-4.54458496 83.92328613 -4.04620117 83.15516602 -3.53271484 82.36376953 C-1.93382457 79.89794353 -0.33606364 77.43138775 1.26171875 74.96484375 C2.36180036 73.26811322 3.46205998 71.5714981 4.5625 69.875 C5.35841553 68.64716797 5.35841553 68.64716797 6.17041016 67.39453125 C8.90101316 63.19232083 11.65533514 59.00810479 14.44921875 54.84765625 C15.28054321 53.60943115 15.28054321 53.60943115 16.12866211 52.34619141 C17.18476226 50.77722829 18.24401587 49.21038176 19.30688477 47.64599609 C19.77795654 46.94684082 20.24902832 46.24768555 20.734375 45.52734375 C21.14913086 44.91624756 21.56388672 44.30515137 21.99121094 43.67553711 C23.16877098 41.85771039 23.16877098 41.85771039 24 39 C23.43796875 38.75765625 22.8759375 38.5153125 22.296875 38.265625 C11.88381733 32.52781771 4.53447264 20.38408856 0.78125 9.44921875 C0.03651603 6.16121825 -0.16369258 3.3556978 0 0 Z " fill="#000000" transform="translate(302,284)"/>
<path d="M0 0 C1.32 0 2.64 0 4 0 C4 25.41 4 50.82 4 77 C2.02 77.495 2.02 77.495 0 78 C-4.01339999 71.67509176 -8.01097265 65.34030537 -12 59 C-12.60859863 58.03352539 -13.21719727 57.06705078 -13.84423828 56.07128906 C-15.6513324 53.19656201 -17.45160777 50.31767702 -19.25 47.4375 C-19.82258545 46.52782471 -20.3951709 45.61814941 -20.98510742 44.6809082 C-21.51080322 43.83616943 -22.03649902 42.99143066 -22.578125 42.12109375 C-23.04637695 41.3727124 -23.51462891 40.62433105 -23.99707031 39.85327148 C-25 38 -25 38 -25 36 C-23.85423404 34.95244255 -22.6560644 33.96190283 -21.4375 33 C-11.30126453 24.26615088 -5.96710688 11.72477824 0 0 Z " fill="#000000" transform="translate(294,289)"/>
<path d="M0 0 C0.66 0 1.32 0 2 0 C3.296875 1.64892578 3.296875 1.64892578 4.75 3.9453125 C5.2759375 4.77546875 5.801875 5.605625 6.34375 6.4609375 C6.8903125 7.34007812 7.436875 8.21921875 8 9.125 C8.5465625 9.9809375 9.093125 10.836875 9.65625 11.71875 C12.36955576 16.04141849 14.69194738 20.01304939 16 25 C23.11016099 19.27935072 30.05188277 13.40657299 36.87133789 7.34301758 C37.47969482 6.80829834 38.08805176 6.2735791 38.71484375 5.72265625 C39.25230225 5.24578369 39.78976074 4.76891113 40.34350586 4.27758789 C42.13484493 2.89599948 43.95073001 1.9475539 46 1 C45.7195697 5.31330661 45.42361452 9.62541718 45.125 13.9375 C45.04636719 15.14986328 44.96773438 16.36222656 44.88671875 17.61132812 C43.79952179 33.04116193 43.79952179 33.04116193 42 37 C39.68647167 38.90488007 38.2131771 39.8503582 35.5625 41 C34.91450439 41.31195313 34.26650879 41.62390625 33.59887695 41.9453125 C32.18294412 42.62221534 30.7599064 43.284405 29.33105469 43.93359375 C26.81770318 45.08339679 24.3348286 46.28665967 21.8515625 47.5 C18.515933 49.11879362 15.17870737 50.73309639 11.82421875 52.3125 C10.78914185 52.80169922 10.78914185 52.80169922 9.7331543 53.30078125 C8 54 8 54 6 54 C4.03427621 50.29553924 2.07875167 46.58578692 0.125 42.875 C-0.43058594 41.82828125 -0.98617188 40.7815625 -1.55859375 39.703125 C-2.09355469 38.68476563 -2.62851562 37.66640625 -3.1796875 36.6171875 C-3.91807861 35.21895752 -3.91807861 35.21895752 -4.67138672 33.79248047 C-8.2120703 26.35066886 -8.2120703 26.35066886 -7.6003418 22.45458984 C-7.15428589 21.22023193 -7.15428589 21.22023193 -6.69921875 19.9609375 C-6.22258789 18.59582031 -6.22258789 18.59582031 -5.73632812 17.203125 C-5.39021484 16.26984375 -5.04410156 15.3365625 -4.6875 14.375 C-4.0238638 12.50812359 -3.36107057 10.64094726 -2.69921875 8.7734375 C-2.39846436 7.95278809 -2.09770996 7.13213867 -1.7878418 6.28662109 C-1.07047481 4.20454512 -0.49619741 2.14413882 0 0 Z " fill="#000000" transform="translate(444,300)"/>
<path d="M0 0 C2 1 2 1 2.76196289 2.83837891 C2.9964917 3.62647949 3.23102051 4.41458008 3.47265625 5.2265625 C3.73240234 6.09410156 3.99214844 6.96164062 4.25976562 7.85546875 C4.52466797 8.76941406 4.78957031 9.68335938 5.0625 10.625 C5.4656543 11.96111328 5.4656543 11.96111328 5.87695312 13.32421875 C9.98357692 27.23143847 9.98357692 27.23143847 6.25390625 34.37109375 C5.36928711 36.09682617 5.36928711 36.09682617 4.46679688 37.85742188 C3.83242245 39.05098925 3.19765185 40.24434614 2.5625 41.4375 C1.92998202 42.65734453 1.29910533 43.87804159 0.66992188 45.09960938 C-0.87079105 48.07518472 -2.42766869 51.04104579 -4 54 C-10.61770648 51.90527733 -16.85782695 49.07441596 -23.16015625 46.19726562 C-24.55666016 45.56427086 -25.95712226 44.93993899 -27.36132812 44.32421875 C-29.40161404 43.42885518 -31.42782725 42.50680824 -33.453125 41.578125 C-34.39372772 41.17463837 -34.39372772 41.17463837 -35.35333252 40.76300049 C-38.54765788 39.26022491 -39.85986499 38.30057835 -41.36962891 35.06225586 C-41.89650238 32.50277717 -42.37415167 30.02404353 -42.6328125 27.42578125 C-42.7167627 26.59788086 -42.80071289 25.76998047 -42.88720703 24.91699219 C-42.96567871 24.05750977 -43.04415039 23.19802734 -43.125 22.3125 C-43.20991699 21.42852539 -43.29483398 20.54455078 -43.38232422 19.63378906 C-43.94959673 13.41319517 -44.25792904 7.24761448 -44 1 C-38.53524449 4.89249345 -33.55786886 9.14990721 -28.609375 13.67578125 C-24.54712553 17.29410226 -20.28650666 20.65287671 -16 24 C-12.99864642 20.20881653 -10.53165494 16.11021625 -8 12 C-2.74226804 3.46391753 -2.74226804 3.46391753 0 0 Z " fill="#000000" transform="translate(145,300)"/>
<path d="M0 0 C0.66 0 1.32 0 2 0 C3.2265625 1.6171875 3.2265625 1.6171875 4.625 3.875 C6.31313821 6.59584606 7.9481347 8.94625535 10.17626953 11.25512695 C15.96772308 17.28046859 15.96772308 17.28046859 16.05517578 21.93945312 C15.34783184 25.18460783 14.38691429 28.19211413 13.25 31.3125 C12.89542725 32.40812256 12.54085449 33.50374512 12.17553711 34.63256836 C11.47287479 36.79249749 10.75005611 38.94599344 10.00537109 41.09179688 C8.75061044 44.7214008 7.65326531 48.38066021 6.5625 52.0625 C6.04415843 53.70911979 5.52381203 55.35511226 5 57 C-1.40999726 55.77277066 -7.81910648 54.54121641 -14.2265625 53.30078125 C-18.13422253 52.54556017 -22.04292686 51.80493571 -25.9609375 51.10546875 C-26.64921631 50.97889893 -27.33749512 50.8523291 -28.04663086 50.72192383 C-29.80970865 50.39844629 -31.57471452 50.08552694 -33.33984375 49.7734375 C-36.2494446 48.92747426 -37.07416416 48.25795525 -39 46 C-39.93554688 44.19750977 -39.93554688 44.19750977 -40.71875 42.19140625 C-41.00999756 41.44938965 -41.30124512 40.70737305 -41.60131836 39.94287109 C-42.04616577 38.7645874 -42.04616577 38.7645874 -42.5 37.5625 C-42.80752197 36.76150879 -43.11504395 35.96051758 -43.43188477 35.13525391 C-45.79513607 28.84879122 -47.64428117 22.58492002 -49 16 C-40.87089561 18.61451985 -32.91152126 21.64145318 -24.9375 24.6875 C-23.58144483 25.20394574 -22.2253255 25.72022307 -20.86914062 26.23632812 C-17.57868575 27.48894607 -14.28910307 28.74383611 -11 30 C-8.34384628 23.00926413 -5.87613335 15.96091822 -3.4296875 8.89453125 C-3.130625 8.03472656 -2.8315625 7.17492187 -2.5234375 6.2890625 C-2.25450684 5.51256348 -1.98557617 4.73606445 -1.70849609 3.93603516 C-1 2 -1 2 0 0 Z " fill="#000000" transform="translate(156,332)"/>
<path d="M0 0 C0.66 0 1.32 0 2 0 C3.28948279 3.76937464 4.570977 7.54136157 5.84521484 11.31591797 C6.2795637 12.59888279 6.71606654 13.88112052 7.15478516 15.16259766 C7.78597355 17.00749978 8.40871559 18.85528477 9.03125 20.703125 C9.40830078 21.81333008 9.78535156 22.92353516 10.17382812 24.06738281 C11 27 11 27 11 31 C11.68400879 30.72325439 12.36801758 30.44650879 13.07275391 30.16137695 C38.19388222 20.01281284 38.19388222 20.01281284 50 16 C49.38553888 22.02171902 47.70339352 27.36981956 45.6875 33.0625 C45.39166016 33.93455078 45.09582031 34.80660156 44.79101562 35.70507812 C44.34338867 36.9822168 44.34338867 36.9822168 43.88671875 38.28515625 C43.62076904 39.04707275 43.35481934 39.80898926 43.08081055 40.59399414 C39.63815729 48.25772756 39.63815729 48.25772756 36.1565094 49.83531189 C33.84290427 50.47882651 31.54753965 50.94841044 29.18359375 51.37109375 C27.90428734 51.62826927 27.90428734 51.62826927 26.59913635 51.89064026 C24.80184336 52.24725719 23.002157 52.59199308 21.20043945 52.92553711 C18.43858774 53.43729845 15.68543821 53.98379572 12.93164062 54.53710938 C11.18268947 54.87964163 9.4333513 55.2202049 7.68359375 55.55859375 C6.85854843 55.71992294 6.03350311 55.88125214 5.18345642 56.04747009 C-0.64748403 57.11750532 -0.64748403 57.11750532 -4 56 C-4.9968566 53.53192055 -5.78792029 51.1893314 -6.515625 48.640625 C-6.73571228 47.89923279 -6.95579956 47.15784058 -7.18255615 46.39398193 C-7.64569919 44.82205374 -8.10258297 43.24827001 -8.55371094 41.67285156 C-9.24468339 39.26850001 -9.9605723 36.87262671 -10.6796875 34.4765625 C-11.12652319 32.94836121 -11.57188393 31.41972773 -12.015625 29.890625 C-12.23011292 29.17585999 -12.44460083 28.46109497 -12.66558838 27.72467041 C-13.76817933 23.8077519 -14.33327044 20.89486383 -13 17 C-11.07421875 14.31640625 -11.07421875 14.31640625 -8.6875 11.5625 C-4.89125848 7.11013558 -4.89125848 7.11013558 -1.5625 2.3125 C-1.046875 1.549375 -0.53125 0.78625 0 0 Z " fill="#000000" transform="translate(433,332)"/>
<path d="M0 0 C2.67085698 3.27938809 5.17803384 6.6130967 7.57421875 10.09765625 C8.23784424 11.05889404 8.90146973 12.02013184 9.58520508 13.01049805 C10.2789624 14.01765869 10.97271973 15.02481934 11.6875 16.0625 C17.81529976 24.91915597 23.94801308 33.76199358 30.73046875 42.13671875 C32 44 32 44 32 46.625 C30.58828441 51.38954011 28.34040027 55.63010134 26 60 C7.5539975 53.72631338 -10.2563496 32.14595306 -20 16 C-20.56847656 15.09894531 -21.13695312 14.19789063 -21.72265625 13.26953125 C-23 11 -23 11 -23 9 C-22.39414063 8.91363281 -21.78828125 8.82726562 -21.1640625 8.73828125 C-13.20795718 7.40410359 -6.69538562 4.46359041 0 0 Z " fill="#000000" transform="translate(249,338)"/>
<path d="M0 0 C6.82423338 1.23416987 13.39367844 2.8915995 20 5 C17.12869895 10.34227648 13.85835175 14.95433337 10 19.625 C9.14559326 20.66442749 9.14559326 20.66442749 8.27392578 21.72485352 C-12.86556488 47.22724984 -12.86556488 47.22724984 -27 54 C-27.99 54 -28.98 54 -30 54 C-31.19984797 51.73495035 -32.38494769 49.46410112 -33.5625 47.1875 C-33.90474609 46.54490234 -34.24699219 45.90230469 -34.59960938 45.24023438 C-35.4765023 43.53073605 -36.24515617 41.76678706 -37 40 C-35.90303373 36.7091012 -35.15198144 36.03203283 -32.5625 33.875 C-31.47001953 32.94494141 -31.47001953 32.94494141 -30.35546875 31.99609375 C-29.57816406 31.33738281 -28.80085938 30.67867188 -28 30 C-22.02782476 24.81173722 -16.27093076 19.41447303 -10.625 13.875 C-10.02993652 13.30128662 -9.43487305 12.72757324 -8.82177734 12.13647461 C-5.03979732 8.38401614 -2.44692649 4.73715326 0 0 Z " fill="#000000" transform="translate(346,343)"/>
<path d="M0 0 C0.66 0.680625 1.32 1.36125 2 2.0625 C4.19769859 4.24785197 6.4462487 6.36412383 8.75 8.4375 C9.34296875 8.97246094 9.9359375 9.50742187 10.546875 10.05859375 C12.85861519 12.01290957 12.85861519 12.01290957 15.17741394 13.13542175 C21.52197602 16.63154694 21.52197602 16.63154694 22.79489136 20.27555847 C23.04159358 23.03413939 23.01369503 25.66333953 22.87890625 28.4296875 C22.86617172 29.42001984 22.85343719 30.41035217 22.84031677 31.43069458 C22.79009275 34.58133079 22.67722782 37.7261182 22.5625 40.875 C22.51733885 43.01554155 22.47627711 45.15617379 22.43945312 47.296875 C22.34044148 52.53323184 22.19003018 57.76619823 22 63 C15.52417159 64.16920529 9.0461384 65.32552827 2.56640625 66.47290039 C0.36210025 66.86478783 -1.84168303 67.25962741 -4.04492188 67.6574707 C-7.21091224 68.22863248 -10.3786273 68.78917018 -13.546875 69.34765625 C-14.53242371 69.52780777 -15.51797241 69.70795929 -16.53338623 69.89356995 C-17.91436493 70.13393227 -17.91436493 70.13393227 -19.32324219 70.37915039 C-20.1315448 70.52349014 -20.93984741 70.6678299 -21.77264404 70.81654358 C-24.1489605 71.01226915 -25.76182991 70.8032194 -28 70 C-34.505093 63.48111041 -39.43915004 55.14750661 -44.5 47.5 C-45.22703125 46.4171875 -45.9540625 45.334375 -46.703125 44.21875 C-47.38890625 43.1875 -48.0746875 42.15625 -48.78125 41.09375 C-49.40064453 40.16240234 -50.02003906 39.23105469 -50.65820312 38.27148438 C-52 36 -52 36 -52 34 C-39.99197994 35.49497439 -28.10185076 37.21444617 -16.26074219 39.72949219 C-13.1194151 40.39457712 -10.22155279 41 -7 41 C-6.823479 39.86457764 -6.64695801 38.72915527 -6.46508789 37.55932617 C-5.80981526 33.34895609 -5.1511498 29.13912265 -4.49145508 24.92944336 C-4.20634795 23.10699706 -3.92216256 21.28440632 -3.63891602 19.46166992 C-3.23175107 16.84255109 -2.82127996 14.22396871 -2.41015625 11.60546875 C-2.22103416 10.38188911 -2.22103416 10.38188911 -2.02809143 9.1335907 C-1.53139671 5.98681581 -1.00941346 3.02824037 0 0 Z " fill="#000000" transform="translate(176,356)"/>
<path d="M0 0 C0.66 0 1.32 0 2 0 C2.85959236 5.17698644 3.71393411 10.35480213 4.56347656 15.53344727 C4.85305872 17.2941003 5.14406028 19.0545205 5.43652344 20.81469727 C5.85727648 23.34851791 6.27287473 25.88313909 6.6875 28.41796875 C6.81874268 29.20149216 6.94998535 29.98501556 7.08520508 30.7922821 C7.69835392 34.57143898 8.16060604 38.155493 8 42 C8.61705811 41.86424561 9.23411621 41.72849121 9.86987305 41.58862305 C24.18963239 38.46159307 38.46116527 35.8627882 53 34 C50.5807068 40.80263626 46.40450052 46.74114802 42.47363281 52.74804688 C41.47967441 54.26697867 40.49482086 55.79190244 39.51855469 57.32226562 C38.05105054 59.59780765 36.53452817 61.83175535 35 64.0625 C34.55092285 64.77124268 34.1018457 65.47998535 33.63916016 66.21020508 C32.19880771 68.23201439 31.03094069 69.57178802 29 71 C26.82937622 71.11584473 26.82937622 71.11584473 24.39111328 70.77929688 C23.50377502 70.66175552 22.61643677 70.54421417 21.70220947 70.42311096 C20.81048035 70.28348434 19.91875122 70.14385773 19 70 C18.20962341 69.87717148 17.41924683 69.75434296 16.60491943 69.62779236 C14.22868255 69.23463345 11.8606922 68.80833395 9.4921875 68.37109375 C8.64069122 68.21713638 7.78919495 68.06317902 6.91189575 67.90455627 C4.2322502 67.41919808 1.55362559 66.92845256 -1.125 66.4375 C-2.95826811 66.10445845 -4.79160095 65.77177305 -6.625 65.43945312 C-11.084091 64.63041007 -15.54227583 63.81653903 -20 63 C-20.29812736 56.75652518 -20.51502905 50.51724051 -20.65917969 44.26831055 C-20.71929088 42.14648245 -20.80101343 40.02514667 -20.90527344 37.9050293 C-21.72801832 20.73627945 -21.72801832 20.73627945 -18.84185791 16.16610718 C-15.72320658 12.87860661 -12.06314142 10.97143326 -8 9 C-4.51012798 6.49500493 -1.5327098 4.13831646 0 0 Z " fill="#000000" transform="translate(413,356)"/>
<path d="M0 0 C23.79729565 4.67990621 23.79729565 4.67990621 32 11 C35.31000858 16.49832118 36.56224414 22.3376232 37.47192383 28.64013672 C38.2334404 33.47766678 38.2334404 33.47766678 40 38 C43.08517601 39.45680398 45.82591448 39.94742799 49.1940918 40.4387207 C52 41 52 41 54.40234375 43.6640625 C54.90894531 44.64117187 55.41554688 45.61828125 55.9375 46.625 C58.09470706 49.66741957 59.60158484 51.67385018 63.32177734 52.54150391 C67.02441937 52.902588 70.65743044 52.96756742 74.37475586 52.85205078 C80.67096508 52.67550537 83.70770745 53.60507226 89 57 C92.05304744 56.40136325 94.1893562 55.46689516 96.86425781 53.92626953 C99.3989797 52.82696285 101.22875091 52.77108233 103.984375 52.8046875 C105.38623047 52.81435547 105.38623047 52.81435547 106.81640625 52.82421875 C107.78449219 52.84097656 108.75257813 52.85773438 109.75 52.875 C110.73355469 52.88402344 111.71710938 52.89304687 112.73046875 52.90234375 C115.15389407 52.92587215 117.57682222 52.95874632 120 53 C120.30091553 52.3827002 120.60183105 51.76540039 120.91186523 51.12939453 C123.25948499 46.53528649 126.47854917 42.02865158 131.35546875 40.0390625 C134.63825209 39.3000346 137.63441142 39 141 39 C141.226875 37.700625 141.45375 36.40125 141.6875 35.0625 C142.1114086 33.03877198 142.55146389 31.01841249 143 29 C143.1453418 28.31437988 143.29068359 27.62875977 143.44042969 26.92236328 C143.93990789 24.6448025 144.49580861 22.38669504 145.0625 20.125 C145.2174292 19.38773682 145.3723584 18.65047363 145.53198242 17.89086914 C146.37096163 14.7272259 147.05156792 12.65425022 149.80639648 10.75390625 C152.16863109 9.68123878 154.54181886 8.82890267 157 8 C158.80279204 7.29155404 160.6035336 6.57787126 162.40234375 5.859375 C164.2463996 5.15364136 166.09146268 4.45053419 167.9375 3.75 C169.35385742 3.20472656 169.35385742 3.20472656 170.79882812 2.6484375 C171.69923828 2.30554688 172.59964844 1.96265625 173.52734375 1.609375 C174.33937256 1.29967773 175.15140137 0.98998047 175.98803711 0.67089844 C178 0 178 0 180 0 C180.13406335 10.37594501 179.75664225 20.58479354 179 30.9375 C178.90316884 32.31441966 178.80681294 33.69137283 178.7109375 35.06835938 C178.47859332 38.37926392 178.24156258 41.68975751 178 45 C194.62489123 48.25230113 211.30000605 51.16385468 228 54 C228 54.66 228 55.32 228 56 C224.00633075 58.03462043 220.00834869 60.06045332 216.0065918 62.07910156 C214.65291029 62.76336959 213.30032302 63.44980772 211.94897461 64.13867188 C204.69182874 67.83616743 197.39212714 71.4034516 189.87890625 74.5546875 C188.70013916 75.05210449 187.52137207 75.54952148 186.30688477 76.06201172 C179.92147933 77.87321347 175.38066547 75.46412407 169.7734375 72.47265625 C169.10333649 72.12367783 168.43323547 71.7746994 167.74282837 71.41514587 C165.61604618 70.30536341 163.49550293 69.1842258 161.375 68.0625 C159.94311258 67.31237888 158.51082441 66.56302221 157.078125 65.81445312 C154.4510746 64.44104023 151.82666773 63.06281135 149.20458984 61.67993164 C148.1470752 61.1255542 147.08956055 60.57117676 146 60 C145.31075439 59.57887939 144.62150879 59.15775879 143.91137695 58.72387695 C141.18297478 57.69057609 139.29899569 58.18748228 136.45703125 58.7578125 C135.38259766 58.97179687 134.30816406 59.18578125 133.20117188 59.40625 C132.08291016 59.6434375 130.96464844 59.880625 129.8125 60.125 C128.71357422 60.33898437 127.61464844 60.55296875 126.48242188 60.7734375 C119.89345396 62.12502066 113.99839542 63.94244839 108 67 C109.42892578 67.77923828 109.42892578 67.77923828 110.88671875 68.57421875 C112.15389159 69.27820366 113.42080498 69.98265572 114.6875 70.6875 C115.31333984 71.02716797 115.93917969 71.36683594 116.58398438 71.71679688 C122.88667309 75.24762249 128.65639361 79.96918083 131 87 C131.48289318 91.29854094 131.72907776 94.80431248 129.4375 98.5625 C126.04770946 100.56160724 123.88344601 100.46601352 120 100 C117.734375 97.65625 117.734375 97.65625 115.75 94.5 C111.43063628 88.11922865 106.54795504 84.11345894 100 80 C99.19820312 79.37996094 98.39640625 78.75992188 97.5703125 78.12109375 C94.90661392 76.30890537 93.20824434 75.39471962 90 75 C79.19599811 78.71348623 69.11690212 87.18035826 62.8125 96.5625 C60.61339999 99.67737254 60.35065484 99.92140495 56.375 100.8125 C53 100 53 100 50.5 98.125 C48.27901177 93.49794119 48.63769285 89.88783827 50 85 C54.07869124 75.89755491 64.442692 71.13255362 73 67 C66.23952651 63.704432 59.63411891 61.47986314 52.25 60.1875 C51.55398682 60.0639917 50.85797363 59.9404834 50.14086914 59.81323242 C42.16048729 58.52583031 36.33271765 58.28779784 29.05078125 62.17578125 C28.4302739 62.5016069 27.80976654 62.82743256 27.17045593 63.16313171 C25.20929201 64.1977491 23.26120784 65.25464384 21.3125 66.3125 C19.99492266 67.01124227 18.67656817 67.70852116 17.35742188 68.40429688 C10.72420607 71.89157677 10.72420607 71.89157677 4.29125977 75.7277832 C0.83807793 77.6451546 -1.20619308 76.93085159 -5 76 C-8.27895044 74.86019527 -11.44732909 73.52019846 -14.625 72.125 C-15.52565186 71.73513916 -16.42630371 71.34527832 -17.35424805 70.94360352 C-27.49569676 66.47090609 -37.26692889 61.29201279 -47 56 C-47 55.34 -47 54.68 -47 54 C-40.36200365 52.85719876 -33.72335266 51.71826206 -27.08422852 50.58203125 C-24.82496055 50.19490447 -22.5658449 49.80688772 -20.30688477 49.41796875 C-17.06305783 48.85964596 -13.81869962 48.30450836 -10.57421875 47.75 C-9.56163498 47.57500977 -8.54905121 47.40001953 -7.50578308 47.21972656 C-6.56503433 47.05956055 -5.62428558 46.89939453 -4.6550293 46.734375 C-3.82674118 46.59225586 -2.99845306 46.45013672 -2.14506531 46.30371094 C0 46 0 46 3 46 C2.94465088 45.4237085 2.88930176 44.84741699 2.83227539 44.25366211 C1.43545189 29.51070609 0.50898479 14.7998708 0 0 Z " fill="#000000" transform="translate(205,380)"/>
<path d="M0 0 C3.41042364 1.13680788 3.72502787 1.68352013 5.55859375 4.60546875 C6.26145508 5.71051758 6.26145508 5.71051758 6.97851562 6.83789062 C7.45998047 7.61326172 7.94144531 8.38863281 8.4375 9.1875 C9.85802577 11.43618654 11.27934844 13.68434367 12.70361328 15.93066406 C13.51686421 17.22880245 14.31469976 18.53686566 15.08935547 19.85839844 C16.99807046 23.03119099 16.99807046 23.03119099 20.140625 24.8046875 C22.09375 24.86979167 24.046875 24.93489583 26 25 C25.68916714 31.06124079 22.67611609 35.36828875 19 40 C16.53990037 41.23004981 14.86827194 41.13314027 12.125 41.125 C11.26132812 41.12757813 10.39765625 41.13015625 9.5078125 41.1328125 C7.19334029 41.01023921 5.21710884 40.64966445 3 40 C3.12761719 39.3915625 3.25523437 38.783125 3.38671875 38.15625 C4.57304078 27.67963986 -1.93356974 20.84893655 -8 13 C-7.50628906 12.22914063 -7.01257813 11.45828125 -6.50390625 10.6640625 C-5.86324219 9.66117187 -5.22257812 8.65828125 -4.5625 7.625 C-3.92441406 6.62726563 -3.28632813 5.62953125 -2.62890625 4.6015625 C-1.03100789 2.14169479 -1.03100789 2.14169479 0 0 Z " fill="#000000" transform="translate(305,389)"/>
</svg>
