<?xml version="1.0" encoding="UTF-8"?>
<svg version="1.1" xmlns="http://www.w3.org/2000/svg" width="591" height="591">
<path d="M0 0 C2.95819645 2.78409006 5.17324293 5.57719928 7.328125 9.015625 C7.95404541 10.0061084 8.57996582 10.9965918 9.22485352 12.01708984 C10.22730103 13.61738037 10.22730103 13.61738037 11.25 15.25 C12.69819196 17.54137296 14.15131553 19.82959404 15.60546875 22.1171875 C16.15925453 22.98925339 16.15925453 22.98925339 16.72422791 23.87893677 C20.25781201 29.43081917 23.89589163 34.91014288 27.5625 40.375 C35.90959616 52.82576748 44.13508117 65.35499643 52.35475159 77.8901062 C53.72125284 79.97183163 55.09097488 82.05141081 56.4609375 84.13085938 C58.08705196 86.60097258 59.69606547 89.08068169 61.2890625 91.57226562 C61.97742188 92.63638672 62.66578125 93.70050781 63.375 94.796875 C64.25285156 96.17117676 64.25285156 96.17117676 65.1484375 97.57324219 C68.1401348 101.49432224 71.56598049 104.57404659 76.5 105.4375 C94.21797967 103.22275254 114.07250785 80.30428727 124.68701172 66.73583984 C131.76214789 57.38213621 137.68325587 47.43983201 143 37 C144.49467446 40.93716648 143.52852578 44.43181447 142.66064453 48.39892578 C142.50633972 49.13756866 142.35203491 49.87621155 142.1930542 50.63723755 C141.68147713 53.07514443 141.15733315 55.51016051 140.6328125 57.9453125 C140.27436477 59.63859713 139.91661674 61.33203002 139.55953979 63.02560425 C138.80985588 66.57243088 138.05443223 70.11796712 137.29443359 73.66259766 C136.31910509 78.21188993 135.35386745 82.76324472 134.39236641 87.31547737 C133.47609815 91.65118484 132.55456444 95.98576819 131.6328125 100.3203125 C131.3687882 101.56553366 131.3687882 101.56553366 131.09943008 102.8359108 C130.60192438 105.17786466 130.10065371 107.51897861 129.59814453 109.85986328 C129.37676315 110.90563538 129.37676315 110.90563538 129.15090942 111.97253418 C128.1147369 116.77052621 128.1147369 116.77052621 127 119 C125.89527344 118.89816406 124.79054688 118.79632813 123.65234375 118.69140625 C108.74540911 118.01795896 99.77343077 124.31588758 88.04052734 132.83349609 C82.83106074 136.54546065 77.43890578 139.97406327 72.0625 143.4375 C70.1150743 144.70578667 68.16838169 145.97520018 66.22265625 147.24609375 C64.81510417 148.1640625 63.40755208 149.08203125 62 150 C60.16957705 147.25436557 58.94657054 144.59248497 57.69213867 141.55541992 C53.01622872 130.2971577 46.96755345 121.8987415 38.66015625 112.96484375 C35.36463097 109.29185743 32.34486298 105.45149236 29.32397461 101.55273438 C25.17759784 96.20332025 20.92303507 90.9481632 16.64331055 85.70507812 C13.56436651 81.93127693 10.51695884 78.13625386 7.5 74.3125 C4.84350385 70.9749953 2.11123825 67.91678586 -1 65 C-1.27529541 65.58990723 -1.55059082 66.17981445 -1.83422852 66.78759766 C-2.94826244 68.9018124 -4.13192184 70.56316342 -5.65234375 72.3984375 C-6.17570313 73.03523438 -6.6990625 73.67203125 -7.23828125 74.328125 C-7.79902344 75.00359375 -8.35976563 75.6790625 -8.9375 76.375 C-10.12464492 77.81953475 -11.31082742 79.26486093 -12.49609375 80.7109375 C-13.38530518 81.7952002 -13.38530518 81.7952002 -14.29248047 82.90136719 C-16.73500187 85.90335661 -19.12091161 88.947668 -21.5 92 C-25.50133786 97.11612749 -29.54173027 102.1989711 -33.625 107.25 C-34.17567139 107.93320313 -34.72634277 108.61640625 -35.29370117 109.3203125 C-38.32286513 113.04684121 -41.45773301 116.55862112 -44.8125 120 C-50.42915816 126.1019209 -53.61726803 133.51578018 -57 141 C-57.45761719 141.99902344 -57.91523438 142.99804688 -58.38671875 144.02734375 C-59.27887888 146.00887835 -60.14396804 148.00259209 -61 150 C-66.66150913 146.41723073 -72.3100908 142.81425846 -77.93896484 139.18041992 C-79.37356792 138.25629012 -80.81149423 137.33730199 -82.25244141 136.4230957 C-86.0873441 133.97122453 -89.78498135 131.43997563 -93.390625 128.66015625 C-94.13046631 128.11190186 -94.87030762 127.56364746 -95.63256836 126.9987793 C-97.01760445 125.96709881 -98.37908734 124.90239323 -99.70532227 123.79614258 C-107.55433052 118.07045428 -117.67796925 119.03585235 -127 119 C-129.09329895 109.19596957 -131.180027 99.39056579 -133.25842285 89.58336449 C-134.22375324 85.02933078 -135.19132389 80.47579741 -136.1640625 75.92333984 C-137.10306187 71.52837659 -138.0361133 67.1321887 -138.96508789 62.73509598 C-139.32020374 61.05936518 -139.67744537 59.3840834 -140.03686523 57.70927048 C-140.54066166 55.35991229 -141.03681473 53.0090583 -141.53125 50.65771484 C-141.68086182 49.96863037 -141.83047363 49.2795459 -141.98461914 48.56958008 C-142.79929266 44.64996929 -143.14565339 41.00067449 -143 37 C-140.61863686 39.93377967 -138.82905397 43.05638294 -137.04492188 46.38037109 C-130.2705889 58.96426211 -121.80432749 69.60147084 -112 80 C-111.32839844 80.73605469 -110.65679687 81.47210938 -109.96484375 82.23046875 C-103.40653061 89.15653776 -95.79766222 94.56973909 -88 100 C-86.94039062 100.74636719 -85.88078125 101.49273437 -84.7890625 102.26171875 C-82.36545541 103.77223017 -80.84281604 104.62380502 -78.0625 105 C-77.45535156 105.103125 -76.84820312 105.20625 -76.22265625 105.3125 C-72.07975327 104.73001803 -68.40647604 102.53195014 -65.59764099 99.47253418 C-64.27328531 97.67380867 -63.05354167 95.83830031 -61.85546875 93.953125 C-61.40077713 93.26426208 -60.94608551 92.57539917 -60.47761536 91.86566162 C-59.03317691 89.66948284 -57.61035432 87.4602074 -56.1875 85.25 C-55.24549596 83.81291275 -54.30214576 82.37670697 -53.35742188 80.94140625 C-48.27645336 73.19443636 -43.33253929 65.36536439 -38.43983459 57.49850464 C-35.26056589 52.39364617 -31.98684226 47.36177734 -28.625 42.375 C-27.44640117 40.61733059 -26.26803109 38.85950777 -25.08984375 37.1015625 C-24.13247314 35.67505371 -24.13247314 35.67505371 -23.15576172 34.21972656 C-20.66022939 30.49253739 -18.17510428 26.75851826 -15.69140625 23.0234375 C-14.7719916 21.6414262 -13.852558 20.25942751 -12.93310547 18.87744141 C-11.56269236 16.81759864 -10.19254021 14.75758523 -8.82330322 12.69696045 C-7.54343327 10.77121421 -6.26211403 8.84644 -4.98046875 6.921875 C-4.39864586 6.04527725 -4.39864586 6.04527725 -3.80506897 5.15097046 C-1.1139137 1.1139137 -1.1139137 1.1139137 0 0 Z " fill="#000000" transform="translate(295,38)"/>
<path d="M0 0 C2.28220104 2.82417143 3.745944 5.45925877 5.05297852 8.84106445 C5.42669083 9.79918533 5.80040314 10.75730621 6.18544006 11.74446106 C6.77620583 13.28827705 6.77620583 13.28827705 7.37890625 14.86328125 C7.79164291 15.92862595 8.20437958 16.99397064 8.62962341 18.09159851 C9.50077672 20.34401209 10.36887321 22.59760998 11.23413086 24.85229492 C12.55451975 28.29171264 13.88482819 31.72716183 15.21679688 35.16210938 C16.06309033 37.35393882 16.90881228 39.54598904 17.75390625 41.73828125 C18.14977432 42.76141922 18.5456424 43.78455719 18.95350647 44.83869934 C20.87259865 49.84968108 22.63620725 54.80906668 24 60 C20.55525837 62.61019082 17.09857498 65.20322592 13.62939453 67.78076172 C12.12730343 68.90474179 10.63912807 70.04725536 9.15234375 71.19140625 C8.29769531 71.82949219 7.44304687 72.46757812 6.5625 73.125 C5.80066406 73.70507812 5.03882813 74.28515625 4.25390625 74.8828125 C1.31809225 76.33799933 0.11547191 75.88972189 -3 75 C-5.18823242 73.70898438 -5.18823242 73.70898438 -7.35546875 72.09375 C-8.14244141 71.51496094 -8.92941406 70.93617188 -9.74023438 70.33984375 C-10.95163086 69.42912109 -10.95163086 69.42912109 -12.1875 68.5 C-13.80521266 67.30103436 -15.42366637 66.10306773 -17.04296875 64.90625 C-17.75477295 64.37322266 -18.46657715 63.84019531 -19.19995117 63.29101562 C-20.9726256 61.94790668 -20.9726256 61.94790668 -23 61 C-22.43068965 55.39986388 -20.94584995 50.73038233 -18.83203125 45.53125 C-18.51473557 44.73328003 -18.19743988 43.93531006 -17.87052917 43.11315918 C-16.85835812 40.5725047 -15.83565634 38.03624763 -14.8125 35.5 C-14.14447843 33.82840611 -13.47715486 32.15653311 -12.81054688 30.484375 C-11.50603225 27.21532658 -10.19610804 23.94853443 -8.88134766 20.68359375 C-7.64711027 17.61713791 -6.42269904 14.54709927 -5.20849609 11.47265625 C-4.93156418 10.77329956 -4.65463226 10.07394287 -4.36930847 9.35339355 C-3.62311677 7.46734308 -2.87922648 5.58038255 -2.13549805 3.69335938 C-1 1 -1 1 0 0 Z " fill="#000000" transform="translate(295,150)"/>
<path d="M0 0 C2.84713831 0.8289766 4.86164343 1.91892494 7.34863281 3.52758789 C8.27329346 4.12144287 9.1979541 4.71529785 10.15063477 5.32714844 C11.66983521 6.32161987 11.66983521 6.32161987 13.21972656 7.33618164 C14.31051514 8.04234619 15.40130371 8.74851074 16.52514648 9.47607422 C27.40746339 16.53716337 38.1847419 23.75937238 48.96923828 30.96850586 C60.76079745 38.85046751 72.57200749 46.70219161 84.40658569 54.5194397 C86.34882746 55.80301746 88.29026884 57.08780723 90.23086548 58.37387085 C92.95810946 60.1809391 95.68815937 61.98369053 98.41894531 63.78540039 C99.22065155 64.31774292 100.02235779 64.85008545 100.84835815 65.39855957 C105.98847362 68.78098158 111.2369314 71.86161688 116.65722656 74.77368164 C117.14787598 74.44510162 117.63852539 74.11652161 118.14404297 73.77798462 C123.33495313 70.30242097 128.52817937 66.83033796 133.72265625 63.36010742 C135.650965 62.07125281 137.57871674 60.78156437 139.50585938 59.4909668 C149.20503402 52.99625412 158.91345035 46.5456877 168.8447876 40.41062927 C176.04748018 35.9455725 183.07611917 31.22412168 190.11132812 26.50119019 C192.46014322 24.92568699 194.81208173 23.35495385 197.16503906 21.78564453 C205.68946272 16.10477212 205.68946272 16.10477212 214.19042969 10.38891602 C217.00618845 8.48637631 219.83034237 6.59712653 222.65722656 4.71118164 C223.82850098 3.90813599 223.82850098 3.90813599 225.0234375 3.08886719 C230.113437 -0.28136475 230.113437 -0.28136475 232.66625977 -0.02294922 C234.9358344 0.88515894 236.24503581 1.9338971 238.01269531 3.61743164 C238.63096191 4.20024902 239.24922852 4.78306641 239.88623047 5.38354492 C240.53253418 6.00729004 241.17883789 6.63103516 241.84472656 7.27368164 C242.84511963 8.22283447 242.84511963 8.22283447 243.86572266 9.19116211 C248.2689569 13.38517602 252.58115264 17.66432116 256.84863281 21.99633789 C258.98937822 24.10009418 261.24717623 25.98557978 263.65722656 27.77368164 C263.27585504 30.18217466 262.96464823 31.47446062 261.19287109 33.19897461 C260.56493652 33.6335498 259.93700195 34.068125 259.29003906 34.51586914 C258.57920166 35.01723389 257.86836426 35.51859863 257.13598633 36.03515625 C255.97087524 36.83385132 255.97087524 36.83385132 254.78222656 37.64868164 C253.12654612 38.81300526 251.47162187 39.9784048 249.81738281 41.14477539 C248.96160645 41.74402832 248.10583008 42.34328125 247.22412109 42.96069336 C243.1785824 45.81804264 239.19939713 48.76312395 235.21972656 51.71118164 C233.62737199 52.88708931 232.03492358 54.06286991 230.44238281 55.23852539 C229.65234863 55.82230957 228.86231445 56.40609375 228.04833984 57.00756836 C224.08731494 59.93324267 220.12206939 62.8531847 216.15722656 65.77368164 C214.57387277 66.94032054 212.99053944 68.10698722 211.40722656 69.27368164 C201.90722656 76.27368164 201.90722656 76.27368164 199.52954102 78.02563477 C197.95512674 79.18574655 196.38074493 80.3459024 194.80639648 81.50610352 C190.71187437 84.52343242 186.61669596 87.53986476 182.52050781 90.55493164 C181.67488281 91.17754883 180.82925781 91.80016602 179.95800781 92.44165039 C178.35535498 93.62162555 176.75250573 94.801334 175.14941406 95.98071289 C170.2990076 99.55245333 165.47109949 103.15287686 160.65722656 106.77368164 C167.27280901 111.45231115 173.95727173 116.00402131 180.73144531 120.44946289 C181.65834671 121.05952682 182.58524811 121.66959076 183.54023743 122.29814148 C186.47416769 124.22885976 189.40937552 126.15762427 192.34472656 128.08618164 C196.20323574 130.62327916 200.06120413 133.16119779 203.91894531 135.69946289 C204.84343475 136.3075882 205.76792419 136.9157135 206.72042847 137.54226685 C214.38687733 142.58830852 222.0299334 147.66868294 229.65722656 152.77368164 C228.17762748 156.67668528 226.57212323 159.34593561 223.84472656 162.52368164 C219.78622761 167.36115056 215.91216313 172.30646596 212.09472656 177.33618164 C207.36785298 183.55463117 202.586038 189.71317936 197.65722656 195.77368164 C193.36040519 194.29889138 189.96207045 192.01473989 186.34472656 189.33618164 C185.08782754 188.42216374 183.82998009 187.50944894 182.57128906 186.59790039 C181.92321289 186.12787598 181.27513672 185.65785156 180.60742188 185.17358398 C177.5108329 182.95076962 174.36699608 180.79886015 171.21972656 178.64868164 C161.69208511 172.12630906 152.22078981 165.52350575 142.74609375 158.92456055 C137.40534653 155.20562417 132.06240716 151.48983968 126.71972656 147.77368164 C124.77310246 146.41952866 122.82648697 145.0653633 120.87988281 143.71118164 C120.06269775 143.14270508 119.2455127 142.57422852 118.40356445 141.98852539 C117.82727295 141.58762695 117.25098145 141.18672852 116.65722656 140.77368164 C111.11368538 143.72305477 105.95399783 146.83458659 100.96972656 150.64868164 C94.81150807 155.25859804 88.52591954 159.64726895 82.15722656 163.96118164 C74.24286216 169.32279248 66.37113899 174.73982052 58.53222656 180.21118164 C55.72713576 182.16220325 52.92131097 184.11216416 50.11523438 186.06176758 C47.95533108 187.56606256 45.80189674 189.07911897 43.64941406 190.59399414 C42.57949219 191.33391602 41.50957031 192.07383789 40.40722656 192.83618164 C39.53582031 193.4459082 38.66441406 194.05563477 37.76660156 194.68383789 C36.72246094 195.22331055 36.72246094 195.22331055 35.65722656 195.77368164 C31.78591235 194.48324357 30.96888806 192.81562244 28.59472656 189.52368164 C27.79089988 188.42279217 26.98618119 187.32255357 26.18066406 186.22290039 C25.76526367 185.6523291 25.34986328 185.08175781 24.921875 184.49389648 C22.89802749 181.74099502 20.80943074 179.03922222 18.71972656 176.33618164 C18.10581055 175.53724487 18.10581055 175.53724487 17.47949219 174.72216797 C15.28423787 171.86722432 13.07147473 169.02766953 10.83691406 166.20336914 C10.37792725 165.61869873 9.91894043 165.03402832 9.44604492 164.43164062 C8.566862 163.31229067 7.68251084 162.1969744 6.79223633 161.08642578 C4.63381015 158.32797379 3.36559076 156.18596275 2.65722656 152.77368164 C8.43035037 148.85916354 14.20670709 144.94944945 19.98510742 141.04272461 C21.94154577 139.71922807 23.89730009 138.39471969 25.85229492 137.0690918 C37.35585465 129.26996803 48.92092193 121.61057335 60.71264648 114.25317383 C62.02763623 113.42688284 63.34250461 112.60039866 64.65722656 111.77368164 C65.2698233 111.39554321 65.88242004 111.01740479 66.51358032 110.62780762 C67.93005177 109.72976549 69.29994154 108.75889653 70.65722656 107.77368164 C70.65722656 107.11368164 70.65722656 106.45368164 70.65722656 105.77368164 C68.75245645 104.26975222 66.84536867 102.89087291 64.84472656 101.52368164 C63.54942812 100.61890101 62.2552143 99.71256623 60.96191406 98.80493164 C59.91535645 98.07209961 59.91535645 98.07209961 58.84765625 97.32446289 C55.01548352 94.61135977 51.24440705 91.81594297 47.46972656 89.02368164 C46.66817139 88.43167969 45.86661621 87.83967773 45.04077148 87.22973633 C43.39786581 86.01620234 41.75520755 84.80233333 40.11279297 83.58813477 C36.13073459 80.64573489 32.14383888 77.70990684 28.15722656 74.77368164 C23.39339929 71.26480949 18.63050855 67.75470359 13.87207031 64.23852539 C6.79993102 59.01562277 -0.27924076 53.80577884 -7.41918945 48.67578125 C-11.06848301 46.05286362 -14.70889081 43.41790386 -18.34277344 40.77368164 C-19.01759766 40.28287109 -19.69242188 39.79206055 -20.38769531 39.28637695 C-22.25653425 37.91854984 -24.1139927 36.53682077 -25.96777344 35.14868164 C-27.01191406 34.37266602 -28.05605469 33.59665039 -29.13183594 32.79711914 C-29.86144531 32.12938477 -30.59105469 31.46165039 -31.34277344 30.77368164 C-31.34277344 27.77368164 -31.34277344 27.77368164 -28.99902344 25.10180664 C-27.95518425 24.06737898 -26.90253484 23.04179097 -25.84277344 22.02368164 C-25.29322998 21.48509521 -24.74368652 20.94650879 -24.17749023 20.39160156 C-20.65541069 16.96444844 -17.04465039 13.67247104 -13.28027344 10.51196289 C-10.13838387 7.69313052 -7.34015759 4.53494227 -4.51855469 1.39868164 C-2.34277344 -0.22631836 -2.34277344 -0.22631836 0 0 Z M7.65722656 27.77368164 C6.43697645 28.81461081 6.43697645 28.81461081 6.16113281 31.01977539 C6.41488283 34.0966386 6.41488283 34.0966386 9.55957031 36.24633789 C10.89379153 37.12626594 12.23986612 37.98837694 13.59472656 38.83618164 C15.07869562 39.80877403 16.56174005 40.78277838 18.04394531 41.75805664 C18.8114209 42.2562793 19.57889648 42.75450195 20.36962891 43.26782227 C23.9439915 45.62072178 27.42331883 48.10215831 30.90722656 50.58618164 C32.32866195 51.59331279 33.75054661 52.59981013 35.17285156 53.60571289 C35.89923828 54.11956543 36.625625 54.63341797 37.37402344 55.1628418 C41.45980257 58.04543062 45.55902929 60.90878904 49.65722656 63.77368164 C56.52114505 68.5730519 63.37244056 73.38962609 70.21044922 78.22583008 C76.65515293 82.78055142 83.12518202 87.29878759 89.59814453 91.81323242 C95.05396791 95.6261883 100.44355366 99.50848346 105.75878906 103.51586914 C107.55555105 104.95778928 107.55555105 104.95778928 109.65722656 104.77368164 C109.65722656 105.76368164 109.65722656 106.75368164 109.65722656 107.77368164 C108.9235083 108.0455127 108.18979004 108.31734375 107.43383789 108.59741211 C104.7827669 109.72049837 102.61087232 110.98488523 100.23144531 112.59399414 C99.43544922 113.12895508 98.63945312 113.66391602 97.81933594 114.21508789 C96.5944043 115.0484668 96.5944043 115.0484668 95.34472656 115.89868164 C94.50876953 116.46200195 93.6728125 117.02532227 92.81152344 117.60571289 C90.75723604 118.99088953 88.70595619 120.38030383 86.65722656 121.77368164 C86.99902401 124.23331237 86.99902401 124.23331237 87.65722656 126.77368164 C89.62480929 128.13388315 89.62480929 128.13388315 91.65722656 128.77368164 C92.31207031 128.28899414 92.96691406 127.80430664 93.64160156 127.30493164 C96.63289284 125.10793805 99.64106937 122.93641588 102.65722656 120.77368164 C103.19653809 120.38422363 103.73584961 119.99476563 104.29150391 119.59350586 C105.88263428 118.4520739 107.48855669 117.33135177 109.09472656 116.21118164 C110.0628125 115.52926758 111.03089844 114.84735352 112.02832031 114.14477539 C114.65722656 112.77368164 114.65722656 112.77368164 116.50292969 112.97460938 C119.26430852 113.99886061 121.35761848 115.4759445 123.75488281 117.18774414 C124.72103516 117.86579102 125.6871875 118.54383789 126.68261719 119.24243164 C128.71364446 120.6843957 130.74228106 122.12973277 132.76855469 123.57836914 C133.73341797 124.25383789 134.69828125 124.92930664 135.69238281 125.62524414 C136.57289307 126.25253418 137.45340332 126.87982422 138.3605957 127.52612305 C139.11848389 127.93781738 139.87637207 128.34951172 140.65722656 128.77368164 C141.64722656 128.44368164 142.63722656 128.11368164 143.65722656 127.77368164 C144.87592585 125.26920648 144.87592585 125.26920648 145.65722656 122.77368164 C138.13343332 117.20488979 130.48234411 111.90848827 122.65722656 106.77368164 C126.77489011 102.30189902 131.36102766 99.07141154 136.40722656 95.71118164 C138.12278667 94.55338823 139.8376166 93.39451223 141.55175781 92.23461914 C142.84073975 91.36401855 142.84073975 91.36401855 144.15576172 90.47583008 C147.8335054 87.97327015 151.46713822 85.41069683 155.09472656 82.83618164 C161.26752972 78.46075352 167.45574468 74.10838185 173.65722656 69.77368164 C180.51717634 64.97715029 187.36754112 60.16761743 194.19726562 55.328125 C198.11059884 52.55841217 202.03964547 49.81352891 205.98535156 47.09008789 C206.88705078 46.46553711 207.78875 45.84098633 208.71777344 45.19750977 C210.4661236 43.98750417 212.21728238 42.78154327 213.97167969 41.58032227 C218.27791443 38.5948052 222.10701376 35.63417727 225.65722656 31.77368164 C224.66722656 29.79368164 224.66722656 29.79368164 223.65722656 27.77368164 C218.24790828 30.75985339 213.17086448 34.06768401 208.09472656 37.58618164 C206.40218523 38.75178875 204.70946994 39.91714331 203.01660156 41.08227539 C202.13810547 41.68797363 201.25960937 42.29367188 200.35449219 42.91772461 C195.861285 46.00944809 191.35265048 49.07847422 186.84472656 52.14868164 C184.98401773 53.41686422 183.12334086 54.6850937 181.26269531 55.95336914 C180.33634277 56.5846875 179.40999023 57.21600586 178.45556641 57.86645508 C174.76969098 60.37858724 171.08426906 62.89138414 167.39892578 65.40429688 C165.57381309 66.64872144 163.74861801 67.89302519 161.92333984 69.13720703 C156.29563508 72.97345755 150.67047391 76.81339949 145.04760742 80.65673828 C142.28817651 82.53947872 139.52365961 84.41456753 136.75878906 86.28930664 C133.5166826 88.49117153 130.30503981 90.72707329 127.11816406 93.00805664 C126.43165771 93.49040771 125.74515137 93.97275879 125.0378418 94.46972656 C123.78467498 95.35098987 122.54107726 96.2460987 121.30981445 97.15771484 C118.80100912 98.90112194 117.34237562 99.88861707 114.25878906 99.37133789 C110.58616462 97.11592738 107.0804415 94.68203262 103.59472656 92.14868164 C97.72745191 87.91456591 91.78288956 83.8298323 85.75219727 79.83129883 C80.73604141 76.49642768 75.7604742 73.10227164 70.78222656 69.71118164 C69.70287842 68.97657715 68.62353027 68.24197266 67.51147461 67.48510742 C61.39601314 63.32259121 55.28279076 59.15678474 49.17041016 54.98974609 C47.37801522 53.76786486 45.58537416 52.54634459 43.79248047 51.32519531 C39.05607084 48.09778766 34.32697573 44.86021606 29.60644531 41.60961914 C28.61088623 40.92593262 27.61532715 40.24224609 26.58959961 39.5378418 C24.68658822 38.23071966 22.78558426 36.92066832 20.88696289 35.60717773 C16.58926363 32.65933227 12.40682516 29.92974943 7.65722656 27.77368164 Z " fill="#000000" transform="translate(179.3427734375,167.226318359375)"/>
<path d="M0 0 C1.12905762 0.25201172 2.25811523 0.50402344 3.42138672 0.76367188 C50.48699253 11.48699253 50.48699253 11.48699253 63 24 C63 24.99 63 25.98 63 27 C62.39671875 27.23074219 61.7934375 27.46148437 61.171875 27.69921875 C54.40752903 30.4114276 54.40752903 30.4114276 50 36 C48.59350035 43.59509813 51.28255125 49.7549913 55.3203125 56.0625 C57.90254519 59.67480366 60.74527787 62.79391907 63.9375 65.875 C70.43267045 72.24692244 74.99413796 79.71172384 79.375 87.625 C79.72111328 88.2341626 80.06722656 88.8433252 80.42382812 89.47094727 C82.85254162 94.00166606 83.60405395 97.87532688 84 103 C77.15041372 107.88235913 70.19273488 112.5378858 63.0625 117 C62.13115234 117.59683594 61.19980469 118.19367188 60.24023438 118.80859375 C59.34755859 119.36675781 58.45488281 119.92492187 57.53515625 120.5 C56.734729 121.0053125 55.93430176 121.510625 55.10961914 122.03125 C53 123 53 123 50 122 C48.84008789 120.0324707 48.84008789 120.0324707 47.72265625 117.42578125 C47.08614136 115.97655273 47.08614136 115.97655273 46.43676758 114.49804688 C45.98325928 113.44681641 45.52975098 112.39558594 45.0625 111.3125 C24.59323621 65.47225697 -5.64650197 20.51106061 -54 1 C-53 -2 -53 -2 -50.75927734 -3.16650391 C-35.21828965 -7.86097674 -15.45868391 -3.46071751 0 0 Z " fill="#000000" transform="translate(96,200)"/>
<path d="M0 0 C1.10214844 -0.020625 2.20429687 -0.04125 3.33984375 -0.0625 C9.52649384 -0.0922078 14.037492 0.26759621 19.5 3.25 C17.47872981 5.43010355 15.64548131 6.85398548 12.98046875 8.16015625 C12.29500977 8.50481934 11.60955078 8.84948242 10.90332031 9.20458984 C10.17209961 9.5702002 9.44087891 9.93581055 8.6875 10.3125 C-16.38080366 23.25149481 -38.54793407 43.38817964 -53.5 67.25 C-53.94263184 67.94432129 -54.38526367 68.63864258 -54.84130859 69.35400391 C-66.6225251 87.87097527 -76.84024379 107.08763832 -85.5 127.25 C-89.17253636 126.59183743 -91.79273497 124.99307843 -94.9296875 123.01171875 C-96.49396484 122.02848633 -96.49396484 122.02848633 -98.08984375 121.02539062 C-99.17394531 120.33638672 -100.25804687 119.64738281 -101.375 118.9375 C-102.98955078 117.92139648 -102.98955078 117.92139648 -104.63671875 116.88476562 C-109.63279176 113.73372821 -114.61017812 110.56383399 -119.5 107.25 C-117.31728882 91.69818284 -107.14606647 79.40481213 -96.875 68.1875 C-90.87635477 61.57759385 -84.72466229 54.5655658 -84.4375 45.21484375 C-84.65516785 41.57570942 -85.37784861 39.41286852 -87.5625 36.5 C-91.01134942 33.8583281 -94.54223152 32.00791702 -98.5 30.25 C-83.68267185 9.541445 -43.14680745 5.52097931 -19.5 1.25 C-12.95817218 0.20538603 -6.61184712 0.03093262 0 0 Z " fill="#000000" transform="translate(529.5,195.75)"/>
<path d="M0 0 C1.875 1.94921875 1.875 1.94921875 4 4.6875 C4.78890625 5.68523437 5.5778125 6.68296875 6.390625 7.7109375 C6.81150391 8.24557617 7.23238281 8.78021484 7.66601562 9.33105469 C9.96663208 12.20935156 12.36030643 15.00810994 14.75 17.8125 C16.50194452 19.8733699 18.25148 21.93621655 20 24 C20.7125293 24.79929932 20.7125293 24.79929932 21.43945312 25.61474609 C25 29.67732507 25 29.67732507 25 33 C22.99072266 34.61889648 22.99072266 34.61889648 20.1640625 36.37109375 C19.12717285 37.02263428 18.0902832 37.6741748 17.02197266 38.34545898 C15.90097168 39.03583252 14.7799707 39.72620605 13.625 40.4375 C11.90743539 41.5106328 10.19228796 42.58754993 8.47738647 43.66493225 C7.32285738 44.39015634 6.16759947 45.11422143 5.0116272 45.83714294 C-0.95234938 49.57419903 -6.78881905 53.49209083 -12.60302734 57.45678711 C-15.38118502 59.33530982 -17.80132135 60.93377378 -21 62 C-34.53619858 47.50710769 -34.53619858 47.50710769 -39.3671875 41.875 C-40.61931355 40.43715191 -41.90112916 39.02511294 -43.1953125 37.625 C-43.93523437 36.820625 -44.67515625 36.01625 -45.4375 35.1875 C-46.11683594 34.45917969 -46.79617187 33.73085938 -47.49609375 32.98046875 C-49 31 -49 31 -49 28 C-46.71533203 26.2734375 -46.71533203 26.2734375 -43.5078125 24.375 C-42.93440628 24.03121811 -42.36100006 23.68743622 -41.7702179 23.33323669 C-39.89447884 22.21171586 -38.01004921 21.10578803 -36.125 20 C-34.84060577 19.23680332 -33.55683378 18.47255852 -32.27368164 17.70727539 C-30.34571388 16.55794255 -28.41717228 15.40968453 -26.48591614 14.2658844 C-22.71046302 12.02912392 -18.96193211 9.75610806 -15.23828125 7.43359375 C-14.41376465 6.91990234 -13.58924805 6.40621094 -12.73974609 5.87695312 C-11.23872999 4.93845992 -9.74022309 3.99593787 -8.24462891 3.04882812 C-3.33169445 0 -3.33169445 0 0 0 Z " fill="#000000" transform="translate(174,329)"/>
<path d="M0 0 C5.27942235 0.47900084 8.99878081 3.29522187 13.3125 6.125 C14.99281134 7.20938502 16.67383808 8.29266208 18.35546875 9.375 C19.25571777 9.95636719 20.1559668 10.53773438 21.08349609 11.13671875 C24.22157531 13.14155891 27.38242149 15.10588586 30.55078125 17.0625 C31.64285889 17.73780762 32.73493652 18.41311523 33.86010742 19.10888672 C36.01851876 20.44173356 38.17880991 21.77154154 40.34106445 23.09814453 C41.81579224 24.01249268 41.81579224 24.01249268 43.3203125 24.9453125 C44.19961426 25.48687988 45.07891602 26.02844727 45.98486328 26.58642578 C48 28 48 28 49 30 C44.91387128 34.74158281 40.73970525 39.39544073 36.5 44 C28.4199502 52.72291105 28.4199502 52.72291105 21 62 C16.53637061 60.44385772 12.77482273 58.05587003 8.86328125 55.45703125 C8.18379929 55.01034592 7.50431732 54.56366058 6.804245 54.10343933 C5.36819622 53.15821378 3.93355633 52.21084471 2.50024414 51.26147461 C0.33973654 49.83053916 -1.82479967 48.40588727 -3.99023438 46.98242188 C-11.40568724 42.09824689 -18.76984395 37.15658535 -26 32 C-21.98571315 26.4667938 -17.69929112 21.21831588 -13.26513672 16.02001953 C-8.76550751 10.7425248 -4.37060031 5.38501124 0 0 Z " fill="#000000" transform="translate(417,329)"/>
<path d="M0 0 C1.4540625 0.495 1.4540625 0.495 2.9375 1 C2.40962891 1.94746094 2.40962891 1.94746094 1.87109375 2.9140625 C-11.35036769 26.87148871 -20.29292197 48.91925329 -13.328125 76.30859375 C-8.53517336 90.28803604 3.71518202 101.43575227 16.44921875 108.3671875 C18.945039 109.24639489 18.945039 109.24639489 21.33984375 108.15625 C34.62635331 99.47600339 46.99777745 87.97411718 51.171875 72.3046875 C55.66829432 50.29314642 49.50070068 27.83779016 38.0859375 8.93359375 C37.07754634 7.44490253 36.04392808 5.97244615 34.96875 4.53125 C33.9375 3 33.9375 3 33.9375 1 C36.5 0.1484375 36.5 0.1484375 39.9375 0 C42.60713405 1.50090727 44.7201521 3.52868637 46.9375 5.625 C48.71296358 7.23377158 50.48912879 8.84174267 52.26708984 10.44775391 C53.32600106 11.43175822 54.35713482 12.44727108 55.34619141 13.50146484 C58.39221775 16.53240652 60.69248977 17.31334767 64.8359375 17.4609375 C66.66161528 17.44520461 68.48721755 17.41612006 70.3125 17.375 C81.81799205 17.52354047 81.81799205 17.52354047 85.9375 21.0625 C87.578125 22.9921875 87.578125 22.9921875 88.9375 25 C89.40671875 25.60070312 89.8759375 26.20140625 90.359375 26.8203125 C98.2478757 37.91061642 98.65655215 49.96364121 97.9375 63 C97.90946289 63.70721191 97.88142578 64.41442383 97.85253906 65.14306641 C97.5479041 71.780654 97.28429171 77.4285485 92.375 82.25 C91.65570313 82.85199219 90.93640625 83.45398438 90.1953125 84.07421875 C87.69502359 86.20681811 85.79196683 88.4893204 83.75 91.0625 C80.66369261 94.91374416 77.50107626 98.66001066 74.23144531 102.35668945 C56.0445665 122.98852755 43.64129313 146.43695049 31.17480469 170.81494141 C27.19383287 178.59953682 23.11282658 186.31835255 18.9375 194 C18.2775 194 17.6175 194 16.9375 194 C16.46030518 193.0298999 15.98311035 192.0597998 15.49145508 191.06030273 C6.53866301 172.88668616 -2.4304026 154.79322134 -12.70751953 137.32177734 C-13.96757267 135.16265926 -15.1904649 132.98719302 -16.40234375 130.80078125 C-21.46022201 121.81313823 -27.64387229 114.34559457 -34.54492188 106.70751953 C-36.71533418 104.26545653 -38.76482209 101.73277796 -40.8125 99.1875 C-43.69182742 95.62664371 -46.66167897 92.19372336 -49.75 88.8125 C-55.17219093 82.80155979 -55.17219093 82.80155979 -57.5625 79.875 C-58.0265625 79.31554687 -58.490625 78.75609375 -58.96875 78.1796875 C-62.16722152 71.80559069 -61.30946632 63.15591504 -61.375 56.1875 C-61.40400391 55.17107422 -61.43300781 54.15464844 -61.46289062 53.10742188 C-61.55469188 42.02771618 -58.04593225 32.61289977 -51.0625 24 C-50.67505615 23.47720459 -50.2876123 22.95440918 -49.88842773 22.41577148 C-47.73552681 19.83768117 -46.16081075 18.20643432 -42.78808594 17.57250977 C-40.1392789 17.50857481 -37.5222352 17.58013521 -34.875 17.6875 C-26.38607973 17.66488428 -21.59489652 16.66603328 -15.34375 10.50390625 C-14.5909375 9.67761719 -13.838125 8.85132813 -13.0625 8 C-4.45195536 -0.6245228 -4.45195536 -0.6245228 0 0 Z " fill="#000000" transform="translate(277.0625,358)"/>
<path d="M0 0 C4.49803932 0.381909 6.71001535 3.56901554 9.5 6.75 C10.56744381 7.93773779 11.63516001 9.12523081 12.703125 10.3125 C13.24775391 10.92351562 13.79238281 11.53453125 14.35351562 12.1640625 C16.94993056 15.05923455 19.60263736 17.90150217 22.25 20.75 C26.89892927 25.77576743 31.48122233 30.85656777 36 36 C39.31469104 35.32960768 41.9378928 34.09363981 44.90234375 32.48046875 C45.865354 31.95831787 46.82836426 31.43616699 47.82055664 30.89819336 C48.84914795 30.33366455 49.87773926 29.76913574 50.9375 29.1875 C51.99767334 28.60943604 53.05784668 28.03137207 54.15014648 27.43579102 C63.01631583 22.58259789 71.80864689 17.6043503 80.56640625 12.55859375 C81.69973389 11.90866455 81.69973389 11.90866455 82.85595703 11.24560547 C84.24656406 10.43771694 85.62848803 9.61461943 86.99951172 8.77392578 C90.38938946 6.72237069 91.91858017 6 96 6 C96.46805869 11.85073358 95.48531572 14.35291238 92 19 C90.16119646 21.04274837 88.22640648 22.96602996 86.25 24.875 C85.74339844 25.37257813 85.23679687 25.87015625 84.71484375 26.3828125 C83.48114693 27.59323202 82.24122216 28.79729853 81 30 C81.38671875 30.4846875 81.7734375 30.969375 82.171875 31.46875 C88.46610909 39.57023942 92.35432044 46.4474129 92 57 C91.100451 62.5014523 88.60277089 66.29265443 84.20703125 69.6796875 C76.26841513 74.42880652 68.10343766 75.6451255 59 75 C59 74.34 59 73.68 59 73 C60.57421875 71.73828125 60.57421875 71.73828125 62.6875 70.3125 C67.61517684 66.74779761 71.04095985 62.87712046 73 57 C73.81811639 50.20024573 72.41480101 45.86918924 69 40 C64.69241282 41.49363852 61.18475543 43.77414271 57.4921875 46.38671875 C56.24630352 47.25095353 55.00020339 48.11487677 53.75390625 48.97851562 C51.80457375 50.33752255 49.85764694 51.69971629 47.91455078 53.06762695 C46.0299151 54.39142122 44.13682236 55.70229229 42.2421875 57.01171875 C41.66089081 57.42620773 41.07959412 57.84069672 40.48068237 58.26774597 C38.83154297 59.40112305 38.83154297 59.40112305 36 61 C32.23521141 59.74507047 31.30619333 58.16902481 28.875 55.0625 C25.84926458 51.2680907 22.77602274 47.58063538 19.5 44 C15.60031435 39.71440795 11.8916357 35.31247576 8.28515625 30.77734375 C6.02108998 27.95531646 6.02108998 27.95531646 3.43359375 25.31640625 C-1.19036748 20.33063271 -3.58705862 17.00690639 -3.75 10.0625 C-3.55886789 5.69300764 -2.93682441 3.27629605 0 0 Z " fill="#000000" transform="translate(116,368)"/>
<path d="M0 0 C1.9375 0.125 1.9375 0.125 4 1 C6.39575375 4.95299368 6.7248433 9.4950599 6 14 C4.11449407 19.34329042 1.86912601 22.63070195 -2.125 26.75 C-3.11832162 27.79325874 -4.10916799 28.83887926 -5.09765625 29.88671875 C-5.5889502 30.40669434 -6.08024414 30.92666992 -6.58642578 31.46240234 C-8.68484858 33.74493547 -10.62231195 36.14504644 -12.5625 38.5625 C-16.4512774 43.39379975 -20.56018157 47.97528308 -24.7578125 52.5390625 C-27.26581051 55.29174324 -29.65523691 58.10812552 -32 61 C-39.48211353 57.07347079 -46.44252916 52.47851524 -53.4375 47.75 C-55.58138923 46.30633778 -57.72588856 44.86358104 -59.87109375 43.421875 C-60.80880615 42.78862305 -61.74651855 42.15537109 -62.71264648 41.50292969 C-64.90346343 39.99935009 -64.90346343 39.99935009 -67 39 C-67.68346682 40.65984798 -68.34588315 42.32836805 -69 44 C-69.391875 44.928125 -69.78375 45.85625 -70.1875 46.8125 C-71.57906802 52.2717284 -70.67810359 56.37844793 -68.5625 61.4375 C-65.88551214 65.77883237 -61.89135504 68.90187938 -58.046875 72.1796875 C-57.37140625 72.78039062 -56.6959375 73.38109375 -56 74 C-56 74.33 -56 74.66 -56 75 C-66.35023868 75.53128602 -75.39326315 74.02471579 -84 68 C-88.30139016 62.45347058 -89.46371434 58.01037889 -89.41796875 51.12109375 C-88.38649536 43.41878314 -83.89159968 36.8486518 -79 31 C-80.5212085 27.19268156 -82.81010729 25.272995 -85.9375 22.6875 C-90.15419486 18.97656479 -92.63307483 16.46770068 -94 11 C-93.6875 8.0625 -93.6875 8.0625 -93 6 C-89.42067062 6.57804791 -86.67476802 7.51218479 -83.5078125 9.265625 C-82.64897461 9.73734131 -81.79013672 10.20905762 -80.90527344 10.69506836 C-79.9877832 11.2081958 -79.07029297 11.72132324 -78.125 12.25 C-77.16625977 12.77924072 -76.20751953 13.30848145 -75.21972656 13.85375977 C-67.09152303 18.35381922 -59.0038489 22.92825321 -50.94189453 27.54589844 C-45.05514122 30.90278103 -39.09347881 34.03464948 -33 37 C-32.56433716 36.07429199 -32.56433716 36.07429199 -32.11987305 35.12988281 C-30.72787237 32.48244136 -28.97148104 30.81608168 -26.8125 28.75 C-24.03582383 26.03483248 -21.33776739 23.32543996 -18.8125 20.375 C-15.19968244 16.16147643 -11.41560677 12.1153979 -7.625 8.0625 C-6.99311768 7.38687012 -6.36123535 6.71124023 -5.71020508 6.01513672 C-1.19635783 1.19635783 -1.19635783 1.19635783 0 0 Z " fill="#000000" transform="translate(472,368)"/>
<path d="M0 0 C3.68497012 1.22832337 4.49950808 2.58616317 6.875 5.625 C9.6330654 9.15148163 12.40156228 12.46169372 15.55078125 15.64453125 C24.80340352 25.16878107 24.80340352 25.16878107 25.34765625 30.23828125 C24.75 33.25 24.75 33.25 23.8515625 36.1640625 C21.17476723 45.07852747 24.90035204 54.18368031 29.0769043 62.02075195 C32.17602928 67.06464004 35.82183787 70.86993748 40.1953125 74.78515625 C40.7542067 75.29459778 41.31310089 75.80403931 41.88893127 76.32891846 C45.38107343 79.51114912 45.38107343 79.51114912 48.95019531 82.60620117 C53.02736337 86.08038449 56.40084621 89.27444565 59 94 C59.39912443 99.66449674 57.15811993 104.87455371 55 110 C54.47937988 111.41236938 54.47937988 111.41236938 53.94824219 112.85327148 C52.04580903 117.16019598 47.508754 119.21244018 43.72167969 121.765625 C41.85787914 123.10189493 40.13099865 124.54737846 38.3828125 126.03125 C31.96187691 131.26931695 26.89170841 134.7652709 18.34765625 134.28466797 C13.04988931 133.6897916 8.73957693 133.12575132 4.19921875 130.1875 C-3.66237025 118.79308327 -5.34308724 101.51918687 -8.71044922 88.11083984 C-9.39749764 85.3810355 -10.09808058 82.65527958 -10.81103516 79.93212891 C-16.70121757 57.39980756 -22.3338961 34.1498467 -10.1875 12.625 C-7.21965279 8.04039714 -3.7443536 3.96591298 0 0 Z " fill="#000000" transform="translate(124,412)"/>
<path d="M0 0 C11.10473796 8.3852103 16.72427787 20.43513752 19 34 C19.72056656 45.74721911 18.32899613 56.26037839 15.45703125 67.62109375 C15.08650744 69.14192754 14.71737179 70.66310011 14.34953308 72.18458557 C13.5823693 75.3396674 12.80221872 78.49112821 12.01147461 81.64038086 C11.00579666 85.64806881 10.02852992 89.66203027 9.06023121 93.67889309 C8.30346042 96.80843458 7.53441061 99.9348561 6.76148033 103.06044197 C6.3968195 104.53905007 6.03523062 106.01841976 5.67698097 107.49859428 C1.29832152 125.4992917 1.29832152 125.4992917 -3 131 C-6.34224307 132.48404173 -9.37553802 132.75026254 -13 133 C-13.80050781 133.18272461 -14.60101563 133.36544922 -15.42578125 133.55371094 C-23.22251022 135.08456169 -28.32661914 132.39789808 -34.6730957 128.24438477 C-35.91013454 127.39655294 -37.14407364 126.54418209 -38.375 125.6875 C-39.31561783 125.0504866 -39.31561783 125.0504866 -40.27523804 124.40060425 C-47.79744557 119.23889926 -54.2085318 114.40454462 -56.3125 105.0625 C-57.07528528 100.94849759 -57.53113021 96.96720894 -56 93 C-53.88623047 90.59326172 -53.88623047 90.59326172 -51.1171875 87.9296875 C-50.62469513 87.44855499 -50.13220276 86.96742249 -49.62478638 86.47171021 C-47.52765098 84.42323666 -45.41361098 82.39257409 -43.29980469 80.36132812 C-32.76287738 70.20095558 -22.96820331 59.93656365 -21.7265625 44.62890625 C-21.6298398 38.81111592 -21.6298398 38.81111592 -22.43359375 33.06958008 C-23.49141449 27.96841096 -23.49141449 27.96841096 -22.10131836 25.22900391 C-20.70296173 23.43234328 -19.21704348 21.81483856 -17.625 20.1875 C-16.51440791 18.97898192 -15.40504652 17.7693318 -14.296875 16.55859375 C-13.74064453 15.9641748 -13.18441406 15.36975586 -12.61132812 14.75732422 C-10.24621616 12.17791878 -8.06821973 9.47718989 -5.875 6.75 C-3.97388201 4.39623487 -2.13884871 2.13884871 0 0 Z " fill="#000000" transform="translate(465,412)"/>
</svg>
