<?xml version="1.0" encoding="UTF-8"?>
<svg version="1.1" xmlns="http://www.w3.org/2000/svg" width="591" height="591">
<path d="M0 0 C0.33 0.66 0.66 1.32 1 2 C-0.27218188 4.25268526 -1.59380375 6.3532135 -3.0390625 8.4921875 C-3.47005249 9.14571701 -3.90104248 9.79924652 -4.34509277 10.47257996 C-6.74011374 14.09530861 -9.17688454 17.68906467 -11.62060547 21.27905273 C-12.6129711 22.74373716 -13.60402692 24.2093099 -14.59375 25.67578125 C-15.08231476 26.39936325 -15.57087952 27.12294525 -16.07424927 27.86845398 C-18.69321619 31.81354308 -20.91875265 35.67110506 -22.78125 40.04296875 C-26.96569006 49.44800437 -32.12845726 54.15011838 -41.59765625 57.9453125 C-49.81888585 61.069793 -58.223222 63.64253983 -66.6464386 66.16011047 C-77.600868 69.43502678 -88.39134615 73.15885213 -99.19839478 76.88638306 C-104.33285197 78.65162936 -109.47754142 80.38647671 -114.62109375 82.125 C-120.37322401 84.07082295 -126.11799516 86.03378752 -131.84423828 88.0546875 C-132.77156265 88.38194824 -133.69888702 88.70920898 -134.65431213 89.04638672 C-136.40826139 89.66739511 -138.16119781 90.291274 -139.91294861 90.91845703 C-145.78329244 93 -145.78329244 93 -148 93 C-146.05897895 87.05929921 -142.20973625 82.23907931 -138.63260174 77.19253635 C-135.49379679 72.73276568 -132.52062642 68.26029229 -129.80293274 63.53050232 C-120.76391143 48.25150718 -111.74455424 42.25876294 -95.29296875 36.34765625 C-93.11312641 35.50518513 -90.93569723 34.65644676 -88.76057434 33.80186462 C-83.08367446 31.59038243 -77.37871949 29.4637287 -71.6630249 27.35491943 C-65.88795162 25.20738283 -60.1437624 22.98037425 -54.39648438 20.75976562 C-45.00150913 17.14054538 -35.58627617 13.58019355 -26.15342999 10.06099033 C-17.40289794 6.79061519 -8.69558079 3.41343567 0 0 Z " fill="#000000" transform="translate(531,48)"/>
<path d="M0 0 C2.62499658 0.01005125 5.24999689 0.0191733 7.875 0.02734375 C14.25008258 0.04918397 20.62502346 0.08249116 27 0.125 C26.16884576 4.807308 25.33256708 9.48865995 24.49145508 14.16918945 C24.20585154 15.76268491 23.92166796 17.35643553 23.63891602 18.95043945 C23.23303345 21.23717189 22.82210869 23.52294805 22.41015625 25.80859375 C22.28407486 26.52526718 22.15799347 27.24194061 22.02809143 27.98033142 C21.11387171 33.01112829 21.11387171 33.01112829 20 34.125 C17.20568823 34.27371312 14.43332348 34.36044942 11.63671875 34.40625 C10.34493462 34.43386414 10.34493462 34.43386414 9.02705383 34.46203613 C6.24727449 34.52095514 3.46742542 34.57347085 0.6875 34.625 C-2.91284368 34.6942436 -6.51309213 34.76688082 -10.11328125 34.84375 C-11.44940964 34.87227051 -11.44940964 34.87227051 -12.81253052 34.90136719 C-22.21792131 35.12171582 -31.60724424 35.60194595 -41 36.125 C-41.57123114 31.60452589 -42.14085684 27.0838535 -42.70898438 22.56298828 C-42.9025513 21.02452096 -43.0965597 19.48610912 -43.29101562 17.94775391 C-43.57016755 15.73875067 -43.84774016 13.52955391 -44.125 11.3203125 C-44.21249512 10.63067413 -44.29999023 9.94103577 -44.39013672 9.23049927 C-45 4.35274341 -45 4.35274341 -45 2.125 C-30.06535077 -0.48268383 -15.10977941 -0.10111342 0 0 Z " fill="#000000" transform="translate(286,92.875)"/>
<path d="M0 0 C0.82501814 3.74735513 1.63260861 7.49827484 2.4375 11.25 C2.66759766 12.29414062 2.89769531 13.33828125 3.13476562 14.4140625 C4.66558093 21.60223872 5.56639859 28.66415531 6 36 C5.39003174 36.17128418 4.78006348 36.34256836 4.15161133 36.51904297 C1.37110649 37.30154704 -1.40819863 38.08823266 -4.1875 38.875 C-5.14720703 39.14441406 -6.10691406 39.41382813 -7.09570312 39.69140625 C-8.49272461 40.08779297 -8.49272461 40.08779297 -9.91796875 40.4921875 C-10.77156982 40.73308105 -11.6251709 40.97397461 -12.50463867 41.22216797 C-15.04334752 41.96764306 -15.04334752 41.96764306 -17.56762695 43.09423828 C-20 44 -20 44 -24 44 C-25.71612092 40.21289539 -27.42489841 36.42259036 -29.12695312 32.62915039 C-29.70697617 31.33918304 -30.28899489 30.05011109 -30.87304688 28.76196289 C-31.71230159 26.91003602 -32.54432208 25.05500561 -33.375 23.19921875 C-34.12910156 21.52605591 -34.12910156 21.52605591 -34.8984375 19.8190918 C-36 17 -36 17 -36 14 C-28.38502484 9.75874801 -20.55539699 6.59196961 -12.375 3.625 C-10.89845947 3.08842773 -10.89845947 3.08842773 -9.39208984 2.54101562 C-2.27551246 0 -2.27551246 0 0 0 Z " fill="#000000" transform="translate(223,98)"/>
<path d="M0 0 C2.3580095 3.50019227 4.28059313 7.23996598 6.26269531 10.96411133 C7.24521093 12.80353412 8.25024124 14.62928612 9.2578125 16.45507812 C9.87914062 17.61072266 10.50046875 18.76636719 11.140625 19.95703125 C11.71329102 21.01897705 12.28595703 22.08092285 12.87597656 23.17504883 C14 26 14 26 13.85205078 28.25927734 C12.39720754 31.2314929 9.44949738 32.34296302 6.625 33.8125 C5.35289139 34.50417009 4.08207388 35.19821955 2.8125 35.89453125 C1.85537109 36.41587646 1.85537109 36.41587646 0.87890625 36.94775391 C-3.53999676 39.4224774 -7.76124068 42.23183065 -12 45 C-16.25465854 40.92859454 -19.94069922 36.52605268 -23.625 31.9375 C-24.19734375 31.23044922 -24.7696875 30.52339844 -25.359375 29.79492188 C-27.96396985 26.5694643 -30.52543788 23.32682961 -33 20 C-30.46279402 13.14954386 -23.06028169 9.67853701 -17 6.375 C-16.31421875 5.9934375 -15.6284375 5.611875 -14.921875 5.21875 C-12.9557677 4.13063718 -10.97906282 3.06430967 -9 2 C-7.906875 1.39414063 -6.81375 0.78828125 -5.6875 0.1640625 C-3 -1 -3 -1 0 0 Z " fill="#000000" transform="translate(175,120)"/>
<path d="M0 0 C1 3 1 3 0.17407227 4.75769043 C-0.27395752 5.40935181 -0.7219873 6.06101318 -1.18359375 6.73242188 C-1.69093552 7.48149307 -2.19827728 8.23056427 -2.72099304 9.00233459 C-3.28744034 9.81625168 -3.85388763 10.63016876 -4.4375 11.46875 C-5.01993973 12.32355453 -5.60237946 13.17835907 -6.20246887 14.05906677 C-7.46456289 15.90919286 -8.73130709 17.75615328 -10.00210571 19.60031128 C-13.37962073 24.50234352 -16.72389671 29.42701921 -20.07421875 34.34765625 C-20.75175705 35.34052139 -21.42929535 36.33338654 -22.12736511 37.3563385 C-27.65150113 45.45883449 -33.07289649 53.62399384 -38.43630981 61.83352661 C-39.81482148 63.94104918 -41.19849337 66.04509269 -42.58374023 68.14819336 C-46.99165431 74.8457894 -51.36759469 81.56047959 -55.67268372 88.32475281 C-57.77650251 91.62067177 -59.90142294 94.9026834 -62.02963257 98.18289185 C-63.03123499 99.73776948 -64.02356027 101.29867312 -65.00527954 102.86618042 C-71.25702626 112.84037446 -77.35050692 119.63414904 -87.32351685 125.91378784 C-89.93911465 127.60846287 -92.38834485 129.50424654 -94.85546875 131.40625 C-95.74427734 132.086875 -96.63308594 132.7675 -97.54882812 133.46875 C-98.8549707 134.47421875 -98.8549707 134.47421875 -100.1875 135.5 C-101.99288254 136.88620763 -103.79884522 138.27166012 -105.60546875 139.65625 C-106.76792114 140.55053711 -106.76792114 140.55053711 -107.95385742 141.46289062 C-112.67857355 145.01220607 -112.67857355 145.01220607 -114.8515625 144.9296875 C-117.97076824 143.57992211 -119.93633754 141.48348725 -122.375 139.125 C-141.86020784 120.81770129 -160.73174693 109.81075703 -188.234375 110.59375 C-204.18972385 111.45329741 -218.88212321 116.80133065 -233 124 C-233.6511377 124.3290332 -234.30227539 124.65806641 -234.97314453 124.99707031 C-257.28528634 136.46469943 -269.43799602 154.78049435 -276.98388672 178.07836914 C-278.64376984 183.47788485 -280.04069903 188.92020828 -281.25 194.4375 C-281.40114258 195.11466064 -281.55228516 195.79182129 -281.70800781 196.48950195 C-281.85077148 197.19292725 -281.99353516 197.89635254 -282.140625 198.62109375 C-282.29958252 199.39960693 -282.45854004 200.17812012 -282.62231445 200.98022461 C-282.94528063 203.56249265 -283.00195788 205.88413342 -282.96166992 208.47485352 C-283.03251969 220.68566318 -283.03251969 220.68566318 -286.46014404 224.71755981 C-291.05420343 228.45449539 -296.42157292 230.71683778 -301.8125 233.0625 C-303.40227039 233.8195258 -304.98891147 234.58316016 -306.57226562 235.35351562 C-312.29714343 238.10612198 -318.07977992 240.69133719 -324 243 C-322.69068237 236.6606049 -321.00421054 230.62852722 -318.91015625 224.5078125 C-318.60985001 223.61633514 -318.30954376 222.72485779 -318.00013733 221.80636597 C-317.02469195 218.91129078 -316.04356012 216.01817674 -315.0625 213.125 C-310.47128406 199.52531827 -305.99132133 185.908628 -301.7940979 172.18218994 C-288.96585821 130.34428312 -269.76587363 98.28495784 -230.25390625 77.12890625 C-205.86371986 64.61568019 -179.21254006 58.78805898 -151.875 58.75 C-150.42347534 58.74117798 -150.42347534 58.74117798 -148.94262695 58.73217773 C-143.62273495 58.76578093 -139.11436474 59.44480259 -133.9375 60.75 C-130.41437724 60.68207874 -128.63008618 60.58382786 -126.00805664 58.15429688 C-125.43949951 57.35056641 -124.87094238 56.54683594 -124.28515625 55.71875 C-123.33878296 54.40438965 -123.33878296 54.40438965 -122.37329102 53.06347656 C-120.00787794 49.51088692 -117.77790049 45.89000145 -115.64648438 42.19238281 C-112.44042835 37.92334617 -107.76906432 36.42199076 -102.84082031 34.77026367 C-101.61081299 34.3547525 -100.38080566 33.93924133 -99.11352539 33.51113892 C-97.76842319 33.06332162 -96.42328878 32.61560106 -95.078125 32.16796875 C-93.67063644 31.69474055 -92.26333222 31.22096376 -90.85620117 30.74667358 C-87.86981011 29.74125432 -84.88225082 28.73942057 -81.89367676 27.74050903 C-77.24718905 26.18742354 -72.60331026 24.62664877 -67.95996094 23.06420898 C-63.32875195 21.50614623 -58.6974542 19.94835647 -54.06524658 18.39326477 C-41.44642103 14.15641928 -28.84347158 9.87414272 -16.25 5.5625 C-14.54330692 4.97872277 -12.83660168 4.39498113 -11.12988281 3.8112793 C-7.41952638 2.5420051 -3.70959293 1.2715038 0 0 Z " fill="#000000" transform="translate(480,123)"/>
<path d="M0 0 C-1.32 7.59 -2.64 15.18 -4 23 C-7.609375 22.95875 -11.21875 22.9175 -14.9375 22.875 C-50.65866472 22.76404972 -88.13671389 32.16751435 -117 54 C-117.53850586 54.39622559 -118.07701172 54.79245117 -118.63183594 55.20068359 C-146.1831313 75.51918251 -162.14065236 101.66343548 -170 135 C-170.26466064 136.03398926 -170.26466064 136.03398926 -170.53466797 137.08886719 C-176.49985486 160.89049497 -174.52283713 189.35351471 -169 213 C-168.78569336 213.95036133 -168.57138672 214.90072266 -168.35058594 215.87988281 C-160.69014841 249.09741322 -141.21102117 274.87499749 -112.609375 293.17578125 C-106.60044672 296.91447539 -100.4974182 300.17701076 -94.02636719 303.03710938 C-91.93549084 304.03065351 -89.99492106 305.17347324 -88.0078125 306.359375 C-74.53226639 313.63293028 -62.53476277 309.38739862 -48.70973206 305.26029968 C-46.56336731 304.60928622 -44.41959722 303.95019548 -42.27587891 303.29052734 C-37.95115813 301.97030237 -33.60580662 300.7541475 -29.23046875 299.61328125 C-27.95969482 299.27723877 -26.6889209 298.94119629 -25.37963867 298.5949707 C-22.08158096 298.01436197 -20.14888171 297.9477102 -17 299 C-14.3515625 301.22265625 -14.3515625 301.22265625 -11.625 304.0625 C-10.73039063 304.98160156 -9.83578125 305.90070313 -8.9140625 306.84765625 C-6.13647038 309.80837577 -3.48395405 312.87288965 -0.82080078 315.9362793 C2.16672058 319.32237719 5.27195281 322.59507228 8.375 325.875 C13.19392282 330.99043571 17.95712365 336.14310466 22.63671875 341.38671875 C26.27711562 345.41221546 29.99409931 349.36547354 33.70288086 353.32788086 C38.26351187 358.20299579 42.7846899 363.11199218 47.2890625 368.0390625 C49.67787698 370.65122851 52.07668299 373.25401427 54.47900391 375.85375977 C55.48458552 376.94214449 56.48948055 378.03116401 57.49365234 379.12084961 C60.052427 381.89711592 62.62008734 384.66424925 65.203125 387.41796875 C66.21876472 388.50779878 67.23439026 389.59764203 68.25 390.6875 C68.72824219 391.1928125 69.20648438 391.698125 69.69921875 392.21875 C73 395.77419093 73 395.77419093 73 398 C-65.70533325 399.10326073 -65.70533325 399.10326073 -119 373 C-119.80421387 372.60828613 -120.60842773 372.21657227 -121.43701172 371.81298828 C-144.75015612 360.31242298 -166.50881523 346.20596947 -186 329 C-186.50772949 328.55543457 -187.01545898 328.11086914 -187.53857422 327.65283203 C-200.97064606 315.843137 -212.24558483 303.01820963 -222 288 C-222.63663574 287.01990967 -222.63663574 287.01990967 -223.28613281 286.02001953 C-235.61842291 266.61465338 -240.02933411 244.35930265 -244 222 C-244.27118652 220.53409424 -244.27118652 220.53409424 -244.54785156 219.03857422 C-248.0344077 199.43969254 -247.34542658 179.42751269 -247.203125 159.59765625 C-247.19872406 158.67866547 -247.19432312 157.75967468 -247.18978882 156.81283569 C-247.02039082 141.04078164 -247.02039082 141.04078164 -245 137 C-242.64475514 137.2630694 -240.2911159 137.5354757 -237.9375 137.8125 C-235.97103516 138.03873047 -235.97103516 138.03873047 -233.96484375 138.26953125 C-227.25180006 139.15999199 -220.6278654 140.62730707 -214 142 C-214.00666183 142.54583237 -214.01332367 143.09166473 -214.02018738 143.65403748 C-214.87629217 179.48030085 -214.87629217 179.48030085 -211 215 C-210.82839355 215.93263672 -210.65678711 216.86527344 -210.47998047 217.82617188 C-205.98469192 241.49573411 -198.12118948 263.75627147 -182 282 C-181.00031036 283.16731031 -180.00304028 284.33669577 -179.0078125 285.5078125 C-176.45709318 288.50767241 -173.89032837 291.49311812 -171.31591797 294.47265625 C-170.22663757 295.73694905 -169.14544363 297.00820388 -168.06640625 298.28125 C-142.1510358 328.60906962 -103.96420145 350.57892386 -64 355 C-62.00019695 355.02806741 -59.99968957 355.03523682 -58 355 C-58.75796875 353.62714844 -58.75796875 353.62714844 -59.53125 352.2265625 C-60.18771927 351.02616155 -60.8439573 349.82563413 -61.5 348.625 C-61.83386719 348.02171875 -62.16773438 347.4184375 -62.51171875 346.796875 C-65 342.2265625 -65 342.2265625 -65 340 C-65.54785156 339.97421875 -66.09570312 339.9484375 -66.66015625 339.921875 C-99.59703603 337.56541531 -129.13327246 318.44912246 -153 297 C-153.67546875 296.39800781 -154.3509375 295.79601562 -155.046875 295.17578125 C-183.12660448 268.63375124 -200.00284555 228.11289299 -201.17700195 189.77905273 C-201.20303241 188.33065628 -201.22325312 186.88214614 -201.23828125 185.43359375 C-201.2480751 184.64544281 -201.25786896 183.85729187 -201.26795959 183.04525757 C-201.79163513 129.96534854 -185.91110527 81.89739558 -148.625 43.3125 C-117.39713635 12.8774453 -43.43563999 -21.71781999 0 0 Z " fill="#000000" transform="translate(306,144)"/>
<path d="M0 0 C3.7313751 1.2437917 4.64216904 2.74206199 7.0625 5.8125 C9.60320582 9.01872843 12.1403692 12.19084171 14.84765625 15.2578125 C15.31099365 15.78914795 15.77433105 16.3204834 16.25170898 16.86791992 C17.57009505 18.3747473 18.89812967 19.87311619 20.2265625 21.37109375 C22 24 22 24 22.1171875 26.01953125 C20.44275615 28.98784137 18.04022157 31.04106114 15.5 33.25 C14.96407227 33.72800049 14.42814453 34.20600098 13.87597656 34.69848633 C12.25715858 36.13986992 10.62886128 37.56998802 9 39 C7.24965304 40.56211132 5.49960449 42.12455714 3.75 43.6875 C2.50087952 44.79266156 1.25125342 45.89725393 0 47 C-3.81562395 45.70176525 -6.07090879 44.25033142 -8.8125 41.3125 C-12.14216689 37.83119742 -15.61364695 34.69557262 -19.3359375 31.640625 C-21.11456204 29.88705151 -22.01809901 28.28118411 -23 26 C-15.84863178 16.84157203 -8.32608232 8.11259303 0 0 Z " fill="#000000" transform="translate(132,147)"/>
<path d="M0 0 C5.54982336 4.13516251 11.04764495 8.33273576 16.51831055 12.57177734 C18.96977029 14.46566893 21.42097331 16.28064887 24 18 C22.41110327 22.29165922 20.31584068 26.24442646 18.125 30.25 C15.15475939 35.73997683 12.42436685 41.24212872 10 47 C6.24474798 46.29886117 3.26207369 44.6573048 -0.078125 42.83984375 C-1.23828125 42.21142578 -2.3984375 41.58300781 -3.59375 40.93554688 C-4.81255302 40.26962829 -6.03130235 39.60361141 -7.25 38.9375 C-8.48415158 38.26716662 -9.71852427 37.59724015 -10.953125 36.92773438 C-13.97095079 35.28914928 -16.98645014 33.64643188 -20 32 C-19.31657945 27.22348462 -18.26660039 24.36022199 -15.5 20.375 C-14.78585938 19.34375 -14.07171875 18.3125 -13.3359375 17.25 C-3.55493631 3.55493631 -3.55493631 3.55493631 0 0 Z " fill="#000000" transform="translate(100,185)"/>
<path d="M0 0 C5.98485735 1.19679284 11.30040151 4.50080512 16.6875 7.25 C17.85345703 7.82363281 19.01941406 8.39726562 20.22070312 8.98828125 C21.32736328 9.55417969 22.43402344 10.12007812 23.57421875 10.703125 C24.59088623 11.21520508 25.60755371 11.72728516 26.6550293 12.25488281 C29 14 29 14 29.95605469 16.30639648 C30.01129928 19.69258326 29.23642906 22.19333519 28.12890625 25.39453125 C27.71962891 26.59658203 27.31035156 27.79863281 26.88867188 29.03710938 C26.4468753 30.29566447 26.00481467 31.5541269 25.5625 32.8125 C25.12324382 34.09011537 24.68508075 35.36810712 24.24804688 36.64648438 C23.17606351 39.76819418 22.09305946 42.88562037 21 46 C13.68032826 44.65179804 6.54178629 42.87481086 -0.625 40.875 C-1.62917969 40.59785156 -2.63335937 40.32070313 -3.66796875 40.03515625 C-6.11286455 39.35989931 -8.55683066 38.68147179 -11 38 C-10.63539771 30.04524247 -8.67761289 23.11394276 -6.0625 15.625 C-5.70220703 14.55894531 -5.34191406 13.49289063 -4.97070312 12.39453125 C-2.09272325 3.96729736 -2.09272325 3.96729736 0 0 Z " fill="#000000" transform="translate(74,227)"/>
<path d="M0 0 C-1.45833333 1.3125 -2.91666667 2.625 -4.375 3.9375 C-5.2928125 4.76378906 -6.210625 5.59007812 -7.15625 6.44140625 C-8.92603077 8.03372274 -10.69670363 9.62504898 -12.46875 11.21484375 C-17.04641399 15.32433756 -21.59736671 19.46059897 -26.125 23.625 C-29.99638264 27.1850179 -33.90947915 30.68705868 -37.8828125 34.1328125 C-41.10888518 36.97794671 -44.2673544 39.89632879 -47.43310547 42.80810547 C-53.05408996 47.97615573 -58.73723334 53.07403506 -64.421875 58.171875 C-69.01448104 62.29644476 -73.58179449 66.44621893 -78.125 70.625 C-81.36217216 73.60218281 -84.61137729 76.55952856 -87.9375 79.4375 C-92.16937159 83.10038045 -96.25810138 86.91550609 -100.34545898 90.73803711 C-100.87469971 91.23053955 -101.40394043 91.72304199 -101.94921875 92.23046875 C-102.46226562 92.71104736 -102.9753125 93.19162598 -103.50390625 93.68676758 C-105 95 -105 95 -107.79296875 96.8984375 C-110.77555408 99.73849221 -111.1214933 102.51841084 -111.625 106.4375 C-111.73561768 107.17033203 -111.84623535 107.90316406 -111.96020508 108.65820312 C-112.19757094 110.25106612 -112.42512729 111.8454146 -112.64404297 113.44091797 C-113.01711728 116.12306126 -113.42919472 118.79723872 -113.84765625 121.47265625 C-114.12894202 123.31490039 -114.40891159 125.15734603 -114.6875 127 C-114.81914551 127.85907959 -114.95079102 128.71815918 -115.08642578 129.60327148 C-115.44068039 132.06565096 -115.73071302 134.5270228 -116 137 C-116.11359863 137.77851318 -116.22719727 138.55702637 -116.34423828 139.35913086 C-116.66062391 142.87190883 -116.65175733 145.06898252 -114.58862305 148.01611328 C-112.65223781 150.00988975 -110.64050054 151.79031983 -108.5 153.5625 C-107.78457031 154.18962891 -107.06914062 154.81675781 -106.33203125 155.46289062 C-104.57302406 156.99909024 -102.79728196 158.50895704 -101 160 C-101.76041628 161.43803652 -102.52167261 162.87563258 -103.28613281 164.31152344 C-103.98910717 165.63921526 -104.68472452 166.97082118 -105.37402344 168.30566406 C-107.35224382 172.09283619 -109.42327876 175.69306248 -111.83984375 179.21875 C-118.75526093 189.76272725 -120.70997578 198.51862831 -121.52853394 210.87399292 C-122.79688109 229.83150955 -122.79688109 229.83150955 -127.1875 234.02734375 C-131.17578781 236.62415664 -135.32170281 237.50427942 -140 238 C-141.22332031 238.15339844 -142.44664062 238.30679688 -143.70703125 238.46484375 C-147.25901571 238.61482456 -150.59316888 238.44189769 -154.12646484 238.15332031 C-156.98846129 238.00061566 -159.82635161 238.01281623 -162.69129944 238.05818176 C-187.31105877 238.38698992 -187.31105877 238.38698992 -193.765625 232.41015625 C-196.99404951 228.56937592 -199.23293128 224.69085374 -201 220 C-200.67 219.01 -200.34 218.02 -200 217 C-197.37413025 215.87995911 -197.37413025 215.87995911 -193.82788086 214.82348633 C-193.18399918 214.62797684 -192.54011749 214.43246735 -191.87672424 214.23103333 C-189.74277076 213.58626308 -187.60404113 212.9591622 -185.46484375 212.33203125 C-183.98621373 211.88899037 -182.50790999 211.4448592 -181.02992249 210.99967957 C-177.13522677 209.82977599 -173.23626283 208.67477544 -169.33624268 207.52276611 C-165.3588611 206.34506607 -161.38567046 205.15340405 -157.41210938 203.96289062 C-149.61211902 201.62819922 -141.80756698 199.30922665 -134 197 C-135.11038293 195.23995875 -136.22274505 193.48116602 -137.3359375 191.72290039 C-137.9551709 190.74333878 -138.5744043 189.76377716 -139.21240234 188.75453186 C-141.32732424 185.49562193 -143.58686811 182.48169763 -146 179.4375 C-150.19787997 174.08910785 -154.16915267 168.61942175 -158 163 C-157.61328125 162.42894531 -157.2265625 161.85789062 -156.828125 161.26953125 C-146.34822948 144.95306025 -144.11298066 123.48447509 -147.68359375 104.5625 C-151.95208886 88.69290824 -160.96100967 76.47637152 -175 68 C-189.87315266 59.51271398 -204.63460682 55.56074358 -221.6171875 58.66015625 C-237.46642912 63.05005411 -253.59971475 74.60271967 -262 89 C-269.99058755 106.96813939 -271.81616484 126.38115752 -265 145 C-258.19925945 160.98799865 -247.00401405 171.34033225 -231 178 C-218.5432947 182.47253374 -206.89510538 182.40708634 -194 180 C-192.88109375 179.8040625 -191.7621875 179.608125 -190.609375 179.40625 C-180.60678449 177.41521303 -172.88899395 173.3851955 -165 167 C-162.49262942 170.78684089 -159.9953684 174.58024157 -157.5 178.375 C-156.78457031 179.45523438 -156.06914062 180.53546875 -155.33203125 181.6484375 C-154.65527344 182.6796875 -153.97851562 183.7109375 -153.28125 184.7734375 C-152.33862305 186.20308838 -152.33862305 186.20308838 -151.37695312 187.66162109 C-150 190 -150 190 -150 192 C-161.84430957 196.07802734 -173.69749322 200.12915848 -185.56054688 204.15234375 C-188.97296442 205.30991931 -192.38326711 206.47328498 -195.79101562 207.64453125 C-199.31500183 208.85498276 -202.84444912 210.04774838 -206.37936401 211.22589111 C-208.25710743 211.85640027 -210.12879936 212.50484284 -212.00024414 213.15380859 C-225.35474341 217.56012969 -235.28737466 216.69532993 -247.828125 210.6328125 C-256.95508904 205.72767942 -264.42271914 198.97201546 -272 192 C-272.78503906 191.28714844 -273.57007813 190.57429687 -274.37890625 189.83984375 C-286.87477123 177.94983889 -303.47574564 156.57765357 -304.12109375 138.6328125 C-304.08113281 137.76398438 -304.04117188 136.89515625 -304 136 C-302.71086513 135.32845067 -301.41859796 134.66291141 -300.125 134 C-299.40570313 133.62875 -298.68640625 133.2575 -297.9453125 132.875 C-296 132 -296 132 -294 132 C-294.02356567 131.03513672 -294.02356567 131.03513672 -294.04760742 130.05078125 C-294.63460009 102.27141497 -290.71000544 78.05195799 -271.11181641 57.20703125 C-269.75216255 55.79406673 -268.37649635 54.3965619 -267 53 C-266.34257812 52.3296875 -265.68515625 51.659375 -265.0078125 50.96875 C-247.01491885 33.9797517 -220.73817902 28.03492324 -196.73046875 28.72265625 C-174.21420671 29.80859164 -157.79629734 41.86093222 -143 58 C-140.88964249 60.5989832 -138.91761461 63.25777221 -137 66 C-130.57403981 61.82587202 -124.41450173 57.38177629 -118.3125 52.75 C-116.52885885 51.41638172 -114.74500434 50.08304876 -112.9609375 48.75 C-110.10939993 46.61107892 -107.29484648 44.44814312 -104.5390625 42.1875 C-95.26594593 34.89981141 -84.97110967 30.92747391 -74.02270508 26.71595764 C-67.26691437 24.11624885 -60.53923147 21.44731902 -53.8125 18.7734375 C-51.42977806 17.82655567 -49.04704685 16.87969719 -46.66430664 15.93286133 C-45.4704837 15.45845612 -44.27666077 14.9840509 -43.04666138 14.49526978 C-36.2086637 11.78071219 -29.36626306 9.07728079 -22.52380371 6.37399292 C-21.54971558 5.98897614 -20.57562744 5.60395935 -19.57202148 5.20727539 C-18.64082489 4.84223907 -17.7096283 4.47720276 -16.75021362 4.10110474 C-14.88871304 3.35581459 -13.03739869 2.58465154 -11.19631958 1.79025269 C-9.8733638 1.22590012 -9.8733638 1.22590012 -8.52368164 0.65014648 C-7.35839684 0.13809914 -7.35839684 0.13809914 -6.16957092 -0.3842926 C-3.69857592 -1.08554182 -2.39404607 -0.84082936 0 0 Z " fill="#000000" transform="translate(500,220)"/>
<path d="M0 0 C10.39811202 9.02830086 19.10637595 21.05536945 20.45507812 35.20629883 C21.20934813 51.60048519 19.11598015 64.38214499 9.234375 77.890625 C8.52474609 78.87675781 8.52474609 78.87675781 7.80078125 79.8828125 C0.40120837 89.31569577 -11.90396776 96.23667561 -23.765625 97.890625 C-35.1862212 98.62187273 -46.23965316 98.90613509 -56.765625 93.890625 C-57.54679687 93.54 -58.32796875 93.189375 -59.1328125 92.828125 C-72.9553504 85.94077048 -81.55568089 74.12398465 -86.8203125 59.96875 C-91.24498579 45.56113616 -89.29469374 30.39408523 -82.515625 17.140625 C-74.67077049 3.41622401 -63.49253953 -4.70655051 -48.59765625 -9.859375 C-32.03220018 -14.33484531 -13.53326176 -10.32197931 0 0 Z M-25.765625 3.890625 C-25.88599164 9.66822384 -25.5976832 15.17022489 -24.765625 20.890625 C-20.40591669 19.54212663 -16.45221062 17.84154654 -12.390625 15.765625 C-11.33101562 15.22679687 -10.27140625 14.68796875 -9.1796875 14.1328125 C-8.38304687 13.72289062 -7.58640625 13.31296875 -6.765625 12.890625 C-7.095625 11.900625 -7.425625 10.910625 -7.765625 9.890625 C-10.2269965 8.68343683 -12.58627265 7.66456803 -15.140625 6.703125 C-15.82640625 6.43048828 -16.5121875 6.15785156 -17.21875 5.87695312 C-20.20156716 4.71922545 -22.54005004 3.890625 -25.765625 3.890625 Z M-48.140625 31.265625 C-52.06918628 36.36848449 -53.32723579 40.37593981 -52.765625 46.890625 C-50.66740392 53.29572092 -47.62593231 56.96158053 -42.078125 60.703125 C-36.83918686 62.5812349 -31.7254602 63.12220026 -26.484375 60.94140625 C-21.4534018 57.9659986 -17.65381885 54.55520654 -15.765625 48.890625 C-15.22780622 42.88153441 -15.29712009 38.03358055 -18.765625 32.890625 C-22.88939974 27.96500517 -27.27725797 25.33594845 -33.703125 24.515625 C-39.64650395 25.24338569 -44.0771202 26.71648182 -48.140625 31.265625 Z " fill="#000000" transform="translate(325.765625,298.109375)"/>
<path d="M0 0 C10.11759657 3.37253219 10.11759657 3.37253219 14.6484375 5.36328125 C15.71223633 5.82766602 16.77603516 6.29205078 17.87207031 6.77050781 C19.60602051 7.53379395 19.60602051 7.53379395 21.375 8.3125 C24.00182563 9.46141988 26.62990997 10.60745209 29.2578125 11.75390625 C29.98407837 12.07120697 30.71034424 12.38850769 31.45861816 12.71542358 C38.37762529 15.7357758 45.30910577 18.72696375 52.2421875 21.71484375 C53.39298798 22.21079544 54.54378845 22.70674713 55.72946167 23.21772766 C60.40676891 25.23308764 65.08430139 27.24792444 69.76190186 29.26260376 C73.07586475 30.69018003 76.38951866 32.11847136 79.703125 33.546875 C81.2183223 34.19915321 81.2183223 34.19915321 82.76412964 34.86460876 C83.68920319 35.26345779 84.61427673 35.66230682 85.56738281 36.07324219 C86.37846497 36.42263855 87.18954712 36.77203491 88.02520752 37.13201904 C89.36541432 37.72108042 90.69060394 38.34530197 92 39 C90.43362296 43.84742717 87.64592932 47.3492668 84.5625 51.3125 C80.39739019 56.76289746 76.35790651 62.26522803 72.5 67.9375 C63.27130438 81.4900135 53.74830339 94.81676293 44 108 C39.22244332 106.47046208 35.97692225 103.77927617 32.1875 100.625 C26.9373485 96.33818498 21.63052927 92.16422932 16.1875 88.125 C10.42443348 83.83901011 4.72358109 79.48236193 -0.9375 75.0625 C-7.08383669 70.26480551 -13.2459489 65.489253 -19.4375 60.75 C-20.15349365 60.20093994 -20.8694873 59.65187988 -21.60717773 59.08618164 C-22.60406616 58.32422485 -22.60406616 58.32422485 -23.62109375 57.546875 C-24.2030249 57.10182617 -24.78495605 56.65677734 -25.38452148 56.19824219 C-26.88787965 55.08316256 -28.44260091 54.03826606 -30 53 C-29 50 -29 50 -26.40795898 48.55786133 C-25.28204346 48.0708374 -24.15612793 47.58381348 -22.99609375 47.08203125 C-21.3553186 46.36237183 -21.3553186 46.36237183 -19.68139648 45.62817383 C-18.28091064 45.02900146 -16.8804248 44.4298291 -15.4375 43.8125 C-11.003125 41.894375 -6.56875 39.97625 -2 38 C-1.34 25.46 -0.68 12.92 0 0 Z " fill="#000000" transform="translate(389,422)"/>
</svg>
