<?xml version="1.0" encoding="UTF-8"?>
<svg version="1.1" xmlns="http://www.w3.org/2000/svg" width="591" height="591">
<path d="M0 0 C1.14533203 -0.00128906 2.29066406 -0.00257812 3.47070312 -0.00390625 C5.26604492 0.00189453 5.26604492 0.00189453 7.09765625 0.0078125 C8.88719727 0.00201172 8.88719727 0.00201172 10.71289062 -0.00390625 C12.43282227 -0.00197266 12.43282227 -0.00197266 14.1875 0 C15.76132446 0.00169189 15.76132446 0.00169189 17.36694336 0.00341797 C19.80397087 0.11631235 21.83546266 0.43013609 24.16015625 1.1328125 C22.57873265 7.14222216 19.41366402 11.8989087 16.16015625 17.1328125 C23.75015625 17.4628125 31.34015625 17.7928125 39.16015625 18.1328125 C39.16015625 25.3928125 39.16015625 32.6528125 39.16015625 40.1328125 C28.16015625 40.1328125 28.16015625 40.1328125 24.49609375 37.5078125 C23.47914863 36.40982548 22.49171294 35.28379129 21.53515625 34.1328125 C20.52326411 33.00679718 19.51030445 31.88173993 18.49609375 30.7578125 C17.72523438 29.8915625 16.954375 29.0253125 16.16015625 28.1328125 C15.83015625 28.1328125 15.50015625 28.1328125 15.16015625 28.1328125 C15.16015625 30.1128125 15.16015625 32.0928125 15.16015625 34.1328125 C17.47015625 34.4628125 19.78015625 34.7928125 22.16015625 35.1328125 C22.28515625 41.8828125 22.28515625 41.8828125 21.16015625 44.1328125 C15.28515625 43.2578125 15.28515625 43.2578125 14.16015625 42.1328125 C12.05883704 42.00679196 9.95271837 41.9570203 7.84765625 41.9453125 C6.12095703 41.92404297 6.12095703 41.92404297 4.359375 41.90234375 C1.28575896 42.1237642 -0.21561987 42.6630091 -2.83984375 44.1328125 C-5.08984375 43.7578125 -5.08984375 43.7578125 -6.83984375 43.1328125 C-6.83984375 40.4928125 -6.83984375 37.8528125 -6.83984375 35.1328125 C-4.52984375 35.1328125 -2.21984375 35.1328125 0.16015625 35.1328125 C0.16015625 33.1528125 0.16015625 31.1728125 0.16015625 29.1328125 C-5.11849351 29.69924295 -7.59916446 34.1700146 -10.81640625 37.98046875 C-13.83984375 40.1328125 -13.83984375 40.1328125 -23.83984375 40.1328125 C-23.83984375 32.8728125 -23.83984375 25.6128125 -23.83984375 18.1328125 C-16.57984375 17.8028125 -9.31984375 17.4728125 -1.83984375 17.1328125 C-2.62359375 15.5446875 -3.40734375 13.9565625 -4.21484375 12.3203125 C-4.65570313 11.42699219 -5.0965625 10.53367187 -5.55078125 9.61328125 C-6.8585128 6.98724869 -6.8585128 6.98724869 -8.83984375 4.1328125 C-8.83984375 3.1428125 -8.83984375 2.1528125 -8.83984375 1.1328125 C-5.6501848 0.06959285 -3.35063741 0.00360588 0 0 Z " fill="#000000" transform="translate(287.83984375,87.8671875)"/>
<path d="M0 0 C3.529776 -0.32835126 5.51234647 -0.27865916 8.625 1.5 C18.37381669 11.7619123 25.96170074 33.68317529 26.1875 47.6875 C26.07936423 51.49057231 25.62672936 54.22360393 23.16796875 57.26953125 C20.875 59 20.875 59 18.39453125 60.46875 C12.28283432 64.37704559 9.55753539 71.17516311 8 78 C7.70791512 80.92295265 7.66640333 83.81389415 7.6875 86.75 C7.69241455 87.57201904 7.6973291 88.39403809 7.70239258 89.2409668 C8.10691594 111.05826012 13.41085788 131.36910128 28.5546875 147.66796875 C32.36545804 151.30220199 36.56624133 154.18288258 41 157 C41.99 157.66 42.98 158.32 44 159 C44.36076355 161.51834106 44.36076355 161.51834106 44.34057617 164.73486328 C44.34034958 165.93595734 44.34012299 167.13705139 44.33988953 168.37454224 C44.32440567 169.67664642 44.30892181 170.97875061 44.29296875 172.3203125 C44.28737416 173.66266405 44.28310341 175.00502173 44.28010559 176.34738159 C44.26864585 179.88210941 44.23916959 183.41646798 44.20599365 186.9510498 C44.17531671 190.55715947 44.16160538 194.16332874 44.14648438 197.76953125 C44.11430052 204.84650532 44.06309094 211.92322857 44 219 C42.72988459 218.06432263 41.46211273 217.12546361 40.1953125 216.18530273 C39.48906738 215.66282455 38.78282227 215.14034637 38.05517578 214.60203552 C35.12158889 212.31526742 32.56693316 209.74579139 30 207.0625 C26.19497288 203.11635237 22.25869366 199.43892455 18.11035156 195.85424805 C13.68043778 191.96193023 9.450163 187.85046656 5.1796875 183.78515625 C1.22632833 180.03949168 -2.7692026 176.43001556 -7 173 C-5.72989878 169.59638268 -4.2687437 166.64195995 -2.28515625 163.6015625 C-1.76373047 162.79203125 -1.24230469 161.9825 -0.70507812 161.1484375 C0.38523963 159.47341902 1.47637851 157.79893474 2.56835938 156.125 C5.528036 151.52673545 8.02594728 147.1036485 10 142 C9.01 142 8.02 142 7 142 C6.75507813 142.68449219 6.51015625 143.36898437 6.2578125 144.07421875 C4.77245937 147.52927929 2.87594838 150.6413857 0.875 153.8125 C0.50246094 154.40998047 0.12992187 155.00746094 -0.25390625 155.62304688 C-1.1657048 157.08426251 -2.08235976 158.54244585 -3 160 C-11.68518048 159.59128562 -19.69293749 157.38135792 -28 155 C-23.1687421 149.02449681 -17.75054841 144.07871799 -12 139 C-9.80374663 137.03037065 -7.6189549 135.04849341 -5.4375 133.0625 C-4.91269043 132.58973633 -4.38788086 132.11697266 -3.84716797 131.62988281 C-1.04168266 129.11983438 -1.04168266 129.11983438 1 126 C-4.55404271 128.89095044 -8.76803667 132.27885374 -13.25 136.625 C-14.46180304 137.78567211 -15.6752816 138.94459804 -16.890625 140.1015625 C-17.68001465 140.86460693 -17.68001465 140.86460693 -18.48535156 141.64306641 C-20 143 -20 143 -23 145 C-26.60412959 144.65290863 -29.30260162 143.48988829 -32.42578125 141.71484375 C-33.22177734 141.26689453 -34.01777344 140.81894531 -34.83789062 140.35742188 C-36.06282227 139.65456055 -36.06282227 139.65456055 -37.3125 138.9375 C-38.14845703 138.46505859 -38.98441406 137.99261719 -39.84570312 137.50585938 C-41.90069265 136.34332244 -43.95187737 135.17457909 -46 134 C-46 132.35 -46 130.7 -46 129 C-45.01157104 128.69147095 -45.01157104 128.69147095 -44.00317383 128.37670898 C-25.73891485 122.91270507 -25.73891485 122.91270507 -9 114 C-8.67 113.34 -8.34 112.68 -8 112 C-14.62759661 114.01194897 -20.85853257 116.61594995 -27.15039062 119.48657227 C-33.9184432 122.53302943 -41.50648575 125.84494617 -49 124 C-51.49233958 122.30923888 -53.51611775 120.42221272 -55.65625 118.3046875 C-58.1239709 115.87809528 -60.71549615 113.76036509 -63.4375 111.625 C-65.74542933 109.81188494 -67.92468541 108.07531459 -70 106 C-70 105.01 -70 104.02 -70 103 C-69.37770508 102.98541748 -68.75541016 102.97083496 -68.11425781 102.95581055 C-39.31089821 102.39923411 -39.31089821 102.39923411 -12 94 C-11.67 93.34 -11.34 92.68 -11 92 C-18.00379006 93.30783303 -24.92663566 94.89692579 -31.84545898 96.59082031 C-40.88166964 98.76781617 -49.72073026 99.35597381 -59 99.5625 C-60.24523437 99.62501953 -61.49046875 99.68753906 -62.7734375 99.75195312 C-71.7424934 99.90972436 -71.7424934 99.90972436 -75.19189453 97.41430664 C-76.96216858 95.3632832 -78.46630223 93.2313554 -80 91 C-81.13351717 89.820135 -82.29751525 88.66868144 -83.4921875 87.55078125 C-84.05164063 87.01259766 -84.61109375 86.47441406 -85.1875 85.91992188 C-86.33065401 84.83101476 -87.47928273 83.74783136 -88.6328125 82.66992188 C-91.78931122 79.61298561 -93.74318707 77.61407223 -94 73 C-88.00637325 73.75609483 -82.26000381 75.07646059 -76.40429688 76.5390625 C-75.69466797 76.71179688 -74.98503906 76.88453125 -74.25390625 77.0625 C-73.62814697 77.21847656 -73.0023877 77.37445313 -72.35766602 77.53515625 C-65.08166844 78.96971143 -57.89371989 79.19649891 -50.5 79.31640625 C-48.88557007 79.3475779 -48.88557007 79.3475779 -47.23852539 79.37937927 C-43.82574385 79.44437179 -40.41289028 79.50352425 -37 79.5625 C-34.67577403 79.60573313 -32.35155513 79.6493489 -30.02734375 79.69335938 C-24.35163698 79.8000011 -18.67585976 79.90185764 -13 80 C-13.33 78.35 -13.66 76.7 -14 75 C-14.60704773 75.00666183 -15.21409546 75.01332367 -15.83953857 75.02018738 C-22.26569211 75.0875309 -28.69174256 75.13220217 -35.11816406 75.16479492 C-37.50362227 75.17970804 -39.88905392 75.20004569 -42.27441406 75.22631836 C-85.12537953 75.68582198 -85.12537953 75.68582198 -96 68 C-98.42473674 65.48927969 -100.52958675 62.87732729 -102.625 60.0859375 C-105.62461032 56.18841751 -108.94810457 52.6743721 -112.37084961 49.1484375 C-115.08184375 46.28034851 -116.92895742 43.82153062 -118 40 C-117.625 36.6875 -117.625 36.6875 -117 34 C-114.30643569 35.04749723 -111.67028223 36.15264712 -109.046875 37.3671875 C-91.23819226 45.51191681 -73.80333655 46.82663953 -54.41845703 47.82080078 C-50.77860336 48.01160585 -47.14333482 48.24569907 -43.50683594 48.49072266 C-40.33954737 48.69624516 -37.1703253 48.84969792 -34 49 C-32.29263672 49.09861328 -32.29263672 49.09861328 -30.55078125 49.19921875 C-19.5625734 49.57632884 -8.70350581 47.00578493 0 40 C4.91160168 35.217651 6.03660774 29.37141428 6.3125 22.75 C6.12079444 14.84899244 3.98288659 6.82780559 0 0 Z " fill="#000000" transform="translate(203,101)"/>
<path d="M0 0 C-0.268125 0.639375 -0.53625 1.27875 -0.8125 1.9375 C-1.204375 2.948125 -1.59625 3.95875 -2 5 C-2.26425781 5.58523437 -2.52851563 6.17046875 -2.80078125 6.7734375 C-6.1345454 15.02094881 -6.54510783 26.04765609 -4 34.625 C0.73339142 42.61259802 8.22729554 45.14062359 16.6328125 48.1171875 C27.32424797 50.82325363 39.61089137 48.87729308 50.55810547 48.25537109 C52.86524194 48.12554908 55.17275618 48.00580436 57.48046875 47.88671875 C76.86734502 46.90713106 76.86734502 46.90713106 95.75 42.75 C96.44681885 42.53964111 97.1436377 42.32928223 97.86157227 42.11254883 C103.48733711 40.33718118 108.59558909 37.96637019 113.77734375 35.13671875 C116 34 116 34 118 34 C118.80197392 38.89204093 119.04246232 41.54822732 116.08984375 45.66015625 C114.35739925 47.52112831 112.59229238 49.35206906 110.80078125 51.15625 C107.29704619 54.71373832 104.27589444 58.56326474 101.203125 62.4921875 C96.20069328 68.18644489 92.01772861 70.78335927 84.75 72.25 C84.05003906 72.40984375 83.35007812 72.5696875 82.62890625 72.734375 C72.94791219 74.85043927 63.30850287 75.14368631 53.4296875 75.09765625 C52.26744659 75.0962413 51.10520569 75.09482635 49.90774536 75.09336853 C46.23013634 75.08781342 42.55259033 75.07526941 38.875 75.0625 C36.36718839 75.05747919 33.85937581 75.05291731 31.3515625 75.04882812 C25.23435384 75.03785872 19.11718143 75.02116589 13 75 C13.33 76.32 13.66 77.64 14 79 C50.30655326 80.30457732 50.30655326 80.30457732 85.95068359 74.55126953 C88.60631474 73.83690032 91.27928867 73.3874008 94 73 C94.33273932 76.18794941 94.17310647 77.71188386 92.50073242 80.49536133 C77.21712368 98.92370259 77.21712368 98.92370259 66.47265625 100.55078125 C59.5436387 100.90166245 52.82935329 100.11924976 46 99 C44.84661133 98.81824219 43.69322266 98.63648438 42.50488281 98.44921875 C35.26248718 97.24929521 28.13735208 95.70612947 21 94 C18.00203568 93.32380812 15.00111775 92.66210227 12 92 C11.67 92.66 11.34 93.32 11 94 C30.58078448 100.81701386 49.40620956 102.33411245 70 103 C69.24929503 107.88059131 67.94538957 109.33924191 64 112.375 C63.00226563 113.14457031 62.00453125 113.91414063 60.9765625 114.70703125 C59.50316406 115.84205078 59.50316406 115.84205078 58 117 C56.80503906 118.05767578 56.80503906 118.05767578 55.5859375 119.13671875 C54.85632813 119.77222656 54.12671875 120.40773438 53.375 121.0625 C52.74335938 121.63097656 52.11171875 122.19945312 51.4609375 122.78515625 C46.19155496 125.38639112 40.66293405 124.40441302 35.24609375 122.609375 C33.63747643 122.00467101 32.0345325 121.38466823 30.4375 120.75 C29.63892578 120.44964844 28.84035156 120.14929688 28.01757812 119.83984375 C23.43510408 118.08453584 19.05060571 116.10770303 14.71118164 113.81640625 C12.52750402 112.77457176 10.39362561 112.2992032 8 112 C10.72149009 115.2199315 14.23621949 116.94557845 17.9375 118.8125 C18.96713867 119.33263672 18.96713867 119.33263672 20.01757812 119.86328125 C28.63765262 124.03156616 37.78495933 126.50740703 47 129 C47 130.65 47 132.3 47 134 C43.59382034 135.87393409 40.17358467 137.72058452 36.75 139.5625 C35.29787109 140.36204102 35.29787109 140.36204102 33.81640625 141.17773438 C32.88183594 141.67724609 31.94726562 142.17675781 30.984375 142.69140625 C30.12553711 143.15748291 29.26669922 143.62355957 28.38183594 144.10375977 C25.66573306 145.12577838 24.64250114 145.11799458 22 144 C19.96880248 142.31831743 18.08103553 140.63588248 16.1875 138.8125 C15.12027518 137.8132854 14.05256926 136.81458441 12.984375 135.81640625 C11.98926772 134.87793872 10.99444945 133.93916457 10 133 C7.71410613 130.85397726 5.49390521 128.91022527 3 127 C2.01 127.33 1.02 127.66 0 128 C0.40347656 128.34289062 0.80695313 128.68578125 1.22265625 129.0390625 C6.83825182 133.87968204 12.2431693 138.93310288 17.63110352 144.02392578 C20.34277684 146.57472221 23.01526831 149.01187983 25.95703125 151.30078125 C26.63121094 151.86152344 27.30539062 152.42226562 28 153 C28 153.66 28 154.32 28 155 C20.01459326 157.26200586 12.31616812 159.41640925 4 160 C0.55462188 154.88521187 -2.80794471 149.75841455 -5.921875 144.43359375 C-6.45554687 143.72396484 -6.45554687 143.72396484 -7 143 C-7.66 143 -8.32 143 -9 143 C-7.71519319 146.43852482 -6.22472403 149.44758426 -4.25 152.5390625 C-3.7240625 153.36664063 -3.198125 154.19421875 -2.65625 155.046875 C-2.1096875 155.89765625 -1.563125 156.7484375 -1 157.625 C-0.4534375 158.48351562 0.093125 159.34203125 0.65625 160.2265625 C2.74489792 163.50287296 4.84469006 166.76703509 7 170 C6.71584022 173.63578795 4.99886756 175.35138166 2.4375 177.8125 C1.79683594 178.43769531 1.15617187 179.06289063 0.49609375 179.70703125 C-1.57593047 181.61044004 -3.67398689 183.46670139 -5.796875 185.3125 C-9.85125871 188.84458896 -13.77980131 192.49461733 -17.6875 196.1875 C-19.08170898 197.49904059 -20.47624524 198.81023334 -21.87109375 200.12109375 C-22.56058105 200.76933105 -23.25006836 201.41756836 -23.96044922 202.08544922 C-27.04779135 204.9835743 -30.14475082 207.87107701 -33.25 210.75 C-34.03636841 211.48319458 -34.03636841 211.48319458 -34.83862305 212.23120117 C-37.45864643 214.65539917 -40.12819929 216.88401684 -43 219 C-43.23212517 211.15080038 -43.40958585 203.30240984 -43.51812172 195.45063591 C-43.57022912 191.80407038 -43.6408302 188.15985876 -43.75439453 184.51464844 C-43.86339714 180.99365461 -43.92290474 177.47491701 -43.94877243 173.95236588 C-43.97613389 171.96088332 -44.05415537 169.97030475 -44.13296509 167.98019409 C-44.13518871 164.38614113 -44.04443849 161.44087483 -43 158 C-40.00267619 155.08725646 -36.78896323 153.65792932 -33 152 C-19.60644351 142.80830773 -12.76917867 126.34579021 -9.25 111.0625 C-6.27651349 94.60579017 -4.3048282 77.30753428 -14.23828125 62.9453125 C-16.13930819 60.84617411 -17.89412536 59.88856043 -20.375 58.5625 C-23.33414088 56.41927757 -23.94630648 55.20328507 -24.89453125 51.61328125 C-26.57758249 35.63962977 -18.08930368 15.78340101 -9 3 C-6.01323939 0.1095865 -4.12194827 -0.34349569 0 0 Z " fill="#000000" transform="translate(387,101)"/>
<path d="M0 0 C0.83853516 -0.00257813 1.67707031 -0.00515625 2.54101562 -0.0078125 C3.8490918 0.00378906 3.8490918 0.00378906 5.18359375 0.015625 C6.4974707 0.00402344 6.4974707 0.00402344 7.83789062 -0.0078125 C8.67513672 -0.00523437 9.51238281 -0.00265625 10.375 0 C11.14142822 0.00225586 11.90785645 0.00451172 12.69750977 0.00683594 C14.62109375 0.265625 14.62109375 0.265625 16.62109375 2.265625 C16.90026796 6.60957571 16.70651513 10.90913467 16.62109375 15.265625 C8.70109375 15.265625 0.78109375 15.265625 -7.37890625 15.265625 C-7.671875 5.3046875 -7.671875 5.3046875 -7.37890625 2.265625 C-4.26673886 0.19084674 -3.53830117 0.01039912 0 0 Z " fill="#000000" transform="translate(290.37890625,131.734375)"/>
<path d="M0 0 C7.92 0 15.84 0 24 0 C24 2.64 24 5.28 24 8 C16.08 8 8.16 8 0 8 C0 5.36 0 2.72 0 0 Z " fill="#000000" transform="translate(283,149)"/>
<path d="M0 0 C7.92 0 15.84 0 24 0 C24 2.31 24 4.62 24 7 C16.08 7 8.16 7 0 7 C0 4.69 0 2.38 0 0 Z " fill="#000000" transform="translate(283,158)"/>
<path d="M0 0 C7.92 0 15.84 0 24 0 C24 4.29 24 8.58 24 13 C25.98 13 27.96 13 30 13 C32.375 15.5 32.375 15.5 34 18 C32.125 22.875 32.125 22.875 31 24 C27.7 24 24.4 24 21 24 C21.495 34.395 21.495 34.395 22 45 C28.15421297 48.46851529 28.15421297 48.46851529 31.45263672 47.39770508 C32.18756348 46.94290771 32.92249023 46.48811035 33.6796875 46.01953125 C34.51846436 45.51977783 35.35724121 45.02002441 36.22143555 44.50512695 C37.53494995 43.66727661 37.53494995 43.66727661 38.875 42.8125 C40.73273655 41.67653306 42.59081483 40.5411248 44.44921875 39.40625 C45.37524902 38.83003906 46.3012793 38.25382812 47.25537109 37.66015625 C49.82495915 36.10587776 52.42273145 34.67498887 55.08203125 33.28125 C55.86143066 32.86254639 56.64083008 32.44384277 57.44384766 32.01245117 C58.89989406 31.23372777 60.36672883 30.47473006 61.84521484 29.73950195 C64.8746594 28.06332889 66.61254279 26.99925405 67.89306641 23.69677734 C68.39831635 21.45924187 68.77129912 19.28112884 69 17 C72.3125 17.0625 72.3125 17.0625 76 18 C77.57771478 20.55698603 78.26600572 22.17181224 79 25 C79.32291016 26.17369141 79.32291016 26.17369141 79.65234375 27.37109375 C81.64050322 35.7005723 81.30150945 42.72723039 77.08984375 50.28125 C74.11737357 54.96901659 71.23102626 56.52937985 66 57.8984375 C62.79712357 59.66252178 61.67153405 61.77710755 60 65 C59.4334632 67.98154984 59.35021341 70.90785634 59.3125 73.9375 C59.26981568 75.48836345 59.22428135 77.03915129 59.17578125 78.58984375 C59.15467285 79.32960449 59.13356445 80.06936523 59.11181641 80.83154297 C58.951927 83.93228037 58.50162355 86.93724157 58 90 C51.48180123 88.10463724 45.82185199 85.4821006 40 82 C42.47236466 61.03154879 42.47236466 61.03154879 48.09716797 56.19775391 C53.42585361 52.5646072 59.13467962 49.66300512 65 47 C53.0859375 52.95703125 53.0859375 52.95703125 50.98730469 54.00244141 C49.18453586 54.90736935 47.39238471 55.83337298 45.6015625 56.76171875 C43 58 43 58 41 58 C40.87882812 58.9178125 40.75765625 59.835625 40.6328125 60.78125 C40.12140902 64.52629702 39.56384225 68.26253136 39 72 C38.90203125 72.825 38.8040625 73.65 38.703125 74.5 C37.97730172 78.9240657 36.41721713 80.76318852 32.9375 83.3125 C32.22464844 83.76238281 31.51179688 84.21226562 30.77734375 84.67578125 C28.69417737 85.96444223 28.69417737 85.96444223 28 89 C31.64991166 87.68197635 33.7895201 86.40785992 37 84 C46.9 88.95 46.9 88.95 57 94 C54.99495311 97.34174482 52.9807025 100.58428739 50.8125 103.8125 C50.28269531 104.60269531 49.75289063 105.39289063 49.20703125 106.20703125 C48.80871094 106.79871094 48.41039062 107.39039063 48 108 C50.97 108.99 53.94 109.98 57 111 C57.46867115 121.14152299 57.4590125 130.58652916 53 140 C51.68 141.32 50.36 142.64 49 144 C46.03 141.03 43.06 138.06 40 135 C40.02966354 136.48368073 40.05932709 137.96736145 40.08988953 139.4960022 C40.36169668 153.75401927 40.52640223 168.00928248 40.59327984 182.26952553 C40.63014889 189.59437161 40.70056533 196.91549595 40.8605957 204.23876953 C41.72070791 244.72491995 37.3824479 276.58112891 21.14877701 314.28520966 C19.30090425 318.6521034 17.58868446 323.0696994 15.88549805 327.49462891 C15.5894785 328.26163809 15.29345896 329.02864727 14.98846912 329.81889915 C14.32353455 331.5451209 13.66140016 333.27242097 13 335 C12.34 335 11.68 335 11 335 C10.76054153 334.31698822 10.52108307 333.63397644 10.27436829 332.93026733 C7.99532733 326.42994938 5.71589092 319.92977021 3.4360323 313.429739 C2.26451688 310.08962651 1.09314379 306.74946427 -0.07788086 303.40917969 C-1.43037841 299.55127494 -2.78353666 295.6936022 -4.13671875 291.8359375 C-4.75422249 290.07411636 -4.75422249 290.07411636 -5.38420105 288.27670288 C-5.78423843 287.13657745 -6.18427582 285.99645203 -6.59643555 284.82177734 C-6.96409688 283.76066301 -7.33175821 282.69954868 -7.7105608 281.60627937 C-8.53374717 279.30400717 -9.39613091 277.01512816 -10.30851746 274.74672699 C-13.57643266 266.42099677 -14.70495737 259.3790626 -14.56762695 250.47705078 C-14.56835709 249.20704224 -14.56908722 247.93703369 -14.56983948 246.62854004 C-14.57125539 243.19522546 -14.54216859 239.76281093 -14.50696969 236.32970285 C-14.4753957 232.72366488 -14.47275131 229.11759898 -14.46684265 225.51144409 C-14.45139424 218.7047656 -14.41049013 211.8984958 -14.3600952 205.09199607 C-14.30391857 197.33371505 -14.2766446 189.57541296 -14.25161803 181.81697869 C-14.1995643 165.87775034 -14.11180062 149.93892818 -14 134 C-16.87636933 136.26833966 -19.52760457 138.37756003 -21.8125 141.25 C-22.534375 142.1575 -23.25625 143.065 -24 144 C-29.83223035 138.79134144 -32.37107735 130.70430241 -33 123 C-33.06712431 118.99835837 -33.05827676 115.00167084 -33 111 C-28.545 110.01 -28.545 110.01 -24 109 C-25.20623241 104.17507036 -27.42989614 101.83808614 -30.6015625 98.12109375 C-31.06304687 97.42113281 -31.52453125 96.72117187 -32 96 C-30.61666971 91.85000914 -28.46762965 91.36625661 -24.70898438 89.43945312 C-23.46084961 88.81973633 -23.46084961 88.81973633 -22.1875 88.1875 C-21.36701172 87.75501953 -20.54652344 87.32253906 -19.70117188 86.87695312 C-18.90646484 86.47798828 -18.11175781 86.07902344 -17.29296875 85.66796875 C-16.5661792 85.29953857 -15.83938965 84.9311084 -15.09057617 84.55151367 C-13 84 -13 84 -10.79418945 84.70825195 C-9 86 -9 86 -8 89 C-6.02 88.505 -6.02 88.505 -4 88 C-4 87.01 -4 86.02 -4 85 C-4.7425 84.731875 -5.485 84.46375 -6.25 84.1875 C-11.0645254 82.1085004 -11.0645254 82.1085004 -13 80 C-13.32373047 77.98168945 -13.32373047 77.98168945 -13.45703125 75.53515625 C-13.78578249 69.68370647 -14.13171252 64.22279284 -17 59 C-23.4946613 53.22725783 -31.94637884 50.02154814 -40 47 C-38.59193822 48.40806178 -37.03444609 48.79593999 -35.17578125 49.51171875 C-22.77943511 54.840546 -22.77943511 54.840546 -19.546875 60.58007812 C-17.00446652 67.16437896 -13.69553904 76.08661711 -16 83 C-18.45071529 84.36573274 -20.8220099 85.55099232 -23.375 86.6875 C-24.06078125 87.00783203 -24.7465625 87.32816406 -25.453125 87.65820312 C-28.45700982 89.02865252 -30.66226916 90 -34 90 C-34.04898438 88.73285156 -34.09796875 87.46570313 -34.1484375 86.16015625 C-34.22354191 84.46091904 -34.29908632 82.76170124 -34.375 81.0625 C-34.42140625 79.81629883 -34.42140625 79.81629883 -34.46875 78.54492188 C-34.8451211 68.64233754 -34.8451211 68.64233754 -38.5625 59.6875 C-40.87119052 58.08917579 -42.83814828 57.25606138 -45.4375 56.25 C-50.58014062 54.12347151 -52.71936322 50.95834872 -55 46 C-58.16864962 36.49405115 -55.27707583 27.07047773 -52 18 C-49.6739143 17.61936779 -47.33944736 17.28730055 -45 17 C-44 18 -44 18 -44 21.1875 C-42.52108647 26.82585784 -38.84256556 28.10987579 -34 31 C-29.73855025 33.47258723 -25.4393168 35.87107765 -21.125 38.25 C-18.89786143 39.48333532 -16.67127255 40.71766392 -14.4453125 41.953125 C-13.47094238 42.49098633 -12.49657227 43.02884766 -11.49267578 43.58300781 C-9.61812259 44.64862062 -7.79412123 45.80391918 -6 47 C-3.04182816 46.69814573 -0.66562342 46.33281171 2 45 C2.33 38.07 2.66 31.14 3 24 C-0.3 24 -3.6 24 -7 24 C-9 21 -9 21 -8.75 18.5 C-8 16 -8 16 -6 13 C-4.02 13 -2.04 13 0 13 C0 8.71 0 4.42 0 0 Z M12 63 C10.94141773 64.26091517 9.92756192 65.55959859 8.9375 66.875 C8.38964844 67.59429687 7.84179688 68.31359375 7.27734375 69.0546875 C5.8170412 70.89076827 5.8170412 70.89076827 6 73 C6.99 73.66 7.98 74.32 9 75 C9.35644531 77.49023438 9.35644531 77.49023438 9.328125 80.59375 C9.32296875 81.70621094 9.3178125 82.81867188 9.3125 83.96484375 C9.291875 85.13144531 9.27125 86.29804688 9.25 87.5 C9.24484375 88.66660156 9.2396875 89.83320313 9.234375 91.03515625 C9.15412854 99.69174292 9.15412854 99.69174292 8 102 C6.95199219 101.96519531 5.90398437 101.93039062 4.82421875 101.89453125 C3.44532853 101.86639063 2.06642098 101.83909076 0.6875 101.8125 C-0.00279297 101.78736328 -0.69308594 101.76222656 -1.40429688 101.73632812 C-5.48231234 101.64253333 -5.48231234 101.64253333 -8.98046875 103.51171875 C-9.48513672 104.24841797 -9.48513672 104.24841797 -10 105 C-7.525 106.98 -7.525 106.98 -5 109 C-4.67 108.01 -4.34 107.02 -4 106 C-2.04081032 106.05991406 -0.08248471 106.14867138 1.875 106.25 C2.96554687 106.29640625 4.05609375 106.3428125 5.1796875 106.390625 C8 107 8 107 9.15970612 108.52482414 C10.3620589 112.06648337 10.2806367 115.51506253 10.26501465 119.21218872 C10.26939592 120.04723997 10.27377719 120.88229122 10.27829123 121.74264705 C10.29062732 124.54479422 10.28880204 127.34675458 10.28710938 130.14892578 C10.29313241 132.15610024 10.30005635 134.16327217 10.30781555 136.17044067 C10.32271331 140.49422065 10.33145589 144.81795437 10.33552551 149.14175797 C10.3422294 155.9728789 10.36397117 162.80390055 10.38806152 169.63497925 C10.44122951 185.36604592 10.47460094 201.09714315 10.50782013 216.82826233 C10.53847091 231.24946802 10.57324532 245.67063116 10.62413073 260.0917815 C10.64753904 266.88859505 10.66123504 273.68533949 10.66762543 280.48218942 C10.67354407 284.70184256 10.68762253 288.92143929 10.70396996 293.14106369 C10.70986914 295.10431439 10.71231341 297.06757881 10.71113014 299.03083801 C10.70997905 301.70127279 10.72092204 304.37138715 10.73498535 307.04177856 C10.73168638 307.82697785 10.7283874 308.61217715 10.72498846 309.42117035 C10.61157305 313.6715336 10.61157305 313.6715336 13 317 C14.31306909 313.01619744 14.14682168 308.97642128 14.14476013 304.83250427 C14.14828698 304.00224214 14.15181382 303.17198001 14.15544754 302.31655842 C14.16613413 299.5306134 14.1698154 296.74470256 14.17358398 293.95874023 C14.17988911 291.96304174 14.18665487 289.96734466 14.19384766 287.97164917 C14.20851774 283.67243683 14.22024224 279.37322993 14.22979546 275.07400322 C14.24523522 268.28043434 14.26918267 261.4869122 14.29469299 254.69337463 C14.36593466 235.37479603 14.42575358 216.05619099 14.47680664 196.73754883 C14.50507428 186.06942525 14.54043278 175.40134853 14.58346039 164.73327404 C14.61028629 157.97521539 14.6281582 151.21720973 14.63949764 144.45910823 C14.64860047 140.26125221 14.66595071 136.06346084 14.68567657 131.86564255 C14.69317208 129.91410268 14.69723433 127.96254626 14.69767189 126.01099205 C14.69874897 123.35403607 14.71194733 120.6974117 14.72825623 118.04051208 C14.72563937 117.26211658 14.72302252 116.48372108 14.72032636 115.68173784 C14.75664574 111.91321335 14.85596917 110.21604625 17 107 C19.49609375 106.63671875 19.49609375 106.63671875 22.4375 106.6875 C23.40558594 106.69136719 24.37367188 106.69523437 25.37109375 106.69921875 C28 107 28 107 31 109 C31.99 108.01 32.98 107.02 34 106 C33.67 105.01 33.34 104.02 33 103 C29.05352382 102.01155049 25.72607036 102.03808095 21.6875 102.4375 C20.61886719 102.53933594 19.55023438 102.64117187 18.44921875 102.74609375 C17.64097656 102.82988281 16.83273437 102.91367187 16 103 C15.05533244 99.75921875 14.80901172 96.72774345 14.68359375 93.359375 C14.64169922 92.28945313 14.59980469 91.21953125 14.55664062 90.1171875 C14.51732422 89.00601563 14.47800781 87.89484375 14.4375 86.75 C14.39431641 85.62335938 14.35113281 84.49671875 14.30664062 83.3359375 C14.20067985 80.55741046 14.09860858 77.77879609 14 75 C15.32 74.34 16.64 73.68 18 73 C18 69.62972148 17.50175992 68.93297304 15.5625 66.3125 C15.11003906 65.68988281 14.65757812 65.06726563 14.19140625 64.42578125 C13.79824219 63.95527344 13.40507812 63.48476562 13 63 C12.67 63 12.34 63 12 63 Z " fill="#000000" transform="translate(283,167)"/>
</svg>
