<?xml version="1.0" encoding="UTF-8"?>
<svg version="1.1" xmlns="http://www.w3.org/2000/svg" width="591" height="591">
<path d="M0 0 C14.36973801 -1.19747817 26.6195462 7.40177158 37.24780273 16.265625 C47.5244275 25.02557314 56.60019249 34.4219604 65 45 C65.95799122 46.16931773 66.91771325 47.337219 67.87890625 48.50390625 C89.830141 75.28215109 106.60323015 106.98822143 117 140 C117.24830566 140.77504883 117.49661133 141.55009766 117.75244141 142.34863281 C125.43699241 167.26085013 126.63081025 196.0476388 127 222 C127.01981934 223.36789673 127.01981934 223.36789673 127.04003906 224.76342773 C127.44839325 279.27427269 127.44839325 279.27427269 113.40991211 293.65283203 C112.61464111 294.42739746 111.81937012 295.20196289 111 296 C111.01571045 295.00073486 111.0314209 294.00146973 111.04760742 292.97192383 C111.53055972 259.13032954 110.10128384 226.025319 99.5 193.5625 C99.09152832 192.31146484 99.09152832 192.31146484 98.67480469 191.03515625 C96.94035251 186.01319365 94.76591283 181.50321923 92.06835938 176.92553711 C91 175 91 175 90 172 C88.02 171.67 86.04 171.34 84 171 C80.75866137 177.05989396 79.96309871 181.75095201 79.75 188.5625 C78.92337817 204.47898292 74.56742701 225.3742988 63 237 C58.125 240 58.125 240 55 240 C55.13277344 239.40832031 55.26554687 238.81664062 55.40234375 238.20703125 C55.57894531 237.41683594 55.75554687 236.62664062 55.9375 235.8125 C56.19853516 234.64654297 56.19853516 234.64654297 56.46484375 233.45703125 C56.64144531 232.64621094 56.81804687 231.83539063 57 231 C57.17112305 230.24710693 57.34224609 229.49421387 57.51855469 228.71850586 C61.13483029 208.29901864 60.15322401 177.67741674 48 160 C47.57589844 159.34 47.15179688 158.68 46.71484375 158 C44.59913476 155.06113736 43.21498028 154.05678724 39.6875 153.125 C38.800625 153.08375 37.91375 153.0425 37 153 C34.77911884 159.05174206 33.40929666 164.86970464 32.36547852 171.22509766 C29.33857124 189.49345195 23.41238242 206.52015846 8 218 C5.29120665 219.35439668 2.99066732 219.06501451 0 219 C1.05826526 216.32961103 2.13978781 213.67975883 3.2890625 211.046875 C7.97048441 199.49389228 9.31624861 186.87626962 4.98046875 174.88671875 C2.60673557 170.31893737 -1.33714384 168.58976123 -6 167 C-18.83790081 165.44240029 -30.45713546 168.93732194 -40.9375 176.375 C-41.9584375 177.179375 -41.9584375 177.179375 -43 178 C-43.95519531 178.74378906 -44.91039062 179.48757812 -45.89453125 180.25390625 C-49.30619717 183.12073524 -51.97781703 186.41680703 -54.6875 189.9375 C-55.15994141 190.53240234 -55.63238281 191.12730469 -56.11914062 191.74023438 C-58.90798317 195.31918379 -61.10474644 198.84819037 -63 203 C-63.33 203 -63.66 203 -64 203 C-65.24593229 186.35296024 -58.90657775 170.16897863 -48.6875 157.1875 C-43.48196748 151.15442129 -37.67107706 145.81142868 -31.34765625 140.96875 C-27.24253135 137.52618269 -25.42900143 133.65742552 -24.578125 128.38671875 C-24.13033372 119.59259562 -27.40066116 113.01109181 -32.8125 106.25 C-35.67517862 103.08834711 -38.94876107 100.66236369 -42.4609375 98.26171875 C-42.96882813 97.84535156 -43.47671875 97.42898437 -44 97 C-44 96.34 -44 95.68 -44 95 C-36.91889094 95.60009399 -31.0366397 97.64867387 -24.75 100.8125 C-24.08935547 101.14378906 -23.42871094 101.47507812 -22.74804688 101.81640625 C-18.19326363 104.1872644 -14.14736284 106.97725948 -10 110 C-3.82202487 113.01715064 3.90064655 113.07134902 10.49609375 111.34765625 C22.7268998 106.40869991 32.29804429 94.25890857 37.58984375 82.453125 C40.76105692 72.83791639 41.40621942 64.28923125 37 55 C33.69292906 49.55473665 30.25002115 45.12046012 23.8515625 43.43359375 C23.24054688 43.29050781 22.62953125 43.14742187 22 43 C22.02320313 42.23816406 22.04640625 41.47632813 22.0703125 40.69140625 C22.29377861 27.90595224 20.18025392 18.16392852 11.125 8.6875 C7.67979191 5.40603754 4.24621993 3.12310997 0 1 C0 0.67 0 0.34 0 0 Z " fill="#000000" transform="translate(392,59)"/>
<path d="M0 0 C2.90038568 1.45019284 3.07891442 3.63982013 4.05761719 6.57498169 C5.11002985 9.87955575 6.15897795 13.18464216 7.18017578 16.49902344 C7.72496466 18.24403511 8.2857824 19.98412627 8.86279297 21.71875 C9.69506742 24.22177367 10.47718172 26.73588694 11.25 29.2578125 C11.51530518 30.02787628 11.78061035 30.79794006 12.05395508 31.59133911 C12.7168297 33.87185592 13.13869248 35.62581503 13 38 C11.69926362 40.1282185 10.29135059 41.68471933 8.47167969 43.38546753 C6.78937807 45.23106654 6.40802433 46.56642043 6 49 C8.31 49 10.62 49 13 49 C13 51.31 13 53.62 13 56 C11.35 56.33 9.7 56.66 8 57 C7.58253392 59.87364791 7.58253392 59.87364791 8 63 C10.39056942 64.9354148 10.39056942 64.9354148 13 66 C12.505 67.98 12.505 67.98 12 70 C10.68 70.33 9.36 70.66 8 71 C8.04429041 75.03920904 8.11426321 79.07709542 8.20751953 83.11547852 C8.23565375 84.48774907 8.25690586 85.86017941 8.27099609 87.23266602 C8.29252731 89.21138494 8.3412928 91.1897477 8.390625 93.16796875 C8.4220459 94.95110474 8.4220459 94.95110474 8.45410156 96.77026367 C9.09652986 100.5711062 10.45601678 102.17490851 13 105 C13.7159379 108.07432158 13.58228232 110.9020319 13 114 C11.0625 116.75 11.0625 116.75 9 119 C7.03427393 124.7333677 7.316499 132.21463545 9 138 C13.52216495 137.48759642 15.79012072 135.81908517 19.25 132.9375 C24.16446551 129.1347121 29.06869119 126.21018086 34.6875 123.5625 C35.71955566 123.06834595 35.71955566 123.06834595 36.77246094 122.56420898 C44.15350659 119.19952718 50.9723615 117.29199181 59 119 C59 119.66 59 120.32 59 121 C57.54211585 122.21888675 56.0312314 123.37463716 54.5 124.5 C33.725214 140.89191975 27.99870251 165.98954502 25 191 C23.13133343 207.3872451 22.78812781 224.53297459 25.1875 240.875 C25.28836914 241.62201172 25.38923828 242.36902344 25.49316406 243.13867188 C26.41901988 248.51412585 28.23935856 251.24497146 32 255 C36.78774959 258.24139569 41.82172853 258.29695832 47.390625 257.52734375 C51.69219536 256.65801441 55.84589116 255.40532618 60 254 C59.57054624 260.83308645 56.77644158 266.15729182 53.8125 272.25 C44.60316461 291.83726277 37.9131063 313.01931811 36.48046875 334.74609375 C35.48353073 349.4543728 33.20615571 357.77878565 22.69140625 368.26464844 C20.06509965 370.95919049 17.79173939 373.89590862 15.5 376.875 C15.06123535 377.43324463 14.6224707 377.99148926 14.17041016 378.56665039 C10.43530563 383.34258604 6.90275604 388.25742519 3.375 393.1875 C-3.53486694 402.83748659 -10.88419036 411.89144797 -18.88671875 420.66796875 C-20.77376537 422.75034736 -22.61058233 424.86503064 -24.4375 427 C-33.39510047 437.26391721 -43.54429347 446.03173321 -54.0625 454.625 C-54.73555176 455.17583252 -55.40860352 455.72666504 -56.10205078 456.29418945 C-68.05914127 466 -68.05914127 466 -71 466 C-69.64932538 462.225412 -67.84818335 458.92634143 -65.82885742 455.48681641 C-39.42163721 410.1460215 -22.94147933 353.93652609 -22.64990234 301.59057617 C-22.63325916 299.39971354 -22.60586113 297.208907 -22.56787109 295.01831055 C-22.51319021 291.84135112 -22.49125367 288.66564727 -22.4765625 285.48828125 C-22.45389313 284.51111649 -22.43122375 283.53395172 -22.40786743 282.5271759 C-22.42248603 277.83504616 -22.45116978 275.71350173 -25.38818359 271.89526367 C-27.73435941 270.192762 -29.15219303 269.316423 -32 269 C-32.34375 266.33984375 -32.34375 266.33984375 -32 263 C-30.19628039 260.88664185 -28.6101226 259.30416853 -26.5 257.5625 C-25.95408203 257.09166992 -25.40816406 256.62083984 -24.84570312 256.13574219 C-23.74876575 255.19061888 -22.64659936 254.25152754 -21.5390625 253.31884766 C-18.83591971 251.00248069 -16.29137366 248.50666429 -13.71875 246.046875 C-12 245 -12 245 -9.9453125 245.10546875 C-7.51876915 246.22128889 -6.7540824 247.28923837 -5.375 249.5625 C-4.97023438 250.20316406 -4.56546875 250.84382812 -4.1484375 251.50390625 C8.20761353 278.35940493 4.79611584 332.1331631 -5 359.5 C-13.27939517 380.92079066 -24.98543106 401.13251039 -38 420 C-28.87669652 413.12975581 -23.42257931 403.27508908 -17.875 393.5 C-17.10095825 392.13633301 -17.10095825 392.13633301 -16.3112793 390.74511719 C-14.13221745 386.87697661 -11.98251765 383.00374797 -9.9609375 379.05078125 C-5.98065632 371.51732669 -5.98065632 371.51732669 -2.80078125 369.83984375 C-0.5625 369.25 -0.5625 369.25 3 369 C2.63003906 368.50113281 2.26007813 368.00226563 1.87890625 367.48828125 C-0.51474917 363.53200211 -1.28341857 361.16016198 -0.1640625 356.578125 C2.17929699 351.43416515 3.91606035 347.7863013 9.375 345.7265625 C12.62612339 345.2346162 15.71438428 344.97529612 19 345 C18.21753906 344.46375 17.43507813 343.9275 16.62890625 343.375 C7.94610369 336.64997585 7.94610369 336.64997585 7.046875 330.7734375 C6.72813353 326.83485981 6.7896352 322.94311698 7 319 C9.06175364 318.040062 11.12443469 317.08211576 13.1875 316.125 C14.33605469 315.59132813 15.48460937 315.05765625 16.66796875 314.5078125 C19.42294137 313.26113087 22.18161677 312.09338408 25 311 C22.71589978 308.36059531 21.07131452 307.02890894 17.80078125 305.703125 C13.77927284 304.02787177 10.53515332 302.64230231 8 299 C6.17781399 292.16412277 6.77859409 284.84798562 6.96582031 277.83691406 C7.12920894 264.27565833 2.96093799 251.77486934 -3.828125 240.1796875 C-5 238 -5 238 -5 236 C-9.09727316 238.61388084 -12.63179531 241.34696655 -16.1875 244.6875 C-24.06708321 251.95684375 -32.34505559 258.67618675 -41 265 C-40.49238943 260.37059158 -39.34523869 257.55164763 -36.6875 253.75 C-29.78689062 243.24353941 -27 232.63092905 -27 220 C-25.3828125 218.61328125 -25.3828125 218.61328125 -23.125 217.3125 C-6.54620096 206.9540039 6.17640249 191.22856443 10.6875 172.08203125 C11.16601532 169.7260079 11.60896525 167.37193449 12 165 C10.7315625 165.08701172 10.7315625 165.08701172 9.4375 165.17578125 C1.67300144 165.48459653 -3.05182167 165.06382595 -9 160 C-9.80824219 159.33742187 -10.61648438 158.67484375 -11.44921875 157.9921875 C-17.80533236 152.58400292 -17.80533236 152.58400292 -19 149 C-18.46890625 148.72027344 -17.9378125 148.44054687 -17.390625 148.15234375 C-16.68421875 147.75144531 -15.9778125 147.35054687 -15.25 146.9375 C-14.55390625 146.55464844 -13.8578125 146.17179688 -13.140625 145.77734375 C-9.56321525 142.80704916 -7.40901661 139.36928419 -6.62207031 134.81079102 C-6.465051 132.46425238 -6.45348419 130.16348665 -6.5 127.8125 C-6.48453125 127.01908203 -6.4690625 126.22566406 -6.453125 125.40820312 C-6.41189018 120.65039706 -6.41189018 120.65039706 -9.015625 116.83984375 C-9.67046875 116.23269531 -10.3253125 115.62554687 -11 115 C-11.390625 111.984375 -11.390625 111.984375 -11.25 108.75 C-11.21390625 107.67234375 -11.1778125 106.5946875 -11.140625 105.484375 C-11.09421875 104.66453125 -11.0478125 103.8446875 -11 103 C-10.01 102.67 -9.02 102.34 -8 102 C-7.67 91.77 -7.34 81.54 -7 71 C-8.32 70.67 -9.64 70.34 -11 70 C-11.33 69.34 -11.66 68.68 -12 68 C-10.36587557 66.29159719 -9.13093906 65.06546953 -7 64 C-7.18129815 60.56206661 -7.18129815 60.56206661 -8 57 C-9.93597032 55.48705712 -9.93597032 55.48705712 -12 55 C-12 53.02 -12 51.04 -12 49 C-9.69 48.67 -7.38 48.34 -5 48 C-5.61875 46.906875 -6.2375 45.81375 -6.875 44.6875 C-7.22304688 44.07261719 -7.57109375 43.45773438 -7.9296875 42.82421875 C-8.89428581 41.18017711 -9.94267059 39.58599412 -11 38 C-9.71352768 29.77515363 -6.87525734 21.86242283 -4.375 13.9375 C-3.95018168 12.58148641 -3.5256999 11.22536735 -3.1015625 9.86914062 C-2.0715831 6.57820267 -1.03706484 3.288713 0 0 Z " fill="#000000" transform="translate(290,66)"/>
<path d="M0 0 C40.07969253 7.64879628 93.9696568 25.17111188 119 59.3125 C122.43537245 63.83713689 125.45283283 65.41310317 130.7890625 67.12890625 C133.85850177 68.33824363 135.30729794 70.2301239 137 73 C136 75 136 75 133.12890625 76 C131.36353516 76.495 131.36353516 76.495 129.5625 77 C124.81279293 78.18632427 124.81279293 78.18632427 121 81 C121.26960719 84.9093042 123.22885007 87.36402811 126 90 C133.33842344 93.5563129 141.02034828 93.33769686 149 93 C147.57983848 96.74157939 145.87063019 100.21450894 144 103.75 C139.33391008 113.08217984 137.49467561 121.39036985 140.8359375 131.5390625 C145.54288124 142.32163575 155.22300728 148.44531827 164.82177734 154.55078125 C168.27665067 156.75899464 171.21440581 158.94144557 174 162 C148.15681961 160.26515687 129.40030547 150.3674245 111.6875 131.5625 C102.00713753 120.21863839 97.20173831 106.51245877 93 92.4375 C84.00642313 62.58177351 66.86807346 37.83826672 39.18411255 22.71531677 C35.80301442 20.90864501 32.40423528 19.13759079 29 17.375 C27.62718447 16.65705195 26.25478723 15.93830349 24.8828125 15.21875 C22.86442243 14.16059473 20.84565652 13.10322748 18.82495117 12.04949951 C12.51731584 8.75967714 6.25394364 5.39067621 0 2 C0 1.34 0 0.68 0 0 Z " fill="#000000" transform="translate(72,106)"/>
<path d="M0 0 C0.01458252 0.57443848 0.02916504 1.14887695 0.04418945 1.74072266 C0.11913725 4.36945696 0.21563994 6.99698552 0.3125 9.625 C0.33505859 10.52863281 0.35761719 11.43226563 0.38085938 12.36328125 C0.70495728 20.43626538 3.08713131 26.30033571 9 32 C15.73682186 37.4612839 23.17700616 41.33045134 31 45 C30.0226189 61.28968494 21.79279667 74.72466015 10.4296875 85.90625 C4.51865672 91 4.51865672 91 1 91 C1.2165625 90.18917969 1.433125 89.37835938 1.65625 88.54296875 C4.80399829 76.02484013 5.55724739 65.2030453 -0.875 53.625 C-4.59011435 49.0357411 -8.16331829 46.23468267 -14 45 C-20.56937516 44.89010339 -25.33728719 46.80828914 -31 50 C-31.73682044 35.89125307 -28.02030609 23.49638085 -18.6875 12.75 C-6.65919811 0 -6.65919811 0 0 0 Z " fill="#000000" transform="translate(258,191)"/>
</svg>
