<?xml version="1.0" encoding="UTF-8"?>
<svg version="1.1" xmlns="http://www.w3.org/2000/svg" width="591" height="591">
<path d="M0 0 C1.47919922 0.32145996 1.47919922 0.32145996 2.98828125 0.64941406 C23.26098097 5.21276423 42.72272802 12.10981682 61 22 C61.72670898 22.38414063 62.45341797 22.76828125 63.20214844 23.1640625 C80.59456574 32.36090577 96.01547453 43.49151121 110.5546875 56.77734375 C112.90151662 58.91048395 115.29034586 60.98632073 117.6875 63.0625 C121.846744 66.76444492 125.42692398 70.73979398 129 75 C129.82242187 75.93457031 130.64484375 76.86914062 131.4921875 77.83203125 C173.24528796 125.52301638 191.85666265 188.74009751 187.77294922 251.48876953 C184.03252879 296.02418102 168.42611559 341.09904697 140 376 C139.26265625 376.92683594 138.5253125 377.85367187 137.765625 378.80859375 C125.55972742 393.98178712 112.38944597 408.01066835 96.76513672 419.67041016 C95.04262464 420.96789297 93.35036371 422.29754294 91.66015625 423.63671875 C74.99855924 436.61449992 55.78306593 446.70027833 36 454 C34.77216797 454.45729492 34.77216797 454.45729492 33.51953125 454.92382812 C-25.2590947 476.48199185 -91.65116679 473.85795632 -148.54003906 447.76733398 C-165.17199367 439.90548443 -180.59464282 430.44448931 -195 419 C-195.88429688 418.30777344 -196.76859375 417.61554688 -197.6796875 416.90234375 C-208.20642347 408.49621112 -218.44752745 399.43758831 -227 389 C-227.73089844 388.15695312 -228.46179688 387.31390625 -229.21484375 386.4453125 C-257.51305953 353.45307989 -276.3226939 312.99281545 -283 270 C-283.17660156 268.87553467 -283.35320312 267.75106934 -283.53515625 266.5925293 C-285.13756259 255.28769562 -285.40033571 244.09444419 -285.375 232.6875 C-285.37412384 231.72056213 -285.37324768 230.75362427 -285.37234497 229.75738525 C-285.32497892 213.86042053 -284.45862184 198.57248826 -281 183 C-280.76394043 181.93265625 -280.52788086 180.8653125 -280.28466797 179.765625 C-273.38096432 149.71159081 -260.9878436 121.08417141 -243 96 C-241.92685547 94.48599609 -241.92685547 94.48599609 -240.83203125 92.94140625 C-228.32563217 75.78782062 -213.76032359 60.04625469 -197 47 C-196.02933594 46.21238281 -195.05867188 45.42476562 -194.05859375 44.61328125 C-185.20558163 37.55524781 -175.80667233 31.64323099 -166 26 C-165.26040039 25.57187012 -164.52080078 25.14374023 -163.75878906 24.70263672 C-143.31246262 13.01323891 -121.02224616 4.85973934 -98 0 C-96.55657227 -0.31324219 -96.55657227 -0.31324219 -95.08398438 -0.6328125 C-64.6473038 -6.94797406 -30.34124833 -6.63588554 0 0 Z M-94 25 C-94.83644043 25.18191895 -95.67288086 25.36383789 -96.53466797 25.55126953 C-115.23626348 29.70264533 -133.22070965 36.79725235 -150 46 C-150.70108887 46.38414063 -151.40217773 46.76828125 -152.12451172 47.1640625 C-162.07909321 52.68325814 -171.21198918 58.77712893 -180 66 C-180.51981445 66.41830078 -181.03962891 66.83660156 -181.57519531 67.26757812 C-195.7027819 78.64258638 -208.29684706 91.34656692 -219 106 C-219.75539062 107.02222656 -220.51078125 108.04445313 -221.2890625 109.09765625 C-244.20919249 141.12914534 -259.97509318 181.00389766 -260.203125 220.79296875 C-260.21013931 221.61297867 -260.21715363 222.43298859 -260.22438049 223.27784729 C-260.24181279 225.91445451 -260.24823408 228.55083724 -260.25 231.1875 C-260.25067474 232.08738647 -260.25134949 232.98727295 -260.25204468 233.91442871 C-260.23623983 247.16155045 -259.85555217 260.01489888 -257 273 C-256.82839355 273.81162598 -256.65678711 274.62325195 -256.47998047 275.45947266 C-248.51289878 312.3330348 -231.68365448 345.98696326 -206.0703125 373.7421875 C-204.21571134 375.76475254 -202.44964839 377.83483984 -200.6875 379.9375 C-167.05730226 418.25135542 -113.12726128 440.69262592 -63 444 C-7.61484575 446.17948887 45.67366859 430.63873062 88 394 C88.804375 393.30648438 89.60875 392.61296875 90.4375 391.8984375 C102.15327806 381.57203055 112.83996994 370.66524241 122 358 C122.71687988 357.0090332 122.71687988 357.0090332 123.44824219 355.99804688 C156.44379865 309.75641665 169.81265871 252.93942766 160.50488281 196.80371094 C151.91575385 149.10663306 127.40410393 101.62605756 89 71 C87.48212891 69.76056641 87.48212891 69.76056641 85.93359375 68.49609375 C47.47636395 37.40172835 1.06560932 20.51360076 -48.4375 20.625 C-49.31062836 20.62521149 -50.18375671 20.62542297 -51.08334351 20.62564087 C-65.70056377 20.66082451 -79.70819408 21.75440795 -94 25 Z " fill="#000000" transform="translate(344,63)"/>
<path d="M0 0 C3.59885613 2.42531609 5.44387076 5.15192478 6.796875 9.2109375 C6.86490467 10.93889102 6.88183145 12.66929115 6.859375 14.3984375 C6.85035156 15.29949219 6.84132813 16.20054688 6.83203125 17.12890625 C6.81462891 18.15951172 6.81462891 18.15951172 6.796875 19.2109375 C7.84617187 18.994375 8.89546875 18.7778125 9.9765625 18.5546875 C34.26966305 14.01538045 61.80467359 14.04844323 85.796875 20.2109375 C85.75046875 19.49808594 85.7040625 18.78523438 85.65625 18.05078125 C85.4069132 11.43445107 85.69639337 7.49840066 89.796875 2.2109375 C95.1014979 -1.90285169 99.08381924 -3.33931297 105.796875 -2.7890625 C111.06926847 -0.97913638 114.74208257 1.44546132 117.796875 6.2109375 C119.42659242 11.10008975 119.78796461 16.47808151 118.0078125 21.38671875 C116.26219621 24.60478237 115.33381171 26.0319586 111.796875 27.2109375 C111.796875 27.8709375 111.796875 28.5309375 111.796875 29.2109375 C112.34214844 29.37601807 112.88742187 29.54109863 113.44921875 29.71118164 C119.20360096 31.53032875 124.46917083 33.82395676 129.796875 36.6484375 C130.61140137 37.07874268 131.42592773 37.50904785 132.26513672 37.95239258 C144.24239405 44.44383897 155.22076904 52.65363239 165.796875 61.2109375 C165.796875 60.3653125 165.796875 59.5196875 165.796875 58.6484375 C167.28710814 53.52576109 170.27698756 50.92732306 174.796875 48.2109375 C179.89635059 46.55139252 184.27414501 46.62376578 189.171875 48.8359375 C193.55867084 51.41848667 195.95831063 54.41401385 198.109375 59.0234375 C199.28517446 64.47487137 198.6777691 68.51440071 196.109375 73.4609375 C192.87715223 77.30466187 189.55703593 79.62421719 184.796875 81.2109375 C185.52390625 82.12230469 186.2509375 83.03367187 187 83.97265625 C193.04721348 91.70720463 198.43880261 99.61030682 203.296875 108.1484375 C203.78833008 109.01106201 204.27978516 109.87368652 204.78613281 110.76245117 C207.77667056 116.11955333 210.41133097 121.55894116 212.796875 127.2109375 C213.3849292 126.82663574 213.9729834 126.44233398 214.57885742 126.04638672 C220.2683789 122.4161893 225.08044407 120.87197056 231.796875 122.2109375 C236.11411246 123.93783248 238.98441915 126.14458919 241.796875 129.8359375 C243.57948356 135.85224138 244.11475555 142.38767641 241.234375 148.1484375 C238.49081276 151.59547724 236.00420929 153.90847942 231.796875 155.2109375 C228.43204065 155.51057968 225.16347566 155.4547959 221.796875 155.2109375 C222.08691406 156.39623047 222.08691406 156.39623047 222.3828125 157.60546875 C228.52387114 184.2065891 228.32838037 211.4927229 222.796875 238.2109375 C223.6321875 238.12392578 223.6321875 238.12392578 224.484375 238.03515625 C230.86586606 237.65787215 234.97562921 238.95556563 239.796875 243.2109375 C243.65271865 248.27173229 243.57890316 254.09689917 242.796875 260.2109375 C241.47905935 264.47815009 239.20154647 266.89529376 235.671875 269.6484375 C231.24670626 271.83733253 226.60631206 272.14936424 221.796875 271.2109375 C219.05976344 270.00321967 216.42261591 268.64308567 213.796875 267.2109375 C213.51602051 267.82912354 213.23516602 268.44730957 212.94580078 269.08422852 C207.1063592 281.84690257 201.04269369 293.84127624 192.796875 305.2109375 C191.86626553 306.51236205 190.93657292 307.81444273 190.0078125 309.1171875 C189.27820313 310.138125 188.54859375 311.1590625 187.796875 312.2109375 C188.539375 312.7678125 189.281875 313.3246875 190.046875 313.8984375 C194.60685297 317.73296443 197.52453612 321.31191178 198.796875 327.2109375 C198.89932571 332.89126026 197.50525136 336.80097642 193.796875 341.2109375 C189.16302592 345.19820299 184.81031291 346.45273658 178.796875 346.2109375 C172.59223168 344.52832236 169.5162006 341.1836622 165.796875 336.2109375 C161.63177039 338.91547051 157.7432279 341.79435429 153.859375 344.8984375 C141.82676926 354.27607558 128.66954997 360.97927078 114.796875 367.2109375 C114.64289686 369.47905194 114.64289686 369.47905194 116.359375 372.2109375 C118.40378918 376.96148446 118.3084748 381.29248332 116.796875 386.2109375 C114.23736008 390.42537166 111.29099162 393.38087271 106.984375 395.7734375 C101.41905827 396.5373045 96.41821605 396.75674493 91.4453125 393.82421875 C86.93626307 390.17598785 84.68570495 387.09943593 83.796875 381.2109375 C83.796875 379.8909375 83.796875 378.5709375 83.796875 377.2109375 C82.62511719 377.41589844 81.45335937 377.62085938 80.24609375 377.83203125 C58.94713205 381.51100479 38.46461147 382.17865105 16.98242188 379.48095703 C13.2580017 379.02081307 9.52719733 378.62009341 5.796875 378.2109375 C5.70519043 378.8301709 5.61350586 379.4494043 5.51904297 380.08740234 C4.55135524 386.18070466 2.52701724 390.19713892 -2.203125 394.2109375 C-7.24331596 396.96013257 -12.77119295 396.78201939 -18.203125 395.2109375 C-22.42021845 392.66106704 -25.37506419 389.70144696 -27.765625 385.3984375 C-28.55506672 379.64679071 -28.25510203 374.31489157 -25.640625 369.0859375 C-25.16625 368.4671875 -24.691875 367.8484375 -24.203125 367.2109375 C-24.87601562 367.118125 -25.54890625 367.0253125 -26.2421875 366.9296875 C-29.96078973 366.02701889 -33.19080573 364.44081634 -36.578125 362.7109375 C-37.6287915 362.17690308 -37.6287915 362.17690308 -38.70068359 361.63208008 C-49.82398672 355.90056896 -60.14684694 349.64376 -69.81298828 341.66479492 C-72.63549214 339.05175102 -72.63549214 339.05175102 -76.203125 338.2109375 C-76.739375 338.9740625 -77.275625 339.7371875 -77.828125 340.5234375 C-80.91466204 344.01609783 -83.66705719 345.29731253 -88.203125 346.2109375 C-93.92907297 346.54544305 -98.309416 345.28465692 -102.76171875 341.6484375 C-106.41823811 338.00182741 -107.40345378 334.35350939 -107.703125 329.3359375 C-107.54156831 323.98033336 -105.71492394 320.21253997 -102.203125 316.2109375 C-100.89733496 315.17522994 -99.5693339 314.16553218 -98.203125 313.2109375 C-98.65300781 312.69789063 -99.10289062 312.18484375 -99.56640625 311.65625 C-108.09552873 301.50334669 -124.203125 281.9354665 -124.203125 268.2109375 C-125.1725 268.7059375 -126.141875 269.2009375 -127.140625 269.7109375 C-132.66139422 272.0578232 -137.81621433 272.03717581 -143.453125 270.0859375 C-147.6328239 267.2361428 -150.57176824 264.10500779 -152.203125 259.2109375 C-152.76696629 253.51830912 -152.51032406 249.06149612 -149.203125 244.2109375 C-144.99331079 239.70042228 -142.08311742 238.62770271 -135.9609375 238.25390625 C-135.38085938 238.23972656 -134.80078125 238.22554687 -134.203125 238.2109375 C-134.63625 236.695 -134.63625 236.695 -135.078125 235.1484375 C-138.02492536 223.20607267 -138.60330751 211.07568771 -138.578125 198.8359375 C-138.5795752 198.10868469 -138.58102539 197.38143188 -138.58251953 196.63214111 C-138.57951392 182.87356436 -137.02430482 169.69782775 -134.203125 156.2109375 C-134.80713135 156.09919189 -135.4111377 155.98744629 -136.03344727 155.87231445 C-142.26372764 154.62399898 -145.9562979 153.03687738 -150.203125 148.2109375 C-152.85191914 143.94983389 -152.74722297 139.09054628 -152.203125 134.2109375 C-150.37777909 128.93771597 -147.59593297 126.41402664 -143.203125 123.2109375 C-138.31514776 121.58161175 -132.84733193 121.1411082 -127.9921875 123.10546875 C-126.078125 124.2109375 -126.078125 124.2109375 -123.203125 126.2109375 C-123.04384521 125.66638916 -122.88456543 125.12184082 -122.72045898 124.56079102 C-120.88240654 118.63888109 -118.40767247 113.48146551 -115.265625 108.1484375 C-114.79342529 107.33640869 -114.32122559 106.52437988 -113.8347168 105.68774414 C-109.9537486 99.15930361 -105.60684225 93.07659464 -100.91235352 87.11108398 C-98.15525318 84.0313867 -98.15525318 84.0313867 -97.203125 80.2109375 C-98.67109303 79.06673545 -98.67109303 79.06673545 -100.515625 77.9609375 C-104.10951023 75.45103789 -105.82922536 73.49427168 -107.203125 69.2109375 C-108.10858968 62.3746792 -107.39002499 57.72001643 -103.203125 52.2109375 C-98.63103649 48.17048719 -94.19260846 46.96729749 -88.203125 47.2109375 C-83.60762586 48.0674463 -80.31831682 49.70197143 -77.203125 53.2109375 C-75.203125 56.2109375 -75.203125 56.2109375 -75.203125 59.2109375 C-74.22214844 58.44910156 -73.24117188 57.68726563 -72.23046875 56.90234375 C-60.62660159 47.98477184 -48.74603926 40.40409112 -35.703125 33.7734375 C-35.05666016 33.44311523 -34.41019531 33.11279297 -33.74414062 32.77246094 C-29.63750826 30.74042264 -25.64263726 29.34942067 -21.203125 28.2109375 C-21.5640625 27.67726563 -21.925 27.14359375 -22.296875 26.59375 C-25.95249039 20.72445639 -27.27125616 16.10097035 -26.203125 9.2109375 C-24.21468945 3.55959436 -21.06271824 0.71598658 -15.828125 -2.0390625 C-9.81680186 -3.7565834 -5.35817844 -2.92830682 0 0 Z M7.796875 31.2109375 C6.5588916 31.50895264 6.5588916 31.50895264 5.29589844 31.81298828 C-39.20285383 42.83447887 -76.95986088 70.01384904 -101.515625 108.7734375 C-117.87904565 136.51562335 -126.42451111 165.81115837 -126.453125 198.0859375 C-126.45413208 198.87061401 -126.45513916 199.65529053 -126.45617676 200.46374512 C-126.44615159 211.99445697 -125.95772299 222.96695344 -123.203125 234.2109375 C-122.78546875 236.05751953 -122.78546875 236.05751953 -122.359375 237.94140625 C-115.4998541 266.00039478 -102.24144895 291.97797442 -82.30859375 312.98828125 C-80.62780644 314.76261887 -79.08565949 316.54271255 -77.578125 318.4609375 C-74.42524145 322.11164477 -70.90521759 325.13022087 -67.203125 328.2109375 C-66.47351563 328.82839844 -65.74390625 329.44585937 -64.9921875 330.08203125 C-53.05744483 339.93513276 -40.25049056 347.77566146 -26.203125 354.2109375 C-25.22617676 354.66895752 -25.22617676 354.66895752 -24.22949219 355.13623047 C16.26356729 373.91867237 63.08013122 373.54506449 104.671875 358.5859375 C120.13860835 352.70759681 134.85532477 344.51200039 147.796875 334.2109375 C148.3424707 333.77813477 148.88806641 333.34533203 149.45019531 332.89941406 C185.64489693 303.87156021 209.23724621 262.70072158 214.38671875 216.35546875 C218.51568978 170.94558185 205.62043344 125.7926895 176.55859375 90.46484375 C169.84540244 82.48681369 162.94584845 74.75921974 154.796875 68.2109375 C153.889375 67.46585938 152.981875 66.72078125 152.046875 65.953125 C112.4061743 34.33966619 57.84379816 18.91464048 7.796875 31.2109375 Z " fill="#000000" transform="translate(251.203125,96.7890625)"/>
<path d="M0 0 C7.08872729 6.22626547 11.45515979 15.57551213 12.7265625 24.8515625 C13.06519394 32.85455209 10.82766463 39.41034413 6.34375 45.99609375 C4.41759785 47.98243815 2.72460257 49.64496254 0.34375 51.05859375 C-0.97625 51.05859375 -2.29625 51.05859375 -3.65625 51.05859375 C-3.19937307 46.85532597 -2.4016307 43.18835926 -1.03125 39.18359375 C0.47519139 34.21233716 1.09212139 30.04235343 -0.65625 25.05859375 C-5.07808242 17.92871603 -12.05711478 13.30705986 -19.46875 9.68359375 C-26.80437771 8.24523538 -34.23633597 7.83094131 -40.84375 11.7265625 C-47.77723008 16.82207265 -52.21241143 22.42791062 -53.65625 31.05859375 C-53.94582864 35.11819299 -53.97905574 39.17731407 -54.03125 43.24609375 C-54.06863281 44.33212891 -54.10601562 45.41816406 -54.14453125 46.53710938 C-54.27537002 58.63969529 -48.96963736 67.47163971 -40.65625 76.05859375 C-38.05732554 78.02881757 -35.54306973 79.51208318 -32.65625 81.05859375 C-32.32625 80.72859375 -31.99625 80.39859375 -31.65625 80.05859375 C-31.945 79.46175781 -32.23375 78.86492187 -32.53125 78.25 C-37.30101542 67.10398568 -37.01704949 54.61134199 -33.65625 43.05859375 C-32.33625 42.72859375 -31.01625 42.39859375 -29.65625 42.05859375 C-29.41841797 43.58226562 -29.41841797 43.58226562 -29.17578125 45.13671875 C-26.71909128 61.18464885 -26.71909128 61.18464885 -17.65625 74.05859375 C-14.51143209 74.86175029 -14.51143209 74.86175029 -11.65625 75.05859375 C-10.67718907 70.97917319 -10.2462114 68.84586787 -12.21875 65.05859375 C-14.57151975 62.16287713 -16.97350049 59.33369469 -19.484375 56.57421875 C-20.65625 55.05859375 -20.65625 55.05859375 -20.65625 53.05859375 C-13.49788496 52.54728196 -8.57414288 53.75342703 -3.01477051 58.44335938 C1.86284727 63.55043339 2.35940993 68.12182015 2.75 74.99609375 C2.93782765 77.12910794 3.12800392 79.26191638 3.3203125 81.39453125 C3.59255385 84.73120768 3.84421401 88.06599415 4.05371094 91.40722656 C4.23792952 103.26281429 4.23792952 103.26281429 8.77890015 113.70736694 C12.6054178 116.53888149 16.83602387 117.63363139 21.34375 119.05859375 C32.85007502 126.83585389 41.33200498 137.19950089 48.34375 149.05859375 C50.15959234 147.4371991 51.9714662 145.81172639 53.78125 144.18359375 C54.29751953 143.72339844 54.81378906 143.26320313 55.34570312 142.7890625 C59.0620919 139.66251851 59.0620919 139.66251851 60.51171875 135.24609375 C60.64877055 119.89629227 55.81269457 110.02102392 45.34375 99.05859375 C44.02223619 97.58747461 42.70884266 96.10899248 41.40625 94.62109375 C40.86097656 94.00363281 40.31570313 93.38617188 39.75390625 92.75 C36.36458113 88.68468759 35.88341503 86.30641237 36.34375 81.05859375 C37.84375 78.62109375 37.84375 78.62109375 39.34375 77.05859375 C42.96965381 78.61495617 45.51233915 80.83788605 48.40625 83.49609375 C49.26347656 84.27855469 50.12070312 85.06101562 51.00390625 85.8671875 C52.37083744 87.14740186 53.71889077 88.44951147 55.015625 89.80078125 C56.68423431 91.38105242 58.10958096 91.67339219 60.34375 92.05859375 C60.529375 91.39859375 60.715 90.73859375 60.90625 90.05859375 C63.7143562 84.19819821 68.36277707 78.7927528 74.34375 76.05859375 C75.00375 76.05859375 75.66375 76.05859375 76.34375 76.05859375 C75.42095038 72.9546314 74.81492094 71.38816499 72.12109375 69.50390625 C69.29984273 68.03574468 66.64432624 67.12979242 63.59375 66.24609375 C52.09455454 62.51167366 42.8054562 55.12867518 37.03125 44.43359375 C30.53984635 30.4072093 29.33366081 15.68205921 34.34375 1.05859375 C36.99555338 -3.89143923 40.2807709 -7.4099167 45.34375 -9.94140625 C48.0161121 -10.07556097 50.66625488 -9.98459166 53.34375 -9.94140625 C53.34375 -8.62140625 53.34375 -7.30140625 53.34375 -5.94140625 C52.415625 -5.34328125 51.4875 -4.74515625 50.53125 -4.12890625 C46.80904324 -1.57445063 45.21147659 0.70327374 44.34375 5.05859375 C43.98563412 13.80258976 46.72625496 23.21099495 52.21875 30.05859375 C56.29993679 34.36651314 61.32500653 36.87034304 67.26171875 37.1484375 C70.55038659 37.20235009 73.20652297 37.10433609 76.34375 36.05859375 C78.18774021 34.11192195 79.83844912 32.05058656 81.52734375 29.96875 C84.43572547 26.91025825 86.68445624 26.15277857 90.84375 25.55859375 C94.34375 26.05859375 94.34375 26.05859375 96.78125 28.93359375 C98.34375 32.05859375 98.34375 32.05859375 98.34375 34.05859375 C96.13803396 35.64707238 93.83157685 37.01676858 91.5078125 38.42578125 C89.16405675 40.19417458 88.32912663 41.3226012 87.34375 44.05859375 C86.70484593 50.44763441 87.69048985 54.75513939 91.34375 60.05859375 C97.79497098 67.85898834 106.33836201 73.76233339 114.72265625 79.3125 C123.99877347 85.46536795 132.24985946 91.33763084 134.9453125 102.64453125 C136.20135551 110.25467417 135.14014286 116.01935961 130.65625 122.49609375 C130.223125 123.01171875 129.79 123.52734375 129.34375 124.05859375 C129.83875 124.98671875 130.33375 125.91484375 130.84375 126.87109375 C133.23490121 132.5229057 133.33638171 138.59279489 131.65234375 144.47265625 C130.02984647 148.20643661 128.94509449 149.739513 125.28125 151.68359375 C122.34375 152.05859375 122.34375 152.05859375 119.34375 150.05859375 C119.67375 149.72859375 120.00375 149.39859375 120.34375 149.05859375 C120.49568163 146.93739451 120.56558514 144.8100406 120.59375 142.68359375 C120.61953125 141.52085937 120.6453125 140.358125 120.671875 139.16015625 C120.59021865 136.11186923 120.59021865 136.11186923 119.078125 134.14453125 C117.11975287 132.70480367 117.11975287 132.70480367 113.34375 133.05859375 C112.00874545 138.39861196 112.831205 141.8981461 114.34375 147.05859375 C110.8480751 148.22381872 109.25213382 148.03064305 105.65625 146.93359375 C102.34375 145.05859375 102.34375 145.05859375 100.84375 142.80859375 C99.95023953 137.89428615 100.58193594 134.20131483 103.34375 130.05859375 C104.65669011 125.02196483 104.65669011 125.02196483 103.51318359 120.12988281 C102.28080104 118.21779194 100.95755453 116.45537665 99.53125 114.68359375 C99.06654297 114.06871094 98.60183594 113.45382812 98.12304688 112.8203125 C94.41245342 107.59140535 94.41245342 107.59140535 88.71875 105.43359375 C87.605 105.30984375 86.49125 105.18609375 85.34375 105.05859375 C82.66151785 119.89915441 82.66151785 119.89915441 86 133.9921875 C88.20636597 136.35195121 88.20636597 136.35195121 90.6953125 138.54296875 C104.03606677 151.21471765 111.37870913 169.98601027 112.34375 188.05859375 C112.39660156 188.83460938 112.44945312 189.610625 112.50390625 190.41015625 C113.09646577 206.22891898 107.36709328 221.07157179 96.78125 232.68359375 C90.02723632 239.83951536 84.17265958 243.5222724 74.34375 244.05859375 C61.92064683 243.84232554 50.91430027 241.42799892 39.34375 237.05859375 C30.26214081 234.45567223 17.94922561 234.63509346 9.3984375 238.77734375 C5.50317825 241.20632671 1.43630972 243.87347431 -0.65625 248.05859375 C-1.27953776 252.13765764 -1.27953776 252.13765764 -0.65625 256.05859375 C2.67521739 259.77105342 6.93534666 261.35921231 11.84375 261.68359375 C16.89912187 261.36981205 20.52853345 259.2965078 24.34375 256.05859375 C25.29214665 254.98155819 26.21176406 253.87815497 27.09375 252.74609375 C27.83625 251.85921875 28.57875 250.97234375 29.34375 250.05859375 C30.66375 250.05859375 31.98375 250.05859375 33.34375 250.05859375 C34.86346795 254.34143525 34.05689278 257.59365598 32.546875 261.71875 C30.32734699 266.0352996 27.02888761 268.97757706 23.34375 272.05859375 C22.77011719 272.57808594 22.19648438 273.09757812 21.60546875 273.6328125 C15.72292129 278.18493902 8.74013352 277.93697833 1.60253906 278.02783203 C-0.73787196 278.05970533 -3.07472596 278.13423013 -5.4140625 278.2109375 C-6.99473362 278.2461959 -8.57546629 278.27880801 -10.15625 278.30859375 C-10.88505371 278.33026611 -11.61385742 278.35193848 -12.36474609 278.37426758 C-20.12876447 278.41954141 -26.02459129 276.24204479 -31.71875 270.87109375 C-32.99105469 269.67806641 -32.99105469 269.67806641 -34.2890625 268.4609375 C-36.35911871 266.36013788 -38.23281447 264.21746917 -40.09375 261.93359375 C-46.66587967 254.29123196 -55.6135443 250.53214405 -64.65625 246.55859375 C-94.45670568 233.44343865 -114.60944178 210.12572415 -126.65625 180.05859375 C-133.47857378 161.28993672 -134.88694674 141.89411083 -134.90625 122.05859375 C-134.90725708 121.33548004 -134.90826416 120.61236633 -134.90930176 119.86734009 C-134.87238303 80.51795339 -134.87238303 80.51795339 -123.65625 67.05859375 C-122.99625 67.05859375 -122.33625 67.05859375 -121.65625 67.05859375 C-121.81609375 68.08855469 -121.9759375 69.11851562 -122.140625 70.1796875 C-124.05533673 85.65694067 -123.35442565 102.42833202 -121.40625 117.87109375 C-121.29700195 118.77545166 -121.18775391 119.67980957 -121.07519531 120.61157227 C-118.70630886 137.11139491 -107.86018133 149.5956268 -94.87280273 159.36914062 C-73.23414267 175.14700673 -43.01552638 188.11507967 -15.65625 185.05859375 C-10.1007609 183.59024922 -5.73717482 182.12145496 -2.65625 177.05859375 C-1.28424797 172.92615649 -1.19911072 169.97287232 -3.15625 166.05859375 C-6.52814983 163.36107388 -8.41952188 163.62031153 -12.65625 164.05859375 C-14.6627231 164.35044438 -16.66619193 164.67028974 -18.65625 165.05859375 C-18.28791144 158.67405874 -18.28791144 158.67405874 -15.21875 155.68359375 C-10.95740844 152.98127959 -7.66101105 152.46824341 -2.65625 153.05859375 C2.64555098 154.43350109 5.71313632 157.02099252 8.71875 161.55859375 C11.77710579 167.19328186 12.77994061 172.72454764 13.34375 179.05859375 C13.42625 179.76886719 13.50875 180.47914063 13.59375 181.2109375 C14.09517717 188.87337137 11.01020847 196.49080824 6.09375 202.24609375 C4.7325 203.63828125 4.7325 203.63828125 3.34375 205.05859375 C12.32604281 203.21117182 17.89540086 198.19336181 22.94921875 190.66796875 C27.25447993 182.84022114 29.8679981 173.14346209 27.3515625 164.3359375 C21.82530802 151.84831593 10.80363309 142.17972001 -1.65625 137.05859375 C-9.24417428 134.52928566 -16.94098957 135.25920969 -24.09375 138.68359375 C-29.54799129 141.73537162 -34.60179486 144.89522832 -36.65625 151.05859375 C-36.725241 153.12004482 -36.74092727 155.18360776 -36.71875 157.24609375 C-36.70972656 158.33277344 -36.70070313 159.41945313 -36.69140625 160.5390625 C-36.67980469 161.37050781 -36.66820312 162.20195312 -36.65625 163.05859375 C-50.22528477 165.10674994 -61.66382469 164.51670376 -73.28125 156.43359375 C-88.89467998 144.23769565 -106.73103876 124.53507241 -109.65625 104.05859375 C-110.03436328 97.26095731 -110.08987019 91.49030425 -107.65625 85.05859375 C-106.66625 85.05859375 -105.67625 85.05859375 -104.65625 85.05859375 C-104.7490625 86.97671875 -104.7490625 86.97671875 -104.84375 88.93359375 C-104.76761991 105.1493027 -93.54008182 118.22514283 -82.58984375 129.11328125 C-77.1658164 133.66538771 -69.75015924 136.05859375 -62.65625 136.05859375 C-63.15125 135.19234375 -63.64625 134.32609375 -64.15625 133.43359375 C-65.7040261 129.95109752 -65.92427896 127.81099917 -65.65625 124.05859375 C-62.42617803 124.43129436 -61.42480694 125.27388962 -58.96875 127.55859375 C-55.74032311 130.40720571 -52.81171993 130.81786102 -48.609375 131.2109375 C-46.41715011 131.25281267 -46.41715011 131.25281267 -44.65625 129.05859375 C-46.86931007 126.62142634 -48.98839906 125.29729321 -51.90625 123.80859375 C-67.77045093 114.48081578 -82.12318852 96.77660489 -86.90625 78.99609375 C-88.32181589 71.46421484 -88.40267005 63.70009954 -88.65625 56.05859375 C-88.69024902 55.2063623 -88.72424805 54.35413086 -88.75927734 53.47607422 C-89.46792899 34.25614652 -85.18188824 20.5847639 -71.8203125 6.19140625 C-52.48875766 -12.86099256 -22.53923904 -16.47353206 0 0 Z M119.34375 102.05859375 C117.85875 104.03859375 117.85875 104.03859375 116.34375 106.05859375 C117.33375 107.54359375 117.33375 107.54359375 118.34375 109.05859375 C119.99375 108.72859375 121.64375 108.39859375 123.34375 108.05859375 C123.01375 106.40859375 122.68375 104.75859375 122.34375 103.05859375 C121.35375 102.72859375 120.36375 102.39859375 119.34375 102.05859375 Z M49.34375 151.05859375 C49.776875 152.29609375 50.21 153.53359375 50.65625 154.80859375 C51.22532493 156.55646674 51.7873382 158.3066485 52.34375 160.05859375 C52.62992188 160.92871094 52.91609375 161.79882812 53.2109375 162.6953125 C58.18165254 179.66675384 54.82991566 194.74837153 49.34375 211.05859375 C56.98273693 209.87924138 62.47102738 205.51336449 67.21875 199.55859375 C74.4589326 189.56982331 75.6998876 179.14220546 74.34375 167.05859375 C72.31369606 160.55103766 67.03430046 156.47067923 61.34375 153.05859375 C57.19655677 151.23382873 53.85644051 150.84370373 49.34375 151.05859375 Z M-119.65625 155.05859375 C-117.39428173 166.8710947 -107.90970234 174.12200962 -98.57958984 180.75830078 C-90.00551388 186.55488984 -80.89857629 191.15828793 -70.65625 193.05859375 C-69.87765625 193.21070313 -69.0990625 193.3628125 -68.296875 193.51953125 C-62.73463577 194.38263734 -58.03923076 193.59840621 -52.65625 192.05859375 C-52.98625 191.39859375 -53.31625 190.73859375 -53.65625 190.05859375 C-55.72146533 189.54228992 -57.81096811 189.12222915 -59.90625 188.74609375 C-82.11166542 184.21071062 -100.27277146 172.25164869 -116.57421875 156.9296875 C-118.31367026 154.9471896 -118.31367026 154.9471896 -119.65625 155.05859375 Z M-63.65625 207.05859375 C-60.08046319 211.75606273 -56.54831672 214.80276137 -51.53125 217.87109375 C-50.91121094 218.26490234 -50.29117188 218.65871094 -49.65234375 219.06445312 C-42.22522251 223.72037966 -35.18864306 223.84961769 -26.65625 223.05859375 C-21.32430581 221.14639353 -17.84369003 217.7069438 -14.65625 213.05859375 C-18.34232231 211.85741098 -21.68302018 212.09808491 -25.53125 212.24609375 C-35.34153991 212.44895334 -44.69933135 210.44935675 -54.27392578 208.51611328 C-57.39096544 207.91749345 -60.50931498 207.46868816 -63.65625 207.05859375 Z " fill="#000000" transform="translate(294.65625,161.94140625)"/>
</svg>
