<?xml version="1.0" encoding="UTF-8"?>
<svg version="1.1" xmlns="http://www.w3.org/2000/svg" width="591" height="591">
<path d="M0 0 C25.08833141 1.61860203 44.32757633 23.95358418 61.07470703 40.70410156 C63.48568191 43.11070786 65.91223322 45.50081549 68.33984375 47.890625 C80.73222224 60.19280782 91.86916792 73.23158882 101.0625 88.125 C101.54380371 88.89956543 102.02510742 89.67413086 102.52099609 90.47216797 C121.94150352 122.25633069 136.28733229 157.91502902 141 195 C141.11569336 195.886875 141.23138672 196.77375 141.35058594 197.6875 C143.21714915 212.93017641 143.17838612 228.23037682 143.1875 243.5625 C143.18858765 244.55218781 143.18967529 245.54187561 143.1907959 246.56155396 C143.18998985 253.04261694 143.12560104 259.52018195 143 266 C142.98867035 266.75496765 142.9773407 267.5099353 142.96566772 268.28778076 C142.77053619 278.47141614 140.80655055 287.38298588 137.4375 297 C137.00666654 298.27543606 136.57762385 299.55147846 136.15039062 300.828125 C135.11756027 303.89180155 134.06752384 306.94827773 133 310 C132.67 310 132.34 310 132 310 C131.97421875 308.75992187 131.9484375 307.51984375 131.921875 306.2421875 C131.28969751 284.27454843 127.98710851 262.65216872 124.0625 241.0625 C123.83409424 239.77875488 123.60568848 238.49500977 123.37036133 237.17236328 C120.36844163 221.27013481 115.59293174 203.90625422 104 192 C103.32259766 191.63165039 102.64519531 191.26330078 101.94726562 190.88378906 C98.9420581 187.97654467 98.98518671 184.45805346 98.53125 180.484375 C97.17432181 170.54123589 95.05687355 160.94828948 92.5 151.25 C92.17669708 150.01724335 92.17669708 150.01724335 91.84686279 148.75958252 C88.0988994 134.63921329 83.26121172 121.73025314 76 109 C75.49114258 108.09572266 74.98228516 107.19144531 74.45800781 106.25976562 C66.20529037 89.70067527 66.20529037 89.70067527 53 78 C53.47308594 78.71800781 53.94617188 79.43601562 54.43359375 80.17578125 C64.86318816 96.50124775 71.65179034 113.92728145 77.99511719 132.16943359 C79.11778481 135.33177771 80.3242159 138.4530784 81.55688477 141.57373047 C92.92039961 170.54243228 95.90964397 206.87349671 84 236 C79.90492467 244.43524246 74.53161389 252.25319728 68 259 C67.01 259.33 66.02 259.66 65 260 C65.01110306 259.34870621 65.02220612 258.69741241 65.03364563 258.02638245 C65.14545175 251.16283072 65.2201628 244.29954323 65.2746582 237.43530273 C65.29958972 234.88376331 65.3335475 232.33229371 65.37719727 229.78100586 C65.6889503 211.07215598 64.87394698 195.21239224 55.375 178.6875 C54.9934375 177.98689453 54.611875 177.28628906 54.21875 176.56445312 C52.68121482 173.77833334 51.3029576 171.33038324 49.14453125 168.9765625 C47.32909798 165.8413774 48.50109945 163.01923071 49.3125 159.6875 C53.07258659 141.48589566 51.02310226 123.16273404 48 105 C47.34 105 46.68 105 46 105 C46.05800781 106.09570312 46.11601562 107.19140625 46.17578125 108.3203125 C47.16401333 136.06268203 39.45609655 162.83258281 31.5559082 189.14801025 C31.05771972 190.80770865 30.56465572 192.46894324 30.07226562 194.13037109 C25.00985057 211.03675358 17.77060661 227.62644138 2.54296875 237.66015625 C-1.26325122 239.66558398 -4.75487725 240.3837725 -9 241 C-8.46890625 240.12859375 -7.9378125 239.2571875 -7.390625 238.359375 C2.06644923 222.54169175 5.35945007 207.60131864 5.3125 189.1875 C5.32861328 187.90423828 5.34472656 186.62097656 5.36132812 185.29882812 C5.36197266 184.05939453 5.36261719 182.81996094 5.36328125 181.54296875 C5.36626221 180.42946045 5.36924316 179.31595215 5.37231445 178.16870117 C4.6294293 171.84613958 1.56586937 168.02542962 -3.2421875 164.203125 C-5.62416632 162.57279283 -7.08899251 161.92722481 -10 162 C-15.72943137 163.73929166 -18.45772356 166.23192218 -22 171 C-23.42790381 172.79932387 -24.86641306 174.59025681 -26.3125 176.375 C-27.08207031 177.34566406 -27.85164063 178.31632813 -28.64453125 179.31640625 C-30.80375565 181.77641813 -32.88408208 183.39165542 -35.5 185.3125 C-39.47162066 189.05739429 -39.47705476 192.73950119 -39.70507812 197.91870117 C-39.73437964 199.84702718 -39.73444932 201.77608421 -39.70117188 203.7043457 C-39.63713597 209.79789544 -40.48854504 214.19728369 -43.13378906 219.71533203 C-44.10821195 222.2854136 -44.15287641 224.27410531 -44 227 C-42.25533437 227.80872937 -42.25533437 227.80872937 -40 228 C-24.101365 219.76304272 -11.7752046 203.53645539 -6 187 C-5.67 187 -5.34 187 -5 187 C-4.91159654 190.93735417 -4.8591436 194.87444724 -4.8125 198.8125 C-4.77479492 200.46282227 -4.77479492 200.46282227 -4.73632812 202.14648438 C-4.61284772 216.09977039 -8.78374146 231.03927251 -18.75 241.3125 C-22.88489484 245.08995796 -27.33060067 248.52106461 -31.77734375 251.921875 C-34.04045168 253.8112974 -34.04045168 253.8112974 -35.06640625 256.015625 C-35.18239173 258.17752786 -35.18239173 258.17752786 -33.4140625 260.13671875 C-27.98260992 264.32895642 -20.48775341 265.37555827 -13.75 264.9375 C-5.3447267 263.684791 1.74968174 259.25093277 6.890625 252.52734375 C10.19156214 247.91446664 10.19156214 247.91446664 13 243 C13.66 243 14.32 243 15 243 C23.39446789 277.47436815 12.07900113 311.43379532 -5.76416016 341.01025391 C-13.90795377 354.12205121 -23.0855462 368.02843075 -35 378 C-35.66 378 -36.32 378 -37 378 C-35.79502904 372.60934046 -34.58767957 367.29150709 -32.46484375 362.1796875 C-26.85571318 348.28819519 -27.24428097 334.79739198 -28 320 C-28.03625488 319.1553418 -28.07250977 318.31068359 -28.10986328 317.44042969 C-28.88256974 302.16693327 -35.37766694 289.37003406 -44 277 C-45.32 277.33 -46.64 277.66 -48 278 C-48.0515625 278.83660156 -48.103125 279.67320312 -48.15625 280.53515625 C-49.16562739 290.89274473 -52.69505911 298.19133071 -58 307 C-58.66 306.67 -59.32 306.34 -60 306 C-60.65907299 303.81307598 -61.22531715 301.59799838 -61.75 299.375 C-63.89026232 290.75014037 -66.61743374 281.58442543 -71.2421875 273.94921875 C-72.41803645 270.9247413 -71.97022665 269.06116407 -71 266 C-68.63671875 263.69921875 -68.63671875 263.69921875 -65.6875 261.6875 C-64.72199219 261.01074219 -63.75648438 260.33398438 -62.76171875 259.63671875 C-58.58465915 257.16120535 -58.58465915 257.16120535 -56 257 C-54.078125 257.99609375 -54.078125 257.99609375 -52.25 259.4375 C-51.63640625 259.91058594 -51.0228125 260.38367188 -50.390625 260.87109375 C-49.93171875 261.24363281 -49.4728125 261.61617188 -49 262 C-49.06960938 261.39671875 -49.13921875 260.7934375 -49.2109375 260.171875 C-49.38008065 257.67499992 -49.41400859 255.47111375 -49 253 C-46.375 250.9375 -46.375 250.9375 -43 249 C-38.45790022 244.15343231 -38.45790022 244.15343231 -37 238 C-37.76965088 238.46784912 -38.53930176 238.93569824 -39.33227539 239.41772461 C-41.00818802 240.43630358 -42.6841188 241.45485282 -44.36038208 242.47285461 C-47.55291798 244.411731 -50.74414187 246.35270401 -53.93286133 248.29785156 C-64.78373877 254.90950471 -64.78373877 254.90950471 -70.1640625 257.95703125 C-70.86394287 258.35736572 -71.56382324 258.7577002 -72.28491211 259.17016602 C-74.05142313 260.17276813 -75.82806326 261.15746585 -77.60546875 262.140625 C-80.12854304 263.76945254 -80.12854304 263.76945254 -80.84765625 266.19921875 C-80.89792969 267.12347656 -80.94820312 268.04773438 -81 269 C-81.03569092 269.62438965 -81.07138184 270.2487793 -81.1081543 270.89208984 C-81.74859236 285.1331934 -80.38921377 297.97363254 -72 310 C-70.93209229 310.73879395 -69.86418457 311.47758789 -68.76391602 312.23876953 C-66.46200659 314.55796683 -66.01191762 315.61591584 -65.90922546 318.92550659 C-66.43057051 322.91428624 -67.17360826 326.81203235 -67.984375 330.75 C-68.28036538 332.3185111 -68.57269695 333.88771616 -68.86175537 335.45751953 C-69.51655633 338.99265797 -70.18935602 342.52381385 -70.87182617 346.05371094 C-72.10466188 352.48471279 -73.23773051 358.93195449 -74.36132812 365.3828125 C-74.7768724 367.76644294 -75.19244082 370.15006918 -75.60803223 372.53369141 C-75.81829544 373.73971008 -76.02855865 374.94572876 -76.24519348 376.18829346 C-77.55094007 383.64672141 -78.88296263 391.10048245 -80.21170807 398.55484009 C-81.58821422 406.27811418 -82.95844701 414.00246062 -84.3235817 421.72775269 C-85.21160688 426.74521604 -86.10514399 431.76168614 -87.00023651 436.77789307 C-87.42492277 439.16338546 -87.84753746 441.54924765 -88.268013 443.93548584 C-88.85024212 447.23670914 -89.44024004 450.53645208 -90.03222656 453.8359375 C-90.20262451 454.81228149 -90.37302246 455.78862549 -90.54858398 456.79455566 C-90.71094543 457.69041382 -90.87330688 458.58627197 -91.04058838 459.50927734 C-91.17843876 460.28475922 -91.31628914 461.06024109 -91.4583168 461.85922241 C-92.02903045 464.11473078 -92.88664118 465.96366368 -94 468 C-96.13699586 461.26954304 -97.28753773 454.3927225 -98.52197266 447.44897461 C-98.76827476 446.07833132 -99.01488022 444.70774252 -99.26176453 443.33720398 C-99.92830126 439.63133498 -100.59022536 435.92465641 -101.25101519 432.21775889 C-101.80389103 429.11850836 -102.35896082 426.01965238 -102.91400087 422.92078882 C-104.22335021 415.61014013 -105.52887985 408.29881639 -106.83203125 400.98706055 C-108.17522041 393.45105141 -109.52488096 385.91622158 -110.87771761 378.38193887 C-112.04074204 371.90344617 -113.19973783 365.42424157 -114.35551679 358.94445235 C-115.04511626 355.07850115 -115.73623213 351.21283696 -116.43123245 347.34785271 C-117.084314 343.71498322 -117.73235035 340.08124903 -118.37655067 336.44679451 C-118.72613185 334.48169199 -119.08082785 332.51750151 -119.4356842 330.55334473 C-119.64314774 329.37723129 -119.85061127 328.20111786 -120.06436157 326.98936462 C-120.24612253 325.97157897 -120.42788349 324.95379332 -120.61515236 323.90516567 C-121.01778354 320.86575434 -121.21536227 318.06070041 -121 315 C-118.8125 312.625 -118.8125 312.625 -116 310 C-105.51167328 295.84228784 -105.23633548 279.849295 -107 263 C-108.05840088 262.60494263 -108.05840088 262.60494263 -109.13818359 262.2019043 C-112.17772899 260.92535746 -114.93429919 259.41786408 -117.7890625 257.76953125 C-118.89636719 257.13080078 -120.00367188 256.49207031 -121.14453125 255.83398438 C-122.00425537 255.33451294 -122.00425537 255.33451294 -122.88134766 254.82495117 C-124.59679732 253.82887588 -126.31595004 252.83918683 -128.03515625 251.84960938 C-134.38917897 248.17309102 -140.63199773 244.38042972 -146.77099609 240.35424805 C-149.03804499 238.86379963 -149.03804499 238.86379963 -152 238 C-148.25850643 245.34304651 -148.25850643 245.34304651 -142.125 250.5625 C-139 253 -139 253 -138.55859375 255.296875 C-138.5621284 257.57318668 -138.69065835 259.7462251 -139 262 C-137.9171875 261.319375 -137.9171875 261.319375 -136.8125 260.625 C-131.85352469 257.75981427 -131.85352469 257.75981427 -129 257 C-126.46484375 258.1953125 -126.46484375 258.1953125 -123.9375 260.125 C-123.10089844 260.74632812 -122.26429688 261.36765625 -121.40234375 262.0078125 C-120.60957031 262.66523438 -119.81679688 263.32265625 -119 264 C-118.21753906 264.63679688 -117.43507813 265.27359375 -116.62890625 265.9296875 C-115 268 -115 268 -115.078125 270.359375 C-116.14423027 273.41313416 -117.39867333 276.31051621 -118.75 279.25 C-121.52946915 285.46085016 -123.55112962 291.75643329 -125.35058594 298.31347656 C-126.29377358 301.72991179 -127.23899603 304.91023849 -129 308 C-135.15294531 297.82790989 -138.51080254 288.80499236 -140 277 C-141.88128037 277.07768587 -141.88128037 277.07768587 -144 278 C-155.40591679 292.26894044 -159.29472418 309.23101478 -160.125 327.0625 C-160.17901978 328.22110031 -160.17901978 328.22110031 -160.23413086 329.40310669 C-160.83654786 344.86760641 -157.69938545 357.2536461 -151.72851562 371.53100586 C-150.9450729 374.18615208 -151.05050057 375.43942169 -152 378 C-179.05943814 356.69788912 -200.02534282 315.23836414 -204.7578125 281.38671875 C-206.6133829 255.43866171 -206.6133829 255.43866171 -203 245 C-202.34 244.34 -201.68 243.68 -201 243 C-200.5153125 243.71285156 -200.030625 244.42570313 -199.53125 245.16015625 C-192.85807209 254.69510084 -186.54893514 261.89067131 -175 265 C-168.1944568 266.1342572 -160.33998859 264.33458386 -154.703125 260.39453125 C-153.86007813 259.70423828 -153.86007813 259.70423828 -153 259 C-153.44582046 254.30237326 -155.07976487 252.56684578 -158.625 249.5625 C-159.52863281 248.78132812 -160.43226563 248.00015625 -161.36328125 247.1953125 C-162.91206516 245.90580649 -164.46867279 244.62542022 -166.04296875 243.3671875 C-175.59779524 235.64739391 -180.87740166 223.19630544 -182.72265625 211.2109375 C-183.08884915 206.97135214 -183.21075782 202.75419013 -183.25 198.5 C-183.2641394 197.31446533 -183.2641394 197.31446533 -183.27856445 196.10498047 C-183.25635065 192.22301437 -183.20027179 190.30040769 -181 187 C-180.79246094 187.67804688 -180.58492187 188.35609375 -180.37109375 189.0546875 C-175.66466526 203.27243381 -165.87800144 214.4199098 -154.25 223.625 C-153.70714355 224.06328125 -153.16428711 224.5015625 -152.60498047 224.953125 C-149.31388596 227.46062558 -147.15232946 228.53826493 -143 228 C-143.53135503 222.79272072 -144.88244106 218.76450762 -147 214 C-147.96817729 210.78051889 -147.96999869 208.17248061 -147.5703125 204.8828125 C-146.54085572 196.02345784 -146.54085572 196.02345784 -149.35498047 187.81103516 C-152.90076031 183.63853149 -157.04626495 180.16245016 -161.21386719 176.63085938 C-164.3166109 173.79784571 -166.43847637 170.41936531 -168.60546875 166.85546875 C-170.23597939 164.68602183 -171.47030291 163.93905422 -174 163 C-178.79252873 162.45003769 -181.74269332 162.44341128 -185.8125 165.125 C-190.01288605 168.54080369 -191.61101067 172.09041601 -192.6875 177.375 C-194.48836196 197.64427612 -192.42632318 218.50730359 -181.26953125 235.90625 C-180 238 -180 238 -179 241 C-187.66549697 240.54392121 -195.30907696 234.56211162 -201.0625 228.4375 C-206.76485725 221.26356669 -210.77625306 213.13196894 -213.9296875 204.5625 C-214.18476074 203.87393921 -214.43983398 203.18537842 -214.70263672 202.47595215 C-217.46011751 194.91217206 -219.79594496 187.24070601 -222 179.5 C-222.21244354 178.75952423 -222.42488708 178.01904846 -222.64376831 177.25613403 C-225.82866746 166.07958405 -228.45908158 154.86647868 -230.5625 143.4375 C-230.68455811 142.77540527 -230.80661621 142.11331055 -230.93237305 141.43115234 C-232.67888561 131.82713626 -234.15073905 122.28083768 -234.125 112.5 C-234.12757813 111.4996875 -234.13015625 110.499375 -234.1328125 109.46875 C-234 107 -234 107 -233 105 C-233.99 105.495 -233.99 105.495 -235 106 C-235.64166575 108.33025984 -236.13995797 110.5648498 -236.5625 112.9375 C-236.69035889 113.65188232 -236.81821777 114.36626465 -236.94995117 115.10229492 C-239.19715436 128.46800374 -239.25332927 141.26193841 -237.5703125 154.6953125 C-237.48185059 155.41589844 -237.39338867 156.13648438 -237.30224609 156.87890625 C-237.10263618 158.27972284 -236.85612191 159.67473861 -236.56103516 161.05859375 C-235.41705571 166.97226417 -237.03473382 169.94536902 -240.125 174.75 C-240.96806984 176.15745374 -241.80660294 177.56763473 -242.640625 178.98046875 C-243.04861328 179.66544434 -243.45660156 180.35041992 -243.87695312 181.05615234 C-253.84708057 198.3131425 -253.40489428 216.65230344 -253.1875 235.9375 C-253.17242101 238.27798615 -253.15873832 240.61848173 -253.14648438 242.95898438 C-253.11374532 248.63953196 -253.06380277 254.31972075 -253 260 C-254.11843038 259.06432832 -255.23360154 258.12476006 -256.34741211 257.18359375 C-256.96877548 256.66079834 -257.59013885 256.13800293 -258.23033142 255.59936523 C-269.86838255 245.08129728 -276.74944108 227.26724012 -278 212 C-279.47379246 182.76101034 -275.38774275 157.28968624 -264.84765625 130.20751953 C-263.92770729 127.8117308 -263.04019374 125.40539062 -262.15625 122.99609375 C-250.30636439 90.89124034 -250.30636439 90.89124034 -240 78 C-244.18350915 79.32488946 -245.97065927 80.75825204 -248.37890625 84.40234375 C-248.97461426 85.30065918 -249.57032227 86.19897461 -250.18408203 87.12451172 C-255.73884525 95.92042475 -260.92568132 104.91964025 -266 114 C-266.42522949 114.75700195 -266.85045898 115.51400391 -267.28857422 116.29394531 C-276.01572464 132.17192612 -280.24161008 150.37602867 -283.58984375 168.0703125 C-283.71629272 168.72805664 -283.8427417 169.38580078 -283.97302246 170.06347656 C-284.57586531 173.21915635 -285.14363422 176.37456354 -285.65869141 179.54589844 C-286.86564826 186.18557222 -288.10765797 190.09065724 -293.2902832 194.51367188 C-315.25494428 213.60846791 -316.93643851 265.5180001 -318.8828125 292.10546875 C-319.12425166 298.06901596 -319.07336617 304.03288484 -319 310 C-321 309 -321 309 -321.94555664 306.734375 C-322.99347595 303.49221716 -324.0384646 300.24980106 -325.0625 297 C-325.42666016 295.88753906 -325.79082031 294.77507812 -326.16601562 293.62890625 C-326.51470703 292.53449219 -326.86339844 291.44007813 -327.22265625 290.3125 C-327.53984619 289.31863281 -327.85703613 288.32476562 -328.18383789 287.30078125 C-330.30020232 278.74162865 -330.17322496 270.06160747 -330.203125 261.2890625 C-330.20595238 260.63596478 -330.20877975 259.98286705 -330.21169281 259.30997849 C-330.22662217 255.83588016 -330.23588424 252.36182248 -330.24023438 248.88769531 C-330.24456923 246.07798926 -330.25827254 243.26859894 -330.28125 240.45898438 C-330.83460359 171.36118888 -309.2655747 105.23237102 -261.75 54 C-261.18369873 53.38890381 -260.61739746 52.77780762 -260.03393555 52.14819336 C-256.73263529 48.65244415 -253.30941743 45.45290337 -249.58691406 42.40820312 C-247.87625156 40.89018753 -246.45403331 39.2629775 -245 37.5 C-233.0692373 23.5718998 -213.03485686 3.18381405 -193.90234375 0.578125 C-191.54826425 0.56488123 -189.32712932 0.66219091 -187 1 C-189.84559161 3.99815247 -192.80180745 6.38538933 -196.1875 8.75 C-206.61160586 15.97401284 -206.61160586 15.97401284 -214 26 C-214.53786347 29.40612916 -214.53786347 29.40612916 -214.625 33 C-215.04082535 42.1877602 -215.04082535 42.1877602 -216 45 C-217.92578125 46.1875 -217.92578125 46.1875 -220.3125 47 C-224.46819103 48.66227641 -226.71976413 49.98678487 -229 54 C-232.4277625 63.94051124 -231.8358014 74.24403719 -228 84 C-222.56907207 94.5911554 -214.13089955 101.11911165 -203 105 C-182.87189896 110.65039139 -166.93777996 106.94093727 -149 97 C-148.06285156 96.4225 -147.12570313 95.845 -146.16015625 95.25 C-144 94 -144 94 -142 94 C-143.42415737 96.96980684 -145.05444991 99.71680724 -146.8125 102.5 C-156.56738316 118.74223821 -159.33080503 135.09220521 -154.97265625 153.55859375 C-153.44840423 158.95163 -151.41377823 163.94821278 -149 169 C-148.50757813 170.04929688 -148.01515625 171.09859375 -147.5078125 172.1796875 C-139.36099213 188.43434825 -126.2642765 201.74064418 -110 210 C-107.28524895 209.43088211 -107.28524895 209.43088211 -105 208 C-103.67361393 207.64001544 -102.34077175 207.30202648 -101 207 C-100.73267356 201.55660836 -100.4997541 196.11321277 -100.2980957 190.66699219 C-100.22477512 188.8160117 -100.14219569 186.96537319 -100.05004883 185.11523438 C-99.91891617 182.44958686 -99.82155295 179.7844676 -99.73046875 177.1171875 C-99.65894844 175.88402298 -99.65894844 175.88402298 -99.58598328 174.62594604 C-99.47601181 170.41890637 -99.65795499 167.88908593 -102.43481445 164.60986328 C-103.28132568 163.7486084 -104.12783691 162.88735352 -105 162 C-106.3125 159.125 -106.3125 159.125 -107 157 C-107.36644578 158.55966592 -107.71760862 160.12292651 -108.0625 161.6875 C-108.25972656 162.55761719 -108.45695313 163.42773438 -108.66015625 164.32421875 C-109.02032279 167.16001276 -108.70909969 169.24789982 -108 172 C-115.58966256 169.22917081 -120.67191607 158.12076826 -124 151.125 C-125.73910761 147.04317699 -126.70530818 143.42037725 -127 139 C-130.1941391 139 -131.3181167 139.52264974 -134.0625 141 C-137.79166667 143 -137.79166667 143 -140 143 C-139.5020163 139.26512223 -139.12508244 137.18762365 -137 134 C-136.60765849 131.79801375 -136.60765849 131.79801375 -136.5078125 129.3515625 C-136.44505127 128.43463623 -136.38229004 127.51770996 -136.31762695 126.57299805 C-136.25406006 125.60015869 -136.19049316 124.62731934 -136.125 123.625 C-134.94793795 108.95873541 -132.46730749 97.71465794 -121.1875 87.4375 C-119 86 -119 86 -117 86 C-118.43770951 89.83389204 -120.19830545 93.41563869 -122.09765625 97.03515625 C-125.03643321 103.43431128 -125.35910601 112.00577142 -123.10546875 118.62890625 C-121.93352544 121.02651809 -121.93352544 121.02651809 -120 124 C-116.14280418 122.46239347 -114.09958899 120.06804458 -111.4375 116.9375 C-107.33044059 112.11014686 -107.33044059 112.11014686 -104 111 C-105.11213133 113.8231026 -106.26609473 116.53218947 -107.625 119.25 C-109.22005415 123.60014767 -109.68527019 127.40779978 -109 132 C-108.34 132.99 -107.68 133.98 -107 135 C-104.5 135.5 -104.5 135.5 -102 135 C-99.9701081 131.95516215 -99.73196335 130.97945019 -99.5 127.5 C-99.26803665 124.02054981 -99.0298919 123.04483785 -97 120 C-94.02096037 118.84682337 -93.13440869 118.9551971 -90 120 C-89.0859375 122.8359375 -89.0859375 122.8359375 -88.375 126.375 C-87.37953416 131.23879383 -87.37953416 131.23879383 -86 136 C-83.69 135.67 -81.38 135.34 -79 135 C-77.51533374 126.63188111 -78.6389129 120.37238352 -82.6875 112.875 C-83.120625 112.25625 -83.55375 111.6375 -84 111 C-79.33868583 112.39419487 -76.76827228 115.02848362 -73.6875 118.625 C-73.0059082 119.3984375 -73.0059082 119.3984375 -72.31054688 120.1875 C-71.19891994 121.4512443 -70.0983178 122.72467176 -69 124 C-64.4407703 119.74657229 -63.36488252 116.04068769 -62.625 109.875 C-63.28055777 103.10090305 -65.12574257 96.05913281 -68.69921875 90.2265625 C-69.12847656 89.49179688 -69.55773437 88.75703125 -70 88 C-69.67 87.34 -69.34 86.68 -69 86 C-58.09742271 94.90061521 -53.41824311 103.48061674 -51.68457031 117.56201172 C-51.32712484 121.10872248 -51.00025526 124.65224747 -50.77075195 128.2097168 C-50.41799872 132.99544997 -49.77597524 135.95264314 -47 140 C-47 140.99 -47 141.98 -47 143 C-51.9723422 141.50829734 -56.41845739 139.39542583 -61 137 C-60.896875 137.9075 -60.79375 138.815 -60.6875 139.75 C-60.72776931 149.73678967 -67.90764806 161.86297831 -74.78125 168.796875 C-76.4375 170.1875 -76.4375 170.1875 -79 172 C-78.98259766 170.75283203 -78.98259766 170.75283203 -78.96484375 169.48046875 C-78.95582031 168.39378906 -78.94679688 167.30710938 -78.9375 166.1875 C-78.92009766 164.56908203 -78.92009766 164.56908203 -78.90234375 162.91796875 C-78.86375234 159.93487831 -78.86375234 159.93487831 -80 157 C-80.33773437 157.55429688 -80.67546875 158.10859375 -81.0234375 158.6796875 C-81.69246094 159.76636719 -81.69246094 159.76636719 -82.375 160.875 C-83.03628906 161.95394531 -83.03628906 161.95394531 -83.7109375 163.0546875 C-85 165 -85 165 -87 167 C-87.35578574 171.45636714 -87.16526973 175.9237398 -87.05322266 180.39013672 C-86.99444938 183.27218413 -86.98911431 186.15254312 -86.98046875 189.03515625 C-86.94752358 191.10680718 -86.9123801 193.17842435 -86.875 195.25 C-86.87781982 196.24990967 -86.88063965 197.24981934 -86.88354492 198.2800293 C-86.80900616 200.98396326 -86.67902316 203.3811155 -86 206 C-83.31140369 208.82149004 -83.31140369 208.82149004 -80 210 C-68.44159186 208.68654453 -55.87968143 194.82983509 -48.71875 186.3515625 C-34.87527579 167.41117279 -28.50977312 146.87694606 -31.43359375 123.5390625 C-33.73792428 112.86185394 -39.28540427 102.5458491 -46 94 C-41.22186617 95.41438624 -37.06948289 97.50612441 -32.75 99.9375 C-18.71646003 107.55663375 -3.73397039 110.24096237 12 106 C23.64029442 102.27029326 33.78696004 96.45411578 39.87890625 85.58984375 C42.56674587 79.38065326 43.36373822 73.73510374 43.375 67.0625 C43.39949219 66.30259766 43.42398437 65.54269531 43.44921875 64.75976562 C43.4783342 59.07739953 42.28222142 54.69323679 39 50 C37.0821822 48.31394392 37.0821822 48.31394392 34.9375 47.5625 C34.26589844 47.27503906 33.59429687 46.98757812 32.90234375 46.69140625 C31.27767996 46.1009227 29.63993382 45.54664461 28 45 C27.96261719 43.84242187 27.92523438 42.68484375 27.88671875 41.4921875 C27.82102575 39.95309439 27.75457958 38.4140333 27.6875 36.875 C27.66494141 36.11445312 27.64238281 35.35390625 27.61914062 34.5703125 C27.27604944 27.33420754 24.88813799 22.40815267 20 17 C17.94197787 15.25775905 15.90345708 13.6112602 13.75 12 C13.17805908 11.56574707 12.60611816 11.13149414 12.0168457 10.68408203 C7.82063369 7.53085913 3.52677314 4.66280773 -1 2 C-0.67 1.34 -0.34 0.68 0 0 Z M-136 206 C-136.36287397 210.53592464 -136.26756841 213.62959302 -133.453125 217.3359375 C-126.82035777 224.93152578 -119.63309447 232.49458157 -109.6875 235.3125 C-106.96722297 236.19211054 -106.1756862 236.72385098 -104.61328125 239.1796875 C-103.61459292 241.42936436 -102.7469995 243.65579762 -102 246 C-101.67 246 -101.34 246 -101 246 C-101 241.05 -101 236.1 -101 231 C-103.124375 229.989375 -105.24875 228.97875 -107.4375 227.9375 C-117.29697657 223.07330917 -127.92035679 216.15928641 -133 206 C-133.99 206 -134.98 206 -136 206 Z M-54 206 C-55.19479366 207.46130152 -56.3301592 208.97136323 -57.4375 210.5 C-65.31290155 220.52452369 -75.73010906 225.64401223 -87 231 C-87 235.95 -87 240.9 -87 246 C-84.54353516 245.05585591 -84.54353516 245.05585591 -83.625 241.3125 C-81.15734062 236.12857377 -77.21765385 234.82919423 -72.171875 232.55859375 C-64.35633385 228.71819853 -55.9657641 221.9315282 -52 214 C-51.9310528 212.62657169 -51.91532292 211.24997898 -51.9375 209.875 C-51.958125 208.59625 -51.97875 207.3175 -52 206 C-52.66 206 -53.32 206 -54 206 Z M-95 244 C-95.59261301 247.39128732 -96.14368155 250.78807518 -96.6875 254.1875 C-96.85572266 255.14720703 -97.02394531 256.10691406 -97.19726562 257.09570312 C-98.14306696 262.76437507 -98.14306696 262.76437507 -96.58203125 268.17578125 C-96.05996094 268.77777344 -95.53789062 269.37976563 -95 270 C-91.87802522 268.6910428 -91.87802522 268.6910428 -90 266 C-89.61019509 258.98351166 -89.81525105 250.3694979 -93 244 C-93.66 244 -94.32 244 -95 244 Z " fill="#000000" transform="translate(389,61)"/>
<path d="M0 0 C0.66 0.33 1.32 0.66 2 1 C1.2884375 2.485 1.2884375 2.485 0.5625 4 C-1.99031091 10.64694162 -1.7524851 17.96716279 -2 25 C-6.15938479 23.12070623 -8.39795959 20.7915446 -11 17 C-10.69929548 13.13469396 -9.34134071 10.54850708 -7.1875 7.375 C-6.68605469 6.61960938 -6.18460938 5.86421875 -5.66796875 5.0859375 C-3.96496428 2.95618484 -2.24542988 1.52942513 0 0 Z " fill="#000000" transform="translate(261,217)"/>
<path d="M0 0 C5.75692096 2.54896069 9.4180118 7.20840904 11.875 12.9375 C12.24625 13.948125 12.6175 14.95875 13 16 C12.09674384 17.32176485 11.17682097 18.63215066 10.25 19.9375 C9.73953125 20.66839844 9.2290625 21.39929688 8.703125 22.15234375 C6.80822085 24.20805399 5.72574271 24.62669176 3 25 C3.03480469 23.99839844 3.06960938 22.99679688 3.10546875 21.96484375 C3.27309347 15.01191022 3.40935359 9.25048158 0 3 C0 2.01 0 1.02 0 0 Z " fill="#000000" transform="translate(328,217)"/>
</svg>
