<?xml version="1.0" encoding="UTF-8"?>
<svg version="1.1" xmlns="http://www.w3.org/2000/svg" width="591" height="591">
<path d="M0 0 C3.00355876 0.66871686 4.11672321 2.12168649 6.0703125 4.4609375 C6.76565552 7.01168823 6.76565552 7.01168823 7.04345703 9.92529297 C7.15682404 11.02098602 7.27019104 12.11667908 7.38699341 13.24557495 C7.49131683 14.42781647 7.59564026 15.61005798 7.703125 16.828125 C7.82589813 18.05443634 7.94867126 19.28074768 8.07516479 20.54421997 C8.39931816 23.80930154 8.70842827 27.07533807 9.00976562 30.34259033 C9.43431968 34.90361361 9.88786743 39.4618722 10.33688354 44.02053833 C10.57369689 46.4421279 10.80558236 48.86420666 11.03152466 51.28683472 C13.04486082 72.48434235 16.62559708 88.00110327 33.0703125 102.4609375 C34.34956895 103.39356714 35.64128457 104.30936413 36.9453125 105.20703125 C37.9765625 105.95082031 39.0078125 106.69460937 40.0703125 107.4609375 C40.0703125 108.1209375 40.0703125 108.7809375 40.0703125 109.4609375 C38.6015625 110.90625 38.6015625 110.90625 36.5703125 112.5859375 C26.90664236 120.89600846 20.04232651 127.91376536 19.02734375 141.2265625 C19.13284479 146.71261668 20.50154642 151.63772693 23.0703125 156.4609375 C29.33955908 155.94329329 33.08242168 153.05659847 38.03515625 149.5234375 C42.46220785 146.49490983 42.46220785 146.49490983 45.16796875 146.34375 C48.07354138 148.05010271 50.14003883 150.49222961 52.3828125 152.9609375 C58.75072462 159.69319297 65.96988197 164.07873738 74.0703125 168.4609375 C71.51642357 171.3847 68.62921714 172.94688674 65.1953125 174.7109375 C64.16664063 175.25234375 63.13796875 175.79375 62.078125 176.3515625 C58.75390973 177.5776367 57.36405193 177.66623507 54.0703125 176.4609375 C52.40234375 175.19140625 52.40234375 175.19140625 50.8828125 173.6484375 C45.78291191 169.04744023 39.61325369 166.29205865 32.6953125 166.0859375 C28.52959877 166.45201984 28.52959877 166.45201984 25.0703125 168.4609375 C24.6165625 169.3271875 24.1628125 170.1934375 23.6953125 171.0859375 C23.1590625 171.8696875 22.6228125 172.6534375 22.0703125 173.4609375 C18.8828125 173.7734375 18.8828125 173.7734375 16.0703125 173.4609375 C15.0803125 169.8309375 14.0903125 166.2009375 13.0703125 162.4609375 C8.4503125 162.1309375 3.8303125 161.8009375 -0.9296875 161.4609375 C-0.76726562 159.38554687 -0.60484375 157.31015625 -0.4375 155.171875 C0.31468831 144.04596676 0.22000544 132.90208147 0.20068359 121.75634766 C0.19537389 118.12788616 0.20063012 114.49955125 0.20703125 110.87109375 C0.2108632 98.98378991 0.06833045 87.11403833 -0.375 75.234375 C-0.41374237 74.18029449 -0.45248474 73.12621399 -0.49240112 72.04019165 C-0.73729308 66.13814643 -1.20492476 60.32368249 -1.9296875 54.4609375 C-2.63404575 68.91590199 -3.21466854 83.3676273 -3.5546875 97.8359375 C-3.58887283 99.25499893 -3.58887283 99.25499893 -3.62374878 100.70272827 C-4.09101018 120.97645814 -3.66724221 141.1990888 -2.9296875 161.4609375 C-3.85652344 161.52152344 -4.78335938 161.58210937 -5.73828125 161.64453125 C-6.93582031 161.72832031 -8.13335937 161.81210938 -9.3671875 161.8984375 C-10.56214844 161.97964844 -11.75710938 162.06085938 -12.98828125 162.14453125 C-15.81538994 162.13749864 -15.81538994 162.13749864 -16.9296875 163.4609375 C-17.29696196 164.95298997 -17.6246721 166.45492398 -17.9296875 167.9609375 C-18.81857639 172.34982639 -18.81857639 172.34982639 -19.9296875 173.4609375 C-22.1796875 173.8984375 -22.1796875 173.8984375 -24.9296875 173.4609375 C-27.6171875 170.5234375 -27.6171875 170.5234375 -29.9296875 167.4609375 C-33.50070088 165.67543081 -37.08555034 165.87294538 -40.9296875 166.4609375 C-46.58534396 168.61892165 -51.88638442 171.28718519 -56.3671875 175.3984375 C-58.9296875 177.4609375 -58.9296875 177.4609375 -61.1328125 177.3125 C-64.70849853 176.22381347 -67.93857336 174.61658904 -71.2421875 172.8984375 C-71.88736328 172.56908203 -72.53253906 172.23972656 -73.19726562 171.90039062 C-74.77753978 171.09269495 -76.35400855 170.27756137 -77.9296875 169.4609375 C-76.58726772 166.77609794 -75.21472855 166.550675 -72.4921875 165.3359375 C-63.32608915 160.87073816 -56.27497393 154.36102921 -49.9296875 146.4609375 C-45.66447106 147.02602062 -42.92436426 148.51874067 -39.3671875 150.8984375 C-34.02734238 154.96169461 -34.02734238 154.96169461 -27.7890625 156.296875 C-25.50818772 155.50275954 -25.50818772 155.50275954 -24.1796875 152.0859375 C-21.61952524 144.15084896 -22.19281651 136.0819102 -25.2578125 128.375 C-29.43357671 121.09668201 -36.05291808 114.22177787 -42.9296875 109.4609375 C-41.82010347 106.1321854 -41.00424246 105.44604051 -38.3671875 103.2734375 C-37.64402344 102.65210938 -36.92085938 102.03078125 -36.17578125 101.390625 C-35.43457031 100.75382812 -34.69335938 100.11703125 -33.9296875 99.4609375 C-23.98423947 90.91436752 -17.94452699 81.05554901 -16.359375 68.06640625 C-16.23994034 67.16398193 -16.12050568 66.26155762 -15.99745178 65.33178711 C-14.38549449 52.79521598 -13.23889459 40.20197798 -12.05200195 27.61962891 C-11.74544073 24.38899999 -11.42986353 21.15934746 -11.11328125 17.9296875 C-10.97882851 16.45949158 -10.97882851 16.45949158 -10.84165955 14.95959473 C-9.40123534 0.39320756 -9.40123534 0.39320756 0 0 Z " fill="#000000" transform="translate(296.9296875,84.5390625)"/>
<path d="M0 0 C7.12300225 0.55804778 14.11091959 1.40980305 21.14501953 2.65478516 C22.09513916 2.8192514 23.04525879 2.98371765 24.02416992 3.15316772 C27.14445274 3.69432924 30.26361427 4.2416873 33.3828125 4.7890625 C35.60050566 5.17483153 37.81827047 5.56018888 40.03610229 5.94515991 C45.88338683 6.96117567 51.72975813 7.98235172 57.57592773 9.00476074 C64.51605322 10.2176237 71.45717625 11.42475955 78.39817429 12.632617 C84.07091172 13.61981173 89.74353265 14.60766022 95.41583252 15.59736633 C105.93498442 17.43164191 116.45574248 19.25490767 126.98339844 21.03979492 C127.92310171 21.19927361 128.86280499 21.35875229 129.83098412 21.52306366 C134.16854658 22.25871091 138.50656105 22.99147802 142.8454895 23.71902466 C192.32235683 32.05816423 192.32235683 32.05816423 205 41 C205 41.66 205 42.32 205 43 C204.22922119 43.19110352 203.45844238 43.38220703 202.66430664 43.57910156 C199.12819958 44.46093965 195.59539047 45.35536624 192.0625 46.25 C190.24395508 46.70052734 190.24395508 46.70052734 188.38867188 47.16015625 C182.25521207 48.72260943 176.5561602 50.35432946 170.93823242 53.30566406 C166.70019934 54.82386107 162.21355114 53.03405957 158 52 C121.94806389 44.22780919 84.65552027 41.32866242 47.88623047 39.25268555 C40.26273486 38.58525889 36.3932649 34.71397737 31.23828125 29.31640625 C29.31015695 27.32098268 27.35483725 25.49101318 25.25 23.6875 C21.00068333 20.0415863 16.90842135 16.23720985 12.80688477 12.42724609 C9.03911506 8.93559874 5.21251417 5.52854293 1.29296875 2.20703125 C0.86628906 1.80871094 0.43960937 1.41039062 0 1 C0 0.67 0 0.34 0 0 Z " fill="#000000" transform="translate(20,139)"/>
<path d="M0 0 C0 2 0 2 -1.29296875 3.3046875 C-1.91816406 3.82289063 -2.54335938 4.34109375 -3.1875 4.875 C-7.05234082 8.1563391 -10.78856574 11.54805048 -14.5 15 C-18.59854849 18.80158605 -22.72108897 22.55865945 -26.9609375 26.203125 C-28.59562273 27.64365221 -30.19799457 29.12081285 -31.7890625 30.609375 C-32.27874512 31.06618652 -32.76842773 31.52299805 -33.27294922 31.99365234 C-34.68154501 33.31098044 -36.08314645 34.63577564 -37.484375 35.9609375 C-41.03418215 38.83826565 -44.12350924 39.0988676 -48.59277344 39.40136719 C-49.50592316 39.46544266 -50.41907288 39.52951813 -51.3598938 39.59553528 C-52.3497226 39.66197739 -53.33955139 39.72841949 -54.359375 39.796875 C-56.50997509 39.94913015 -58.66052659 40.10207284 -60.81103516 40.25561523 C-61.94277161 40.33576874 -63.07450806 40.41592224 -64.24053955 40.49850464 C-95.39848432 42.73134889 -126.41982495 45.5937453 -157.03515625 51.984375 C-157.90285645 52.15904297 -158.77055664 52.33371094 -159.66455078 52.51367188 C-161.65962849 52.92912189 -163.64219554 53.4039057 -165.62109375 53.890625 C-169.67792731 54.02194447 -171.81149753 52.92750048 -175.39013672 51.16210938 C-180.55526567 48.86220163 -186.10113512 47.65840954 -191.5625 46.25 C-193.36170898 45.77626953 -193.36170898 45.77626953 -195.19726562 45.29296875 C-198.12980801 44.52186199 -201.06397693 43.75772459 -204 43 C-203 40 -203 40 -201.26953125 38.82421875 C-173.25153381 25.86199736 -139.54653483 22.79368399 -109.32077026 17.97003174 C-94.27360029 15.56807575 -79.25689237 13.01917294 -64.25 10.37890625 C-63.34639488 10.22002867 -62.44278976 10.06115108 -61.51180267 9.89745903 C-52.36160277 8.2880062 -43.21258903 6.67199493 -34.0654068 5.04547787 C-30.61704383 4.43307955 -27.16810885 3.82394705 -23.71905518 3.21545219 C-22.09661671 2.92831692 -20.47445867 2.63959213 -18.8526001 2.3491993 C-16.61365848 1.94835423 -14.37385408 1.55271417 -12.13378906 1.15820312 C-10.87149475 0.93362427 -9.60920044 0.70904541 -8.30865479 0.47766113 C-5.47091674 0.06798492 -2.85849727 -0.10073326 0 0 Z " fill="#000000" transform="translate(570,139)"/>
<path d="M0 0 C17.62585613 10.18177728 28.2309873 28.912068 33.4375 48.125 C34.48398502 52.19709652 35.19846794 55.79247973 35 60 C34.53851563 59.62488281 34.07703125 59.24976563 33.6015625 58.86328125 C20.10231573 48.27197499 6.81363918 45.66106339 -10 47 C-15.17443945 47.75614028 -20.07485152 49.2647442 -25 51 C-25.96421875 51.33902344 -26.9284375 51.67804688 -27.921875 52.02734375 C-46.29311219 59.15761675 -63.61336743 69.50694709 -78 83 C-77.54947266 83.97839844 -77.54947266 83.97839844 -77.08984375 84.9765625 C-76.70957031 85.85054688 -76.32929688 86.72453125 -75.9375 87.625 C-75.55464844 88.48351562 -75.17179688 89.34203125 -74.77734375 90.2265625 C-73.81414364 93.66310559 -74.01996215 95.56986752 -75 99 C-85.33310407 117.22424919 -100.85790664 127.58171154 -120 135 C-101.81429395 129.54177287 -85.78582213 121.41627627 -74 106 C-73.443125 104.86691406 -73.443125 104.86691406 -72.875 103.7109375 C-68.48412984 94.83772071 -58.85942481 92.70282152 -50.08129883 89.59155273 C-48 89 -48 89 -45 89 C-44.625 91.1875 -44.625 91.1875 -45 94 C-46.96174353 95.86365635 -48.84020254 97.39947641 -51 99 C-57.73037127 104.2727579 -61.00565328 107.93787122 -62.6875 116.5 C-63.1454731 120.01024394 -63.1454731 120.01024394 -62.4375 123.5 C-63.10868915 127.67628806 -63.76582759 128.06285604 -67.0625 130.5 C-98.27140773 150.04940007 -140.24879766 154.32563836 -175.90234375 146.49609375 C-196.25885676 141.68179738 -207.53452736 129.67908513 -219.25 112.98046875 C-220.89240462 110.18324839 -221.62260463 108.19017025 -222 105 C-221.46745605 105.25168945 -220.93491211 105.50337891 -220.38623047 105.76269531 C-193.02186272 118.61164096 -165.71829903 125.34447932 -136.3125 114.75 C-122.44623239 109.02041754 -108.97756885 100.73057227 -102 87 C-101.08333333 84 -101.08333333 84 -102 81 C-105.12260668 77.02654682 -108.94192068 73.97173508 -113 71 C-83.94482708 43.55900335 -46.4120917 20.94772105 -6.74121094 14.34277344 C-5.87915039 14.19485352 -5.01708984 14.04693359 -4.12890625 13.89453125 C-2.96983765 13.70661011 -2.96983765 13.70661011 -1.78735352 13.51489258 C-1.19752686 13.34497803 -0.6077002 13.17506348 0 13 C2.04130598 8.91738804 1.01097258 4.29663347 0 0 Z M-129 136 C-125 137 -125 137 -125 137 Z " fill="#000000" transform="translate(229,173)"/>
<path d="M0 0 C-0.16757812 0.60328125 -0.33515625 1.2065625 -0.5078125 1.828125 C-0.71148437 2.62734375 -0.91515625 3.4265625 -1.125 4.25 C-1.33382812 5.03890625 -1.54265625 5.8278125 -1.7578125 6.640625 C-2.05581851 9.54378035 -1.6455439 10.60749962 0 13 C2.27219225 13.89998513 2.27219225 13.89998513 4.99609375 14.23828125 C6.01993164 14.41439941 7.04376953 14.59051758 8.09863281 14.77197266 C9.20045898 14.95034668 10.30228516 15.1287207 11.4375 15.3125 C47.58144309 21.91641327 77.71108721 42.48598064 105.84375 65.2734375 C107.28703358 66.42911022 108.76798656 67.53916865 110.28125 68.6015625 C110.8484375 69.06304687 111.415625 69.52453125 112 70 C112 70.66 112 71.32 112 72 C110.35546875 73.33203125 110.35546875 73.33203125 108.1875 74.8125 C103.56151819 78.09759178 103.56151819 78.09759178 101 83 C102.62123912 93.50875478 110.29198529 99.55251962 118.41015625 105.53515625 C137.00789927 118.63592986 160.12839049 122.64144366 182.375 118.875 C196.2613799 116.30232159 209.3925586 111.28144607 222 105 C218.86594551 115.77232799 210.51056014 123.96917016 203 132 C202.08154297 133.10214844 202.08154297 133.10214844 201.14453125 134.2265625 C191.19028266 145.56039778 172.39178579 147.97338339 158 149 C126.93408058 150.12200003 96.39304393 148.26128526 69 132 C68.3409668 131.62335205 67.68193359 131.2467041 67.00292969 130.85864258 C65.12862981 129.68449867 63.53810105 128.59008515 62 127 C61.4921875 124.01953125 61.4921875 124.01953125 61.875 120.8125 C62.22829616 114.02306946 61.13156213 109.45921039 57 104 C54.49978046 101.70771951 51.82372187 99.86672827 49 98 C46.08003866 95.45439268 44.55421997 93.87953976 44 90 C50.67570074 87.77476642 59.5643241 92.92704427 65.70849609 95.73046875 C69.79647261 97.99527569 71.44357658 100.97865019 73.43359375 105.06640625 C81.82277513 120.77781576 99.92742618 128.72243845 116 134 C116.33 134 116.66 134 117 134 C115.33324219 133.27296875 115.33324219 133.27296875 113.6328125 132.53125 C104.82761741 128.60175707 97.10594695 124.65341676 90 118 C89.13761719 117.21625 88.27523437 116.4325 87.38671875 115.625 C81.23360491 109.79093651 74.93199035 103.38483311 73.4375 94.75 C74.10573881 91.4830547 75.46255694 88.94676586 77 86 C77.43671784 82.17530613 77.43671784 82.17530613 75.70922852 80.51123047 C75.10522217 80.05119629 74.50121582 79.59116211 73.87890625 79.1171875 C73.19965088 78.59471436 72.52039551 78.07224121 71.82055664 77.53393555 C71.07539795 76.98648682 70.33023926 76.43903809 69.5625 75.875 C68.79478271 75.30241455 68.02706543 74.7298291 67.23608398 74.13989258 C43.97943388 57.09672446 16.52687142 42.92153565 -13.07421875 47.47265625 C-20.06182092 49.30457079 -27.08070671 53.04382033 -32.1640625 58.19140625 C-34 60 -34 60 -36 60 C-32.04317287 36.7415771 -22.48714618 16.46450272 -3.890625 1.27734375 C-2 0 -2 0 0 0 Z " fill="#000000" transform="translate(362,173)"/>
<path d="M0 0 C11.84172969 -0.23943357 23.41011452 0.45502621 35.1875 1.625 C36.07110199 1.71037018 36.95470398 1.79574036 37.86508179 1.88369751 C56.68325712 3.70955558 75.41700921 6.14817314 94.14453125 8.73046875 C94.96974274 8.843871 95.79495422 8.95727325 96.64517212 9.07411194 C100.45821386 9.60770734 104.23412166 10.1861773 108 11 C104.31855348 15.00873547 99.65781576 17.27474302 94.9375 19.875 C94.03322266 20.41125 93.12894531 20.9475 92.19726562 21.5 C85.46289278 25.17767038 85.46289278 25.17767038 81.40283203 24.68457031 C79.70841603 24.14631706 78.03024684 23.55424319 76.37231445 22.91235352 C67.66572409 19.56394061 56.97644639 20.6754452 47.75 20.4375 C46.1953034 20.39420588 44.64061576 20.35058855 43.0859375 20.30664062 C35.62445139 20.03907993 35.62445139 20.03907993 28.16455078 20.12084961 C24.69541349 19.92716328 23.3507245 17.45727291 21 15 C18.04114749 12.83169146 14.95895288 10.86001622 11.875 8.875 C10.26612987 7.83396639 8.65927469 6.78981054 7.0546875 5.7421875 C6.34812012 5.2869873 5.64155273 4.83178711 4.91357422 4.36279297 C3.06587611 3.04691508 1.54923912 1.6511867 0 0 Z " fill="#000000" transform="translate(73,183)"/>
<path d="M0 0 C-2.95916698 3.17003398 -6.04292222 5.4733004 -9.6875 7.8125 C-14.35442421 10.85169211 -18.71408221 14.05680557 -22.96484375 17.65234375 C-27.34405725 20.55220682 -32.59634917 20.17006537 -37.6875 20.24609375 C-39.20703613 20.27907267 -40.72656725 20.31228354 -42.24609375 20.34570312 C-44.61079988 20.39270501 -46.97549201 20.43708838 -49.34033203 20.47680664 C-65.3521199 20.21859569 -65.3521199 20.21859569 -80.51269531 24.21557617 C-83 25 -83 25 -85.66308594 24.15722656 C-86.59411133 23.65674805 -87.52513672 23.15626953 -88.484375 22.640625 C-89.50144531 22.10179687 -90.51851563 21.56296875 -91.56640625 21.0078125 C-92.61699219 20.42773438 -93.66757812 19.84765625 -94.75 19.25 C-96.34908203 18.40308594 -96.34908203 18.40308594 -97.98046875 17.5390625 C-105.84414471 13.31171058 -105.84414471 13.31171058 -107 11 C-72.04434906 5.15090655 -35.50960865 -0.92768208 0 0 Z " fill="#000000" transform="translate(517,183)"/>
<path d="M0 0 C-1.34045024 4.02135071 -3.32529228 4.90551694 -6.8125 7.25 C-7.87082031 7.97703125 -8.92914063 8.7040625 -10.01953125 9.453125 C-13 11 -13 11 -14.95678711 10.7487793 C-18.6633968 9.39041248 -21.60507238 6.90187432 -24.75 4.5625 C-25.44738281 4.05912109 -26.14476563 3.55574219 -26.86328125 3.03710938 C-27.52199219 2.55177734 -28.18070312 2.06644531 -28.859375 1.56640625 C-29.46233398 1.12240479 -30.06529297 0.67840332 -30.68652344 0.22094727 C-31.1199707 -0.18196533 -31.55341797 -0.58487793 -32 -1 C-32 -1.66 -32 -2.32 -32 -3 C-21.97626467 -5.11026007 -9.10935535 -5.13750373 0 0 Z " fill="#000000" transform="translate(150,211)"/>
<path d="M0 0 C-3.48141113 3.59020522 -7.06109062 6.83761851 -11 9.9375 C-12.5159375 11.15759766 -12.5159375 11.15759766 -14.0625 12.40234375 C-17 14 -17 14 -19.51171875 13.47265625 C-20.33285156 12.98667969 -21.15398437 12.50070313 -22 12 C-22.95519531 11.4534375 -23.91039062 10.906875 -24.89453125 10.34375 C-25.85746094 9.7353125 -26.82039063 9.126875 -27.8125 8.5 C-28.78832031 7.8915625 -29.76414062 7.283125 -30.76953125 6.65625 C-31.87361328 5.83640625 -31.87361328 5.83640625 -33 5 C-33 4.34 -33 3.68 -33 3 C-22.23315327 -0.88192433 -11.33574696 -2.45097232 0 0 Z " fill="#000000" transform="translate(473,208)"/>
<path d="M0 0 C1.875 1.4375 1.875 1.4375 2.625 4.5625 C2.7075 5.51125 2.79 6.46 2.875 7.4375 C4.13993286 7.83364502 4.13993286 7.83364502 5.43041992 8.23779297 C11.18183742 10.24094455 16.6150443 12.90813208 22.09008789 15.55761719 C23.49151074 16.22904734 24.89887011 16.88822101 26.31176758 17.53515625 C28.364836 18.47653302 30.3955068 19.45590491 32.42578125 20.4453125 C33.05801102 20.7258548 33.69024078 21.00639709 34.34162903 21.29544067 C36.84821484 22.56021116 38.59452103 23.6707546 39.57943726 26.36322021 C39.93041992 28.49951172 39.93041992 28.49951172 39.875 32.4375 C37.4375 35.4375 37.4375 35.4375 34.875 37.4375 C30.64470388 35.94862483 27.13080558 33.73807231 23.4375 31.25 C9.13611886 21.850398 9.13611886 21.850398 -7.125 17.4375 C-10.83119887 18.93575061 -11.89616603 20.09424905 -14.125 23.4375 C-16.3671875 24.0625 -16.3671875 24.0625 -19 24.4375 C-22.89854255 24.99609714 -25.11707776 25.86327817 -28.125 28.4375 C-29.445 27.7775 -30.765 27.1175 -32.125 26.4375 C-32.08336047 23.36080131 -31.78881947 21.18523756 -29.70361328 18.83642578 C-27.75117024 17.14312423 -25.74749086 15.56071871 -23.6875 14 C-22.60239136 13.15066895 -22.60239136 13.15066895 -21.49536133 12.28417969 C-4.240809 -1.12256709 -4.240809 -1.12256709 0 0 Z " fill="#000000" transform="translate(187.125,237.5625)"/>
<path d="M0 0 C7.77258961 3.26448764 13.91189101 8.37805095 20.37597656 13.6796875 C21.79180319 14.83073837 23.2337102 15.9495612 24.6796875 17.0625 C29.88542048 21.21226579 29.88542048 21.21226579 30.5 25.4375 C30.335 26.283125 30.17 27.12875 30 28 C26 28 26 28 23.1875 26.5625 C20.05230786 24.79914895 20.05230786 24.79914895 16.4375 24.625 C12.15260049 23.84592736 10.89935804 22.13444112 8 19 C2.59334726 16.77441665 -2.94320313 19.930795 -8 22 C-16.60896808 25.96513583 -24.3700519 30.64786091 -31.73046875 36.62890625 C-34 38 -34 38 -36.19140625 37.78125 C-38.56334343 36.7566551 -39.57713264 36.20544442 -41 34 C-41.1684076 31.32467684 -41.05404466 28.68331748 -41 26 C-39.01909981 24.94853922 -37.0373466 23.89872756 -35.0546875 22.85058594 C-33.34019227 21.94418422 -31.62666132 21.03595637 -29.9140625 20.12597656 C-25.73979398 17.91962172 -21.55994571 15.76307733 -17.28125 13.765625 C-16.55744141 13.42337891 -15.83363281 13.08113281 -15.08789062 12.72851562 C-13.72923383 12.0917644 -12.36351603 11.4697986 -10.99023438 10.86523438 C-6.41153128 8.70293585 -4.97558161 6.56853248 -3 2 C-2.01 1.34 -1.02 0.68 0 0 Z " fill="#000000" transform="translate(405,237)"/>
<path d="M0 0 C1.1446875 -0.00257813 2.289375 -0.00515625 3.46875 -0.0078125 C6.5 0.125 6.5 0.125 9.5 1.125 C9.17 5.085 8.84 9.045 8.5 13.125 C10.85125 13.5890625 10.85125 13.5890625 13.25 14.0625 C16.36419297 14.67714335 19.41771831 15.35442958 22.5 16.125 C24.48 13.485 26.46 10.845 28.5 8.125 C32.91530912 8.64911943 35.33323558 10.20725543 38.75 13 C39.62140625 13.69867188 40.4928125 14.39734375 41.390625 15.1171875 C43.5 17.125 43.5 17.125 44.5 20.125 C43.06640625 22.16796875 43.06640625 22.16796875 41.0625 24.3125 C40.40378906 25.02792969 39.74507813 25.74335938 39.06640625 26.48046875 C38.54949219 27.02316406 38.03257812 27.56585938 37.5 28.125 C38.70689255 31.22843799 40.00596946 34.13693893 41.5 37.125 C47.44 36.63 47.44 36.63 53.5 36.125 C56.10822848 42.24866686 57.03856207 47.48029381 57.5 54.125 C53.87 55.115 50.24 56.105 46.5 57.125 C46.17 60.095 45.84 63.065 45.5 66.125 C46.263125 66.351875 47.02625 66.57875 47.8125 66.8125 C51.16154755 68.44808136 52.09553196 69.69185591 53.5 73.125 C53.42809193 76.64849544 52.87231132 78.5590868 50.9375 81.5 C47.35752867 83.88664755 44.74852974 83.40823532 40.5 83.125 C39.42474806 85.77728812 38.40543849 88.40868454 37.5 91.125 C38.93058496 93.26446938 38.93058496 93.26446938 40.9375 95.3125 C41.92556641 96.38564453 41.92556641 96.38564453 42.93359375 97.48046875 C43.45050781 98.02316406 43.96742188 98.56585938 44.5 99.125 C42.97599659 103.13790838 40.51270584 104.87032242 37.0625 107.3125 C36.09441406 108.00730469 35.12632812 108.70210938 34.12890625 109.41796875 C31.5 111.125 31.5 111.125 28.5 112.125 C27.49421411 110.83783353 26.49553202 109.54511342 25.5 108.25 C24.943125 107.53070313 24.38625 106.81140625 23.8125 106.0703125 C22.5 104.125 22.5 104.125 22.5 102.125 C14.51785828 104.22170417 14.51785828 104.22170417 8.953125 109.80078125 C7.96588144 112.71064239 7.96588144 112.71064239 7.34375 115.6015625 C6.31850432 118.66780652 5.30958862 119.58592388 2.5 121.125 C-1.61636832 121.125 -3.71186962 120.82792709 -6.8125 118.0625 C-8.39422779 115.30912199 -8.70450808 114.06761559 -9.125 111.0625 C-9.45320077 108.968533 -9.45320077 108.968533 -10.5 107.125 C-13.63943085 105.10875122 -16.84837293 103.8766315 -20.5 103.125 C-24.03233755 104.30244585 -24.36308075 105.08105641 -26.1875 108.1875 C-26.62449219 108.92097656 -27.06148438 109.65445313 -27.51171875 110.41015625 C-27.83785156 110.97605469 -28.16398437 111.54195313 -28.5 112.125 C-32.21424647 110.79707471 -35.07638521 109.16916905 -38.1875 106.75 C-38.95449219 106.16476562 -39.72148437 105.57953125 -40.51171875 104.9765625 C-42.5 103.125 -42.5 103.125 -44.5 99.125 C-42.19 96.485 -39.88 93.845 -37.5 91.125 C-39.10744996 87.34980079 -39.10744996 87.34980079 -41.5 84.125 C-43.81277699 83.30258652 -46.01658646 82.94474951 -48.4375 82.5625 C-50.5 82.125 -50.5 82.125 -52.5625 80.4375 C-53.9478179 77.02038253 -54.07667108 74.77725015 -53.5 71.125 C-51.99667641 69.90954689 -50.48696795 68.69721642 -48.90234375 67.58984375 C-46.14742913 64.71214742 -46.61356213 60.92933143 -46.5 57.125 C-51.945 55.64 -51.945 55.64 -57.5 54.125 C-57.86517527 47.55184522 -56.63619737 42.33014474 -54.5 36.125 C-50.36645178 36.60724729 -46.54458076 37.11385481 -42.5 38.125 C-40.85 35.155 -39.2 32.185 -37.5 29.125 C-38.01691406 28.59390625 -38.53382813 28.0628125 -39.06640625 27.515625 C-39.72511719 26.80921875 -40.38382813 26.1028125 -41.0625 25.375 C-41.72378906 24.67890625 -42.38507813 23.9828125 -43.06640625 23.265625 C-44.5 21.125 -44.5 21.125 -44.453125 19.0859375 C-43.24568173 16.60177143 -41.79723385 15.27702999 -39.6875 13.5 C-39.00042969 12.90960938 -38.31335938 12.31921875 -37.60546875 11.7109375 C-35.00795308 9.75436726 -32.81398755 8.125 -29.5 8.125 C-26.38190296 9.68404852 -25.1936016 12.16119719 -23.5 15.125 C-23.5 15.785 -23.5 16.445 -23.5 17.125 C-22.51 16.650625 -21.52 16.17625 -20.5 15.6875 C-16.50810505 13.95686252 -12.81885418 13.50384686 -8.5 13.125 C-8.995 12.135 -8.995 12.135 -9.5 11.125 C-9.56996014 9.41797265 -9.58440154 7.70831997 -9.5625 6 C-9.55347656 5.08992188 -9.54445313 4.17984375 -9.53515625 3.2421875 C-9.52355469 2.54351562 -9.51195312 1.84484375 -9.5 1.125 C-6.13849548 0.00449849 -3.53713274 -0.00796652 0 0 Z M-22.5 41.125 C-27.59590833 47.45138376 -30.04440416 54.52557417 -29.80859375 62.66796875 C-28.73973905 71.17821696 -25.11077426 78.61393866 -18.5 84.125 C-11.11336631 88.68900633 -4.19858194 91.0778963 4.5 90.125 C13.37307162 87.84844685 20.1291273 82.83851568 25.375 75.375 C29.40550586 68.29770497 30.34759256 60.40753701 28.38671875 52.5390625 C25.22793658 43.93938239 19.13888703 37.71207161 11.25 33.3125 C-1.73953852 29.19914614 -12.74727599 31.46864678 -22.5 41.125 Z " fill="#000000" transform="translate(295.5,252.875)"/>
<path d="M0 0 C4.80974061 2.26409741 9.21312103 5.209625 13.7109375 8.02734375 C16.95082847 10.0526322 16.95082847 10.0526322 20.3828125 11.55078125 C21.24648437 12.02902344 22.11015625 12.50726563 23 13 C23.35840222 15.32961443 23.68848712 17.66365343 24 20 C25.38986479 21.94995956 26.94384408 23.63187656 28.56640625 25.390625 C32.69563307 30.02616029 32.22973507 35.14175569 32 41 C34.28805748 42.20731543 36.06126775 43.01167005 38.625 43.5 C41 44 41 44 43 46 C43.375 48.4375 43.375 48.4375 43 51 C41.1875 52.8125 41.1875 52.8125 39 54 C38.01 54 37.02 54 36 54 C36.495 57.465 36.495 57.465 37 61 C37.66 61 38.32 61 39 61 C38 63 37 65 36 67 C33.77888714 66.61704951 32.19619717 66.13079812 30.3125 64.875 C28.27993775 61.97133964 28.17546941 59.50938815 28 56 C28.47577753 53.54974574 29.17806148 51.36911692 30 49 C27.8900216 46.74409751 27.8900216 46.74409751 25 45 C22.04199472 45.70768358 22.04199472 45.70768358 19 47 C15.375 47.5 15.375 47.5 12 47 C9.8125 44.1875 9.8125 44.1875 8 41 C7.2575 40.484375 6.515 39.96875 5.75 39.4375 C5.1725 38.963125 4.595 38.48875 4 38 C3.75 35.3125 3.75 35.3125 4 33 C4.94875 32.566875 5.8975 32.13375 6.875 31.6875 C10.20041937 30.20697799 10.20041937 30.20697799 12 27 C11.68269476 23.36060068 11.68269476 23.36060068 11 20 C10.38511719 19.98582031 9.77023438 19.97164063 9.13671875 19.95703125 C2.630394 19.57308545 2.630394 19.57308545 -0.0625 17.125 C-1.72790227 11.57365911 -1.83779916 5.51339749 0 0 Z " fill="#000000" transform="translate(202,268)"/>
<path d="M0 0 C0.99 0.33 1.98 0.66 3 1 C4.18933594 7.99272215 3.99415978 12.53261488 1 19 C-0.60875 18.87625 -0.60875 18.87625 -2.25 18.75 C-5.98241162 18.68299274 -5.98241162 18.68299274 -8.5 20.6875 C-10.21533579 22.89042248 -10.21533579 22.89042248 -10.0625 25.5 C-8.67614083 28.76202159 -6.92316154 30.05122564 -4 32 C-3.01 32.33 -2.02 32.66 -1 33 C-1.37596209 35.78211944 -1.67318459 37.5879284 -3.4375 39.8125 C-5 41 -5 41 -7 41 C-7.144375 41.804375 -7.28875 42.60875 -7.4375 43.4375 C-8 46 -8 46 -9 47 C-16.45864662 47.36090226 -16.45864662 47.36090226 -20 45 C-22.48522925 45.23299024 -23.7913578 45.84891427 -25.8125 47.3125 C-26.204375 47.869375 -26.59625 48.42625 -27 49 C-26.7018576 50.34164079 -26.36242724 51.6742793 -26 53 C-25.48068197 57.75899637 -25.32761491 60.97041032 -28 65.0625 C-28.66 65.701875 -29.32 66.34125 -30 67 C-32.88575819 66.60196439 -33.82189513 66.20990931 -35.75 63.9375 C-36.36875 62.9784375 -36.36875 62.9784375 -37 62 C-36.2884375 61.4121875 -36.2884375 61.4121875 -35.5625 60.8125 C-33.64820367 58.59191626 -33.38733012 56.86624291 -33 54 C-34.4540625 53.814375 -34.4540625 53.814375 -35.9375 53.625 C-36.948125 53.41875 -37.95875 53.2125 -39 53 C-40.39431504 50.21136993 -40.25660094 48.07921132 -40 45 C-36.68704675 42.7913645 -35.77546697 43 -32 43 C-29.4377076 40.4377076 -29.75117219 39.30223252 -29.625 35.75 C-29.25988432 30.76877898 -28.30506745 27.88831464 -25 24 C-24.443125 23.54625 -23.88625 23.0925 -23.3125 22.625 C-21.6072267 20.85472378 -21.6072267 20.85472378 -21.9375 17.1953125 C-21.6375455 14.51290529 -21.43123582 13.38464584 -19.39331055 11.56689453 C-17.20190001 10.32108734 -14.99577466 9.26283374 -12.6875 8.25 C-5.67545966 5.09611707 -5.67545966 5.09611707 0 0 Z " fill="#000000" transform="translate(386,268)"/>
<path d="M0 0 C4.60512277 4.15248249 7.59306969 8.56948288 8.3359375 14.83203125 C8.43668489 22.51905689 7.69813136 27.98846768 2.38671875 33.75 C-3.05179773 38.76645866 -8.348904 40.46429485 -15.703125 40.2421875 C-22.32892376 39.54354885 -27.02950098 36.91273577 -31.51953125 32.01171875 C-35.78713648 26.21273011 -36.54558803 20.29230457 -35.49609375 13.28125 C-33.94677576 6.15682711 -29.73006174 2.16033219 -24 -2 C-16.00873079 -5.9106211 -7.35349371 -4.72724595 0 0 Z M-20 14 C-21.24830727 17.16237842 -21.16531803 18.54537542 -20 21.75 C-18.08096477 24.30002648 -18.08096477 24.30002648 -14.5625 25.0625 C-11.01746545 25.31201155 -11.01746545 25.31201155 -8.5625 23.4375 C-6.55456974 20.30512879 -6.39024618 18.65852292 -7 15 C-8.98758966 12.20265158 -10.10165277 11.15721076 -13.5 10.5625 C-16.52374659 11.09165565 -17.86760009 11.79144296 -20 14 Z " fill="#000000" transform="translate(309,295)"/>
<path d="M0 0 C1.98046875 0.80078125 1.98046875 0.80078125 2.9296875 2.5078125 C3.29513672 3.55001953 3.29513672 3.55001953 3.66796875 4.61328125 C6.04544443 9.91390781 6.04544443 9.91390781 14.98046875 12.80078125 C14.98046875 38.21078125 14.98046875 63.62078125 14.98046875 89.80078125 C15.81925095 80.10373758 15.81925095 80.10373758 16.09399414 70.47167969 C16.09391861 69.17123718 16.09384308 67.87079468 16.09376526 66.53094482 C16.08866217 65.15734822 16.08344624 63.78375203 16.078125 62.41015625 C16.07625457 60.96999155 16.07483363 59.52982621 16.07383728 58.08966064 C16.07006127 54.34151379 16.06027441 50.59340711 16.0491333 46.84527588 C16.03881206 43.00362694 16.03431696 39.16197137 16.02929688 35.3203125 C16.01864654 27.81378398 16.00163101 20.30728829 15.98046875 12.80078125 C16.53621582 12.53450928 17.09196289 12.2682373 17.66455078 11.99389648 C18.39013184 11.64012939 19.11571289 11.2863623 19.86328125 10.921875 C20.58402832 10.57310303 21.30477539 10.22433105 22.04736328 9.86499023 C26.16644386 7.59736303 27.44161064 4.06223448 28.98046875 -0.19921875 C30.96046875 0.13078125 32.94046875 0.46078125 34.98046875 0.80078125 C35.14973638 5.20173961 34.98367027 7.92792498 32.98046875 11.80078125 C33.98906284 19.52231309 41.38817469 25.5418355 47.19042969 30.07177734 C49.76262074 32.01740903 52.35870472 33.92238324 54.98046875 35.80078125 C53.49042759 39.45667459 51.45177439 41.26470889 48.41796875 43.73828125 C42.3774842 48.9962285 38.26111433 55.11098006 33.98046875 61.80078125 C29.83061639 59.98250212 28.29095282 57.7047026 25.98046875 53.80078125 C25.65046875 52.81078125 25.32046875 51.82078125 24.98046875 50.80078125 C24.47200863 56.13961252 25.69268463 58.62440683 28.98046875 62.80078125 C29.88796875 63.58453125 30.79546875 64.36828125 31.73046875 65.17578125 C34.30143422 68.17524096 34.29713029 69.57236636 34.18066406 73.40966797 C33.79107112 78.0629281 32.90729648 82.60352705 31.98046875 87.17578125 C31.65369141 88.79661621 31.65369141 88.79661621 31.3203125 90.45019531 C27.77527888 107.26004737 22.65154188 123.95698257 15.98046875 139.80078125 C12.80232742 138.21171058 12.66455752 135.52043367 11.5546875 132.22265625 C11.32662415 131.54829529 11.09856079 130.87393433 10.86358643 130.17913818 C10.12199585 127.97279108 9.39365479 125.76240718 8.66796875 123.55078125 C8.41991486 122.80014404 8.17186096 122.04950684 7.91629028 121.27612305 C3.95502457 109.25519835 0.32109737 97.25608141 -2.01953125 84.80078125 C-2.25784668 83.59421875 -2.25784668 83.59421875 -2.50097656 82.36328125 C-2.94803606 80.01410125 -3.33919139 77.66353334 -3.70703125 75.30078125 C-3.83408447 74.61177734 -3.9611377 73.92277344 -4.09204102 73.21289062 C-4.34375 71.26953125 -4.34375 71.26953125 -4.01953125 67.80078125 C-1.1875 65.0546875 -1.1875 65.0546875 1.98046875 62.80078125 C4.73711489 59.25546897 5.98046875 56.37983519 5.98046875 51.80078125 C5.40039062 52.7753125 5.40039062 52.7753125 4.80859375 53.76953125 C4.2878125 54.60484375 3.76703125 55.44015625 3.23046875 56.30078125 C2.72 57.13609375 2.20953125 57.97140625 1.68359375 58.83203125 C0.84054687 59.8065625 0.84054687 59.8065625 -0.01953125 60.80078125 C-1.33953125 60.80078125 -2.65953125 60.80078125 -4.01953125 60.80078125 C-5.80859375 58.74609375 -5.80859375 58.74609375 -7.64453125 55.92578125 C-11.83383071 49.8422582 -16.68544456 44.87905917 -22.01953125 39.80078125 C-23.02280455 38.8040653 -24.02437378 37.80560044 -25.01953125 36.80078125 C-24.18550781 36.12273437 -23.35148437 35.4446875 -22.4921875 34.74609375 C-10.17923166 25.34797589 -10.17923166 25.34797589 -2.01953125 12.80078125 C-2.51453125 11.68703125 -3.00953125 10.57328125 -3.51953125 9.42578125 C-5.03192251 5.7708357 -5.40590216 4.4266744 -4.01953125 0.80078125 C-2.01953125 -0.19921875 -2.01953125 -0.19921875 0 0 Z " fill="#000000" transform="translate(280.01953125,366.19921875)"/>
</svg>
