<?xml version="1.0" encoding="UTF-8"?>
<svg version="1.1" xmlns="http://www.w3.org/2000/svg" width="591" height="591">
<path d="M0 0 C7.20617462 3.07504865 11.0779867 11.06021842 14 18 C17.17382044 26.72800622 16.6761194 33.61844776 13 42 C12.505 42.99 12.505 42.99 12 44 C11.77989185 45.58199344 11.6090237 47.17100728 11.46484375 48.76171875 C11.37783203 49.71626953 11.29082031 50.67082031 11.20117188 51.65429688 C11.11416016 52.65525391 11.02714844 53.65621094 10.9375 54.6875 C10.84662109 55.66912109 10.75574219 56.65074219 10.66210938 57.66210938 C10.49113797 59.57878879 10.33489035 61.49684804 10.19458008 63.41601562 C10.033424 65.55613597 9.80994834 67.69145973 9.5703125 69.82421875 C10.18944155 74.4001453 12.54865265 76.19389707 15.9375 79.125 C21.60340187 84.13689491 21.60340187 84.13689491 23.15234375 87.5078125 C22.92257753 91.26655214 21.07358396 92.96238134 18.625 95.75 C17.37589844 97.19632813 17.37589844 97.19632813 16.1015625 98.671875 C14 101 14 101 13 102 C12.30594745 111.36970939 14.82422702 121.10601531 20 129 C23.18909456 132.45485244 26.13747159 133.80315829 30.8828125 134.15234375 C34.86087198 133.86609962 37.887248 132.45954066 41 130 C43.95891978 126.33693222 45.9192096 122.19907253 48 118 C52.99611116 120.49805558 55.70087326 123.56502082 57.69140625 128.828125 C59.74252622 136.34411704 59.17045933 144.28198043 59 152 C59.53109375 152.26554688 60.0621875 152.53109375 60.609375 152.8046875 C62.73958333 153.86979167 64.86979167 154.93489583 67 156 C67.72703125 156.31195313 68.4540625 156.62390625 69.203125 156.9453125 C71 158 71 158 72 161 C72.51469009 167.30495366 72.62069804 172.56895293 69 178 C67 180 67 180 65.125 180.23046875 C64.42375 180.21628906 63.7225 180.20210937 63 180.1875 C61.948125 180.17783203 61.948125 180.17783203 60.875 180.16796875 C59 180 59 180 57 179 C57.3125 176.625 57.3125 176.625 58 174 C58.99 173.34 59.98 172.68 61 172 C60.05125 171.195625 59.1025 170.39125 58.125 169.5625 C57.59132813 169.11003906 57.05765625 168.65757812 56.5078125 168.19140625 C53.0876015 165.48890792 50.28151818 165.64320682 46 166 C36.70776831 170.64611584 29.79457209 180.91644809 26.125 190.4375 C24.76205251 194.93133257 24.35568848 199.5253162 26 204 C29.01545092 206.98720314 32.1776678 207.75794591 36.25 208.6875 C37.32765625 208.93886719 38.4053125 209.19023437 39.515625 209.44921875 C40.33546875 209.63097656 41.1553125 209.81273437 42 210 C39.88559207 217.60195066 37.16466709 224.860966 34.25 232.1875 C30.85392974 240.87187908 27.70949154 249.57622032 25 258.5 C24.72188477 259.41160889 24.44376953 260.32321777 24.15722656 261.26245117 C20.96395458 272.0551922 19.63689982 281.90072549 19.6875 293.1875 C19.69241455 294.47454834 19.6973291 295.76159668 19.70239258 297.08764648 C19.86697681 310.4240337 21.41324861 323.11399253 28 335 C29.10021484 335.93779297 29.10021484 335.93779297 30.22265625 336.89453125 C32 339 32 339 31.77075195 342.16748047 C30.984301 346.07806235 29.84965989 349.70651128 28.4453125 353.42578125 C28.18784744 354.12291733 27.93038239 354.82005341 27.66511536 355.53831482 C26.82652014 357.79949703 25.97661828 360.05619327 25.125 362.3125 C24.69164841 363.46993713 24.69164841 363.46993713 24.24954224 364.65075684 C20.33604661 375.09773269 16.27304383 385.47051705 11.9375 395.75 C11.49744629 396.79454346 11.05739258 397.83908691 10.60400391 398.9152832 C8.35464777 404.15378951 5.95075648 409.12068905 3 414 C1.23583984 413.92773438 1.23583984 413.92773438 -1 413 C-2.46907816 410.71536319 -3.62878528 408.59864765 -4.7734375 406.15625 C-5.11684174 405.44537231 -5.46024597 404.73449463 -5.8140564 404.0020752 C-9.90300963 395.36302352 -13.26692027 386.44153977 -16.625 377.5 C-17.25966034 375.8291396 -17.89507533 374.15856566 -18.53125 372.48828125 C-19.77120729 369.23038871 -20.99921567 365.96834691 -22.21972656 362.703125 C-23.39448551 359.57086593 -24.61151089 356.4604437 -25.86621094 353.359375 C-26.15636078 352.62843628 -26.44651062 351.89749756 -26.74545288 351.14440918 C-27.29054148 349.77393915 -27.84735488 348.4080523 -28.4178772 347.04797363 C-30.18334154 342.55541702 -30.18334154 342.55541702 -29.23632812 339.68652344 C-28.82833984 339.1299707 -28.42035156 338.57341797 -28 338 C-16.03573522 320.36125535 -14.34087168 295.84969454 -17.92382812 275.19946289 C-22.49738568 252.90336981 -31.43227879 230.98997683 -40 210 C-39.18015625 209.80664062 -38.3603125 209.61328125 -37.515625 209.4140625 C-36.43796875 209.15367187 -35.3603125 208.89328125 -34.25 208.625 C-33.18265625 208.36976563 -32.1153125 208.11453125 -31.015625 207.8515625 C-28.40383496 207.1140363 -26.27362218 206.46685302 -24 205 C-21.60580563 199.55864916 -21.94818056 195.42897679 -24 190 C-27.48126809 181.48557322 -32.65892152 172.56439405 -40.4375 167.3125 C-44.98519773 165.63703241 -48.36728597 165.62317471 -53 167 C-56.04753335 168.74944076 -56.04753335 168.74944076 -58 171 C-58 171.66 -58 172.32 -58 173 C-56.68 173.66 -55.36 174.32 -54 175 C-54 176.32 -54 177.64 -54 179 C-57.59264452 180.19754817 -60.22717474 180.33094958 -64 180 C-66.90717073 177.78136971 -67.83981643 176.48055071 -69 173 C-69.09511161 170.64738643 -69.12986976 168.29203033 -69.125 165.9375 C-69.12757813 164.68839844 -69.13015625 163.43929687 -69.1328125 162.15234375 C-69 159 -69 159 -68 157 C-66.38158416 156.26928667 -64.72935426 155.6122162 -63.0625 155 C-59.16740943 153.58729571 -59.16740943 153.58729571 -56 151 C-55.78853441 149.11042399 -55.78853441 149.11042399 -55.9453125 146.96484375 C-55.97278564 146.15934082 -56.00025879 145.35383789 -56.02856445 144.52392578 C-56.07630005 143.24364502 -56.07630005 143.24364502 -56.125 141.9375 C-56.28586665 133.09230924 -55.56619025 126.64309181 -49.375 119.9375 C-47 118 -47 118 -45 118 C-44.56300781 118.99580078 -44.56300781 118.99580078 -44.1171875 120.01171875 C-41.47978685 125.69291197 -39.44647903 129.75306058 -34 133 C-29.3739249 134.39780687 -26.17301708 134.5413925 -21.75 132.5 C-13.25778945 124.77980859 -11.17898018 115.37316537 -9.6171875 104.28125 C-10.31350249 100.13178109 -13.87779185 98.10675193 -16.93359375 95.4765625 C-19.64583609 92.22597338 -20.09796368 90.21710317 -20 86 C-18.015625 83.3046875 -18.015625 83.3046875 -15.25 80.875 C-11.78011786 77.77193397 -9.03618278 75.21475596 -7 71 C-6.81068027 67.91514233 -6.81068027 67.91514233 -7.2578125 64.6328125 C-7.38929688 63.41722656 -7.52078125 62.20164063 -7.65625 60.94921875 C-7.8109375 59.68722656 -7.965625 58.42523438 -8.125 57.125 C-8.25648438 55.87074219 -8.38796875 54.61648437 -8.5234375 53.32421875 C-9.25406286 46.93124684 -10.28499077 41.79853772 -13 36 C-15.00622677 21.30574447 -8.4952833 11.24301587 0 0 Z M1 121 C-1.18650594 124.21922047 -3.07774503 127.61841844 -5 131 C-5.58265625 132.01964844 -6.1653125 133.03929687 -6.765625 134.08984375 C-10.03742708 140.1007502 -10.03742708 140.1007502 -11.125 146.75 C-10.2234209 149.35456184 -9.29936253 151.27242198 -7.95785522 153.62745667 C-5.64355158 158.223941 -5.45951217 162.13323516 -5.54931641 167.21069336 C-5.54861649 168.09473343 -5.54791656 168.9787735 -5.54719543 169.88960266 C-5.54790903 171.79601728 -5.5575481 173.70244567 -5.57527542 175.608778 C-5.60193819 178.63244877 -5.60183033 181.65507975 -5.59457397 184.67884827 C-5.57896584 193.27068667 -5.61324935 201.862157 -5.66015625 210.45385742 C-5.68707713 215.72172821 -5.68482876 220.98897445 -5.66569138 226.25686836 C-5.66461315 228.25624863 -5.67498815 230.25567079 -5.69731522 232.25492668 C-6.25137343 245.91680798 -6.25137343 245.91680798 -0.28915405 257.75978088 C0.3489772 258.37368935 0.3489772 258.37368935 1 259 C4.69345218 255.86056565 7.52719749 251.72969331 8.35894585 246.92765045 C8.49413454 244.58724683 8.5034852 242.27859129 8.46655273 239.93457031 C8.46885895 239.05388885 8.47116516 238.1732074 8.47354126 237.26583862 C8.47616106 235.36324535 8.46977565 233.46062251 8.45528984 231.55808258 C8.43330265 228.5381421 8.43715387 225.51919789 8.44776917 222.49920654 C8.46938199 214.99771916 8.45215119 207.4964553 8.42626953 199.99499512 C8.40478744 193.65372086 8.40303752 187.31308876 8.42918587 180.97182465 C8.43350781 178.01198154 8.40898124 175.05328152 8.38365173 172.09356689 C8.37533755 155.85383445 8.37533755 155.85383445 12.96202087 147.9694519 C14.28434763 145.91249467 14.28434763 145.91249467 13.6328125 142.9296875 C13.09398437 141.96289062 12.55515625 140.99609375 12 140 C11.6297168 139.26297852 11.25943359 138.52595703 10.87792969 137.76660156 C9.58566393 135.1950828 8.23781685 132.65976299 6.875 130.125 C6.17310547 128.80628906 6.17310547 128.80628906 5.45703125 127.4609375 C4.3087907 125.30505729 3.15636097 123.15153223 2 121 C1.67 121 1.34 121 1 121 Z " fill="#000000" transform="translate(294,88)"/>
<path d="M0 0 C15.89779984 0.70344247 31.10262773 7.28062766 42 19 C46.13224406 25.58576397 47.00607372 32.79058438 45.5390625 40.38671875 C44.27609587 45.11912902 42.55061319 48.89653555 39.875 53 C35.80842229 59.4640377 35.32446066 65.38986412 36.75 72.8125 C37.43609421 75.5098841 38.05955675 77.08933512 39.625 79.4375 C41.7772201 83.44845565 41.23387149 87.53911779 41 92 C40.02160156 92.34611328 40.02160156 92.34611328 39.0234375 92.69921875 C32.88871321 94.98843003 27.80221026 97.17372619 23.82421875 102.60546875 C22.77047129 105.66682986 23.00103977 108.19175269 23.18017578 111.39794922 C23.74441915 121.69382919 23.74441915 121.69382919 21.51953125 125.59765625 C19.625 127.375 19.625 127.375 17.7265625 128.7109375 C15.68415005 130.23581557 14.9786224 131.67700744 14 134 C13.34 134 12.68 134 12 134 C11.72027344 133.40832031 11.44054687 132.81664062 11.15234375 132.20703125 C7.95055157 125.89610326 4.77411932 121.82145115 -1.9453125 119.2578125 C-9.89115582 116.9831201 -17.92364371 118.07320502 -26 119 C-23.86026981 116.86026981 -21.72196818 114.74282057 -19.5 112.6875 C-12.35605911 105.00776355 -10.78049563 96.20806121 -10 86 C-5.19163197 85.65654514 -2.1639037 85.65568302 2.0625 88.0625 C5.08581155 89.72561834 6.1049423 90.00174904 9.75 90.0625 C13.77559984 88.74643852 15.01245896 87.73657716 17 84 C17.56337165 80.40583148 17.35300014 77.11783376 16.25 73.625 C14.59474722 71.47317138 13.61360243 70.82534814 11 70 C6.36431042 69.77925288 2.53513467 70.09158617 -2 71 C-14.78419404 72.45511152 -27.52060409 67.10270167 -38 60 C-38.66 59.01 -39.32 58.02 -40 57 C-38.93523437 57.02320313 -37.87046875 57.04640625 -36.7734375 57.0703125 C-21.14482823 57.31122639 -4.31235899 56.9029625 8.5625 46.8125 C14.25078924 41.23244459 16.17753834 34.70255384 16.5625 26.875 C16.34856326 21.13559371 14.90721318 17.22346281 11 13 C8.26346624 10.87779014 5.9472075 9.33280264 2.6875 8.1875 C1 7 1 7 0.25 3.375 C0.1675 2.26125 0.085 1.1475 0 0 Z " fill="#000000" transform="translate(204,111)"/>
<path d="M0 0 C0.26390743 4.3984572 0.26390743 4.3984572 -1 7 C-3.375 8.5546875 -3.375 8.5546875 -6.3125 10 C-11.79988449 12.70454748 -13.88313228 14.22672441 -16 20 C-18.01493745 28.47416958 -16.44892958 36.14156935 -12.1875 43.6875 C-5.36324974 52.25325032 7.24434987 55.15897987 17.578125 56.578125 C24.70312514 57.36552394 31.84675796 57.24172407 39 57 C37.75233294 60.74300117 36.13333343 61.24220876 32.73120117 62.95703125 C32.01552979 63.30121094 31.2998584 63.64539063 30.5625 64 C29.83329346 64.35449219 29.10408691 64.70898438 28.3527832 65.07421875 C17.46379207 70.26485092 8.01651521 72.51553459 -4 70 C-8.51573631 69.40132284 -11.11566395 69.3790832 -14.9375 72.0625 C-17.40886708 75.58232584 -17.92481716 77.71457806 -18 82 C-17.53761191 85.30675012 -17.53761191 85.30675012 -16 88 C-12.38217294 90.4473536 -9.05086711 90.12625206 -4.90625 89.4921875 C-2.80250071 89.05106994 -2.80250071 89.05106994 -0.5 87.4375 C3.09141103 85.37243866 5.88161932 85.90373704 10 86 C10.09796875 87.0621875 10.1959375 88.124375 10.296875 89.21875 C11.32389886 99.34175795 12.20534885 106.83052769 20.125 113.875 C21.41359511 114.92046395 22.70480552 115.96272304 24 117 C24.66 117.66 25.32 118.32 26 119 C24.81664062 118.89300781 23.63328125 118.78601563 22.4140625 118.67578125 C7.40471896 117.41225279 7.40471896 117.41225279 -5.875 123.75 C-9.09642125 126.78102992 -11.03045568 130.06091136 -13 134 C-14.35921586 132.69306167 -15.68409365 131.35053546 -17 130 C-17.52851563 129.58363281 -18.05703125 129.16726562 -18.6015625 128.73828125 C-21.93051672 125.73275623 -22.94565163 123.83714017 -23.2421875 119.26953125 C-23.21904887 117.86683439 -23.1795022 116.46432859 -23.125 115.0625 C-22.77334268 106.34642418 -22.77334268 106.34642418 -27 99 C-31.51458953 95.21009512 -36.30868722 93.30425918 -42 92 C-42.44895605 86.43294504 -42.32902852 83.1111476 -39.5 78.25 C-36.23559808 72.34078519 -36.17644898 66.61441506 -37 60 C-38.34094859 55.93506167 -40.40730791 52.68488124 -42.78125 49.16015625 C-46.9499235 41.7714497 -47.16211711 33.00075016 -45.5703125 24.78125 C-42.02573425 15.15400043 -31.52806913 9.47820982 -23 5 C-15.56247905 1.93334444 -8.1031207 -0.23832708 0 0 Z " fill="#000000" transform="translate(387,111)"/>
<path d="M0 0 C6.15278219 2.98316712 11.09349133 8.45637518 13.875 14.6875 C17.26742234 24.6762991 16.62712218 34.12026554 13 44 C12.31009018 45.31305417 11.58450543 46.60847151 10.8125 47.875 C8.9715742 51.04901001 8.22917529 52.43493574 9 56 C13.50557886 61.84056518 20.16321105 62.59987329 27 64 C27.23953688 67.43336197 27.36859612 69.41638948 25.5 72.375 C23.31491954 76.1988908 23.58240822 78.61528629 24 83 C25.37926773 85.34261608 25.37926773 85.34261608 27 87 C27 87.66 27 88.32 27 89 C27.78375 89.309375 28.5675 89.61875 29.375 89.9375 C32 91 32 91 34 92 C36.04055005 92.07065617 38.08334257 92.08421976 40.125 92.0625 C41.22070312 92.05347656 42.31640625 92.04445313 43.4453125 92.03515625 C44.28835937 92.02355469 45.13140625 92.01195312 46 92 C47.82136057 87.94650393 48.58434917 84.06087218 49.3125 79.6875 C51.34368119 68.8914721 56.10918426 62.48542381 65 56 C67.97274669 54.59421316 69.69248533 54 73 54 C72.95359375 55.08796875 72.9071875 56.1759375 72.859375 57.296875 C72.44608465 71.00746922 74.33375272 80.6809233 83.48828125 91.4296875 C85 94 85 94 85.0078125 97.140625 C83.78426815 100.61207642 82.81867616 101.28077615 79.5625 102.875 C78.75941406 103.28492188 77.95632812 103.69484375 77.12890625 104.1171875 C75 105 75 105 73 105 C72.23283149 107.85078091 72.23283149 107.85078091 72 111 C74.09984139 113.72355665 76.75171316 115.03274208 79.75 116.625 C85.4084071 119.93885482 90.48213514 124.57955147 92.66796875 130.9453125 C94.65361162 143.23293776 92.74509214 158.56553153 85.66796875 168.9453125 C81.14055943 174.5224022 77.06837541 177.55747441 70 179 C71.32083266 176.24215033 72.80273458 173.72822354 74.5 171.1875 C79.04838376 163.87520163 79.99453482 156.48462518 79 148 C76.58337195 139.07789556 73.01071594 133.46318776 65.05761719 128.88085938 C56.13674326 124.67207745 46.70874602 125.74328689 37.11401367 126.08203125 C20.99954831 126.59949164 7.15879708 124.03085252 -7.5625 117.25 C-8.94985352 116.63318359 -8.94985352 116.63318359 -10.36523438 116.00390625 C-12.58311117 115.01562954 -14.79414106 114.01474059 -17 113 C-17 110.69 -17 108.38 -17 106 C-16.19175781 105.82984375 -15.38351563 105.6596875 -14.55078125 105.484375 C-6.3517818 103.92455885 -6.3517818 103.92455885 0 99 C2.01341253 92.13071018 0.31856629 87.19653198 -3 81 C-4.75715327 78.38769881 -6.59741388 75.85042354 -8.44921875 73.3046875 C-12.18567235 67.75177157 -12.78547471 61.49980323 -12 55 C-10.36886655 47.53015022 -7.95878441 41.37319392 -3.52734375 35.16015625 C2.28341607 26.94186934 4.17958139 20.08787834 3 10 C2.22626774 6.56656311 1.24758125 3.28975295 0 0 Z " fill="#000000" transform="translate(172,251)"/>
<path d="M0 0 C-0.28875 0.845625 -0.5775 1.69125 -0.875 2.5625 C-1.431875 4.2640625 -1.431875 4.2640625 -2 6 C-2.556875 7.7015625 -2.556875 7.7015625 -3.125 9.4375 C-5.09669718 17.46512424 -3.46406608 23.65745502 0 31 C1.41915355 33.10596316 2.94201716 35.05365909 4.54296875 37.0234375 C11.17260231 46.01698866 11.80981905 56.21001665 11 67 C10.13873879 70.08085438 8.8249013 72.39061369 7 75 C6.4946875 75.75925781 5.989375 76.51851563 5.46875 77.30078125 C4.45349319 78.8211781 3.42127124 80.33047833 2.3671875 81.82421875 C-0.8803464 86.99243699 -2.06192488 91.96782878 -1 98 C2.95634186 103.4690608 7.44827894 104.58843209 13.875 105.625 C14.90625 105.74875 15.9375 105.8725 17 106 C17 108.31 17 110.62 17 113 C-13.57019233 126.33654366 -13.57019233 126.33654366 -29.109375 125.95703125 C-30.68488312 125.93463365 -32.26040487 125.91317927 -33.8359375 125.89257812 C-36.28912124 125.85563848 -38.74159017 125.81270411 -41.19433594 125.75317383 C-53.61118422 125.46665042 -63.79146879 125.93979568 -73.30859375 134.95703125 C-78.32991536 141.02204557 -80.30282761 149.22338697 -80 157 C-78.95244386 163.09992867 -76.65824468 168.12344238 -73.18359375 173.2109375 C-71.94935892 175.07654659 -70.96383751 176.98349203 -70 179 C-79.09656531 176.38399429 -83.92695568 173.18724376 -88.640625 164.8046875 C-92.551514 156.73566939 -93.32412164 148.6024318 -93.5625 139.75 C-93.62123291 138.49050537 -93.62123291 138.49050537 -93.68115234 137.20556641 C-93.70887627 130.52409925 -91.56726273 126.78793371 -87 122 C-84.62109375 119.79296875 -84.62109375 119.79296875 -82.4375 118.1875 C-81.674375 117.62289062 -80.91125 117.05828125 -80.125 116.4765625 C-77.8099799 114.86796398 -75.47265074 113.35596976 -73 112 C-73.0311941 109.13265479 -73.0311941 109.13265479 -74 106 C-76.68460432 103.85231655 -79.06717074 102.32775082 -82.3125 101.1875 C-84 100 -84 100 -85.1875 96.9375 C-84.94557666 91.85710977 -83.06923391 90.15745223 -79.85546875 86.3984375 C-74.02350843 78.85986143 -72.85001038 69.89889978 -72.9375 60.625 C-72.94652344 59.37976563 -72.95554687 58.13453125 -72.96484375 56.8515625 C-72.97644531 55.91054688 -72.98804688 54.96953125 -73 54 C-65.55576116 55.21275295 -59.96834612 59.18979768 -55.31640625 65.05859375 C-51.2311043 71.08350493 -49.74385464 76.55985639 -49.2734375 83.76171875 C-48.90986106 86.73785164 -47.8704133 88.6806875 -46 91 C-42.29018719 92.85490641 -38.04876607 92.4540091 -34 92 C-30.09713154 90.01308515 -27.10654505 87.88047771 -25 84 C-23.69220956 79.46632647 -23.78790494 76.93178333 -26 72.875 C-26.391875 72.25367188 -26.78375 71.63234375 -27.1875 70.9921875 C-28.26374224 68.35332432 -27.74620824 66.69567726 -27 64 C-26.19175781 63.82984375 -25.38351562 63.6596875 -24.55078125 63.484375 C-16.42749778 61.86620769 -16.42749778 61.86620769 -10 57 C-8.83022506 54.65127469 -8.83022506 54.65127469 -9 52 C-10.21620585 48.98352894 -10.21620585 48.98352894 -12 46 C-16.70559027 36.95078794 -17.51890164 27.00890756 -15.3515625 17.0078125 C-13.19945321 11.10330751 -7.22427539 0 0 0 Z " fill="#000000" transform="translate(419,251)"/>
</svg>
