<?xml version="1.0" encoding="UTF-8"?>
<svg version="1.1" xmlns="http://www.w3.org/2000/svg" width="591" height="591">
<path d="M0 0 C1.80073273 3.80827365 3.58898074 7.62230559 5.375 11.4375 C5.65777802 12.03836426 5.94055603 12.63922852 6.23190308 13.25830078 C10.16140796 21.61898429 13.88890726 30.04171609 17.44921875 38.56640625 C18.60657261 41.30682017 19.76582032 44.04642699 20.925354 46.78591919 C21.67488256 48.5748549 22.41404676 50.36817361 23.14202881 52.16598511 C27.49578871 62.90857511 31.73743292 70.94744447 40.59155273 78.57226562 C43.18140362 81.18285632 43.85017971 82.37427398 44 86 C43.0625 88.8125 43.0625 88.8125 42 91 C45.62326739 92.2077558 46.64146369 91.54311128 50 90 C49.5972677 86.57677548 49.23855247 83.55662243 47.875 80.375 C46.76810487 77.37057036 46.85194691 75.98493804 48 73 C56.80147481 65.17131978 66.15655089 63.32491951 77.53125 63.7265625 C80.19064076 63.93619916 82.46933334 64.21239456 85 65 C83.58426179 68.39187279 81.95769034 70.09697541 79 72.25 C77.948125 73.03117187 77.948125 73.03117187 76.875 73.828125 C75 75 75 75 73 75 C73.33 84.24 73.66 93.48 74 103 C66.25 102.9375 66.25 102.9375 63.82910156 102.90991211 C60.3956315 102.89650687 57.26249862 102.89017257 54 104 C52.88214887 106.11785113 52.88214887 106.11785113 52 109 C51.33816334 110.39812995 50.67098056 111.79373523 50 113.1875 C48.10456121 117.37150563 47.18658856 121.40581539 46.4921875 125.93359375 C46 128 46 128 44 130 C39.13537455 130.56549568 36.60557977 129.54987817 32.625 126.8125 C31.67109375 126.17828125 30.7171875 125.5440625 29.734375 124.890625 C28.08695065 123.75154873 26.4484249 122.59921521 24.828125 121.421875 C20.65059773 118.51431602 17.25935522 117.10652435 12.09765625 117.36328125 C8.79694398 118.36517343 7.38681099 120.53501129 5.58203125 123.37109375 C3.3171262 125.70310709 1.15156089 125.69051062 -2 126 C-3.58581978 123.96022417 -5.16868908 121.91826692 -6.75 119.875 C-7.41515625 119.02035156 -7.41515625 119.02035156 -8.09375 118.1484375 C-10.24120541 115.36937756 -12.3002581 112.58596308 -14.203125 109.6328125 C-15.73491335 106.9297657 -15.73491335 106.9297657 -18 106 C-20.37123246 105.76970044 -22.74741943 105.58880058 -25.125 105.4375 C-27.04699219 105.31181641 -27.04699219 105.31181641 -29.0078125 105.18359375 C-29.99523437 105.12300781 -30.98265625 105.06242187 -32 105 C-29.83481296 98.84795412 -26.30131361 95.60248095 -20.45703125 92.765625 C-14.52583989 90.3475913 -9.37083468 88.83896637 -2.9375 88.6875 C-1.89464844 88.65011719 -0.85179687 88.61273438 0.22265625 88.57421875 C3 89 3 89 4.765625 90.75390625 C6.59117555 94.07571501 7.74781577 97.42233077 9 101 C11.31 101 13.62 101 16 101 C16 99.68 16 98.36 16 97 C14.02 96.01 12.04 95.02 10 94 C10.11550846 91.97860193 10.24288941 89.95788094 10.375 87.9375 C10.44460937 86.81214844 10.51421875 85.68679687 10.5859375 84.52734375 C11 81 11 81 12.11495972 77.72784424 C13.13717275 73.42221992 12.7054391 71.07843125 11.57470703 66.82714844 C11.39943481 66.14819519 11.2241626 65.46924194 11.0435791 64.76971436 C10.46493671 62.54485873 9.86151595 60.32754816 9.2578125 58.109375 C8.84972477 56.5575861 8.44332728 55.00535181 8.0385437 53.45269775 C6.97225266 49.379202 5.8852973 45.31151888 4.79321289 41.24487305 C3.2552866 35.5027946 1.74564461 29.75320279 0.23287964 24.00445557 C-0.57220213 20.9452855 -1.38510803 17.88836298 -2.20431519 14.83294678 C-2.57487741 13.44039644 -2.94541312 12.04783904 -3.31591797 10.65527344 C-3.64171844 9.43950623 -3.96751892 8.22373901 -4.30319214 6.97113037 C-5 4 -5 4 -5 1 C-3 0 -3 0 0 0 Z " fill="#000000" transform="translate(225,33)"/>
<path d="M0 0 C39.12726541 1.27771279 73.76449092 20.1893894 101.09155273 47.32641602 C102.23960712 48.74557153 103.37039139 50.17930595 104.46655273 51.63891602 C105.33280273 52.52579102 106.19905273 53.41266602 107.09155273 54.32641602 C112.98504271 53.89170877 118.73769149 52.34307019 124.49389648 51.04516602 C140.93831794 47.75985272 158.46115053 47.92022213 175.15405273 48.63891602 C176.01401855 48.67355957 176.87398438 48.70820313 177.76000977 48.74389648 C188.02853501 49.29324146 197.67845231 50.38011312 204.90405273 58.26391602 C208.75850879 62.67994845 209.43158459 66.26028001 209.29077148 72.13110352 C208.1006609 85.24565545 197.53845118 94.14797301 188.60961914 102.82348633 C185.51308224 105.83781428 182.78053897 108.93371636 180.09155273 112.32641602 C178.93688505 113.42450756 177.74905642 114.48890212 176.52905273 115.51391602 C174.16598821 117.52012734 171.86405168 119.54313503 169.61889648 121.68188477 C162.34744962 128.58922384 153.75808964 136.10423705 144.09155273 139.32641602 C145.97102404 133.4261772 148.09114525 127.71466071 150.56030273 122.03735352 C150.88188354 121.28982819 151.20346436 120.54230286 151.53479004 119.77212524 C152.55027386 117.4137223 153.57079195 115.05753906 154.59155273 112.70141602 C155.27548596 111.11562489 155.95908233 109.52968843 156.64233398 107.94360352 C157.90001961 105.02521887 159.1596644 102.10769805 160.42163086 99.19116211 C160.69941879 98.5464798 160.97720673 97.90179749 161.26341248 97.23757935 C161.82259421 95.94711242 162.38791058 94.65928892 162.95887756 93.37399292 C165.39022151 87.85446547 165.94002228 83.30259279 165.09155273 77.32641602 C162.99374334 73.70950327 162.04281048 72.64350193 158.09155273 71.32641602 C156.63373552 71.24010675 155.17227799 71.2087062 153.71191406 71.21289062 C152.39088432 71.21300392 152.39088432 71.21300392 151.04316711 71.21311951 C150.09620468 71.21828079 149.14924225 71.22344208 148.17358398 71.22875977 C147.20120285 71.23017471 146.22882172 71.23158966 145.22697449 71.23304749 C142.11930269 71.23864785 139.01170278 71.25120039 135.90405273 71.26391602 C133.79793398 71.26893097 131.6918141 71.27349388 129.58569336 71.27758789 C124.4209521 71.2886174 119.2562646 71.30588227 114.09155273 71.32641602 C113.79506836 72.24551758 113.49858398 73.16461914 113.19311523 74.11157227 C112.09155273 77.32641602 112.09155273 77.32641602 110.46655273 80.76391602 C107.67079851 88.2192606 107.67767555 97.8742899 110.65405273 105.26391602 C115.66383218 114.56779213 123.82237326 121.43870328 133.36499023 125.83422852 C136.50022107 128.69995527 136.53457778 129.27890683 136.78295898 133.33422852 C136.77573207 135.3737309 136.73055368 137.41333609 136.65405273 139.45141602 C136.6196106 141.06415405 136.6196106 141.06415405 136.58447266 142.70947266 C135.55071948 175.90553224 123.08374085 207.42349712 101.09155273 232.32641602 C100.65649414 232.83769043 100.22143555 233.34896484 99.77319336 233.87573242 C90.30580259 244.9955768 78.66903602 255.46120247 65.09155273 261.32641602 C64.43155273 261.32641602 63.77155273 261.32641602 63.09155273 261.32641602 C63.09155273 261.98641602 63.09155273 262.64641602 63.09155273 263.32641602 C79.18307861 261.39674853 79.18307861 261.39674853 92.09155273 252.32641602 C92.63682617 253.03217773 92.63682617 253.03217773 93.19311523 253.75219727 C96.41895553 257.74727641 99.04255884 260.77287943 104.09155273 262.32641602 C107.4805637 262.30359439 110.74690224 261.84452905 114.09155273 261.32641602 C115.63273939 261.13501058 117.17436949 260.94711864 118.71655273 260.76391602 C119.83030273 260.61954102 120.94405273 260.47516602 122.09155273 260.32641602 C119.68039037 270.29255378 113.88091945 277.13601365 105.34155273 282.76391602 C97.70369329 286.9701007 88.79062842 288.93332827 80.09155273 288.32641602 C79.94717773 287.19204102 79.80280273 286.05766602 79.65405273 284.88891602 C79.47983796 281.51864401 79.47983796 281.51864401 78.09155273 280.32641602 C72.67171595 279.9338204 72.67171595 279.9338204 67.59155273 281.45141602 C65.86338643 283.31492787 65.86338643 283.31492787 65.52905273 286.20141602 C66.27762682 290.36016096 67.82756681 291.71522727 71.09155273 294.32641602 C75.7709827 296.53414708 80.46194296 297.06968883 85.54467773 297.76391602 C86.38514648 297.94954102 87.22561523 298.13516602 88.09155273 298.32641602 C89.52207275 301.18745604 89.35779727 303.13523154 89.09155273 306.32641602 C88.02871241 308.8433773 86.95330925 311.13152197 85.65405273 313.51391602 C83.09838836 318.29558929 83.09838836 318.29558929 81.09155273 323.32641602 C81.81490663 324.91875038 82.55016277 326.50673495 83.34397888 328.06513977 C89.72419991 340.95321931 89.9715931 354.97012723 90.89001465 369.0715332 C91.0759451 371.83616715 91.28659449 374.59866106 91.4984808 377.36140919 C92.41735612 389.35915824 93.25955579 401.28619718 93.09155273 413.32641602 C90.28756799 410.58281018 88.06772396 407.98401335 85.98999023 404.65063477 C85.42256104 403.74788818 84.85513184 402.8451416 84.27050781 401.91503906 C83.67520264 400.95766846 83.07989746 400.00029785 82.46655273 399.01391602 C81.20870094 397.01312157 79.94958219 395.01312309 78.68920898 393.01391602 C78.0744873 392.0380957 77.45976562 391.06227539 76.82641602 390.05688477 C74.57078732 386.5067931 72.25130851 383.00381994 69.90405273 379.51391602 C69.5122583 378.92465332 69.12046387 378.33539062 68.71679688 377.72827148 C66.61219309 374.5659583 64.46874805 371.4382857 62.27905273 368.33422852 C61.31571655 366.9392326 60.3574279 365.5407384 59.40405273 364.13891602 C58.93008057 363.44233887 58.4561084 362.74576172 57.96777344 362.02807617 C54.93514672 357.31990319 53.24973707 352.9073689 51.79980469 347.51513672 C49.33625179 338.30791726 49.33625179 338.30791726 42.47436523 332.04907227 C39.0942648 330.25958864 35.6456912 328.81840033 32.09936523 327.39672852 C29.85107422 326.42675781 29.85107422 326.42675781 28.09155273 325.32641602 C26.88452148 322.22875977 26.88452148 322.22875977 27.09155273 319.32641602 C29.27905273 316.76391602 29.27905273 316.76391602 32.09155273 314.32641602 C35.68129197 310.12129291 37.88185698 307.3185257 38.46655273 301.76391602 C38.40839601 298.34674557 38.40839601 298.34674557 36.46655273 296.32641602 C32.42171498 294.62332643 29.103098 295.98923426 25.09155273 297.32641602 C24.04580205 301.82314395 24.22550929 304.14562403 26.09155273 308.32641602 C15.22155613 315.54101553 2.6223613 321.09996735 -10.65844727 318.63891602 C-14.752299 317.56464287 -17.64397037 316.01960946 -20.90844727 313.32641602 C-21.23844727 312.33641602 -21.56844727 311.34641602 -21.90844727 310.32641602 C-19.95376974 308.98743202 -17.99508937 307.65512554 -16.03344727 306.32641602 C-14.94290039 305.58391602 -13.85235352 304.84141602 -12.72875977 304.07641602 C-9.90844727 302.32641602 -9.90844727 302.32641602 -7.90844727 302.32641602 C-7.24844727 297.37641602 -6.58844727 292.42641602 -5.90844727 287.32641602 C-4.69157227 287.40891602 -3.47469727 287.49141602 -2.22094727 287.57641602 C5.7642001 287.55118648 14.15526622 285.39484173 20.34155273 280.20141602 C23.05261948 277.65017674 23.05261948 277.65017674 24.09155273 275.32641602 C23.17760742 275.54297852 22.26366211 275.75954102 21.32202148 275.98266602 C2.07463355 280.14786895 -18.76036111 280.02021415 -37.90844727 275.32641602 C-38.56780273 275.16544434 -39.2271582 275.00447266 -39.90649414 274.83862305 C-63.04100535 268.91850845 -81.91223992 256.7262652 -98.90844727 240.32641602 C-99.62516602 239.66125977 -100.34188477 238.99610352 -101.08032227 238.31079102 C-107.10008961 232.57997251 -112.0613523 226.04742594 -116.90844727 219.32641602 C-117.34995117 218.71862305 -117.79145508 218.11083008 -118.24633789 217.48461914 C-119.55607212 215.6571276 -120.8307922 213.80998011 -122.09594727 211.95141602 C-122.49483154 211.39309082 -122.89371582 210.83476562 -123.3046875 210.25952148 C-125.3073289 207.22286595 -125.91435753 205.48251641 -125.77563477 201.81860352 C-124.93316823 198.42596803 -123.94763586 195.1433279 -122.84594727 191.82641602 C-119.95398655 181.86874909 -118.97838982 171.22362261 -123.51391602 161.60766602 C-127.56851414 154.97493408 -132.6366903 149.28898367 -139.90844727 146.32641602 C-152.51987325 147.21986854 -168.10889686 161.93168695 -176.53344727 171.01391602 C-180.656333 175.97730421 -183.51921931 180.50451331 -184.40844727 186.95141602 C-183.67852802 191.87837093 -182.04339846 194.65777108 -178.08422852 197.75219727 C-165.83418001 205.68372954 -151.35332801 210.60674679 -137.3190918 214.24829102 C-131.37075955 215.86760609 -131.37075955 215.86760609 -128.84594727 218.37329102 C-127.90844727 220.32641602 -127.90844727 220.32641602 -127.90844727 222.32641602 C-202.11053234 227.12470327 -202.11053234 227.12470327 -220.65844727 211.88891602 C-224.78733268 206.72780925 -224.44728322 200.58044648 -223.90844727 194.32641602 C-221.62392583 181.93119079 -209.39620723 171.92583039 -199.67407227 165.03344727 C-196.52401462 162.90218967 -193.3308372 160.83931551 -190.13500977 158.77758789 C-187.71010007 157.19714236 -185.30803386 155.58566459 -182.90844727 153.96704102 C-174.3568453 148.2014885 -165.76931588 142.52255556 -156.97094727 137.13891602 C-156.24415771 136.69362549 -155.51736816 136.24833496 -154.76855469 135.78955078 C-144.0921344 129.32641602 -144.0921344 129.32641602 -140.90844727 129.32641602 C-140.94196289 128.21137695 -140.97547852 127.09633789 -141.01000977 125.94750977 C-140.969881 95.49646493 -124.72609405 65.36782515 -104.90844727 43.32641602 C-104.17754883 42.51043945 -103.44665039 41.69446289 -102.69360352 40.85375977 C-100.51737187 38.55595093 -98.27403902 36.42916424 -95.90844727 34.32641602 C-95.39942871 33.87008789 -94.89041016 33.41375977 -94.3659668 32.94360352 C-84.70356168 24.50275209 -84.70356168 24.50275209 -78.99829102 24.14282227 C-76.9562766 24.53583446 -74.92725929 24.9996824 -72.91235352 25.51391602 C-55.9007416 29.56882537 -35.53236136 26.9524533 -20.54125977 18.09204102 C-14.38122114 13.96097653 -8.11168295 9.74045172 -4.28344727 3.26391602 C-1.90844727 0.32641602 -1.90844727 0.32641602 0 0 Z M-75.90844727 60.32641602 C-76.42503906 60.7953125 -76.94163086 61.26420898 -77.47387695 61.74731445 C-97.09097253 79.73450298 -111.81171452 105.9933395 -113.03125 133.05102539 C-113.83731091 163.99984433 -107.61532592 191.45213719 -86.90844727 215.32641602 C-86.24458008 216.1346582 -85.58071289 216.94290039 -84.89672852 217.77563477 C-67.48019249 238.28272062 -41.55168082 251.29964523 -14.90844727 254.32641602 C-0.99562607 255.29869677 12.54454784 254.71821456 26.09155273 251.32641602 C26.14690186 250.67044434 26.20225098 250.01447266 26.25927734 249.33862305 C26.51164672 246.37584328 26.77027089 243.41364228 27.02905273 240.45141602 C27.15957031 238.90260742 27.15957031 238.90260742 27.29272461 237.32250977 C27.37973633 236.33637695 27.46674805 235.35024414 27.55639648 234.33422852 C27.63494873 233.42302246 27.71350098 232.51181641 27.79443359 231.57299805 C28.09155273 229.32641602 28.09155273 229.32641602 29.09155273 227.32641602 C29.72061523 227.90649414 30.34967773 228.48657227 30.99780273 229.08422852 C33.67266277 231.52544114 36.37487446 233.93185817 39.09155273 236.32641602 C39.82889648 236.98770508 40.56624023 237.64899414 41.32592773 238.33032227 C41.99108398 238.8859082 42.65624023 239.44149414 43.34155273 240.01391602 C43.92420898 240.5127832 44.50686523 241.01165039 45.10717773 241.52563477 C47.19187758 242.58151679 47.19187758 242.58151679 49.93530273 241.72485352 C59.84250087 237.33527811 68.33669914 229.74700868 76.09155273 222.32641602 C76.77733398 221.70379883 77.46311523 221.08118164 78.16967773 220.43969727 C97.60569799 202.18973337 108.01632029 174.0263707 109.37670898 147.81469727 C110.33014562 116.49430389 98.5619568 88.47138819 77.37280273 65.68579102 C76.61999023 64.90719727 75.86717773 64.12860352 75.09155273 63.32641602 C74.37999023 62.58907227 73.66842773 61.85172852 72.93530273 61.09204102 C51.6942149 40.57838769 22.36373024 31.71751592 -6.61547852 32.11938477 C-32.12821441 32.87425424 -57.11495287 43.04939956 -75.90844727 60.32641602 Z " fill="#000000" transform="translate(302.908447265625,143.673583984375)"/>
<path d="M0 0 C5.19733874 4.29471969 5.59383355 11.81241443 6.20947266 18.15966797 C7.20238055 32.63721066 4.06148832 44.40317298 -5 56 C-5.41507812 56.57492188 -5.83015625 57.14984375 -6.2578125 57.7421875 C-10.18784599 62.47234757 -15.14361914 63.48552606 -20.92578125 65.0546875 C-24.5942392 66.18272667 -26.9706878 67.70754753 -30 70 C-30.66 70 -31.32 70 -32 70 C-31.641041 64.13700293 -30.24127898 60.18168255 -26 56 C-18.70780856 51 -18.70780856 51 -15 51 C-15 49.35 -15 47.7 -15 46 C-25.24907696 40.38741024 -39.11947293 40.52849551 -50.47265625 42.6484375 C-57.1858591 44.85784603 -63.74230112 48.87661426 -67.21484375 55.21875 C-67.60349609 56.10046875 -67.60349609 56.10046875 -68 57 C-70.31 57 -72.62 57 -75 57 C-77.81694553 52.11276919 -77.66585768 47.50208712 -77 42 C-72.48091264 25.66822848 -60.13500538 15.34552143 -46 7 C-45.34 7 -44.68 7 -44 7 C-42.39274365 10.21451269 -42.94251815 13.43612536 -43 17 C-43.99 17.33 -44.98 17.66 -46 18 C-45.67 19.98 -45.34 21.96 -45 24 C-43.92363281 24.02578125 -42.84726562 24.0515625 -41.73828125 24.078125 C-30.13135352 24.47974418 -18.4100791 25.47193672 -9 33 C-9.01324808 29.89995038 -9.17760874 26.99808459 -10 24 C-12.92321965 21.71760829 -12.92321965 21.71760829 -16 20 C-16.6875 17.390625 -16.6875 17.390625 -17 15 C-16.443125 14.5875 -15.88625 14.175 -15.3125 13.75 C-9.75970316 9.54788347 -4.80295463 5.03852188 0 0 Z " fill="#000000" transform="translate(333,195)"/>
<path d="M0 0 C0.680625 -0.00257813 1.36125 -0.00515625 2.0625 -0.0078125 C4 0.125 4 0.125 7 1.125 C6.96519531 2.38054687 6.93039062 3.63609375 6.89453125 4.9296875 C6.66331465 16.74178856 6.81114686 26.30023405 14 36.125 C18.18996788 48.69490365 13.86307477 62.18172213 8.33203125 73.5546875 C7.89246094 74.40289062 7.45289063 75.25109375 7 76.125 C8.72985242 76.00987847 10.45888751 75.88244323 12.1875 75.75 C13.63189453 75.64558594 13.63189453 75.64558594 15.10546875 75.5390625 C18.01508938 75.12284147 20.32890774 74.32625904 23 73.125 C23 70.155 23 67.185 23 64.125 C24.423125 64.063125 25.84625 64.00125 27.3125 63.9375 C28.51326172 63.88529297 28.51326172 63.88529297 29.73828125 63.83203125 C32.59139864 64.20160604 33.20092722 64.92295923 35 67.125 C35.79956055 69.26977539 35.79956055 69.26977539 36.38671875 71.72265625 C36.60263672 72.60630859 36.81855469 73.48996094 37.04101562 74.40039062 C37.25435547 75.32013672 37.46769531 76.23988281 37.6875 77.1875 C38.02491211 78.57291992 38.02491211 78.57291992 38.36914062 79.98632812 C40 86.77248765 40 86.77248765 40 89.125 C35.6020994 91.59947326 31.88557752 91.46953249 26.9375 91.4375 C26.05642578 91.43331055 25.17535156 91.42912109 24.26757812 91.42480469 C9.31403594 91.17433552 -9.51611429 89.71578814 -21.44921875 79.80859375 C-25.96431608 74.90681302 -26.35939651 68.28285466 -27.39453125 61.95703125 C-28.35809794 57.45002577 -30.12507626 53.32082449 -32 49.125 C-26.69356959 48.61962568 -24.13319688 49.81844249 -20 53.125 C-17.52040625 55.98935829 -16.47010475 58.40389454 -15.5625 62.0625 C-14.39715931 66.1991544 -13.15288633 69.07064137 -10 72.125 C-8.515 72.62 -8.515 72.62 -7 73.125 C-0.86434719 62.96282504 -1.69514065 49.50698522 -3.6953125 38.19140625 C-5.8872666 30.37220866 -9.42816548 23.42207802 -15.4375 17.875 C-17 16.125 -17 16.125 -17 13.75 C-14.90639377 8.25428364 -11.81790694 4.46047404 -7 1.125 C-4.32356043 0.23285348 -2.74615622 -0.01040211 0 0 Z " fill="#000000" transform="translate(353,233.875)"/>
<path d="M0 0 C5.90428108 3.14841583 11.41741321 7.11659793 15.6875 12.3125 C15.6875 16.3125 15.6875 16.3125 14.1875 18.1875 C12.11417872 21.12470514 12.19256085 22.77722035 12.6875 26.3125 C15.09642886 30.93764342 18.29102169 33.90691547 22.296875 37.11328125 C22.75578125 37.50902344 23.2146875 37.90476562 23.6875 38.3125 C23.6875 38.6425 23.6875 38.9725 23.6875 39.3125 C19.11557239 39.67825421 15.6834777 39.80072436 11.5 37.75 C7.70232453 34.45868126 3.9574652 30.85243039 1.6875 26.3125 C1.66183667 24.54173008 1.6417742 22.77087644 1.625 21 C1.3073176 16.96636377 1.3073176 16.96636377 -0.734375 13.6171875 C-2.86954432 12.21432832 -4.93539566 11.2529743 -7.3125 10.3125 C-8.26382813 9.92320312 -9.21515625 9.53390625 -10.1953125 9.1328125 C-16.0651702 6.95601105 -22.02745013 4.99423742 -28.3125 6.3125 C-31.33184244 8.35055615 -32.10855368 9.56469683 -33.0625 13.0625 C-33.145 13.805 -33.2275 14.5475 -33.3125 15.3125 C-35.9525 15.3125 -38.5925 15.3125 -41.3125 15.3125 C-41.56773437 14.20841797 -41.56773437 14.20841797 -41.828125 13.08203125 C-43.70564294 5.51811596 -43.70564294 5.51811596 -48.3125 -0.6875 C-47.5 -3.125 -47.5 -3.125 -46.3125 -5.6875 C-31.76589888 -10.53636704 -13.40319647 -6.09853933 0 0 Z " fill="#000000" transform="translate(258.3125,255.6875)"/>
<path d="M0 0 C1.83884766 -0.03867187 1.83884766 -0.03867187 3.71484375 -0.078125 C7.40235861 0.2833117 8.53593549 0.60990107 11.0625 3.25 C11.54492188 6.29345703 11.54492188 6.29345703 11.53125 10.0078125 C11.53829956 10.67029999 11.54534912 11.33278748 11.5526123 12.01535034 C11.58198532 14.84084357 11.56560978 17.66564262 11.55322266 20.49121094 C11.54210449 30.03059917 11.88800863 37.74004495 17.80859375 45.5546875 C23.56505944 51.25373132 23.56505944 51.25373132 31.0625 53.25 C32.05855354 51.5156537 32.05855354 51.5156537 32.9375 49.375 C34.75328245 46.18617217 35.57358567 45.38696972 39.171875 44.37890625 C41.47477455 44.08976442 43.78621467 43.86081625 46.1015625 43.69921875 C49.04033149 43.49332811 49.04033149 43.49332811 50.88671875 41.875 C52.389257 39.79840228 53.2159375 37.65944711 54.0625 35.25 C56.0425 35.58 58.0225 35.91 60.0625 36.25 C61.22849738 40.13665794 61.19476345 42.66757272 59.5625 46.3125 C56.12044788 52.5319321 50.34386042 55.33912566 44.0625 58.25 C44.3925 59.24 44.7225 60.23 45.0625 61.25 C59.15339773 66.32272318 73.96501069 65.19907674 87.4375 58.9375 C90.63896029 57.25981167 92.98204894 55.52074852 95.4375 52.875 C96.30375 52.00875 97.17 51.1425 98.0625 50.25 C100.1015625 50.3359375 100.1015625 50.3359375 102.0625 51.25 C104.82385027 55.32167253 104.65230742 59.51715508 104.0625 64.25 C100.97769062 75.73057923 95.06270021 84.14668279 84.98046875 90.578125 C77.83714142 94.35408501 71.07964073 95.53632645 63.0625 95.25 C64.0525 91.95 65.0425 88.65 66.0625 85.25 C60.96988295 79.09642107 52.68587534 77.39945174 45.0625 76.25 C42.36811025 76.11102149 39.76304541 76.15179835 37.0625 76.25 C35.89763791 80.82680658 35.89763791 80.82680658 37.0625 85.25 C39.45318734 86.35636395 39.45318734 86.35636395 42.0625 87.25 C43.875 88.875 43.875 88.875 45.0625 90.25 C43.70167829 93.32884863 42.19501195 95.32086911 39.7265625 97.59765625 C39.07429688 98.20287109 38.42203125 98.80808594 37.75 99.43164062 C37.069375 100.05232422 36.38875 100.67300781 35.6875 101.3125 C35.01460938 101.93705078 34.34171875 102.56160156 33.6484375 103.20507812 C24.98280621 111.19690541 24.98280621 111.19690541 20.8125 111.4375 C19.45125 111.3446875 19.45125 111.3446875 18.0625 111.25 C16.04923382 95.34353335 15.72386638 82.6451295 21.0625 67.25 C20.47082031 66.93546875 19.87914062 66.6209375 19.26953125 66.296875 C18.47933594 65.86890625 17.68914062 65.4409375 16.875 65 C16.09769531 64.58234375 15.32039063 64.1646875 14.51953125 63.734375 C6.8738017 59.1153333 0.85399361 52.45854489 -2.07617188 43.93945312 C-2.90118972 40.47121263 -3.58063716 37.01280222 -4.1875 33.5 C-5.80585321 21.32643565 -5.80585321 21.32643565 -12.859375 11.91015625 C-13.46265625 11.71292969 -14.0659375 11.51570313 -14.6875 11.3125 C-15.76 10.961875 -16.8325 10.61125 -17.9375 10.25 C-16.57981796 5.36234467 -14.26715579 3.72408902 -9.9375 1.25 C-6.47405473 0.09551824 -3.64912274 0.04594908 0 0 Z " fill="#000000" transform="translate(238.9375,271.75)"/>
</svg>
