<?xml version="1.0" encoding="UTF-8"?>
<!DOCTYPE svg PUBLIC "-//W3C//DTD SVG 1.1//EN" "http://www.w3.org/Graphics/SVG/1.1/DTD/svg11.dtd">
<svg xmlns="http://www.w3.org/2000/svg" version="1.1" width="591px" height="591px" style="shape-rendering:geometricPrecision; text-rendering:geometricPrecision; image-rendering:optimizeQuality; fill-rule:evenodd; clip-rule:evenodd" xmlns:xlink="http://www.w3.org/1999/xlink">
<g><path style="opacity:1" fill="#000000" d="M 343.5,413.5 C 343.183,410.428 343.516,407.428 344.5,404.5C 357.155,396.217 361.655,384.884 358,370.5C 354.232,368.401 352.732,365.234 353.5,361C 354.226,344.758 355.559,328.591 357.5,312.5C 365.674,317.753 373.674,323.253 381.5,329C 382.483,329.591 383.15,329.257 383.5,328C 375.317,320.151 366.817,312.651 358,305.5C 357.886,302.131 358.386,298.797 359.5,295.5C 361.098,294.515 362.765,294.349 364.5,295C 375.373,304.875 386.539,314.375 398,323.5C 401.572,331.279 399.072,335.779 390.5,337C 381.644,345.736 381.978,354.402 391.5,363C 394.211,364.22 397.044,365.053 400,365.5C 405.665,364.612 411.165,363.112 416.5,361C 420.833,355.333 425.833,350.333 431.5,346C 433.5,345.333 435.5,345.333 437.5,346C 440.295,347.793 442.795,349.96 445,352.5C 450.092,364.125 449.592,375.458 443.5,386.5C 434.19,392.988 424.19,398.155 413.5,402C 426.645,399.511 438.145,393.677 448,384.5C 451.267,374.206 451.267,363.873 448,353.5C 446.939,350.438 445.106,347.938 442.5,346C 438.833,343.833 435.167,341.667 431.5,339.5C 430.672,334.868 430.172,330.202 430,325.5C 429.653,323.82 428.653,322.82 427,322.5C 421.431,333.305 415.098,343.639 408,353.5C 405.079,357.092 401.579,359.925 397.5,362C 395.097,362.63 393.263,361.797 392,359.5C 390,354.5 390,349.5 392,344.5C 394.964,340.534 398.297,336.867 402,333.5C 403.301,331.635 403.635,329.635 403,327.5C 399.357,318.388 393.857,310.555 386.5,304C 378.002,298.25 369.336,292.75 360.5,287.5C 359.833,273.5 359.167,259.5 358.5,245.5C 344.966,241.897 332.299,236.397 320.5,229C 317.296,226.131 314.463,222.965 312,219.5C 311.211,215.909 311.378,212.409 312.5,209C 317.282,208.881 321.949,208.215 326.5,207C 334.881,201.619 341.548,194.619 346.5,186C 340.493,185.8 334.493,186.133 328.5,187C 321.5,195.333 314.5,203.667 307.5,212C 296.254,212.224 285.421,214.391 275,218.5C 273.522,217.022 272.022,215.522 270.5,214C 266.12,211.594 262.787,212.594 260.5,217C 260.759,218.261 261.426,219.261 262.5,220C 266.486,220.499 270.486,220.666 274.5,220.5C 274.66,222.199 274.494,223.866 274,225.5C 264.386,237.239 252.219,242.072 237.5,240C 226.148,233.604 219.981,223.771 219,210.5C 214.29,181.603 223.79,158.77 247.5,142C 217.958,153.537 196.791,174.037 184,203.5C 176.678,219.765 174.011,236.765 176,254.5C 178.518,259.935 182.018,260.768 186.5,257C 189.482,256.502 192.482,256.335 195.5,256.5C 194.824,267.849 190.824,277.849 183.5,286.5C 183.833,286.833 184.167,287.167 184.5,287.5C 194.917,282.312 205.917,279.812 217.5,280C 218.126,280.75 218.626,281.584 219,282.5C 219.667,286.833 219.667,291.167 219,295.5C 198.191,296.248 182.191,305.582 171,323.5C 167.947,338.882 173.114,350.382 186.5,358C 171.519,344.768 169.686,329.935 181,313.5C 192.024,304.103 204.857,299.769 219.5,300.5C 219.759,307.902 219.759,315.236 219.5,322.5C 207.825,327.519 203.325,336.185 206,348.5C 208.817,354.661 213.65,357.328 220.5,356.5C 220.5,355.5 220.5,354.5 220.5,353.5C 209.984,354.135 206.484,349.469 210,339.5C 212.078,334.432 215.245,330.266 219.5,327C 221.833,326.333 224.167,326.333 226.5,327C 236.22,332.379 242.553,340.379 245.5,351C 241.824,362.683 234.49,371.349 223.5,377C 200.007,382.897 180.174,377.064 164,359.5C 158.667,351.5 153.333,343.5 148,335.5C 142.482,325.598 138.148,315.264 135,304.5C 133.22,306.293 131.387,307.96 129.5,309.5C 136.306,328.78 145.473,346.78 157,363.5C 160.015,366.683 163.182,369.683 166.5,372.5C 167.54,370.625 169.04,369.292 171,368.5C 176.884,371.222 182.384,374.555 187.5,378.5C 186.301,381.432 185.301,384.432 184.5,387.5C 194.842,398.196 207.175,406.196 221.5,411.5C 222.833,418.5 222.833,425.5 221.5,432.5C 176.197,413.03 143.697,380.697 124,335.5C 120.872,327.949 118.038,320.282 115.5,312.5C 103.322,311.494 93.4883,306.161 86,296.5C 81.4161,289.668 77.0827,282.668 73,275.5C 67.9481,269.954 63.1148,264.287 58.5,258.5C 62.4957,251.855 66.9957,245.522 72,239.5C 75.8606,233.112 79.1939,226.446 82,219.5C 90.6758,207.324 102.342,202.324 117,204.5C 136.216,140.451 178.049,99.4509 242.5,81.5C 242.719,68.101 248.386,57.601 259.5,50C 273.189,42.8999 285.356,33.7332 296,22.5C 305.3,32.8032 316.466,40.3032 329.5,45C 338.639,49.7825 345.139,56.9491 349,66.5C 349.339,69.036 349.839,71.536 350.5,74C 349.652,76.7695 349.319,79.6029 349.5,82.5C 403.945,100.108 442.778,135.108 466,187.5C 468.143,193.428 469.977,199.428 471.5,205.5C 481.457,202.907 490.457,204.741 498.5,211C 502.935,215.378 506.768,220.212 510,225.5C 515.445,237.411 522.612,248.078 531.5,257.5C 520.044,269.081 510.544,282.081 503,296.5C 495.618,306.44 485.785,311.44 473.5,311.5C 472.514,316.96 471.014,322.293 469,327.5C 468.653,329.18 467.653,330.18 466,330.5C 462.771,329.47 459.938,327.804 457.5,325.5C 459.933,320.247 461.266,314.913 461.5,309.5C 459.417,308.041 457.25,306.708 455,305.5C 452.786,309.466 450.953,313.633 449.5,318C 464.977,337.076 469.81,358.576 464,382.5C 454.836,400.685 440.003,410.851 419.5,413C 418.449,414.385 417.116,415.385 415.5,416C 414.27,422.647 412.437,429.147 410,435.5C 394.609,447.449 378.442,458.282 361.5,468C 345.042,476.063 328.708,484.396 312.5,493C 299.371,500.127 288.037,509.46 278.5,521C 282.312,524.482 285.812,528.315 289,532.5C 292.725,546.885 287.892,557.385 274.5,564C 261.239,569.356 250.072,566.523 241,555.5C 238.541,547.008 237.874,538.342 239,529.5C 241.402,515.487 245.069,501.82 250,488.5C 252.535,482.592 255.702,477.092 259.5,472C 252.833,471.667 246.167,471.333 239.5,471C 239,470.5 238.5,470 238,469.5C 236.552,450.529 235.719,431.529 235.5,412.5C 219.65,406.577 204.983,398.577 191.5,388.5C 187.374,384.658 187.874,381.325 193,378.5C 205.493,388.828 219.326,396.828 234.5,402.5C 234.5,401.167 234.5,399.833 234.5,398.5C 227.467,396.544 220.801,393.711 214.5,390C 212.443,388.281 210.776,386.281 209.5,384C 211.832,382.043 214.499,380.543 217.5,379.5C 222.414,383.373 227.914,386.04 234,387.5C 234.278,381.043 235.278,374.71 237,368.5C 248.204,361.559 250.871,352.226 245,340.5C 241.667,335.833 237.667,331.833 233,328.5C 231.852,302.175 231.019,275.842 230.5,249.5C 253.713,246.397 273.046,236.23 288.5,219C 292.988,215.051 297.988,214.051 303.5,216C 317.02,231.272 333.686,241.772 353.5,247.5C 353.912,284.504 353.245,321.504 351.5,358.5C 350.564,365.181 352.064,371.181 356,376.5C 357.81,386.713 354.31,394.547 345.5,400C 340.525,403.884 334.858,406.217 328.5,407C 319.31,412.537 314.81,420.704 315,431.5C 301.5,443.667 288.667,456.5 276.5,470C 277.167,470.667 277.833,470.667 278.5,470C 291.333,457.833 304.167,445.667 317,433.5C 317.124,420.855 323.29,412.521 335.5,408.5C 338.905,409.191 341.571,410.858 343.5,413.5 Z M 291.5,79.5 C 299.049,79.3726 303.716,83.0392 305.5,90.5C 305.023,91.4776 304.357,92.3109 303.5,93C 297.509,93.4995 291.509,93.6662 285.5,93.5C 284.812,87.5558 286.812,82.8891 291.5,79.5 Z M 244.5,95.5 C 245.756,95.4614 246.756,95.9614 247.5,97C 224.906,103.543 204.74,114.377 187,129.5C 187.466,126.9 188.966,124.734 191.5,123C 208.096,111.702 225.763,102.536 244.5,95.5 Z M 342.5,95.5 C 366.519,102.505 387.852,114.171 406.5,130.5C 405.635,131.583 404.635,131.749 403.5,131C 385.435,115.967 365.102,105.133 342.5,98.5C 342.5,97.5 342.5,96.5 342.5,95.5 Z M 433.5,224.5 C 437.428,237.413 439.428,250.746 439.5,264.5C 441.5,264.5 443.5,264.5 445.5,264.5C 445.056,190.247 410.056,140.414 340.5,115C 266.334,96.3616 207.501,118.195 164,180.5C 146.971,211.309 140.305,244.309 144,279.5C 144.756,291.617 147.423,303.283 152,314.5C 152.615,316.116 153.615,317.449 155,318.5C 156.557,315.828 157.724,312.995 158.5,310C 150.157,289.26 147.323,267.76 150,245.5C 150.333,253.833 150.667,262.167 151,270.5C 151.366,277.695 152.699,284.695 155,291.5C 155.785,293.286 156.951,294.786 158.5,296C 163.628,296.708 168.628,296.208 173.5,294.5C 164.617,303.59 158.284,314.257 154.5,326.5C 149.548,318.49 146.048,309.824 144,300.5C 131.826,252.708 139.492,208.375 167,167.5C 218.759,104.849 282.926,87.682 359.5,116C 401.65,137.48 430.15,170.647 445,215.5C 453.102,247.784 452.102,279.784 442,311.5C 441.667,311.833 441.333,312.167 441,312.5C 438.749,310.623 436.249,309.123 433.5,308C 432.196,307.196 431.529,306.029 431.5,304.5C 437.175,277.942 437.842,251.275 433.5,224.5 Z M 433.5,224.5 C 418.654,178.148 388.654,145.648 343.5,127C 291.429,110.844 243.763,119.178 200.5,152C 191.22,160.274 183.053,169.441 176,179.5C 170.236,189.077 164.736,198.744 159.5,208.5C 178.524,159.987 213.524,129.82 264.5,118C 319.886,108.684 366.719,124.517 405,165.5C 419.306,182.78 428.806,202.447 433.5,224.5 Z M 166.5,145.5 C 167.376,145.369 168.043,145.702 168.5,146.5C 157.287,157.232 148.787,169.899 143,184.5C 139.137,193.754 135.471,203.088 132,212.5C 129.793,211.003 129.126,209.003 130,206.5C 137.596,183.287 149.763,162.954 166.5,145.5 Z M 424.5,149.5 C 441.57,166.282 453.57,186.282 460.5,209.5C 459.092,211.436 457.759,211.602 456.5,210C 450.522,187.397 439.522,167.73 423.5,151C 424.056,150.617 424.389,150.117 424.5,149.5 Z M 280.5,159.5 C 285.1,162.252 289.6,165.252 294,168.5C 294.511,176.527 294.844,184.527 295,192.5C 289.875,185.707 284.375,179.207 278.5,173C 279.675,168.611 280.341,164.111 280.5,159.5 Z M 323.5,160.5 C 324.65,165.316 324.816,170.316 324,175.5C 319.967,179.868 315.634,183.868 311,187.5C 306.646,174.14 310.812,165.14 323.5,160.5 Z M 253.5,185.5 C 259.509,185.334 265.509,185.501 271.5,186C 275.5,191 279.5,196 283.5,201C 276.371,201.95 269.371,201.45 262.5,199.5C 258.659,195.335 255.659,190.668 253.5,185.5 Z M 159.5,208.5 C 159.598,210.553 158.931,212.22 157.5,213.5C 157.402,211.447 158.069,209.78 159.5,208.5 Z M 295.5,229.5 C 296.552,229.351 297.552,229.517 298.5,230C 303.452,238.619 310.119,245.619 318.5,251C 325.758,255.547 333.258,259.714 341,263.5C 340.259,304.16 339.259,344.826 338,385.5C 334.776,392.369 329.276,395.536 321.5,395C 314.549,398.619 309.716,404.119 307,411.5C 305.198,416.375 303.865,421.375 303,426.5C 295.213,433.321 287.713,440.487 280.5,448C 271.84,448.5 263.173,448.666 254.5,448.5C 253.783,425.491 253.283,402.491 253,379.5C 267.351,360.634 266.684,342.301 251,324.5C 250.495,304.157 250.829,283.824 252,263.5C 268.454,254.531 282.954,243.198 295.5,229.5 Z M 125.5,248.5 C 126.794,249.29 127.961,250.29 129,251.5C 129.499,257.157 129.666,262.824 129.5,268.5C 121.537,269.695 116.204,266.528 113.5,259C 115.34,252.929 119.34,249.429 125.5,248.5 Z M 462.5,249.5 C 473.18,250.369 476.18,255.536 471.5,265C 468.207,267.242 464.54,268.409 460.5,268.5C 459.94,261.879 460.607,255.545 462.5,249.5 Z M 302.5,300.5 C 305.187,300.336 307.854,300.503 310.5,301C 309.736,303.069 309.236,305.236 309,307.5C 306.628,305.297 304.461,302.963 302.5,300.5 Z M 404.5,382.5 C 398.206,379.35 392.372,380.016 387,384.5C 383.501,390.688 383.835,396.688 388,402.5C 393.379,406.212 397.713,410.879 401,416.5C 401.327,422.677 398.827,427.511 393.5,431C 387.844,435.496 381.844,439.496 375.5,443C 346.094,455.529 318.427,470.862 292.5,489C 286.628,494.376 280.628,499.543 274.5,504.5C 277.563,499.928 281.23,495.761 285.5,492C 300.765,480.086 317.098,469.753 334.5,461C 348.531,453.984 362.531,446.984 376.5,440C 384.208,435.954 391.041,430.788 397,424.5C 400.174,416.016 397.341,410.516 388.5,408C 375.029,395.161 377.029,385.494 394.5,379C 398.646,378.103 401.98,379.27 404.5,382.5 Z M 343.5,413.5 C 348.235,414.709 349.402,417.375 347,421.5C 343.849,427.012 339.349,430.512 333.5,432C 332.424,430.274 332.257,428.441 333,426.5C 342.989,427.953 346.489,423.62 343.5,413.5 Z M 274.5,504.5 C 273.92,506.749 272.587,508.415 270.5,509.5C 271.08,507.251 272.413,505.585 274.5,504.5 Z M 270.5,509.5 C 270.573,511.027 269.906,512.027 268.5,512.5C 268.427,510.973 269.094,509.973 270.5,509.5 Z M 268.5,512.5 C 268.573,514.027 267.906,515.027 266.5,515.5C 266.427,513.973 267.094,512.973 268.5,512.5 Z M 266.5,515.5 C 266.293,518.241 265.293,520.574 263.5,522.5C 263.707,519.759 264.707,517.426 266.5,515.5 Z M 263.5,522.5 C 263.338,524.527 263.505,526.527 264,528.5C 279.504,537.815 279.004,546.148 262.5,553.5C 261.558,553.392 260.725,553.059 260,552.5C 259.202,550.741 259.369,549.074 260.5,547.5C 263.911,551.351 267.077,551.017 270,546.5C 272.268,537.535 269.101,531.369 260.5,528C 261.609,526.124 262.609,524.291 263.5,522.5 Z"/></g>
<g><path style="opacity:1" fill="#000000" d="M 292.5,249.5 C 316.993,247.163 328.493,258.163 327,282.5C 326.273,289.558 322.773,294.725 316.5,298C 325.737,303.884 325.737,310.051 316.5,316.5C 316.039,323.314 314.873,329.981 313,336.5C 309.165,343.508 304.831,350.174 300,356.5C 297.543,361.417 297.209,366.417 299,371.5C 301,374.167 303,376.833 305,379.5C 305.49,380.793 305.657,382.127 305.5,383.5C 294.28,384.435 286.447,379.768 282,369.5C 281.196,363.431 281.529,357.431 283,351.5C 285.606,346.565 288.606,341.898 292,337.5C 299.438,325.566 296.605,317.233 283.5,312.5C 278.565,313.037 277.398,315.37 280,319.5C 288.777,315.255 293.277,318.088 293.5,328C 293.091,334.411 289.757,338.411 283.5,340C 270.823,342.638 262.656,337.804 259,325.5C 257.186,301.813 268.02,291.146 291.5,293.5C 288.936,289.117 289.102,284.784 292,280.5C 294.459,277.9 296.959,277.9 299.5,280.5C 300.833,279.833 301.833,278.833 302.5,277.5C 300.595,271.61 296.928,270.11 291.5,273C 286.209,278.417 283.209,284.917 282.5,292.5C 269.721,292.231 264.555,285.898 267,273.5C 271.2,260.835 279.7,252.835 292.5,249.5 Z M 302.5,300.5 C 304.461,302.963 306.628,305.297 309,307.5C 309.236,305.236 309.736,303.069 310.5,301C 307.854,300.503 305.187,300.336 302.5,300.5 Z"/></g>
<g><path style="opacity:1" fill="#000000" d="M 258.5,282.5 C 270.857,287.505 271.69,294.171 261,302.5C 260.218,305.216 258.884,307.55 257,309.5C 249.717,303.024 249.717,296.357 257,289.5C 257.44,287.134 257.94,284.801 258.5,282.5 Z"/></g>
</svg>
