<?xml version="1.0" encoding="UTF-8"?>
<!DOCTYPE svg PUBLIC "-//W3C//DTD SVG 1.1//EN" "http://www.w3.org/Graphics/SVG/1.1/DTD/svg11.dtd">
<svg xmlns="http://www.w3.org/2000/svg" version="1.1" width="591px" height="591px" style="shape-rendering:geometricPrecision; text-rendering:geometricPrecision; image-rendering:optimizeQuality; fill-rule:evenodd; clip-rule:evenodd" xmlns:xlink="http://www.w3.org/1999/xlink">
<g><path style="opacity:1" fill="#000000" d="M 268.5,92.5 C 319.694,89.7545 369.027,97.9212 416.5,117C 453.091,140.924 482.925,171.424 506,208.5C 524.876,241.004 533.209,276.004 531,313.5C 530.899,316.7 530.232,319.7 529,322.5C 523.851,281.03 505.684,246.53 474.5,219C 462.711,208.609 450.377,198.943 437.5,190C 427.556,183.695 416.889,179.028 405.5,176C 393.533,173.486 383.866,176.986 376.5,186.5C 366.351,172.93 352.685,166.596 335.5,167.5C 321.005,166.624 308.005,170.457 296.5,179C 289.835,186.566 290.002,194.066 297,201.5C 300.69,204.691 304.523,207.691 308.5,210.5C 309.466,212.396 309.799,214.396 309.5,216.5C 301.594,217.028 295.761,220.695 292,227.5C 291.333,229.833 291.333,232.167 292,234.5C 308.878,262.919 324.212,292.253 338,322.5C 340.629,327.564 344.796,329.564 350.5,328.5C 349.923,321.144 349.09,313.811 348,306.5C 343.193,302.552 341.527,297.552 343,291.5C 343.725,290.941 344.558,290.608 345.5,290.5C 349.247,292.882 353.247,294.382 357.5,295C 360.011,289.155 363.344,283.822 367.5,279C 362.833,278.667 358.167,278.333 353.5,278C 350.466,276.809 348.799,274.642 348.5,271.5C 341.757,271.731 335.423,270.231 329.5,267C 328.203,264.455 328.369,261.955 330,259.5C 345.446,244.775 363.446,234.442 384,228.5C 386.952,228.052 388.785,229.219 389.5,232C 380.899,239.049 377.066,248.216 378,259.5C 378.833,260.333 379.667,261.167 380.5,262C 384.807,262.299 388.974,262.466 393,262.5C 393.163,267.204 391.83,271.537 389,275.5C 387.323,280.655 389.156,283.655 394.5,284.5C 404.883,283.283 411.383,277.616 414,267.5C 414.846,259.542 414.346,251.709 412.5,244C 412.364,240.948 413.031,238.114 414.5,235.5C 425.868,243.886 432.368,255.219 434,269.5C 435.877,297.986 429.877,324.653 416,349.5C 413.191,353.61 410.025,357.443 406.5,361C 405.833,361.667 405.167,361.667 404.5,361C 410.592,348.058 415.092,334.558 418,320.5C 418.81,315.743 418.476,311.076 417,306.5C 416.311,305.643 415.478,304.977 414.5,304.5C 411.745,309.423 408.412,313.923 404.5,318C 402.726,318.97 400.893,319.804 399,320.5C 397.607,319.385 396.107,318.885 394.5,319C 384.816,327.858 378.316,338.691 375,351.5C 372.231,362.225 370.398,373.058 369.5,384C 370.872,384.402 372.205,384.902 373.5,385.5C 374.795,384.902 376.128,384.402 377.5,384C 385.854,379.326 394.187,374.993 402.5,371C 399.635,376.54 395.968,381.54 391.5,386C 379.265,396.575 366.765,406.742 354,416.5C 352.025,420.054 351.192,423.887 351.5,428C 351.679,431.858 352.013,435.691 352.5,439.5C 357.963,440.954 361.963,444.287 364.5,449.5C 361.856,450.396 359.19,451.229 356.5,452C 352.402,456.533 352.735,460.7 357.5,464.5C 368.03,462.401 377.364,457.901 385.5,451C 394.116,443.39 401.616,434.89 408,425.5C 405.825,442.196 400.492,457.862 392,472.5C 378.038,493.556 358.538,501.39 333.5,496C 325.033,494.404 317.366,491.07 310.5,486C 326.05,471.847 331.717,454.347 327.5,433.5C 320.713,434.894 314.713,437.894 309.5,442.5C 309.069,443.293 308.735,444.127 308.5,445C 309.826,447.317 311.16,449.651 312.5,452C 311.833,453 311.167,454 310.5,455C 280.847,457.087 253.513,450.087 228.5,434C 199.711,415.545 175.878,392.045 157,363.5C 144.514,341.726 138.348,318.226 138.5,293C 138.934,282.082 140.101,271.248 142,260.5C 145.904,286.212 154.571,310.212 168,332.5C 182.837,354.326 203.004,368.826 228.5,376C 227.01,380.703 226.01,385.536 225.5,390.5C 226.289,396.115 226.789,401.782 227,407.5C 233.393,397.106 240.56,387.273 248.5,378C 253.148,378.724 257.814,378.39 262.5,377C 271.214,374.594 279.881,372.094 288.5,369.5C 289.756,375.175 287.923,379.508 283,382.5C 279.915,387 277.082,391.667 274.5,396.5C 276.416,398.317 278.749,399.484 281.5,400C 290.833,402 300.167,402 309.5,400C 314.699,393.768 319.532,387.268 324,380.5C 324.232,346.195 314.232,315.195 294,287.5C 275.211,263.706 252.044,245.539 224.5,233C 223.033,229.098 224.2,226.265 228,224.5C 237.545,227.723 246.712,226.89 255.5,222C 267.67,210 265.337,202.5 248.5,199.5C 234.755,202.206 222.755,208.373 212.5,218C 211.833,218.667 211.167,218.667 210.5,218C 208.405,203.497 212.405,190.83 222.5,180C 220.955,178.06 218.955,176.894 216.5,176.5C 207.954,178.272 199.954,181.439 192.5,186C 177.31,195.427 162.644,205.594 148.5,216.5C 148.167,216.167 147.833,215.833 147.5,215.5C 154.261,196.633 164.095,179.633 177,164.5C 178.333,161.833 179.667,159.167 181,156.5C 181.635,154.365 181.301,152.365 180,150.5C 173.811,143.822 166.311,139.322 157.5,137C 152.594,135.524 147.594,134.524 142.5,134C 129.5,133.333 116.5,133.333 103.5,134C 88.3793,135.542 73.3793,137.542 58.5,140C 80.9319,127.72 104.932,120.053 130.5,117C 165.059,112.797 199.392,114.13 233.5,121C 235.211,122.133 235.711,123.633 235,125.5C 231.442,128.032 227.609,130.199 223.5,132C 219.689,135.273 219.522,138.773 223,142.5C 224.351,144.019 225.851,145.352 227.5,146.5C 231.122,142.187 235.789,139.687 241.5,139C 252.536,136.914 263.536,137.081 274.5,139.5C 281.437,137.139 288.604,135.472 296,134.5C 310.264,135.967 324.431,137.8 338.5,140C 331.773,136.869 324.773,134.536 317.5,133C 304.557,130.343 291.557,128.01 278.5,126C 270.349,120.391 261.349,116.724 251.5,115C 230.284,111.455 208.951,109.121 187.5,108C 214.061,99.7866 241.061,94.62 268.5,92.5 Z M 351.5,339.5 C 353.257,344.682 351.59,348.682 346.5,351.5C 344.876,350.131 344.376,348.464 345,346.5C 347.372,344.297 349.539,341.963 351.5,339.5 Z"/></g>
<g><path style="opacity:1" fill="#000000" d="M 282.5,289.5 C 283.496,289.414 284.329,289.748 285,290.5C 285.667,293.167 286.333,295.833 287,298.5C 297.716,306.552 305.382,316.885 310,329.5C 311.29,334.11 311.624,338.777 311,343.5C 310.417,345.002 309.584,346.335 308.5,347.5C 305.308,342.142 300.975,337.975 295.5,335C 290.06,333.826 285.06,334.826 280.5,338C 260.769,356.652 243.269,377.152 228,399.5C 230.834,384.663 235.5,370.33 242,356.5C 247,346.5 252,336.5 257,326.5C 266.013,314.457 274.513,302.123 282.5,289.5 Z"/></g>
<g><path style="opacity:1" fill="#000000" d="M 466.5,291.5 C 473.472,293.985 477.306,298.985 478,306.5C 485.116,358.149 470.783,402.815 435,440.5C 431.871,444.309 428.204,447.309 424,449.5C 423.167,449.167 422.333,448.833 421.5,448.5C 426.566,442.534 429.9,435.701 431.5,428C 430.673,422.336 427.673,418.336 422.5,416C 410.888,411.995 399.888,413.328 389.5,420C 384.649,423.594 379.983,427.428 375.5,431.5C 374.167,430.833 373.167,429.833 372.5,428.5C 383.426,408.205 400.092,395.371 422.5,390C 438.401,382.275 449.068,370.108 454.5,353.5C 452.692,353.491 451.025,353.991 449.5,355C 444.692,358.308 440.025,361.808 435.5,365.5C 434.727,363.187 434.06,360.854 433.5,358.5C 447.2,347.096 458.034,333.429 466,317.5C 469.071,308.86 469.238,300.194 466.5,291.5 Z"/></g>
</svg>
