<?xml version="1.0" encoding="UTF-8"?>
<!DOCTYPE svg PUBLIC "-//W3C//DTD SVG 1.1//EN" "http://www.w3.org/Graphics/SVG/1.1/DTD/svg11.dtd">
<svg xmlns="http://www.w3.org/2000/svg" version="1.1" width="591px" height="591px" style="shape-rendering:geometricPrecision; text-rendering:geometricPrecision; image-rendering:optimizeQuality; fill-rule:evenodd; clip-rule:evenodd" xmlns:xlink="http://www.w3.org/1999/xlink">
<g><path style="opacity:1" fill="#000000" d="M 287.5,49.5 C 307.796,49.8592 327.129,54.3592 345.5,63C 351.589,66.0207 354.422,70.854 354,77.5C 351.252,82.252 347.752,86.4187 343.5,90C 336.833,95.6667 330.167,101.333 323.5,107C 316.167,107.667 308.833,107.667 301.5,107C 299.637,105.582 299.137,103.749 300,101.5C 307.167,93.6667 314.333,85.8333 321.5,78C 318.397,75.1838 314.73,73.5172 310.5,73C 297.34,70.6565 284.34,71.3232 271.5,75C 269.745,75.7199 268.911,76.8866 269,78.5C 276.932,86.4252 284.098,94.9252 290.5,104C 290.241,105.261 289.574,106.261 288.5,107C 281.167,107.667 273.833,107.667 266.5,107C 256.006,98.9865 246.173,90.1532 237,80.5C 234.579,75.116 235.412,70.2827 239.5,66C 244.992,62.0537 250.992,59.0537 257.5,57C 267.551,54.1628 277.551,51.6628 287.5,49.5 Z"/></g>
<g><path style="opacity:1" fill="#000000" d="M 217.5,78.5 C 219.199,78.3398 220.866,78.5065 222.5,79C 229.269,86.5249 236.269,93.8583 243.5,101C 223.868,104.815 205.868,112.482 189.5,124C 182.989,129.181 176.489,134.347 170,139.5C 166.213,136.716 162.713,133.549 159.5,130C 157.167,129.333 154.833,129.333 152.5,130C 146.31,137.189 139.81,144.022 133,150.5C 132.333,151.833 132.333,153.167 133,154.5C 136.362,159.03 139.529,163.697 142.5,168.5C 136.699,174.467 131.866,181.134 128,188.5C 120.819,203.857 114.485,219.524 109,235.5C 98.7973,224.966 88.9639,214.132 79.5,203C 105.45,139.214 151.45,97.7139 217.5,78.5 Z"/></g>
<g><path style="opacity:1" fill="#000000" d="M 367.5,78.5 C 436.413,95.2384 483.746,136.738 509.5,203C 500.18,213.655 490.847,224.322 481.5,235C 480.517,235.591 479.85,235.257 479.5,234C 474.704,217.943 468.537,202.443 461,187.5C 457.02,180.376 452.186,173.876 446.5,168C 450.361,162.972 454.028,157.806 457.5,152.5C 451.231,144.893 444.564,137.56 437.5,130.5C 435.232,129.456 432.899,129.289 430.5,130C 427.287,133.549 423.787,136.716 420,139.5C 409.626,131.06 398.793,123.227 387.5,116C 374.888,108.575 361.388,103.741 347,101.5C 346.333,100.833 346.333,100.167 347,99.5C 354.036,92.6315 360.869,85.6315 367.5,78.5 Z"/></g>
<g><path style="opacity:1" fill="#000000" d="M 280.5,119.5 C 345.314,116.666 397.481,140.666 437,191.5C 470.534,240.9 478.534,294.234 461,351.5C 438.363,411.805 395.863,449.971 333.5,466C 273.259,477.693 220.259,463.36 174.5,423C 125.629,373.358 109.462,314.525 126,246.5C 145.5,185.667 185.667,145.5 246.5,126C 257.838,123.098 269.172,120.931 280.5,119.5 Z M 284.5,139.5 C 349.174,138.573 398.008,165.573 431,220.5C 452.999,264.126 455.332,308.793 438,354.5C 412.991,408.827 370.825,440.327 311.5,449C 237.598,452.65 184.432,421.483 152,355.5C 127.407,288.053 140.573,229.22 191.5,179C 218.294,155.937 249.294,142.77 284.5,139.5 Z M 268.5,236.5 C 273.57,230.905 279.903,229.072 287.5,231C 289.871,231.735 292.205,232.568 294.5,233.5C 304.712,228.552 314.045,229.719 322.5,237C 315.842,236.093 309.176,236.426 302.5,238C 300.344,241.088 297.844,243.922 295,246.5C 291.435,245.039 289.601,242.372 289.5,238.5C 282.633,236.775 275.633,236.108 268.5,236.5 Z M 346.5,250.5 C 359.246,261.561 364.413,275.561 362,292.5C 360.915,293.293 359.748,293.96 358.5,294.5C 352.166,292.323 346.166,289.489 340.5,286C 337.167,285.333 333.833,285.333 330.5,286C 323.642,291.01 318.975,297.51 316.5,305.5C 312.489,306.031 308.656,307.031 305,308.5C 304.674,313.146 303.34,317.479 301,321.5C 296.375,325.646 292.041,325.313 288,320.5C 286.366,316.161 284.866,311.827 283.5,307.5C 279.966,306.869 276.466,306.202 273,305.5C 270.9,297.39 266.4,290.89 259.5,286C 250.711,284.557 243.044,286.89 236.5,293C 232.162,295.715 228.829,294.882 226.5,290.5C 225.583,275.012 230.75,262.012 242,251.5C 242.497,253.81 242.663,256.143 242.5,258.5C 249.01,258.07 255.344,258.903 261.5,261C 266.636,263.82 271.469,266.987 276,270.5C 277.895,270.385 279.562,269.718 281,268.5C 281.82,263.368 281.32,258.368 279.5,253.5C 279.733,252.068 280.4,251.568 281.5,252C 288.713,258.877 289.379,266.377 283.5,274.5C 276.123,277.928 273.623,283.594 276,291.5C 279.621,295.91 283.121,300.41 286.5,305C 291.833,307 297.167,307 302.5,305C 307.133,300.375 310.966,295.209 314,289.5C 314.667,287.167 314.667,284.833 314,282.5C 310.979,278.482 307.646,274.816 304,271.5C 300.118,263.803 301.618,257.303 308.5,252C 309.332,251.312 309.998,251.479 310.5,252.5C 308.697,257.035 307.863,261.702 308,266.5C 308.796,268.967 310.463,270.3 313,270.5C 317.854,266.982 323.02,263.815 328.5,261C 334.656,258.903 340.99,258.07 347.5,258.5C 346.908,255.873 346.575,253.206 346.5,250.5 Z"/></g>
<g><path style="opacity:1" fill="#000000" d="M 179.5,195.5 C 187.782,197.089 196.115,198.589 204.5,200C 222.142,201.491 239.808,201.825 257.5,201C 264.691,196.381 272.357,195.381 280.5,198C 285.744,200.203 290.578,203.036 295,206.5C 306.29,195.879 318.79,194.046 332.5,201C 349.858,201.821 367.192,201.487 384.5,200C 390.686,199.43 396.686,198.096 402.5,196C 405.167,195.333 407.833,195.333 410.5,196C 411.718,197.438 412.385,199.105 412.5,201C 409.86,212.252 406.027,223.085 401,233.5C 398.515,237.977 395.348,241.811 391.5,245C 395.223,260.462 403.223,273.129 415.5,283C 421.031,285.393 426.531,287.56 432,289.5C 432.701,292.928 432.368,296.262 431,299.5C 425.646,305.518 419.646,310.852 413,315.5C 409.681,324.201 408.681,333.201 410,342.5C 412.223,348.689 416.39,352.689 422.5,354.5C 421.989,360.188 418.989,364.021 413.5,366C 403.028,369.206 392.362,370.206 381.5,369C 377.281,370.109 373.281,371.775 369.5,374C 363.922,378.907 359.089,384.407 355,390.5C 353.563,396.074 355.396,400.241 360.5,403C 347.9,407.369 340.567,403.035 338.5,390C 340.028,378.792 345.361,369.792 354.5,363C 361.888,358.944 368.722,354.111 375,348.5C 383.425,337.313 391.091,325.647 398,313.5C 398.804,307.431 398.471,301.431 397,295.5C 391.925,283.02 386.591,270.686 381,258.5C 377.113,254.472 372.613,251.306 367.5,249C 365.987,245.571 366.653,242.571 369.5,240C 376.784,237.101 382.951,232.601 388,226.5C 390.285,222.813 391.452,218.813 391.5,214.5C 383.466,213.643 375.799,214.81 368.5,218C 356.06,220.649 344.393,218.649 333.5,212C 319.129,206.479 306.296,208.979 295,219.5C 291.177,217.015 287.344,214.515 283.5,212C 275.256,208.127 266.923,207.794 258.5,211C 244.114,220.125 229.114,221.459 213.5,215C 208.511,214.501 203.511,214.334 198.5,214.5C 198.874,223.392 202.874,230.225 210.5,235C 216.684,236.577 221.018,240.244 223.5,246C 223.241,247.261 222.574,248.261 221.5,249C 215.074,252.095 209.907,256.595 206,262.5C 201.057,274.054 196.39,285.721 192,297.5C 190.185,303.187 190.185,308.854 192,314.5C 198.405,324.97 205.072,335.304 212,345.5C 219.033,353.204 227.2,359.37 236.5,364C 246.616,371.728 251.116,381.895 250,394.5C 248.833,399.667 245.667,402.833 240.5,404C 236.705,404.837 233.039,404.504 229.5,403C 233.927,400.315 235.76,396.482 235,391.5C 229.207,380.371 220.374,372.871 208.5,369C 197.325,370.152 186.325,369.152 175.5,366C 170.056,364.058 167.056,360.225 166.5,354.5C 176.527,350.97 181.194,343.803 180.5,333C 180.345,326.359 178.678,320.192 175.5,314.5C 167.474,309.974 161.308,303.641 157,295.5C 156.218,292.743 156.718,290.243 158.5,288C 173.78,285.772 184.613,277.606 191,263.5C 193.99,257.365 196.49,251.031 198.5,244.5C 191.694,238.897 186.861,231.897 184,223.5C 182,217.5 180,211.5 178,205.5C 177.037,201.851 177.537,198.518 179.5,195.5 Z M 268.5,236.5 C 275.633,236.108 282.633,236.775 289.5,238.5C 289.601,242.372 291.435,245.039 295,246.5C 297.844,243.922 300.344,241.088 302.5,238C 309.176,236.426 315.842,236.093 322.5,237C 314.045,229.719 304.712,228.552 294.5,233.5C 292.205,232.568 289.871,231.735 287.5,231C 279.903,229.072 273.57,230.905 268.5,236.5 Z M 346.5,250.5 C 346.575,253.206 346.908,255.873 347.5,258.5C 340.99,258.07 334.656,258.903 328.5,261C 323.02,263.815 317.854,266.982 313,270.5C 310.463,270.3 308.796,268.967 308,266.5C 307.863,261.702 308.697,257.035 310.5,252.5C 309.998,251.479 309.332,251.312 308.5,252C 301.618,257.303 300.118,263.803 304,271.5C 307.646,274.816 310.979,278.482 314,282.5C 314.667,284.833 314.667,287.167 314,289.5C 310.966,295.209 307.133,300.375 302.5,305C 297.167,307 291.833,307 286.5,305C 283.121,300.41 279.621,295.91 276,291.5C 273.623,283.594 276.123,277.928 283.5,274.5C 289.379,266.377 288.713,258.877 281.5,252C 280.4,251.568 279.733,252.068 279.5,253.5C 281.32,258.368 281.82,263.368 281,268.5C 279.562,269.718 277.895,270.385 276,270.5C 271.469,266.987 266.636,263.82 261.5,261C 255.344,258.903 249.01,258.07 242.5,258.5C 242.663,256.143 242.497,253.81 242,251.5C 230.75,262.012 225.583,275.012 226.5,290.5C 228.829,294.882 232.162,295.715 236.5,293C 243.044,286.89 250.711,284.557 259.5,286C 266.4,290.89 270.9,297.39 273,305.5C 276.466,306.202 279.966,306.869 283.5,307.5C 284.866,311.827 286.366,316.161 288,320.5C 292.041,325.313 296.375,325.646 301,321.5C 303.34,317.479 304.674,313.146 305,308.5C 308.656,307.031 312.489,306.031 316.5,305.5C 318.975,297.51 323.642,291.01 330.5,286C 333.833,285.333 337.167,285.333 340.5,286C 346.166,289.489 352.166,292.323 358.5,294.5C 359.748,293.96 360.915,293.293 362,292.5C 364.413,275.561 359.246,261.561 346.5,250.5 Z"/></g>
<g><path style="opacity:1" fill="#000000" d="M 268.5,219.5 C 277.394,219.349 286.227,220.015 295,221.5C 306.573,218.764 318.073,218.931 329.5,222C 348.052,232.219 362.219,246.719 372,265.5C 373.472,269.723 374.472,274.057 375,278.5C 379.727,284.897 384.06,291.564 388,298.5C 388.667,300.833 388.667,303.167 388,305.5C 384.927,306.617 381.76,306.784 378.5,306C 367.045,299.55 362.378,302.717 364.5,315.5C 364.156,320.922 363.323,326.256 362,331.5C 360.299,335.875 357.133,337.542 352.5,336.5C 351.544,326.429 350.044,316.429 348,306.5C 347.044,302.563 344.711,299.897 341,298.5C 339.739,298.759 338.739,299.426 338,300.5C 334.938,306.23 331.104,311.397 326.5,316C 327.126,316.75 327.626,317.584 328,318.5C 332.877,313.102 338.21,312.435 344,316.5C 345.041,319.636 344.207,322.136 341.5,324C 338.899,324.92 336.232,325.587 333.5,326C 328.199,330.3 323.199,334.966 318.5,340C 317,340.167 315.5,340.333 314,340.5C 309.273,339.475 304.606,338.142 300,336.5C 296.486,337.795 292.986,337.795 289.5,336.5C 286.327,337.21 283.327,338.377 280.5,340C 277.5,340.667 274.5,340.667 271.5,340C 266.199,335.7 261.199,331.034 256.5,326C 252.611,325.938 249.111,324.771 246,322.5C 243.597,317.81 245.097,314.976 250.5,314C 254.151,314.393 257.651,315.56 261,317.5C 261.5,317.167 262,316.833 262.5,316.5C 259,311.5 255.5,306.5 252,301.5C 250.938,300.101 249.605,299.101 248,298.5C 245.346,299.821 243.346,301.821 242,304.5C 239.946,314.436 238.279,324.436 237,334.5C 233.409,337.314 230.409,336.647 228,332.5C 227.178,330.212 226.511,327.878 226,325.5C 225.667,318.833 225.333,312.167 225,305.5C 223.758,304.128 222.258,303.128 220.5,302.5C 216.123,304.349 211.623,305.682 207,306.5C 200.529,306.36 198.862,303.36 202,297.5C 205.276,291.892 208.943,286.558 213,281.5C 214.94,269.623 219.606,258.956 227,249.5C 236.787,238.54 247.954,229.374 260.5,222C 263.31,221.218 265.977,220.384 268.5,219.5 Z M 268.5,236.5 C 275.633,236.108 282.633,236.775 289.5,238.5C 289.601,242.372 291.435,245.039 295,246.5C 297.844,243.922 300.344,241.088 302.5,238C 309.176,236.426 315.842,236.093 322.5,237C 314.045,229.719 304.712,228.552 294.5,233.5C 292.205,232.568 289.871,231.735 287.5,231C 279.903,229.072 273.57,230.905 268.5,236.5 Z M 346.5,250.5 C 346.575,253.206 346.908,255.873 347.5,258.5C 340.99,258.07 334.656,258.903 328.5,261C 323.02,263.815 317.854,266.982 313,270.5C 310.463,270.3 308.796,268.967 308,266.5C 307.863,261.702 308.697,257.035 310.5,252.5C 309.998,251.479 309.332,251.312 308.5,252C 301.618,257.303 300.118,263.803 304,271.5C 307.646,274.816 310.979,278.482 314,282.5C 314.667,284.833 314.667,287.167 314,289.5C 310.966,295.209 307.133,300.375 302.5,305C 297.167,307 291.833,307 286.5,305C 283.121,300.41 279.621,295.91 276,291.5C 273.623,283.594 276.123,277.928 283.5,274.5C 289.379,266.377 288.713,258.877 281.5,252C 280.4,251.568 279.733,252.068 279.5,253.5C 281.32,258.368 281.82,263.368 281,268.5C 279.562,269.718 277.895,270.385 276,270.5C 271.469,266.987 266.636,263.82 261.5,261C 255.344,258.903 249.01,258.07 242.5,258.5C 242.663,256.143 242.497,253.81 242,251.5C 230.75,262.012 225.583,275.012 226.5,290.5C 228.829,294.882 232.162,295.715 236.5,293C 243.044,286.89 250.711,284.557 259.5,286C 266.4,290.89 270.9,297.39 273,305.5C 276.466,306.202 279.966,306.869 283.5,307.5C 284.866,311.827 286.366,316.161 288,320.5C 292.041,325.313 296.375,325.646 301,321.5C 303.34,317.479 304.674,313.146 305,308.5C 308.656,307.031 312.489,306.031 316.5,305.5C 318.975,297.51 323.642,291.01 330.5,286C 333.833,285.333 337.167,285.333 340.5,286C 346.166,289.489 352.166,292.323 358.5,294.5C 359.748,293.96 360.915,293.293 362,292.5C 364.413,275.561 359.246,261.561 346.5,250.5 Z"/></g>
<g><path style="opacity:1" fill="#000000" d="M 73.5,229.5 C 74.8734,229.343 76.2068,229.51 77.5,230C 89.0351,241.867 100.202,254.033 111,266.5C 111.832,274.521 111.665,282.521 110.5,290.5C 102.981,284.571 95.6481,278.404 88.5,272C 86.1861,270.602 83.8528,270.435 81.5,271.5C 81.1667,278.667 80.8333,285.833 80.5,293C 80.3802,301.24 80.8802,309.406 82,317.5C 83.0495,318.517 84.2161,318.684 85.5,318C 93.6508,310.683 101.651,303.183 109.5,295.5C 110.427,301.972 111.093,308.472 111.5,315C 111.536,317.63 111.036,320.13 110,322.5C 99.6667,334.833 89.3333,347.167 79,359.5C 76.6667,360.833 74.3333,360.833 72,359.5C 67.6667,350.833 63.3333,342.167 59,333.5C 58.3333,307.5 58.3333,281.5 59,255.5C 63.5919,246.645 68.4253,237.978 73.5,229.5 Z"/></g>
<g><path style="opacity:1" fill="#000000" d="M 511.5,229.5 C 513.467,229.261 515.301,229.594 517,230.5C 521.667,239.167 526.333,247.833 531,256.5C 531.667,281.833 531.667,307.167 531,332.5C 526.5,341.5 522,350.5 517.5,359.5C 513.475,361.299 510.308,360.299 508,356.5C 497.833,344.167 487.667,331.833 477.5,319.5C 478.25,311.515 479.083,303.515 480,295.5C 487.803,302.302 495.303,309.469 502.5,317C 504.679,318.987 506.512,318.82 508,316.5C 508.667,301.5 508.667,286.5 508,271.5C 505.79,270.251 503.624,270.418 501.5,272C 493.978,278.356 486.311,284.523 478.5,290.5C 477.335,282.855 477.169,275.188 478,267.5C 489.375,254.962 500.542,242.295 511.5,229.5 Z"/></g>
<g><path style="opacity:1" fill="#000000" d="M 250.5,264.5 C 257.769,267.367 265.102,270.034 272.5,272.5C 273.026,275.808 271.693,277.974 268.5,279C 262.071,279.968 256.571,278.135 252,273.5C 250.711,270.649 250.211,267.649 250.5,264.5 Z"/></g>
<g><path style="opacity:1" fill="#000000" d="M 337.5,264.5 C 338.693,264.97 339.36,265.97 339.5,267.5C 337.574,274.92 332.74,278.92 325,279.5C 322.105,279.468 319.605,278.468 317.5,276.5C 316.289,275.28 316.289,274.113 317.5,273C 324.372,270.39 331.038,267.557 337.5,264.5 Z"/></g>
<g><path style="opacity:1" fill="#000000" d="M 237.5,271.5 C 244.258,271.096 248.092,274.096 249,280.5C 244.181,284.919 240.181,284.252 237,278.5C 236.297,276.071 236.463,273.738 237.5,271.5 Z"/></g>
<g><path style="opacity:1" fill="#000000" d="M 346.5,271.5 C 348.5,271.5 350.5,271.5 352.5,271.5C 353.154,275.839 352.154,279.673 349.5,283C 342.199,284.664 339.699,282.164 342,275.5C 343.397,273.93 344.897,272.596 346.5,271.5 Z"/></g>
<g><path style="opacity:1" fill="#000000" d="M 247.5,332.5 C 249.857,332.337 252.19,332.503 254.5,333C 257.968,334.97 261.301,337.136 264.5,339.5C 264.833,341.167 265.167,342.833 265.5,344.5C 264.998,352.403 264.331,360.237 263.5,368C 255.226,367.751 249.726,363.584 247,355.5C 244.867,347.716 245.033,340.049 247.5,332.5 Z"/></g>
<g><path style="opacity:1" fill="#000000" d="M 334.5,332.5 C 337.711,332.012 340.544,332.679 343,334.5C 343.667,340.833 343.667,347.167 343,353.5C 341.347,361.82 336.347,366.82 328,368.5C 326.347,368.18 325.347,367.18 325,365.5C 324.333,356.833 324.333,348.167 325,339.5C 328.501,337.512 331.668,335.178 334.5,332.5 Z"/></g>
<g><path style="opacity:1" fill="#000000" d="M 274.5,344.5 C 287.837,344.333 301.171,344.5 314.5,345C 316.045,346.822 316.712,348.989 316.5,351.5C 316.301,355.63 315.467,359.63 314,363.5C 312.612,364.554 311.112,364.72 309.5,364C 307.543,359.917 305.21,356.083 302.5,352.5C 297.64,350.016 292.64,349.849 287.5,352C 284.539,355.417 282.206,359.25 280.5,363.5C 276.315,364.841 274.149,363.174 274,358.5C 273.227,353.748 273.393,349.081 274.5,344.5 Z"/></g>
<g><path style="opacity:1" fill="#000000" d="M 108.5,352.5 C 114.488,369.831 121.655,386.831 130,403.5C 133.565,409.466 137.731,414.966 142.5,420C 139.462,424.571 136.295,429.071 133,433.5C 132.333,435.167 132.333,436.833 133,438.5C 139.597,444.818 146.097,451.318 152.5,458C 154.833,460 157.167,460 159.5,458C 162.682,454.651 166.015,451.484 169.5,448.5C 184.512,462.325 201.512,473.158 220.5,481C 228.042,483.469 235.709,485.469 243.5,487C 236.365,495.136 228.865,502.97 221,510.5C 152.818,492.331 105.651,450.497 79.5,385C 89.526,374.417 99.1927,363.584 108.5,352.5 Z"/></g>
<g><path style="opacity:1" fill="#000000" d="M 479.5,352.5 C 483.417,355.914 487.251,359.58 491,363.5C 497.415,370.69 503.582,378.024 509.5,385.5C 483.449,451.39 436.116,492.89 367.5,510C 360.683,502.349 353.683,494.849 346.5,487.5C 367.974,483.261 387.307,474.428 404.5,461C 409.389,456.44 414.555,452.274 420,448.5C 423.47,452.299 427.303,455.799 431.5,459C 432.833,459.667 434.167,459.667 435.5,459C 441.978,452.19 448.811,445.69 456,439.5C 456.309,438.234 456.809,437.067 457.5,436C 454.224,430.392 450.557,425.058 446.5,420C 455.2,410.78 462.034,400.28 467,388.5C 472.066,376.803 476.232,364.803 479.5,352.5 Z"/></g>
<g><path style="opacity:1" fill="#000000" d="M 280.5,372.5 C 290.172,372.334 299.839,372.5 309.5,373C 313.65,381.356 313.15,389.523 308,397.5C 285.641,406.989 275.641,399.655 278,375.5C 278.698,374.309 279.531,373.309 280.5,372.5 Z"/></g>
<g><path style="opacity:1" fill="#000000" d="M 264.5,378.5 C 265.458,378.953 266.292,379.619 267,380.5C 269.74,387.91 274.074,394.243 280,399.5C 280.333,403.833 280.667,408.167 281,412.5C 284.109,414.125 287.442,415.125 291,415.5C 294.462,414.87 297.962,414.703 301.5,415C 304.458,414.771 306.958,413.604 309,411.5C 309.405,407.787 309.405,404.121 309,400.5C 315.415,394.671 320.082,387.671 323,379.5C 323.718,378.549 324.551,378.383 325.5,379C 327.209,388.984 326.542,398.818 323.5,408.5C 324.256,413.533 324.756,418.533 325,423.5C 318.248,427.46 311.414,431.293 304.5,435C 301.988,438.846 298.821,442.012 295,444.5C 290.513,442.679 287.346,439.513 285.5,435C 278.709,431.702 272.042,428.202 265.5,424.5C 265.249,417.544 265.082,410.544 265,403.5C 261.922,395.19 261.756,386.857 264.5,378.5 Z"/></g>
<g><path style="opacity:1" fill="#000000" d="M 277.5,481.5 C 281.059,481.284 284.559,481.618 288,482.5C 289.442,483.212 290.275,484.379 290.5,486C 283.719,494.452 276.552,502.618 269,510.5C 268.493,511.996 268.993,513.163 270.5,514C 287.324,520.213 303.991,519.879 320.5,513C 320.833,512.667 321.167,512.333 321.5,512C 314.333,504.167 307.167,496.333 300,488.5C 299.137,482.967 301.637,480.634 307.5,481.5C 312.83,482.03 318.164,482.53 323.5,483C 335.293,491.125 345.459,500.959 354,512.5C 354.743,515.783 354.076,518.783 352,521.5C 347.418,525.545 342.251,528.711 336.5,531C 305.249,543.38 274.582,542.047 244.5,527C 241,524.833 238.167,522 236,518.5C 235.21,515.366 235.543,512.366 237,509.5C 245.846,499.988 255.346,491.155 265.5,483C 269.688,482.824 273.688,482.324 277.5,481.5 Z"/></g>
</svg>
