<?xml version="1.0" encoding="UTF-8"?>
<!DOCTYPE svg PUBLIC "-//W3C//DTD SVG 1.1//EN" "http://www.w3.org/Graphics/SVG/1.1/DTD/svg11.dtd">
<svg xmlns="http://www.w3.org/2000/svg" version="1.1" width="591px" height="591px" style="shape-rendering:geometricPrecision; text-rendering:geometricPrecision; image-rendering:optimizeQuality; fill-rule:evenodd; clip-rule:evenodd" xmlns:xlink="http://www.w3.org/1999/xlink">
<g><path style="opacity:1" fill="#000000" d="M 280.5,40.5 C 284.582,40.3436 288.582,40.8436 292.5,42C 286.306,44.1834 283.306,48.5168 283.5,55C 284.947,65.7324 288.78,75.5658 295,84.5C 301.842,74.4999 305.508,63.4999 306,51.5C 305.058,46.7243 302.225,43.7243 297.5,42.5C 315.864,38.119 324.698,45.4523 324,64.5C 333.969,57.015 342.969,58.015 351,67.5C 354.639,72.5805 356.806,78.2471 357.5,84.5C 356.894,91.1071 353.561,95.7737 347.5,98.5C 343.621,80.7689 336.121,78.7689 325,92.5C 323.414,94.6705 322.08,97.0038 321,99.5C 309.365,150.537 329.532,172.037 381.5,164C 396.296,160.11 403.962,150.443 404.5,135C 403.485,120.817 395.818,112.984 381.5,111.5C 371.194,111.558 364.027,116.224 360,125.5C 357.827,133.317 360.66,138.15 368.5,140C 363.293,135.033 363.626,130.366 369.5,126C 378.997,121.387 385.83,123.887 390,133.5C 391.15,149.025 383.816,157.025 368,157.5C 350.441,156.839 341.274,147.839 340.5,130.5C 341.232,109.93 351.899,98.4304 372.5,96C 394.962,93.8128 413.128,101.646 427,119.5C 432.695,130.634 435.862,142.467 436.5,155C 436.715,159.018 435.715,162.685 433.5,166C 426.53,165.545 419.53,165.545 412.5,166C 404.657,166.991 398.824,170.824 395,177.5C 392.768,180.799 393.102,183.799 396,186.5C 400.394,173.552 409.227,168.886 422.5,172.5C 422.657,173.873 422.49,175.207 422,176.5C 412.123,181.539 405.289,189.206 401.5,199.5C 402.548,201.456 403.048,203.456 403,205.5C 375.631,193.852 349.464,196.185 324.5,212.5C 310.843,198.201 301.01,181.534 295,162.5C 288.561,181.39 278.561,198.057 265,212.5C 240.148,196.214 214.148,193.88 187,205.5C 188.525,199.196 187.192,193.53 183,188.5C 177.73,183.548 172.23,179.048 166.5,175C 167.093,173.118 168.427,172.118 170.5,172C 182.336,170.335 190.17,175.169 194,186.5C 196.048,175.829 191.548,169.329 180.5,167C 173.375,165.236 166.209,165.07 159,166.5C 156.463,166.3 154.796,164.967 154,162.5C 150.407,128.83 164.573,106.664 196.5,96C 208.521,94.4597 220.188,95.793 231.5,100C 243.494,106.47 249.494,116.636 249.5,130.5C 247.991,147.841 238.491,156.841 221,157.5C 208.892,157.222 201.392,151.222 198.5,139.5C 200.163,125.509 207.496,121.009 220.5,126C 224.854,129.79 225.521,134.123 222.5,139C 227.523,138.301 230.19,135.301 230.5,130C 227.886,118.064 220.386,111.897 208,111.5C 187.918,115.331 180.918,126.998 187,146.5C 189.686,153.729 194.52,158.895 201.5,162C 215.715,166.301 230.048,166.635 244.5,163C 259.808,159.569 268.641,150.069 271,134.5C 272.234,122.293 271.234,110.293 268,98.5C 264.888,91.0522 259.554,86.0522 252,83.5C 249.497,83.99 247.497,85.3234 246,87.5C 244.411,91.0309 243.245,94.6976 242.5,98.5C 234.033,94.8999 230.867,88.5665 233,79.5C 235.065,71.8566 239.232,65.6899 245.5,61C 253.015,58.3153 259.848,59.4819 266,64.5C 264.03,52.0695 268.863,44.0695 280.5,40.5 Z M 274.5,78.5 C 283.813,87.7574 290.646,98.7574 295,111.5C 299.018,99.1267 305.351,88.1267 314,78.5C 314.75,79.1258 315.584,79.6258 316.5,80C 301.782,94.1553 296.282,111.322 300,131.5C 302.481,151.642 311.981,167.475 328.5,179C 341.695,185.64 355.695,188.973 370.5,189C 337.193,192.931 313.359,179.764 299,149.5C 297.198,144.625 295.865,139.625 295,134.5C 285.194,173.976 260.027,192.143 219.5,189C 238.862,189.324 256.029,183.491 271,171.5C 276.059,164.772 280.726,157.772 285,150.5C 291.607,132.884 291.941,115.218 286,97.5C 282.973,91.4511 278.973,86.1178 274,81.5C 273.53,80.4232 273.697,79.4232 274.5,78.5 Z"/></g>
<g><path style="opacity:1" fill="#000000" d="M 122.5,166.5 C 145.091,165.213 163.258,173.546 177,191.5C 180.407,195.628 182.074,200.295 182,205.5C 178.167,210.5 174.333,215.5 170.5,220.5C 166.449,210.948 159.783,203.781 150.5,199C 131.874,193.089 115.708,197.256 102,211.5C 81.9759,239.267 77.9759,269.267 90,301.5C 98.3287,315.168 108.829,327.001 121.5,337C 134.956,347.118 148.956,356.451 163.5,365C 168.129,367.905 172.296,371.405 176,375.5C 175.968,373.402 175.301,371.402 174,369.5C 171.5,367 169,364.5 166.5,362C 142.669,347.846 120.836,331.012 101,311.5C 88.033,292.663 84.033,271.996 89,249.5C 93.7988,224.534 108.632,209.867 133.5,205.5C 161.079,208.969 174.412,224.636 173.5,252.5C 173.314,257.178 172.981,261.844 172.5,266.5C 173.884,272.128 174.717,277.795 175,283.5C 171.703,286.567 167.869,288.733 163.5,290C 151.534,293.667 139.534,294.001 127.5,291C 115.086,284.523 108.752,274.189 108.5,260C 110.199,242.817 119.533,235.817 136.5,239C 137.931,239.465 139.097,240.299 140,241.5C 141.563,246.718 141.896,252.051 141,257.5C 138.582,259.68 135.916,260.013 133,258.5C 127.666,261.676 127.166,265.509 131.5,270C 142.38,270.131 149.546,264.965 153,254.5C 153.505,239.495 146.338,230.495 131.5,227.5C 119.115,229.444 110.282,236.111 105,247.5C 99.0276,272.918 106.194,293.751 126.5,310C 129.58,312.29 132.747,314.457 136,316.5C 148.89,297.313 166.057,291.813 187.5,300C 193.149,304.462 196.315,310.296 197,317.5C 201.402,320.807 203.569,325.307 203.5,331C 203.278,333.944 202.611,336.777 201.5,339.5C 198.315,335.655 194.315,332.988 189.5,331.5C 186.08,333.002 185.746,335.002 188.5,337.5C 193.261,339.294 197.427,341.96 201,345.5C 201.257,351.042 200.757,356.542 199.5,362C 199.625,363.627 200.125,365.127 201,366.5C 208.03,373.865 215.364,380.865 223,387.5C 223.833,386.667 224.667,385.833 225.5,385C 219.284,377.7 215.784,369.2 215,359.5C 214.162,350.34 217.328,342.84 224.5,337C 232.05,333.392 239.717,330.058 247.5,327C 231.968,326.624 217.968,321.958 205.5,313C 199.336,307.678 195.002,301.178 192.5,293.5C 193.472,290.536 193.638,287.536 193,284.5C 188.573,275.312 183.907,266.312 179,257.5C 178.333,254.833 178.333,252.167 179,249.5C 182.631,246.244 183.964,242.244 183,237.5C 177.321,234.859 174.655,230.525 175,224.5C 178.058,219.577 182.558,217.077 188.5,217C 197.124,216.174 205.624,216.674 214,218.5C 222.716,218.511 230.882,221.011 238.5,226C 255.708,237.036 271.541,249.869 286,264.5C 284.088,250.907 276.588,241.741 263.5,237C 257.685,231.408 258.352,226.742 265.5,223C 271.732,221.855 276.899,223.688 281,228.5C 286.441,236.38 291.108,244.714 295,253.5C 298.688,242.612 304.522,233.112 312.5,225C 318.465,221.268 323.965,221.768 329,226.5C 329.79,229.634 329.457,232.634 328,235.5C 321.162,238.671 315.162,243.005 310,248.5C 306.997,253.193 304.997,258.193 304,263.5C 318.3,250.194 333.467,238.027 349.5,227C 357.066,222.301 365.232,219.134 374,217.5C 374.772,217.645 375.439,217.978 376,218.5C 386.09,216.098 396.256,215.932 406.5,218C 414.317,220.482 416.484,225.315 413,232.5C 409.996,234.339 407.496,236.673 405.5,239.5C 406.276,243.72 408.11,247.386 411,250.5C 411.667,252.167 411.667,253.833 411,255.5C 406.031,265.438 401.031,275.438 396,285.5C 395.85,288.421 396.35,291.254 397.5,294C 390.405,309.752 378.405,319.752 361.5,324C 355.181,325.082 348.848,326.082 342.5,327C 349.384,330.275 356.384,333.275 363.5,336C 372.66,342.461 376.16,351.294 374,362.5C 373.157,371.016 369.99,378.516 364.5,385C 364.613,386.28 365.28,387.113 366.5,387.5C 374.152,380.348 381.652,373.015 389,365.5C 389.624,359.404 389.124,353.404 387.5,347.5C 390.995,342.733 395.661,339.399 401.5,337.5C 403.588,332.981 402.254,331.148 397.5,332C 393.759,333.738 390.592,336.238 388,339.5C 386.886,337.03 386.386,334.364 386.5,331.5C 385.779,325.614 387.779,320.948 392.5,317.5C 393.836,305.332 400.503,298.165 412.5,296C 430.187,294.844 443.854,301.677 453.5,316.5C 482.188,299.791 492.021,275.457 483,243.5C 477.063,234.78 468.896,229.446 458.5,227.5C 442.581,230.669 435.414,240.336 437,256.5C 440.975,265.495 447.809,269.995 457.5,270C 461.897,267.465 462.563,264.131 459.5,260C 456.114,259.395 452.614,258.895 449,258.5C 445.008,240.495 451.841,234.328 469.5,240C 477.726,244.281 481.393,251.114 480.5,260.5C 480.124,280.875 469.791,291.875 449.5,293.5C 439.547,293.143 429.881,291.309 420.5,288C 417.437,286.32 415.104,283.987 413.5,281C 417.676,271.851 418.676,262.351 416.5,252.5C 415.375,224.794 428.542,209.127 456,205.5C 478.05,209.369 492.383,222.035 499,243.5C 506.434,268.897 502.434,292.23 487,313.5C 466.868,332.305 445.035,348.805 421.5,363C 417.559,366.087 415.059,369.92 414,374.5C 426.889,363.968 440.722,354.801 455.5,347C 473.084,334.084 487.917,318.584 500,300.5C 510.997,270.141 507.664,241.474 490,214.5C 477.704,199.959 462.204,194.126 443.5,197C 432.367,201.801 424.2,209.635 419,220.5C 414.431,214.934 410.264,209.101 406.5,203C 416.712,181.28 433.712,169.113 457.5,166.5C 470.777,166.426 482.777,170.259 493.5,178C 532.115,213.741 542.281,256.574 524,306.5C 521.861,312.112 519.194,317.446 516,322.5C 510.059,329.896 503.559,336.729 496.5,343C 485.772,350.726 474.772,358.059 463.5,365C 443.04,375.397 422.707,386.063 402.5,397C 397.58,399.916 393.247,403.582 389.5,408C 400.3,420.095 408.134,433.928 413,449.5C 415.291,459.619 414.958,469.619 412,479.5C 405.843,487.665 397.676,490.499 387.5,488C 380.81,485.974 376.977,481.474 376,474.5C 374.639,465.229 376.806,456.896 382.5,449.5C 379.106,428.942 368.94,412.609 352,400.5C 346.42,403.373 340.92,406.373 335.5,409.5C 315.008,399.842 301.508,384.176 295,362.5C 287.716,383.611 274.216,399.278 254.5,409.5C 248.76,406.881 243.26,403.881 238,400.5C 222.873,411.288 212.873,425.621 208,443.5C 207.333,446.167 207.333,448.833 208,451.5C 215.481,461.972 215.981,472.639 209.5,483.5C 207.287,485.774 204.621,487.274 201.5,488C 183.706,490.377 174.706,482.543 174.5,464.5C 176.587,443.387 184.754,425.054 199,409.5C 199.667,408.5 199.667,407.5 199,406.5C 193.277,401.389 187.11,396.889 180.5,393C 148.035,378.614 117.701,360.948 89.5,340C 69.7949,322.749 59.6283,300.916 59,274.5C 54.0329,244.025 61.3663,217.025 81,193.5C 91.5684,179.31 105.402,170.31 122.5,166.5 Z M 235.5,264.5 C 219.926,257.095 207.259,246.261 197.5,232C 199.598,232.032 201.598,232.699 203.5,234C 214.971,243.304 225.637,253.47 235.5,264.5 Z M 389.5,231.5 C 390.376,231.369 391.043,231.702 391.5,232.5C 381.815,247.627 368.815,258.46 352.5,265C 363.833,252.489 376.167,241.322 389.5,231.5 Z M 196.5,247.5 C 205.594,263.086 218.594,274.253 235.5,281C 241.286,282.817 246.953,284.817 252.5,287C 237.606,288.112 223.606,284.778 210.5,277C 203.511,272.346 198.344,266.179 195,258.5C 194.413,254.69 194.913,251.023 196.5,247.5 Z M 391.5,248.5 C 392.376,248.369 393.043,248.702 393.5,249.5C 395.468,252.866 395.635,256.199 394,259.5C 386.906,273.153 375.739,281.653 360.5,285C 354.718,286.423 348.884,287.59 343,288.5C 341.033,288.458 339.199,287.958 337.5,287C 355.993,282.34 371.827,273.173 385,259.5C 387.694,256.108 389.86,252.441 391.5,248.5 Z M 294.5,284.5 C 298.74,291.284 300.74,298.784 300.5,307C 300.456,315.889 298.622,324.389 295,332.5C 286.942,316.529 286.775,300.529 294.5,284.5 Z M 275.5,286.5 C 279.342,290.213 280.176,294.547 278,299.5C 273.951,305.866 268.117,309.366 260.5,310C 243.015,312.729 228.348,307.729 216.5,295C 223.297,297.545 230.297,299.879 237.5,302C 248.472,304.98 258.805,303.647 268.5,298C 271.986,294.861 274.319,291.027 275.5,286.5 Z M 373.5,294.5 C 364.267,305.311 352.434,310.645 338,310.5C 327.458,311.865 318.791,308.532 312,300.5C 310.517,297.298 310.183,293.964 311,290.5C 311.368,289.09 312.201,288.09 313.5,287.5C 318.685,298.428 327.352,303.762 339.5,303.5C 351.385,302.537 362.719,299.537 373.5,294.5 Z M 166.5,307.5 C 170.839,306.846 174.673,307.846 178,310.5C 178.667,312.167 178.667,313.833 178,315.5C 177.439,316.022 176.772,316.355 176,316.5C 168.82,312.996 162.487,313.996 157,319.5C 154.608,322.228 152.608,325.228 151,328.5C 150.659,322.876 152.326,317.876 156,313.5C 159.069,310.554 162.569,308.554 166.5,307.5 Z M 414.5,307.5 C 429.778,306.946 437.945,314.28 439,329.5C 436.271,323.437 432.104,318.603 426.5,315C 421.399,314.599 416.399,314.932 411.5,316C 410.088,312.322 411.088,309.489 414.5,307.5 Z M 168.5,326.5 C 171.55,325.923 173.55,327.09 174.5,330C 171.387,329.947 168.887,331.114 167,333.5C 165.769,336.961 164.269,340.294 162.5,343.5C 158.728,340.139 158.562,336.472 162,332.5C 164.063,330.266 166.229,328.266 168.5,326.5 Z M 416.5,326.5 C 425.604,327.434 429.77,332.434 429,341.5C 428.581,342.672 427.915,343.672 427,344.5C 425.573,339.878 423.573,335.545 421,331.5C 419.175,330.897 417.341,330.23 415.5,329.5C 416.127,328.583 416.461,327.583 416.5,326.5 Z M 275.5,327.5 C 279.09,327.544 281.59,329.211 283,332.5C 284.439,337.762 284.772,343.096 284,348.5C 277.179,354.982 270.012,361.149 262.5,367C 260.5,367.667 258.5,367.667 256.5,367C 251.661,362.494 249.161,356.994 249,350.5C 256.817,341.506 265.65,333.84 275.5,327.5 Z M 310.5,327.5 C 314.062,327.965 317.395,329.132 320.5,331C 327,336.833 333.5,342.667 340,348.5C 340.836,355.673 338.669,361.84 333.5,367C 330.697,367.755 328.03,367.422 325.5,366C 318.722,360.856 312.222,355.356 306,349.5C 305.333,344.5 305.333,339.5 306,334.5C 306.938,331.743 308.438,329.41 310.5,327.5 Z M 177.5,342.5 C 180.652,341.959 183.152,342.959 185,345.5C 184.962,349.885 184.629,354.218 184,358.5C 189.073,374.908 198.74,387.908 213,397.5C 213.5,399.667 212.667,400.5 210.5,400C 193.599,388.429 183.099,372.595 179,352.5C 175.242,349.51 174.742,346.177 177.5,342.5 Z M 407.5,342.5 C 415.116,343.512 416.282,346.845 411,352.5C 406.529,373.35 395.362,389.184 377.5,400C 376.549,399.282 376.383,398.449 377,397.5C 387.131,389.707 395.464,380.373 402,369.5C 405.884,362.548 406.384,355.382 403.5,348C 404.007,345.455 405.341,343.621 407.5,342.5 Z M 384.5,422.5 C 387.832,425 390.666,428 393,431.5C 399.019,442.552 401.352,454.218 400,466.5C 398.326,470.253 395.493,471.753 391.5,471C 390.812,466.675 391.646,462.509 394,458.5C 394.667,454.5 394.667,450.5 394,446.5C 391.633,438.111 388.466,430.111 384.5,422.5 Z M 204.5,423.5 C 199.489,432.698 196.156,442.531 194.5,453C 195.887,458.436 197.554,463.769 199.5,469C 197.306,471.827 194.639,472.16 191.5,470C 188.664,464.507 187.831,458.673 189,452.5C 190.876,444.872 193.543,437.538 197,430.5C 198.715,427.283 201.215,424.95 204.5,423.5 Z M 237.5,425.5 C 250.816,432.65 260.983,442.984 268,456.5C 270.05,460.302 271.05,464.302 271,468.5C 267.618,460.896 263.118,454.062 257.5,448C 253.752,446.338 249.919,445.172 246,444.5C 244.031,440.768 243.031,436.768 243,432.5C 240.196,430.869 238.362,428.536 237.5,425.5 Z M 318.5,467.5 C 319.832,458.836 323.332,451.169 329,444.5C 335.424,437.237 342.591,430.904 350.5,425.5C 350.833,426 351.167,426.5 351.5,427C 350.392,429.112 348.892,430.946 347,432.5C 347.302,437.939 345.469,442.439 341.5,446C 338.756,445.009 336.089,445.343 333.5,447C 327.623,453.28 322.623,460.113 318.5,467.5 Z"/></g>
<g><path style="opacity:1" fill="#000000" d="M 231.5,417.5 C 252.283,416.461 266.783,425.461 275,444.5C 285.705,469.471 289.705,495.471 287,522.5C 285.71,526.24 283.543,529.407 280.5,532C 279.216,532.684 278.049,532.517 277,531.5C 278.052,508.997 272.052,488.664 259,470.5C 255.633,466.797 251.966,463.464 248,460.5C 248.237,499.038 232.07,528.371 199.5,548.5C 199.167,548.167 198.833,547.833 198.5,547.5C 205.274,533.62 211.774,519.62 218,505.5C 224.775,487.575 225.108,469.575 219,451.5C 217.729,448.567 216.062,445.901 214,443.5C 211.763,433.562 215.263,430.229 224.5,433.5C 225.327,429.541 225.827,425.541 226,421.5C 226.374,420.584 226.874,419.75 227.5,419C 229.058,418.79 230.391,418.29 231.5,417.5 Z M 237.5,425.5 C 238.362,428.536 240.196,430.869 243,432.5C 243.031,436.768 244.031,440.768 246,444.5C 249.919,445.172 253.752,446.338 257.5,448C 263.118,454.062 267.618,460.896 271,468.5C 271.05,464.302 270.05,460.302 268,456.5C 260.983,442.984 250.816,432.65 237.5,425.5 Z"/></g>
<g><path style="opacity:1" fill="#000000" d="M 348.5,417.5 C 352.936,417.21 357.27,417.71 361.5,419C 362.893,420.171 363.727,421.671 364,423.5C 364.333,426.833 364.667,430.167 365,433.5C 373.557,430.038 377.224,433.038 376,442.5C 366.906,456.22 363.906,471.22 367,487.5C 368.403,495.778 370.736,503.778 374,511.5C 379.705,523.743 385.538,535.91 391.5,548C 368.404,535.766 352.904,516.932 345,491.5C 342.601,481.31 341.268,470.977 341,460.5C 320.053,479.818 310.553,503.818 312.5,532.5C 310.856,532.714 309.356,532.38 308,531.5C 307.047,529.545 305.713,527.878 304,526.5C 302.956,524.285 302.29,521.952 302,519.5C 299.917,490.988 305.251,463.988 318,438.5C 322.161,431.974 327.328,426.474 333.5,422C 338.482,420.01 343.482,418.51 348.5,417.5 Z M 318.5,467.5 C 322.623,460.113 327.623,453.28 333.5,447C 336.089,445.343 338.756,445.009 341.5,446C 345.469,442.439 347.302,437.939 347,432.5C 348.892,430.946 350.392,429.112 351.5,427C 351.167,426.5 350.833,426 350.5,425.5C 342.591,430.904 335.424,437.237 329,444.5C 323.332,451.169 319.832,458.836 318.5,467.5 Z"/></g>
</svg>
