<?xml version="1.0" encoding="UTF-8"?>
<!DOCTYPE svg PUBLIC "-//W3C//DTD SVG 1.1//EN" "http://www.w3.org/Graphics/SVG/1.1/DTD/svg11.dtd">
<svg xmlns="http://www.w3.org/2000/svg" version="1.1" width="275px" height="275px" style="shape-rendering:geometricPrecision; text-rendering:geometricPrecision; image-rendering:optimizeQuality; fill-rule:evenodd; clip-rule:evenodd" xmlns:xlink="http://www.w3.org/1999/xlink">
<g><path style="opacity:1" fill="#241817" d="M 237.5,26.5 C 238.586,26.62 239.253,27.2867 239.5,28.5C 238.775,32.9646 237.608,37.2979 236,41.5C 211.08,78.3404 185.914,115.007 160.5,151.5C 155.328,154.026 149.994,155.026 144.5,154.5C 145.973,150.749 147.64,147.083 149.5,143.5C 150.002,142.479 150.668,142.312 151.5,143C 153.56,147.02 155.56,147.187 157.5,143.5C 156.019,142.52 154.685,141.353 153.5,140C 176.5,109.667 199.5,79.3333 222.5,49C 222.167,48.8333 221.833,48.6667 221.5,48.5C 196.842,77.3284 172.342,106.328 148,135.5C 145.727,132.396 143.56,132.229 141.5,135C 143.09,136.046 144.59,137.213 146,138.5C 146.667,139.167 146.667,139.833 146,140.5C 143.54,141.958 141.373,143.791 139.5,146C 137.975,147.009 136.308,147.509 134.5,147.5C 134.334,142.156 134.501,136.823 135,131.5C 165.485,98.0478 196.318,64.8812 227.5,32C 231.056,30.3924 234.389,28.5591 237.5,26.5 Z"/></g>
<g><path style="opacity:1" fill="#231716" d="M 145.5,56.5 C 158.887,56.4289 171.221,59.9289 182.5,67C 183.554,68.3876 183.72,69.8876 183,71.5C 181.156,73.8723 179.322,76.2056 177.5,78.5C 164.561,69.0163 150.228,62.5163 134.5,59C 138.169,57.9072 141.836,57.0738 145.5,56.5 Z"/></g>
<g><path style="opacity:1" fill="#271c1b" d="M 139.5,73.5 C 149.634,76.3708 158.801,81.0374 167,87.5C 167.497,91.1947 165.997,93.8614 162.5,95.5C 161.833,95.1667 161.167,94.8333 160.5,94.5C 155.295,88.8854 149.628,83.7188 143.5,79C 141.536,77.549 140.203,75.7157 139.5,73.5 Z"/></g>
<g><path style="opacity:1" fill="#231616" d="M 204.5,94.5 C 206.017,94.5106 207.184,95.1772 208,96.5C 219.887,115.06 220.553,134.06 210,153.5C 206.616,160.3 202.283,166.3 197,171.5C 196.5,171.167 196,170.833 195.5,170.5C 196.453,165.286 195.62,160.286 193,155.5C 189.445,151.608 185.612,148.108 181.5,145C 180.652,142.23 180.319,139.397 180.5,136.5C 189.57,137.616 196.07,142.282 200,150.5C 200.598,146.947 199.931,143.614 198,140.5C 194.573,133.977 190.406,127.977 185.5,122.5C 187.504,118.32 190.504,115.487 194.5,114C 199,119.969 202.667,126.469 205.5,133.5C 206.662,128.869 206.828,124.202 206,119.5C 203.972,113.944 201.805,108.444 199.5,103C 200.979,100.029 202.645,97.1961 204.5,94.5 Z"/></g>
<g><path style="opacity:1" fill="#211515" d="M 96.5,95.5 C 98.2252,95.8425 98.7252,96.8425 98,98.5C 78.4395,121.185 70.1062,147.519 73,177.5C 74.8887,184.888 76.0554,192.388 76.5,200C 76.3333,202.833 76.1667,205.667 76,208.5C 75.885,211.008 74.885,213.008 73,214.5C 50.5357,207.243 37.7023,191.91 34.5,168.5C 34.8333,166.5 35.1667,164.5 35.5,162.5C 40.8609,175.021 48.6943,185.688 59,194.5C 55.0815,185.308 51.0815,175.975 47,166.5C 44.8653,159.295 43.3653,151.961 42.5,144.5C 42.4982,137.473 45.1649,131.807 50.5,127.5C 52.0604,135.766 53.2271,144.1 54,152.5C 55.2107,158.132 57.2107,163.466 60,168.5C 60.7398,152.394 63.7398,136.727 69,121.5C 74.4463,108.887 83.613,100.22 96.5,95.5 Z"/></g>
<g><path style="opacity:1" fill="#231716" d="M 104.5,118.5 C 105.496,118.414 106.329,118.748 107,119.5C 111.382,127.596 115.215,135.929 118.5,144.5C 114.865,145.114 111.198,145.448 107.5,145.5C 106.775,136.466 105.775,127.466 104.5,118.5 Z"/></g>
<g><path style="opacity:1" fill="#251918" d="M 84.5,142.5 C 90.6044,145.386 96.6044,148.553 102.5,152C 107.422,159.764 105.089,162.431 95.5,160C 92,155.167 88.5,150.333 85,145.5C 84.5172,144.552 84.3505,143.552 84.5,142.5 Z"/></g>
<g><path style="opacity:1" fill="#231716" d="M 141.5,147.5 C 142.376,147.369 143.043,147.702 143.5,148.5C 141.702,151.289 141.202,154.289 142,157.5C 147.099,164.373 148.765,172.04 147,180.5C 142.96,184.942 140.126,184.442 138.5,179C 140.3,175.736 140.8,172.236 140,168.5C 139.459,165.791 137.959,163.791 135.5,162.5C 134.585,163.328 133.919,164.328 133.5,165.5C 134.279,170.113 134.779,174.78 135,179.5C 137.064,181.243 137.564,183.243 136.5,185.5C 130.194,183.224 123.86,183.391 117.5,186C 115.5,188.333 113.5,190.667 111.5,193C 109.564,193.813 107.564,194.313 105.5,194.5C 105.363,188.471 107.697,183.638 112.5,180C 111.7,175.92 111.2,171.753 111,167.5C 109.833,165.667 108.667,163.833 107.5,162C 114.829,162.315 122.162,161.815 129.5,160.5C 129.424,156.359 127.257,154.692 123,155.5C 119.526,155.155 116.693,156.321 114.5,159C 112.527,159.495 110.527,159.662 108.5,159.5C 107.549,154.228 109.549,150.728 114.5,149C 121.441,147.879 128.108,148.712 134.5,151.5C 137.349,150.9 139.682,149.567 141.5,147.5 Z M 126.5,166.5 C 127.222,166.918 127.722,167.584 128,168.5C 128.497,171.146 128.664,173.813 128.5,176.5C 125.447,176.911 122.447,177.577 119.5,178.5C 118.343,175.216 118.176,171.882 119,168.5C 121.607,167.877 124.107,167.21 126.5,166.5 Z"/></g>
<g><path style="opacity:1" fill="#211514" d="M 216.5,151.5 C 217.496,151.414 218.329,151.748 219,152.5C 222.742,172.099 216.575,187.599 200.5,199C 188.233,207.301 175.233,214.301 161.5,220C 179.399,221.534 195.066,216.367 208.5,204.5C 206.246,216.951 198.913,225.451 186.5,230C 172.251,232.009 157.917,233.009 143.5,233C 153.232,236.766 163.232,239.6 173.5,241.5C 169.794,243.681 165.794,245.181 161.5,246C 154.833,246.667 148.167,246.667 141.5,246C 135.009,242.922 128.675,239.588 122.5,236C 113.888,234.616 105.221,233.782 96.5,233.5C 96.281,232.325 96.6143,231.325 97.5,230.5C 101.833,227.333 106.167,224.167 110.5,221C 149.069,218.835 180.569,203.002 205,173.5C 209.933,166.736 213.766,159.403 216.5,151.5 Z"/></g>
<g><path style="opacity:1" fill="#231716" d="M 99.5,164.5 C 101.167,164.5 102.833,164.5 104.5,164.5C 104.831,172.196 104.497,179.862 103.5,187.5C 102.081,185.664 100.914,183.664 100,181.5C 99.5006,175.843 99.3339,170.176 99.5,164.5 Z"/></g>
<g><path style="opacity:1" fill="#261b1a" d="M 82.5,165.5 C 86.1667,165.5 89.8333,165.5 93.5,165.5C 93.8174,168.572 93.4841,171.572 92.5,174.5C 88.4778,172.138 85.1445,169.138 82.5,165.5 Z"/></g>
<g><path style="opacity:1" fill="#251a19" d="M 151.5,170.5 C 161.43,172.151 171.096,174.651 180.5,178C 171.295,179.931 161.962,181.097 152.5,181.5C 152.677,177.766 152.344,174.099 151.5,170.5 Z"/></g>
<g><path style="opacity:1" fill="#271c1a" d="M 93.5,180.5 C 96.1257,182.764 97.459,185.764 97.5,189.5C 92.8215,189.666 88.1548,189.499 83.5,189C 87.0247,186.302 90.3581,183.469 93.5,180.5 Z"/></g>
<g><path style="opacity:1" fill="#241918" d="M 138.5,188.5 C 141.304,187.362 144.304,187.195 147.5,188C 152.015,192.215 156.182,196.715 160,201.5C 160.667,202.5 160.667,203.5 160,204.5C 153.892,201.74 147.725,199.073 141.5,196.5C 140.083,193.908 139.083,191.241 138.5,188.5 Z"/></g>
<g><path style="opacity:1" fill="#221615" d="M 131.5,189.5 C 135.151,189.162 136.817,190.828 136.5,194.5C 131.846,195.496 127.179,196.496 122.5,197.5C 119.201,197.262 116.201,196.262 113.5,194.5C 119.616,192.807 125.616,191.141 131.5,189.5 Z"/></g>
<g><path style="opacity:1" fill="#261b19" d="M 135.5,199.5 C 136.586,199.62 137.253,200.287 137.5,201.5C 138.089,204.022 138.755,206.522 139.5,209C 139.167,209.5 138.833,210 138.5,210.5C 134.762,208.303 131.429,205.636 128.5,202.5C 130.764,201.131 133.097,200.131 135.5,199.5 Z"/></g>
<g><path style="opacity:1" fill="#251a18" d="M 113.5,200.5 C 116.254,200.784 118.92,201.451 121.5,202.5C 116.187,218.579 113.521,217.912 113.5,200.5 Z"/></g>
<g><path style="opacity:1" fill="#241817" d="M 99.5,192.5 C 100.5,192.5 101.5,192.5 102.5,192.5C 102.062,196.908 104.062,198.575 108.5,197.5C 108.868,202.573 106.534,205.406 101.5,206C 97.6375,210.229 94.1375,214.729 91,219.5C 90.5045,221.473 90.3379,223.473 90.5,225.5C 87.4816,225.335 84.4816,225.502 81.5,226C 82.3366,227.011 82.67,228.178 82.5,229.5C 85.5719,229.183 88.5719,229.516 91.5,230.5C 89.6667,233.5 87.8333,236.5 86,239.5C 83.9327,236.93 81.4327,234.93 78.5,233.5C 77.691,241.603 74.5244,242.603 69,236.5C 68.5065,234.866 68.3398,233.199 68.5,231.5C 70.1667,231.5 71.8333,231.5 73.5,231.5C 72.6546,227.647 70.3213,224.981 66.5,223.5C 69.0536,221.292 71.5536,218.959 74,216.5C 75.4456,218.941 76.2789,221.608 76.5,224.5C 77.8734,224.657 79.2068,224.49 80.5,224C 79.7819,221.539 79.1153,219.039 78.5,216.5C 81.1451,215.808 83.6451,214.808 86,213.5C 89.5755,209.347 92.9088,205.014 96,200.5C 96.3333,198.5 96.6667,196.5 97,194.5C 97.9947,193.934 98.828,193.267 99.5,192.5 Z"/></g>
</svg>
