<?xml version="1.0" encoding="UTF-8"?>
<!DOCTYPE svg PUBLIC "-//W3C//DTD SVG 1.1//EN" "http://www.w3.org/Graphics/SVG/1.1/DTD/svg11.dtd">
<svg xmlns="http://www.w3.org/2000/svg" version="1.1" width="591px" height="591px" style="shape-rendering:geometricPrecision; text-rendering:geometricPrecision; image-rendering:optimizeQuality; fill-rule:evenodd; clip-rule:evenodd" xmlns:xlink="http://www.w3.org/1999/xlink">
<g><path style="opacity:1" fill="#000000" d="M 278.5,58.5 C 281.909,58.2493 285.242,58.5827 288.5,59.5C 289.333,74.1553 289.833,88.822 290,103.5C 294.953,107.928 298.287,106.928 300,100.5C 300.176,86.5918 300.676,72.7585 301.5,59C 323.232,58.3561 342.899,64.3561 360.5,77C 361.423,79.0408 361.756,81.2075 361.5,83.5C 343.258,85.4539 328.258,93.4539 316.5,107.5C 314.954,106.788 313.954,105.622 313.5,104C 315.27,95.4952 316.103,86.9952 316,78.5C 316.667,77.8333 317.333,77.1667 318,76.5C 321.358,79.3585 324.858,82.0251 328.5,84.5C 332.607,82.7051 333.273,80.2051 330.5,77C 324.429,72.9823 317.762,71.149 310.5,71.5C 310.667,84.8375 310.5,98.1708 310,111.5C 306.064,116.215 300.897,118.548 294.5,118.5C 288.789,118.535 283.956,116.535 280,112.5C 278.554,98.9066 278.054,85.24 278.5,71.5C 269.903,71.3073 262.569,74.1406 256.5,80C 257.369,82.3678 259.035,83.8678 261.5,84.5C 264.35,82.5729 267.017,80.4062 269.5,78C 273.424,77.7331 275.424,79.7331 275.5,84C 275.135,86.2605 274.469,88.4272 273.5,90.5C 274.894,95.4198 275.394,100.42 275,105.5C 274.311,106.357 273.478,107.023 272.5,107.5C 260.809,93.4853 245.809,85.4853 227.5,83.5C 226.959,80.3484 227.959,77.8484 230.5,76C 245.185,66.2746 261.185,60.4412 278.5,58.5 Z"/></g>
<g><path style="opacity:1" fill="#000000" d="M 202.5,77.5 C 203.75,77.5774 204.583,78.244 205,79.5C 211.833,95.1667 218.667,110.833 225.5,126.5C 204.583,135.574 185.916,148.074 169.5,164C 168.5,164.667 167.5,164.667 166.5,164C 156.333,153.833 146.167,143.667 136,133.5C 134.787,130.232 134.454,126.899 135,123.5C 148.322,110.597 162.822,99.2641 178.5,89.5C 183.921,94.4224 188.421,100.089 192,106.5C 192.667,108.167 192.667,109.833 192,111.5C 184.167,118 176.333,124.5 168.5,131C 163.178,131.34 161.011,128.84 162,123.5C 167.333,118.833 172.667,114.167 178,109.5C 178.345,107.799 177.678,106.466 176,105.5C 168.372,111.46 161.038,117.793 154,124.5C 153.333,125.167 153.333,125.833 154,126.5C 158.167,130.667 162.333,134.833 166.5,139C 167.167,139.667 167.833,139.667 168.5,139C 178.836,130.175 189.502,121.841 200.5,114C 195.635,104.437 190.635,94.9367 185.5,85.5C 191.064,82.4328 196.73,79.7661 202.5,77.5 Z"/></g>
<g><path style="opacity:1" fill="#000000" d="M 385.5,77.5 C 389.798,78.9765 394.132,80.4765 398.5,82C 400.813,82.6409 402.48,83.9743 403.5,86C 398.762,95.4765 393.762,104.81 388.5,114C 400.287,122.499 411.954,130.833 423.5,139C 428.015,134.652 432.349,130.152 436.5,125.5C 429.446,118.276 421.946,111.61 414,105.5C 412.322,106.466 411.655,107.799 412,109.5C 417.333,114.167 422.667,118.833 428,123.5C 428.881,129.286 426.381,131.786 420.5,131C 412.142,124.302 404.142,117.302 396.5,110C 399.009,101.327 404.009,94.494 411.5,89.5C 426.965,99.1235 441.132,110.457 454,123.5C 454.738,127.261 454.405,130.928 453,134.5C 443.167,144.333 433.333,154.167 423.5,164C 422.5,164.667 421.5,164.667 420.5,164C 403.99,147.907 384.99,135.573 363.5,127C 370.977,110.548 378.31,94.0482 385.5,77.5 Z"/></g>
<g><path style="opacity:1" fill="#000000" d="M 222.5,87.5 C 238.318,89.5767 252.318,95.7433 264.5,106C 270.647,112.484 277.647,117.817 285.5,122C 294.035,125.782 302.035,124.782 309.5,119C 321.795,107.713 335.462,98.3792 350.5,91C 355.979,88.3728 361.646,87.5395 367.5,88.5C 365.578,103.34 360.078,116.673 351,128.5C 348.131,131.704 344.965,134.537 341.5,137C 398.507,155.849 435.674,194.016 453,251.5C 465.076,234.215 481.576,224.882 502.5,223.5C 499.276,238.015 493.443,251.348 485,263.5C 477.912,270.584 471.578,278.251 466,286.5C 464.737,294.168 465.737,301.501 469,308.5C 477.816,318.804 486.15,329.471 494,340.5C 499.898,349.364 503.732,359.031 505.5,369.5C 483.867,368.35 465.867,359.684 451.5,343.5C 432.251,399.583 394.251,436.083 337.5,453C 356.278,464.036 366.278,480.536 367.5,502.5C 362.966,502.733 358.632,501.9 354.5,500C 335.897,491.058 319.231,479.392 304.5,465C 297.833,464.333 291.167,464.333 284.5,465C 267.147,483.176 246.48,496.009 222.5,503.5C 223.214,480.993 233.214,464.16 252.5,453C 195.228,436.452 157.061,399.952 138,343.5C 123.664,360.252 105.498,368.752 83.5,369C 88.3043,352.558 96.1377,337.724 107,324.5C 111.333,319.5 115.667,314.5 120,309.5C 125.005,301.123 125.671,292.456 122,283.5C 112.521,273.693 104.188,263.026 97,251.5C 92.1243,242.373 88.9577,232.707 87.5,222.5C 108.092,224.955 124.258,234.622 136,251.5C 153.901,194.599 191.068,156.432 247.5,137C 232.657,123.815 224.324,107.315 222.5,87.5 Z M 287.5,139.5 C 344.344,139.004 389.177,161.671 422,207.5C 460.485,272.361 456.818,334.695 411,394.5C 368.518,440.416 316.685,456.582 255.5,443C 190.84,421.994 153.007,377.828 142,310.5C 138.236,238.162 168.403,185.662 232.5,153C 250.229,145.493 268.562,140.993 287.5,139.5 Z"/></g>
<g><path style="opacity:1" fill="#000000" d="M 121.5,136.5 C 124.522,136.804 127.522,137.304 130.5,138C 141.651,147.984 152.318,158.484 162.5,169.5C 146.956,186.875 134.456,206.208 125,227.5C 110.224,221.195 95.3906,215.029 80.5,209C 78.522,208.519 77.1887,207.353 76.5,205.5C 78.0195,199.466 80.3529,193.799 83.5,188.5C 93.3236,193.245 102.99,198.245 112.5,203.5C 120.64,191.575 128.806,179.908 137,168.5C 132.833,164.333 128.667,160.167 124.5,156C 123.833,155.333 123.167,155.333 122.5,156C 115.793,163.038 109.46,170.372 103.5,178C 104.466,179.678 105.799,180.345 107.5,180C 112.167,174.667 116.833,169.333 121.5,164C 126.799,162.967 129.299,165.134 129,170.5C 122.679,179.48 115.679,187.813 108,195.5C 99.3273,192.991 92.494,187.991 87.5,180.5C 97.3904,164.72 108.724,150.053 121.5,136.5 Z"/></g>
<g><path style="opacity:1" fill="#000000" d="M 463.5,136.5 C 465.199,136.34 466.866,136.506 468.5,137C 479.75,149.014 489.917,161.848 499,175.5C 500.59,177.65 501.257,179.983 501,182.5C 495.756,188.408 489.423,192.741 482,195.5C 473.822,187.316 466.322,178.482 459.5,169C 460.928,164.454 463.928,162.787 468.5,164C 472.952,169.074 477.286,174.241 481.5,179.5C 484.59,180.914 485.757,179.914 485,176.5C 479.285,169.574 473.452,162.74 467.5,156C 461.425,159.04 456.092,163.373 451.5,169C 461.098,179.699 469.598,191.199 477,203.5C 486.579,198.627 496.079,193.627 505.5,188.5C 507.146,189.779 508.313,191.445 509,193.5C 510.653,197.779 512.153,202.112 513.5,206.5C 496.819,214.343 479.819,221.343 462.5,227.5C 459.707,217.578 455.54,208.245 450,199.5C 442.772,188.882 434.939,178.716 426.5,169C 437.137,159.364 447.471,149.364 457.5,139C 459.611,138.155 461.611,137.322 463.5,136.5 Z"/></g>
<g><path style="opacity:1" fill="#000000" d="M 294.5,143.5 C 298.298,146.796 301.964,150.296 305.5,154C 312.579,154.564 319.579,155.564 326.5,157C 331.954,161.908 335.621,167.908 337.5,175C 360.058,176.943 369.558,189.109 366,211.5C 364.636,214.363 362.47,216.363 359.5,217.5C 344.62,205.061 327.62,196.895 308.5,193C 279.962,189.403 254.962,197.07 233.5,216C 229.227,218.122 226.06,216.955 224,212.5C 221.217,202.918 222.55,193.918 228,185.5C 234.474,178.172 242.641,174.838 252.5,175.5C 253.847,167.98 257.513,161.813 263.5,157C 270.447,155.761 277.447,154.761 284.5,154C 288.037,150.631 291.371,147.131 294.5,143.5 Z"/></g>
<g><path style="opacity:1" fill="#000000" d="M 290.5,201.5 C 297.478,200.304 302.978,202.637 307,208.5C 308.709,211.418 310.542,214.252 312.5,217C 323.063,215.846 331.563,219.346 338,227.5C 339.123,230.956 338.29,233.79 335.5,236C 322.247,238.419 314.58,246.253 312.5,259.5C 313.224,263.953 314.391,268.286 316,272.5C 319.922,279.342 323.588,286.342 327,293.5C 327.667,294.833 327.667,296.167 327,297.5C 323.5,302.333 319.333,306.5 314.5,310C 309.128,310.154 304.461,308.32 300.5,304.5C 297.942,297.054 300.608,293.054 308.5,292.5C 308.824,289.32 307.49,288.153 304.5,289C 300.66,291.674 297.327,294.841 294.5,298.5C 292.15,296.313 290.15,293.813 288.5,291C 285.741,287.84 283.074,287.84 280.5,291C 283.381,292.358 286.214,293.858 289,295.5C 291.955,301.261 290.455,305.427 284.5,308C 281.001,310.704 277.334,311.037 273.5,309C 270,305.5 266.5,302 263,298.5C 262.333,296.5 262.333,294.5 263,292.5C 267.527,284.779 271.527,276.779 275,268.5C 278.61,257.33 275.777,248.163 266.5,241C 261.676,238.756 256.843,236.59 252,234.5C 251.333,231.833 251.333,229.167 252,226.5C 258.881,219.147 267.381,215.813 277.5,216.5C 280.823,210.518 285.157,205.518 290.5,201.5 Z"/></g>
<g><path style="opacity:1" fill="#000000" d="M 200.5,220.5 C 207.206,219.407 213.039,221.074 218,225.5C 218.667,227.5 218.667,229.5 218,231.5C 192.613,261.153 187.279,294.153 202,330.5C 206.213,338.707 211.213,346.373 217,353.5C 219.335,357.155 218.835,360.321 215.5,363C 204.029,367.301 193.529,365.467 184,357.5C 179.044,351.011 176.877,343.677 177.5,335.5C 160.306,331.774 153.139,321.108 156,303.5C 152.625,299.956 149.125,296.623 145.5,293.5C 148.818,289.682 152.318,286.015 156,282.5C 156.087,275.336 157.087,268.336 159,261.5C 163.675,255.991 169.509,252.325 176.5,250.5C 176.86,234.161 184.86,224.161 200.5,220.5 Z"/></g>
<g><path style="opacity:1" fill="#000000" d="M 379.5,220.5 C 390.106,219.979 399.273,223.312 407,230.5C 410.326,236.79 412.493,243.456 413.5,250.5C 420.396,252.528 426.23,256.195 431,261.5C 432.163,268.103 432.83,274.77 433,281.5C 436.882,285.046 440.382,288.879 443.5,293C 440.382,297.121 436.882,300.954 433,304.5C 435.916,317.364 431.749,326.864 420.5,333C 418.129,333.735 415.795,334.568 413.5,335.5C 410.788,358.35 398.121,367.85 375.5,364C 372.523,362.855 370.856,360.688 370.5,357.5C 381.732,344.037 389.566,328.704 394,311.5C 398.261,290.068 395.261,269.734 385,250.5C 380.328,243.007 375.494,235.674 370.5,228.5C 372.25,224.416 375.25,221.75 379.5,220.5 Z"/></g>
<g><path style="opacity:1" fill="#000000" d="M 77.5,229.5 C 79.1667,229.5 80.8333,229.5 82.5,229.5C 84.9895,247.481 92.9895,262.481 106.5,274.5C 105.663,276.505 104.163,277.505 102,277.5C 98.157,276.88 94.3236,276.213 90.5,275.5C 86.5351,276.53 82.5351,276.697 78.5,276C 76.7888,274.867 76.2888,273.367 77,271.5C 79.9478,269.225 82.1144,266.391 83.5,263C 82.1205,258.706 79.7872,257.872 76.5,260.5C 72.721,266.33 70.8876,272.663 71,279.5C 84.0915,280.324 97.2582,280.824 110.5,281C 115.611,284.803 117.944,289.969 117.5,296.5C 117.944,303.031 115.611,308.197 110.5,312C 97.2582,312.176 84.0915,312.676 71,313.5C 70.7311,321.703 73.3978,328.703 79,334.5C 81.5,334 83,332.5 83.5,330C 82.1144,326.609 79.9478,323.775 77,321.5C 76.3162,320.216 76.4829,319.049 77.5,318C 85.8258,318.03 94.1592,317.196 102.5,315.5C 104.397,315.728 105.73,316.728 106.5,318.5C 92.9895,330.519 84.9895,345.519 82.5,363.5C 79.3484,364.041 76.8484,363.041 75,360.5C 63.1591,342.975 57.8257,323.642 59,302.5C 73.7588,301.675 88.5922,301.175 103.5,301C 106.167,298 106.167,295 103.5,292C 88.5922,291.825 73.7588,291.325 59,290.5C 57.8259,267.862 63.9925,247.528 77.5,229.5 Z"/></g>
<g><path style="opacity:1" fill="#000000" d="M 506.5,229.5 C 508.792,229.244 510.959,229.577 513,230.5C 525.985,248.447 531.819,268.447 530.5,290.5C 515.845,291.333 501.178,291.833 486.5,292C 482.5,295 482.5,298 486.5,301C 501.573,300.857 516.406,301.691 531,303.5C 531.647,325.222 525.647,344.889 513,362.5C 510.959,363.423 508.792,363.756 506.5,363.5C 504.52,345.202 496.52,330.202 482.5,318.5C 483.337,316.495 484.837,315.495 487,315.5C 495.509,317.107 504.009,317.94 512.5,318C 513.451,318.718 513.617,319.551 513,320.5C 510.5,323.667 508,326.833 505.5,330C 507.027,334.511 509.527,335.344 513,332.5C 517.018,326.429 518.851,319.762 518.5,312.5C 505.496,312.667 492.496,312.5 479.5,312C 474.091,308.351 471.424,303.184 471.5,296.5C 471.424,289.816 474.091,284.649 479.5,281C 492.496,280.5 505.496,280.333 518.5,280.5C 519.229,271.649 516.396,264.316 510,258.5C 507.846,259.32 506.346,260.82 505.5,263C 508,266.167 510.5,269.333 513,272.5C 513.617,273.449 513.451,274.282 512.5,275C 504.009,275.06 495.509,275.893 487,277.5C 484.837,277.505 483.337,276.505 482.5,274.5C 496.52,262.798 504.52,247.798 506.5,229.5 Z"/></g>
<g><path style="opacity:1" fill="#000000" d="M 234.5,232.5 C 237.607,232.351 240.607,232.851 243.5,234C 248.302,240.568 254.635,244.901 262.5,247C 265.467,249.1 267.3,251.934 268,255.5C 268.802,260.419 268.635,265.252 267.5,270C 261.334,269.371 255.167,269.871 249,271.5C 240.489,271.591 235.155,267.591 233,259.5C 228.217,254.448 222.883,250.115 217,246.5C 216.935,243.802 218.102,241.636 220.5,240C 225.126,237.155 229.793,234.655 234.5,232.5 Z"/></g>
<g><path style="opacity:1" fill="#000000" d="M 348.5,232.5 C 357.549,232.94 365.383,236.274 372,242.5C 372.667,244.167 372.667,245.833 372,247.5C 366.438,250.394 361.438,254.061 357,258.5C 354.873,267.128 349.373,271.462 340.5,271.5C 336.346,270.753 332.179,270.086 328,269.5C 322.275,271.456 319.775,269.289 320.5,263C 320.495,258.187 321.661,253.687 324,249.5C 329.215,246.808 334.382,243.975 339.5,241C 341.74,237.257 344.74,234.424 348.5,232.5 Z"/></g>
<g><path style="opacity:1" fill="#000000" d="M 218.5,270.5 C 229.814,268.492 239.147,271.826 246.5,280.5C 257.872,273.431 262.372,276.431 260,289.5C 259.474,292.911 258.641,296.245 257.5,299.5C 259.554,304.391 262.887,308.224 267.5,311C 271.238,313.785 275.404,315.618 280,316.5C 285.226,314.385 290.226,311.719 295,308.5C 299.34,312.086 304.173,314.753 309.5,316.5C 319.362,313.916 327.028,308.416 332.5,300C 329.787,293.086 328.954,285.919 330,278.5C 331.466,276.675 333.299,276.175 335.5,277C 338.211,277.773 340.711,278.94 343,280.5C 350.329,271.39 359.829,268.223 371.5,271C 375.563,273.939 378.563,277.772 380.5,282.5C 374.885,289.617 368.718,296.284 362,302.5C 354.258,313.579 345.758,324.079 336.5,334C 311.815,347.701 286.481,349.034 260.5,338C 256.127,336.287 252.293,333.787 249,330.5C 237.424,314.053 224.424,298.719 210,284.5C 210.505,278.5 213.339,273.833 218.5,270.5 Z"/></g>
<g><path style="opacity:1" fill="#000000" d="M 216.5,310.5 C 221.938,310.479 226.938,311.979 231.5,315C 239.833,327.333 250.167,337.667 262.5,346C 270.715,349.819 279.381,351.485 288.5,351C 290.886,353.707 291.052,356.54 289,359.5C 276.385,375.155 260.885,378.988 242.5,371C 234.882,364.713 228.715,357.213 224,348.5C 224.442,340.524 224.442,332.524 224,324.5C 222.172,322.919 220.172,321.585 218,320.5C 216.684,317.312 216.184,313.978 216.5,310.5 Z"/></g>
<g><path style="opacity:1" fill="#000000" d="M 367.5,310.5 C 369.199,310.34 370.866,310.506 372.5,311C 373.443,313.8 373.276,316.634 372,319.5C 369.372,321.126 367.039,323.126 365,325.5C 365.351,333.817 365.351,342.151 365,350.5C 360.331,357.649 354.831,364.149 348.5,370C 331.046,378.778 315.546,375.945 302,361.5C 299.443,358.488 298.943,355.155 300.5,351.5C 313.132,352.012 324.466,348.512 334.5,341C 343.569,332.601 351.902,323.601 359.5,314C 362.158,312.522 364.825,311.355 367.5,310.5 Z"/></g>
<g><path style="opacity:1" fill="#000000" d="M 123.5,365.5 C 128.785,376.063 134.619,386.396 141,396.5C 147.907,405.798 155.407,414.631 163.5,423C 153.53,433.971 143.197,444.637 132.5,455C 129.262,456.368 125.928,456.701 122.5,456C 109.042,443.214 97.3751,429.047 87.5,413.5C 90.9655,409.203 94.9655,405.37 99.5,402C 102.659,399.767 105.992,398.934 109.5,399.5C 116.876,407.541 123.876,415.874 130.5,424.5C 129.231,428.633 126.564,430.466 122.5,430C 117.732,424.476 112.732,419.143 107.5,414C 105.799,413.655 104.466,414.322 103.5,416C 110.333,423.5 117.167,431 124,438.5C 128.833,433.667 133.667,428.833 138.5,424C 128.856,414.027 120.356,403.194 113,391.5C 112.282,390.549 111.449,390.383 110.5,391C 101.826,396.672 92.8262,401.839 83.5,406.5C 79.471,400.771 76.8043,394.438 75.5,387.5C 91.7968,380.683 107.797,373.35 123.5,365.5 Z"/></g>
<g><path style="opacity:1" fill="#000000" d="M 464.5,365.5 C 481.538,372.519 498.204,380.352 514.5,389C 512.323,395.186 509.49,401.019 506,406.5C 496.504,401.42 487.171,396.086 478,390.5C 469.547,401.954 460.714,413.121 451.5,424C 456.116,428.738 460.616,433.571 465,438.5C 472.761,431.577 479.594,423.911 485.5,415.5C 484.409,414.112 483.076,413.612 481.5,414C 476.657,420.009 471.323,425.509 465.5,430.5C 461.411,429.309 459.578,426.642 460,422.5C 467.206,414.963 474.04,407.129 480.5,399C 483.309,398.82 485.976,399.487 488.5,401C 492.667,404.5 496.833,408 501,411.5C 501.667,412.833 501.667,414.167 501,415.5C 490.965,429.874 479.799,443.374 467.5,456C 464.072,456.701 460.738,456.368 457.5,455C 446.791,444.625 436.457,433.959 426.5,423C 436.75,411.417 446.25,399.251 455,386.5C 459.037,379.888 462.203,372.888 464.5,365.5 Z"/></g>
<g><path style="opacity:1" fill="#000000" d="M 227.5,370.5 C 229.199,370.34 230.866,370.506 232.5,371C 267.328,399.648 304.328,402.982 343.5,381C 348.118,378.05 352.452,374.716 356.5,371C 359.347,370.056 361.847,370.556 364,372.5C 368.724,382.421 368.057,392.087 362,401.5C 355.473,408.68 347.306,412.18 337.5,412C 335.634,419.058 331.968,425.058 326.5,430C 319.677,431.99 312.677,432.99 305.5,433C 301.985,436.682 298.318,440.182 294.5,443.5C 290.682,440.182 287.015,436.682 283.5,433C 266.101,435.657 255.767,428.49 252.5,411.5C 230.41,411.054 220.577,399.721 223,377.5C 224.012,374.798 225.512,372.465 227.5,370.5 Z"/></g>
<g><path style="opacity:1" fill="#000000" d="M 166.5,427.5 C 181.589,439.722 197.923,450.222 215.5,459C 219.021,460.674 222.687,461.84 226.5,462.5C 220.919,479.006 214.752,495.339 208,511.5C 207.612,512.428 206.945,513.095 206,513.5C 199.854,511.843 194.021,509.509 188.5,506.5C 193.336,496.506 197.836,486.506 202,476.5C 190.112,469.278 178.779,461.278 168,452.5C 163.685,457.649 159.185,462.649 154.5,467.5C 161.899,474.402 169.732,480.735 178,486.5C 179.022,485.646 179.855,484.646 180.5,483.5C 174.519,478.687 168.686,473.687 163,468.5C 162.534,464.436 164.367,461.769 168.5,460.5C 175.692,466.192 183.025,471.692 190.5,477C 195.443,481.458 195.609,486.291 191,491.5C 187.966,495.529 184.633,499.196 181,502.5C 165.111,493.551 150.444,482.885 137,470.5C 136.163,466.705 136.496,463.039 138,459.5C 148.079,449.26 157.579,438.593 166.5,427.5 Z"/></g>
<g><path style="opacity:1" fill="#000000" d="M 420.5,427.5 C 424.402,429.893 427.902,432.893 431,436.5C 438,444.167 445,451.833 452,459.5C 453.368,462.738 453.701,466.072 453,469.5C 439.66,483.216 424.494,494.05 407.5,502C 401.405,496.477 397.072,489.81 394.5,482C 403.008,474.338 412.008,467.171 421.5,460.5C 425.589,461.736 427.422,464.403 427,468.5C 421.333,473.167 415.667,477.833 410,482.5C 409.612,484.076 410.112,485.409 411.5,486.5C 419.274,480.86 426.774,474.86 434,468.5C 434.667,467.5 434.667,466.5 434,465.5C 429.667,461.167 425.333,456.833 421,452.5C 410.291,461.772 398.791,469.939 386.5,477C 391.569,486.305 396.236,495.805 400.5,505.5C 399.115,507.705 397.115,509.205 394.5,510C 390.78,511.013 387.114,512.18 383.5,513.5C 376.003,497.157 369.003,480.49 362.5,463.5C 384.475,455.525 403.808,443.525 420.5,427.5 Z"/></g>
<g><path style="opacity:1" fill="#000000" d="M 288.5,471.5 C 296.75,470.096 303.916,472.096 310,477.5C 310.176,491.075 310.676,504.575 311.5,518C 318.707,518.044 325.374,516.044 331.5,512C 333.267,508.576 332.267,506.41 328.5,505.5C 325.187,507.164 322.187,509.33 319.5,512C 318.216,512.684 317.049,512.517 316,511.5C 316.054,502.827 315.22,494.16 313.5,485.5C 314.48,484.019 315.647,482.685 317,481.5C 327.729,495.453 341.896,503.62 359.5,506C 362.193,508.905 361.86,511.571 358.5,514C 340.963,525.677 321.629,531.177 300.5,530.5C 300.667,516.496 300.5,502.496 300,488.5C 298.923,483.885 296.09,482.385 291.5,484C 290.874,484.75 290.374,485.584 290,486.5C 289.825,501.075 289.325,515.575 288.5,530C 266.849,531.228 247.183,525.561 229.5,513C 227.771,511.211 227.104,509.044 227.5,506.5C 240.092,505.028 251.426,500.528 261.5,493C 274.279,477.482 278.279,479.482 273.5,499C 276.092,503.185 276.092,507.352 273.5,511.5C 272.277,512.614 270.944,512.781 269.5,512C 267.225,509.052 264.391,506.886 261,505.5C 255.986,507.311 255.486,509.811 259.5,513C 265.345,516.535 271.678,518.369 278.5,518.5C 278.333,505.496 278.5,492.496 279,479.5C 281.161,475.495 284.328,472.829 288.5,471.5 Z"/></g>
</svg>
