<?xml version="1.0" encoding="UTF-8"?>
<!DOCTYPE svg PUBLIC "-//W3C//DTD SVG 1.1//EN" "http://www.w3.org/Graphics/SVG/1.1/DTD/svg11.dtd">
<svg xmlns="http://www.w3.org/2000/svg" version="1.1" width="580px" height="580px" style="shape-rendering:geometricPrecision; text-rendering:geometricPrecision; image-rendering:optimizeQuality; fill-rule:evenodd; clip-rule:evenodd" xmlns:xlink="http://www.w3.org/1999/xlink">
<g><path style="opacity:1" fill="#201313" d="M 270.5,27.5 C 275.959,27.1033 281.292,27.6033 286.5,29C 295.371,38.202 303.871,47.702 312,57.5C 319.061,67.5644 325.727,77.8978 332,88.5C 342.453,107.976 347.287,128.81 346.5,151C 347.287,168.015 343.454,183.849 335,198.5C 319.252,214.761 301.086,217.928 280.5,208C 265.268,195.571 261.768,180.404 270,162.5C 274.594,155.904 280.427,150.738 287.5,147C 292.5,146.333 297.5,146.333 302.5,147C 303.308,147.308 303.975,147.808 304.5,148.5C 299.536,151.653 294.536,154.819 289.5,158C 282.271,164.033 280.771,171.199 285,179.5C 298.62,186.376 308.62,182.709 315,168.5C 322.605,151.588 322.272,134.921 314,118.5C 306.3,110.164 297.8,109.331 288.5,116C 286,118.5 283.5,121 281,123.5C 277.152,129.869 273.319,136.202 269.5,142.5C 268.277,131.276 269.444,120.276 273,109.5C 278.752,100.328 284.752,91.328 291,82.5C 291.667,72.1667 291.667,61.8333 291,51.5C 290,49.1667 289,46.8333 288,44.5C 282.885,37.8822 277.052,32.2156 270.5,27.5 Z"/></g>
<g><path style="opacity:1" fill="#201313" d="M 177.5,73.5 C 179.5,73.5 181.5,73.5 183.5,73.5C 183.473,83.9922 184.64,94.3255 187,104.5C 188.458,106.96 190.291,109.127 192.5,111C 200.711,116.276 208.377,122.276 215.5,129C 225.072,137.897 232.239,148.397 237,160.5C 238.39,173.47 233.224,182.97 221.5,189C 212.06,192.285 203.894,190.452 197,183.5C 194.978,181.031 195.145,178.865 197.5,177C 210.53,177.3 215.363,171.134 212,158.5C 211.529,156.754 210.862,155.087 210,153.5C 203.865,148.366 198.031,142.866 192.5,137C 184.39,133.814 178.223,135.98 174,143.5C 168.972,151.259 167.306,159.592 169,168.5C 172.828,179.347 178.995,188.514 187.5,196C 191.072,198.637 195.072,200.303 199.5,201C 205.798,202.162 212.131,202.995 218.5,203.5C 216.254,209.791 212.587,215.291 207.5,220C 188.998,220.5 172.831,214.667 159,202.5C 152.356,190.378 149.522,177.378 150.5,163.5C 149.826,146.024 154.326,130.024 164,115.5C 166.032,104.341 168.698,93.3413 172,82.5C 173.343,79.1381 175.176,76.1381 177.5,73.5 Z"/></g>
<g><path style="opacity:1" fill="#201413" d="M 403.5,87.5 C 407.217,88.5274 410.55,90.3607 413.5,93C 424.129,102.291 433.296,112.791 441,124.5C 444.5,130.498 447.167,136.831 449,143.5C 449.333,160.167 449.667,176.833 450,193.5C 453.078,201.929 454.078,210.596 453,219.5C 446.916,233.253 436.749,242.42 422.5,247C 401.474,247.983 389.474,237.983 386.5,217C 387.77,205.407 393.437,196.741 403.5,191C 408.494,188.682 413.161,189.016 417.5,192C 412.661,196.506 408.161,201.339 404,206.5C 401.176,216.688 404.843,223.354 415,226.5C 417.245,225.863 419.412,225.03 421.5,224C 428.239,217.357 433.073,209.524 436,200.5C 438.341,176.5 427.841,167 404.5,172C 400.835,173.497 397.502,175.497 394.5,178C 384.502,190.85 376.835,205.017 371.5,220.5C 365.026,209.609 362.859,197.943 365,185.5C 377.005,168.42 392.172,154.92 410.5,145C 415.534,141.073 417.534,135.907 416.5,129.5C 416.588,114.747 411.255,102.414 400.5,92.5C 401.26,90.6396 402.26,88.973 403.5,87.5 Z"/></g>
<g><path style="opacity:1" fill="#201414" d="M 107.5,163.5 C 110.063,165.612 111.896,168.279 113,171.5C 113.731,182.231 116.064,192.565 120,202.5C 128.215,213.38 138.715,221.213 151.5,226C 162.056,233.944 166.39,244.444 164.5,257.5C 163.325,257.719 162.325,257.386 161.5,256.5C 155.33,247.508 146.997,241.341 136.5,238C 122.119,235.871 113.786,242.037 111.5,256.5C 116.241,278.031 128.908,285.198 149.5,278C 152.372,275.463 154.872,272.63 157,269.5C 157.667,277.5 157.667,285.5 157,293.5C 147.022,298.206 136.522,299.706 125.5,298C 122.382,296.941 119.382,295.608 116.5,294C 102.65,280.493 92.4837,264.66 86,246.5C 84.8856,237.99 85.5523,229.656 88,221.5C 93,214.5 98,207.5 103,200.5C 103.95,188.049 105.45,175.716 107.5,163.5 Z"/></g>
<g><path style="opacity:1" fill="#1f1313" d="M 249.5,215.5 C 252.941,215.301 256.274,215.801 259.5,217C 266.524,221.513 273.191,226.513 279.5,232C 289.912,237.68 300.912,239.347 312.5,237C 320.906,234.531 329.239,231.865 337.5,229C 352.524,225.358 359.024,231.192 357,246.5C 359.303,253.139 363.469,258.306 369.5,262C 380.646,265.473 389.146,272.307 395,282.5C 415.932,327.809 403.432,360.309 357.5,380C 349.96,382.68 342.293,383.846 334.5,383.5C 333.353,381.235 333.186,378.902 334,376.5C 339.193,367.925 343.027,358.758 345.5,349C 344.318,343.133 342.151,337.633 339,332.5C 333.791,325.966 328.624,319.466 323.5,313C 323.439,311.289 324.106,309.956 325.5,309C 334.006,307.161 340.173,302.328 344,294.5C 344.985,276.017 344.652,257.683 343,239.5C 328.441,240.446 316.441,246.446 307,257.5C 299.368,268.528 296.535,280.694 298.5,294C 298.097,295.473 297.43,296.806 296.5,298C 279.361,295.695 263.361,299.028 248.5,308C 231.242,320.484 211.908,325.817 190.5,324C 186.807,321.474 182.807,320.14 178.5,320C 175.47,324.134 173.804,328.801 173.5,334C 174.332,343.162 177.165,351.662 182,359.5C 190.261,370.517 199.761,380.35 210.5,389C 224.903,397.592 240.403,401.092 257,399.5C 257.667,403.167 257.667,406.833 257,410.5C 245.473,417.198 238.64,427.198 236.5,440.5C 235.562,441.553 234.395,442.22 233,442.5C 215.723,435.944 198.89,428.444 182.5,420C 170.544,410.381 160.377,399.215 152,386.5C 145.886,372.104 143.886,357.104 146,341.5C 146.524,333.876 148.191,326.543 151,319.5C 152.167,318.333 153.333,317.167 154.5,316C 159.122,314.573 163.455,312.573 167.5,310C 175.072,303.099 181.905,295.599 188,287.5C 191.318,271.978 192.651,256.311 192,240.5C 192.956,239.106 194.289,238.439 196,238.5C 198.38,239.201 200.547,240.367 202.5,242C 208.833,242.667 215.167,242.667 221.5,242C 231.031,233.3 240.365,224.467 249.5,215.5 Z M 257.5,230.5 C 258.79,231.058 259.623,232.058 260,233.5C 263.317,250.451 268.817,266.618 276.5,282C 276.241,283.261 275.574,284.261 274.5,285C 256.44,295.97 242.607,292.137 233,273.5C 229.589,263.129 231.589,253.796 239,245.5C 244.776,239.878 250.942,234.878 257.5,230.5 Z"/></g>
<g><path style="opacity:1" fill="#201413" d="M 421.5,488.5 C 422.803,485.645 422.803,482.645 421.5,479.5C 420.893,479.624 420.56,479.957 420.5,480.5C 414.072,482.793 407.405,483.793 400.5,483.5C 402.725,497.432 398.725,509.266 388.5,519C 392.356,520.103 396.356,520.936 400.5,521.5C 393.472,530.102 384.638,536.102 374,539.5C 353.861,546.264 333.361,547.764 312.5,544C 293.187,537.677 278.353,525.844 268,508.5C 265.283,498.528 263.783,488.361 263.5,478C 264.108,466.111 265.274,454.277 267,442.5C 272.307,440.798 277.307,441.464 282,444.5C 283.426,439.948 284.426,435.281 285,430.5C 285.806,427.554 287.139,424.888 289,422.5C 301.286,410.107 316.12,402.607 333.5,400C 344.186,398.858 354.853,398.191 365.5,398C 382.509,390.988 397.342,380.821 410,367.5C 417.039,352.695 425.373,338.695 435,325.5C 446.707,313.731 460.874,306.897 477.5,305C 486.167,304.333 494.833,304.333 503.5,305C 519.547,307.366 527.047,316.532 526,332.5C 523.826,337.862 522.493,337.529 522,331.5C 515.792,323.655 507.959,321.489 498.5,325C 482.775,331.606 476.275,343.44 479,360.5C 480.085,359.707 481.252,359.04 482.5,358.5C 483.896,360.972 484.73,363.638 485,366.5C 487.07,387.675 484.737,408.342 478,428.5C 473.746,451.856 462.246,470.69 443.5,485C 434.326,491.423 424.66,497.09 414.5,502C 412.26,502.977 409.927,503.477 407.5,503.5C 407.146,500.579 408.146,498.246 410.5,496.5C 413.703,493.078 417.37,490.411 421.5,488.5 Z M 447.5,344.5 C 452.987,346.138 454.82,349.805 453,355.5C 450,358.833 447,362.167 444,365.5C 442.452,369.525 441.619,373.692 441.5,378C 442.87,384.902 442.703,391.735 441,398.5C 438.704,395.612 437.538,396.112 437.5,400C 437.189,404.472 439.189,406.139 443.5,405C 446.865,401.739 449.865,398.239 452.5,394.5C 453.666,406.82 453.833,419.153 453,431.5C 450.803,438.703 446.636,444.537 440.5,449C 430.831,457.25 419.664,462.084 407,463.5C 403.29,463.048 399.623,462.382 396,461.5C 371.038,434.837 346.038,434.837 321,461.5C 313.698,474.029 314.031,486.362 322,498.5C 331.159,505.265 341.326,507.432 352.5,505C 354.329,503.887 355.163,502.387 355,500.5C 349.668,498.003 344.668,495.003 340,491.5C 334.525,482.896 336.359,476.062 345.5,471C 352.381,466.557 359.714,465.557 367.5,468C 370.171,469.25 372.337,471.083 374,473.5C 376.889,478.609 379.222,483.943 381,489.5C 382.62,497.302 380.953,504.302 376,510.5C 362.109,526.247 344.609,533.414 323.5,532C 302.689,525.59 291.523,511.424 290,489.5C 289.154,454.341 304.654,429.508 336.5,415C 345.583,411.146 354.25,411.813 362.5,417C 373.329,419.034 383.329,417.034 392.5,411C 398.313,405.925 404.646,401.592 411.5,398C 415,395.167 418.167,392 421,388.5C 426.108,378.515 430.441,368.181 434,357.5C 437.076,351.589 441.576,347.255 447.5,344.5 Z"/></g>
<g><path style="opacity:1" fill="#221615" d="M 270.5,320.5 C 280.104,319.717 289.437,320.884 298.5,324C 305.114,326.445 309.448,330.945 311.5,337.5C 305.222,335.847 298.889,334.347 292.5,333C 286.5,332.333 280.5,332.333 274.5,333C 271.215,333.759 268.215,335.092 265.5,337C 262.954,340.59 260.787,344.423 259,348.5C 254.824,354.112 249.324,355.945 242.5,354C 238.762,352.601 237.096,349.934 237.5,346C 239.429,337.387 244.429,331.054 252.5,327C 258.299,323.918 264.299,321.752 270.5,320.5 Z"/></g>
<g><path style="opacity:1" fill="#201313" d="M 68.5,336.5 C 70.7925,336.244 72.9592,336.577 75,337.5C 87.8583,366.007 105.692,390.84 128.5,412C 132.898,415.394 137.565,418.394 142.5,421C 155.046,425.638 167.713,429.971 180.5,434C 204.923,442.451 224.757,456.951 240,477.5C 246.585,490.054 246.919,502.72 241,515.5C 234.994,523.667 228.827,531.667 222.5,539.5C 222.167,538.5 221.833,537.5 221.5,536.5C 222.582,527.521 222.749,518.521 222,509.5C 217.882,523.59 210.382,535.423 199.5,545C 188.313,551.481 176.647,552.648 164.5,548.5C 163.167,547.5 163.167,546.5 164.5,545.5C 175.092,538.076 184.925,529.742 194,520.5C 198.473,515.223 201.639,509.223 203.5,502.5C 203.167,501.833 202.833,501.167 202.5,500.5C 195.826,503.668 190.159,508.168 185.5,514C 169.966,526.965 152.299,530.965 132.5,526C 126.44,524.136 120.774,521.47 115.5,518C 112.946,515.602 112.946,513.269 115.5,511C 135.926,510.061 155.259,505.061 173.5,496C 177.358,493.642 180.358,490.475 182.5,486.5C 181.617,483.675 180.45,481.008 179,478.5C 160.131,490.674 139.631,494.507 117.5,490C 104.825,486.779 93.1578,481.446 82.5,474C 70.8762,464.713 61.0429,453.88 53,441.5C 52.1859,439.098 52.3526,436.765 53.5,434.5C 54.4461,434.013 55.4461,433.68 56.5,433.5C 81.2372,451.302 108.904,460.969 139.5,462.5C 149.235,462.621 158.568,460.954 167.5,457.5C 155.846,454.999 144.179,452.165 132.5,449C 106.611,439.439 86.444,422.939 72,399.5C 69.2578,394.867 67.5911,389.867 67,384.5C 66.0826,368.441 66.5826,352.441 68.5,336.5 Z"/></g>
<g><path style="opacity:1" fill="#cbc5be" d="M 420.5,480.5 C 420.56,479.957 420.893,479.624 421.5,479.5C 422.803,482.645 422.803,485.645 421.5,488.5C 421.806,485.615 421.473,482.948 420.5,480.5 Z"/></g>
</svg>
